const unsigned char dumpbc[41010]={
0x49,0x46,0x00,0x00,0xff,0xff,0xff,0xff,0xff,0xff,0xff,0xff,0xff,0xff,0xff,0xff,
0xff,0xff,0xff,0xff,0xff,0xff,0xff,0xff,0xff,0xff,0xff,0xff,0x08,0x00,0x00,0x00,
0x7a,0x0c,0x00,0x00,0xff,0xff,0xff,0xff,0x11,0x00,0x00,0x00,0x00,0x00,0x00,0x00,
0x11,0x00,0x00,0x00,0xff,0xff,0xff,0x00,0x11,0x00,0x00,0x00,0x00,0x00,0x00,0x00,
0x11,0x00,0x00,0x00,0x00,0x00,0x00,0x00,0xff,0xff,0xff,0xff,0x19,0x00,0x00,0x00,
0xff,0xff,0xff,0xff,0xff,0xff,0x11,0x00,0x00,0x00,0xff,0xff,0xff,0xff,0x00,0x00,
0x00,0x00,0x11,0x00,0x00,0x00,0x00,0x00,0x00,0x00,0x11,0x00,0x00,0x00,0xc0,0xa8,
0x02,0x01,0x11,0x00,0x00,0x00,0xff,0xff,0xff,0x00,0x11,0x00,0x00,0x00,0xc0,0xa8,
0x00,0x01,0xff,0xff,0xff,0xff,0x00,0x00,0x00,0x00,0x02,0x00,0x00,0x00,0x04,0x00,
0x00,0x00,0x06,0x00,0x00,0x00,0x08,0x00,0x00,0x00,0x00,0x00,0x00,0x00,0x02,0x00,
0x00,0x00,0x1e,0x02,0x02,0x00,0x05,0x00,0x00,0x00,0x2e,0x05,0x00,0x00,0x00,0x2e,
0x05,0x00,0x00,0x00,0x2e,0x05,0x00,0x00,0x00,0x2e,0x05,0x00,0x00,0x00,0x3a,0x05,
0x00,0x00,0x00,0x2e,0x01,0x00,0x00,0x00,0x05,0x00,0x00,0x00,0x2e,0x01,0x00,0x00,
0x00,0x05,0x00,0x00,0x00,0x2e,0x01,0x00,0x00,0x00,0x05,0x00,0x00,0x00,0x20,0x09,
0x00,0x00,0x00,0x20,0x20,0x05,0x00,0x00,0x00,0x20,0x05,0x00,0x00,0x00,0x20,0x09,
0x00,0x00,0x00,0x20,0x20,0x05,0x00,0x00,0x00,0x2e,0x01,0x00,0x00,0x00,0x41,0x00,
0x00,0x00,0x23,0x23,0x20,0x44,0x55,0x4d,0x50,0x53,0x43,0x41,0x4e,0x20,0x3e,0x3e,
0x3e,0x3e,0x21,0x00,0x00,0x00,0x23,0x23,0x20,0x53,0x43,0x41,0x4e,0x20,0x11,0x00,
0x00,0x00,0x6d,0x61,0x63,0x3a,0x19,0x00,0x00,0x00,0x62,0x73,0x73,0x69,0x64,0x3a,
0x15,0x00,0x00,0x00,0x72,0x73,0x73,0x69,0x3a,0x21,0x00,0x00,0x00,0x63,0x68,0x61,
0x6e,0x6e,0x65,0x6c,0x3a,0x21,0x00,0x00,0x00,0x72,0x61,0x74,0x65,0x73,0x65,0x74,
0x3a,0x2d,0x00,0x00,0x00,0x65,0x6e,0x63,0x72,0x79,0x70,0x74,0x69,0x6f,0x6e,0x3a,
0x00,0x00,0x00,0x00,0x52,0x00,0x00,0x00,0x54,0x00,0x00,0x00,0x5c,0x00,0x00,0x00,
0x64,0x00,0x00,0x00,0x6c,0x00,0x00,0x00,0x74,0x00,0x00,0x00,0xb4,0x00,0x00,0x00,
0xb6,0x00,0x00,0x00,0xb8,0x00,0x00,0x00,0x38,0x01,0x00,0x00,0x3a,0x01,0x00,0x00,
0x42,0x01,0x00,0x00,0x46,0x01,0x00,0x00,0x52,0x01,0x00,0x00,0x5e,0x01,0x00,0x00,
0x9e,0x01,0x00,0x00,0xa0,0x01,0x00,0x00,0xff,0xff,0xff,0xff,0x55,0x00,0x00,0x00,
0x23,0x23,0x20,0x73,0x61,0x76,0x65,0x20,0x63,0x6f,0x6e,0x66,0x69,0x67,0x75,0x72,
0x61,0x74,0x69,0x6f,0x6e,0x21,0x00,0x00,0x00,0x63,0x6f,0x6e,0x66,0x2e,0x62,0x69,
0x6e,0x21,0x00,0x00,0x00,0x63,0x6f,0x6e,0x66,0x2e,0x62,0x69,0x6e,0x05,0x00,0x00,
0x00,0x00,0x02,0x00,0x00,0x00,0x04,0x00,0x00,0x00,0xff,0xff,0xff,0xff,0xff,0xff,
0xff,0xff,0x3d,0x00,0x00,0x00,0xaa,0xaa,0x03,0x00,0x00,0x00,0x08,0x06,0x00,0x01,
0x08,0x00,0x06,0x04,0x00,0x4d,0x00,0x00,0x00,0x66,0x6f,0x75,0x6e,0x64,0x20,0x4d,
0x41,0x43,0x20,0x74,0x61,0x72,0x67,0x65,0x74,0x20,0x3a,0x20,0x09,0x00,0x00,0x00,
0x3c,0x61,0x31,0x00,0x00,0x00,0x74,0x65,0x73,0x74,0x20,0x73,0x75,0x62,0x6e,0x65,
0x74,0x20,0x51,0x00,0x00,0x00,0xaa,0xaa,0x03,0x00,0x00,0x00,0x08,0x00,0x45,0x00,
0x00,0x00,0x00,0x00,0x00,0x00,0x64,0x11,0x00,0x00,0x21,0x00,0x00,0x00,0x00,0x00,
0x00,0x00,0x00,0x00,0x00,0x00,0x09,0x00,0x00,0x00,0x00,0x11,0x09,0x00,0x00,0x00,
0x3e,0x75,0xff,0xff,0xff,0xff,0x09,0x00,0x00,0x00,0x3c,0x75,0x02,0x00,0x00,0x00,
0x04,0x00,0x00,0x00,0x08,0x00,0x00,0x00,0x10,0x00,0x00,0x00,0x20,0x00,0x00,0x00,
0x40,0x00,0x00,0x00,0xfe,0xff,0xff,0xff,0x00,0x00,0x00,0x00,0x02,0x00,0x00,0x00,
0x04,0x00,0x00,0x00,0x06,0x00,0x00,0x00,0x11,0x00,0x00,0x00,0x00,0x00,0x01,0x00,
0x11,0x00,0x00,0x00,0x00,0x00,0x00,0x00,0x00,0x00,0x00,0x00,0x02,0x00,0x00,0x00,
0xfe,0xff,0xff,0xff,0x04,0x00,0x00,0x00,0x00,0x08,0x00,0x00,0x51,0x00,0x00,0x00,
0xaa,0xaa,0x03,0x00,0x00,0x00,0x08,0x00,0x45,0x00,0x00,0x00,0x00,0x00,0x00,0x00,
0x64,0x06,0x00,0x00,0x11,0x00,0x00,0x00,0x00,0x00,0x00,0x00,0x21,0x00,0x00,0x00,
0x00,0x00,0xff,0xff,0x00,0x00,0x00,0x00,0x11,0x00,0x00,0x00,0x02,0x04,0x05,0xb4,
0x09,0x00,0x00,0x00,0x00,0x06,0xff,0xff,0xff,0xff,0xff,0xff,0xff,0xff,0x31,0x00,
0x00,0x00,0x23,0x23,0x20,0x73,0x65,0x6e,0x64,0x63,0x6c,0x6f,0x73,0x65,0x05,0x00,
0x00,0x00,0x74,0x15,0x00,0x00,0x00,0x73,0x74,0x73,0x79,0x6e,0x25,0x00,0x00,0x00,
0x23,0x23,0x62,0x61,0x64,0x20,0x61,0x63,0x6b,0x15,0x00,0x00,0x00,0x23,0x23,0x62,
0x73,0x2f,0x15,0x00,0x00,0x00,0x53,0x54,0x46,0x49,0x4e,0x02,0x00,0x00,0x00,0x04,
0x00,0x00,0x00,0x06,0x00,0x00,0x00,0x08,0x00,0x00,0x00,0x0a,0x00,0x00,0x00,0x0d,
0x00,0x00,0x00,0x01,0x01,0x06,0x19,0x00,0x00,0x00,0x63,0x82,0x53,0x63,0x35,0x01,
0x0d,0x00,0x00,0x00,0x3d,0x07,0x01,0x39,0x00,0x00,0x00,0x0c,0x07,0x50,0x61,0x62,
0x63,0x64,0x65,0x66,0x37,0x03,0x01,0x03,0x06,0x09,0x00,0x00,0x00,0x36,0x04,0x09,
0x00,0x00,0x00,0x32,0x04,0x05,0x00,0x00,0x00,0xff,0x05,0x00,0x00,0x00,0xff,0x0d,
0x00,0x00,0x00,0x02,0x01,0x06,0x19,0x00,0x00,0x00,0x63,0x82,0x53,0x63,0x35,0x01,
0x09,0x00,0x00,0x00,0x36,0x04,0x21,0x00,0x00,0x00,0x33,0x04,0x00,0x01,0x51,0x80,
0x01,0x04,0x09,0x00,0x00,0x00,0x03,0x04,0x09,0x00,0x00,0x00,0x06,0x04,0x1d,0x00,
0x00,0x00,0x0f,0x04,0x68,0x6f,0x6d,0x65,0xff,0x15,0x00,0x00,0x00,0x3c,0x64,0x68,
0x63,0x70,0x51,0x00,0x00,0x00,0x3e,0x3e,0x3e,0x3e,0x3e,0x3e,0x3e,0x3e,0x3e,0x3e,
0x3e,0x3e,0x3e,0x3e,0x3e,0x4f,0x46,0x46,0x45,0x52,0x49,0x00,0x00,0x00,0x3e,0x3e,
0x3e,0x3e,0x3e,0x3e,0x3e,0x3e,0x3e,0x3e,0x3e,0x3e,0x3e,0x3e,0x3e,0x41,0x43,0x4b,
0x29,0x00,0x00,0x00,0x73,0x65,0x72,0x76,0x65,0x72,0x20,0x20,0x20,0x20,0x29,0x00,
0x00,0x00,0x69,0x70,0x20,0x20,0x20,0x20,0x20,0x20,0x20,0x20,0x29,0x00,0x00,0x00,
0x74,0x79,0x70,0x65,0x20,0x20,0x20,0x20,0x20,0x20,0x29,0x00,0x00,0x00,0x6c,0x65,
0x61,0x73,0x65,0x74,0x69,0x6d,0x65,0x20,0x29,0x00,0x00,0x00,0x73,0x75,0x62,0x6d,
0x61,0x73,0x6b,0x20,0x20,0x20,0x29,0x00,0x00,0x00,0x64,0x6e,0x73,0x20,0x20,0x20,
0x20,0x20,0x20,0x20,0x29,0x00,0x00,0x00,0x67,0x61,0x74,0x65,0x77,0x61,0x79,0x20,
0x20,0x20,0x15,0x00,0x00,0x00,0x3c,0x64,0x68,0x63,0x70,0x5d,0x00,0x00,0x00,0x3e,
0x3e,0x3e,0x3e,0x3e,0x3e,0x3e,0x3e,0x3e,0x3e,0x3e,0x3e,0x3e,0x3e,0x3e,0x44,0x49,
0x53,0x43,0x4f,0x56,0x45,0x52,0x59,0x00,0x00,0x00,0x3e,0x3e,0x3e,0x3e,0x3e,0x3e,
0x3e,0x3e,0x3e,0x3e,0x3e,0x3e,0x3e,0x3e,0x3e,0x52,0x45,0x51,0x55,0x45,0x53,0x54,
0x11,0x00,0x00,0x00,0x00,0x00,0x00,0x00,0x09,0x00,0x00,0x00,0x6e,0x20,0x05,0x00,
0x00,0x00,0x00,0x05,0x00,0x00,0x00,0x00,0x05,0x00,0x00,0x00,0x2e,0x05,0x00,0x00,
0x00,0x2e,0x05,0x00,0x00,0x00,0x2e,0x05,0x00,0x00,0x00,0x2e,0x29,0x00,0x00,0x00,
0x01,0x00,0x00,0x01,0x00,0x00,0x00,0x00,0x00,0x00,0x15,0x00,0x00,0x00,0x00,0x00,
0x01,0x00,0x01,0x00,0x00,0x00,0x00,0xff,0xff,0xff,0xff,0xff,0xff,0xff,0xff,0x00,
0x00,0x00,0x00,0x02,0x00,0x00,0x00,0x04,0x00,0x00,0x00,0x00,0x00,0x00,0x00,0x02,
0x00,0x00,0x00,0x04,0x00,0x00,0x00,0xff,0xff,0xff,0xff,0x11,0x00,0x00,0x00,0x0d,
0x0a,0x0d,0x0a,0x1d,0x00,0x00,0x00,0x68,0x74,0x74,0x70,0x3a,0x2f,0x2f,0x05,0x00,
0x00,0x00,0x2f,0x05,0x00,0x00,0x00,0x3a,0x05,0x00,0x00,0x00,0x2f,0x85,0x00,0x00,
0x00,0x66,0x6f,0x75,0x6e,0x64,0x20,0x69,0x70,0x3e,0x3e,0x3e,0x3e,0x3e,0x3e,0x3e,
0x3e,0x3e,0x3e,0x3e,0x3e,0x3e,0x3e,0x3e,0x3e,0x3e,0x3e,0x3e,0x3e,0x3e,0x3e,0x3e,
0x3e,0x3e,0x1d,0x00,0x00,0x00,0x68,0x74,0x74,0x70,0x3a,0x2f,0x2f,0x05,0x00,0x00,
0x00,0x3a,0x05,0x00,0x00,0x00,0x20,0x11,0x01,0x00,0x00,0x20,0x48,0x54,0x54,0x50,
0x2f,0x31,0x2e,0x30,0x0d,0x0a,0x55,0x73,0x65,0x72,0x2d,0x41,0x67,0x65,0x6e,0x74,
0x3a,0x20,0x4d,0x54,0x4c,0x0d,0x0a,0x50,0x72,0x61,0x67,0x6d,0x61,0x3a,0x20,0x6e,
0x6f,0x2d,0x63,0x61,0x63,0x68,0x65,0x0d,0x0a,0x49,0x63,0x79,0x2d,0x4d,0x65,0x74,
0x61,0x44,0x61,0x74,0x61,0x3a,0x31,0x0d,0x0a,0x48,0x6f,0x73,0x74,0x3a,0x20,0x09,
0x00,0x00,0x00,0x0d,0x0a,0x09,0x00,0x00,0x00,0x0d,0x0a,0x41,0x00,0x00,0x00,0x43,
0x6f,0x6e,0x74,0x65,0x6e,0x74,0x2d,0x6c,0x65,0x6e,0x67,0x74,0x68,0x3a,0x20,0x11,
0x00,0x00,0x00,0x0d,0x0a,0x0d,0x0a,0x11,0x00,0x00,0x00,0x0d,0x0a,0x0d,0x0a,0xff,
0xff,0xff,0xff,0x00,0x00,0x00,0x00,0xff,0xff,0xff,0xff,0xff,0xff,0xff,0xff,0xff,
0xff,0xff,0xff,0x05,0x00,0x00,0x00,0x21,0x2d,0x00,0x00,0x00,0x6d,0x6b,0x72,0x69,
0x66,0x66,0x20,0x6c,0x65,0x6e,0x3d,0x11,0x00,0x00,0x00,0x52,0x49,0x46,0x46,0x81,
0x00,0x00,0x00,0x57,0x41,0x56,0x45,0x66,0x6d,0x74,0x20,0x14,0x00,0x00,0x00,0x11,
0x00,0x01,0x00,0x40,0x1f,0x00,0x00,0xd7,0x0f,0x00,0x00,0x00,0x01,0x04,0x00,0x02,
0x00,0xf9,0x01,0x21,0x00,0x00,0x00,0x66,0x61,0x63,0x74,0x04,0x00,0x00,0x00,0x11,
0x00,0x00,0x00,0x64,0x61,0x74,0x61,0x19,0x00,0x00,0x00,0x72,0x65,0x63,0x6f,0x72,
0x64,0x00,0x00,0x00,0x00,0x02,0x00,0x00,0x00,0x04,0x00,0x00,0x00,0x00,0x71,0x02,
0x00,0x00,0x35,0x0c,0x00,0xe8,0x03,0x00,0x00,0x20,0x4e,0x00,0x00,0xff,0xff,0xff,
0xff,0x00,0x00,0x00,0x00,0xff,0xff,0xff,0xff,0xff,0xff,0xff,0xff,0xff,0xff,0xff,
0xff,0xff,0xff,0xff,0xff,0xff,0xff,0xff,0xff,0xff,0xff,0xff,0xff,0xff,0xff,0xff,
0xff,0xff,0xff,0xff,0xff,0x00,0x00,0x00,0x00,0x29,0x00,0x00,0x00,0x23,0x23,0x23,
0x77,0x61,0x76,0x73,0x74,0x6f,0x70,0x4d,0x00,0x00,0x00,0x23,0x23,0x23,0x77,0x61,
0x76,0x20,0x64,0x65,0x74,0x65,0x63,0x74,0x65,0x64,0x20,0x65,0x6e,0x64,0x71,0x00,
0x00,0x00,0x3e,0x3e,0x3e,0x3e,0x62,0x75,0x66,0x66,0x65,0x72,0x69,0x6e,0x67,0x2e,
0x2e,0x2e,0x2e,0x2e,0x2e,0x2e,0x2e,0x2e,0x2e,0x2e,0x2e,0x2e,0x2e,0x2e,0xa5,0x00,
0x00,0x00,0x3e,0x3e,0x3e,0x3e,0x3e,0x3e,0x3e,0x3e,0x3e,0x3e,0x3e,0x3e,0x3e,0x3e,
0x3e,0x3e,0x3e,0x3e,0x3e,0x3e,0x3e,0x3e,0x3e,0x3e,0x3e,0x3e,0x3e,0x3e,0x3e,0x3c,
0x65,0x6e,0x64,0x20,0x6f,0x66,0x20,0x66,0x69,0x6c,0x65,0x61,0x00,0x00,0x00,0x0a,
0x3e,0x3e,0x3e,0x3e,0x3e,0x3e,0x3e,0x3e,0x3e,0x3e,0x3e,0x3e,0x3e,0x3e,0x68,0x74,
0x74,0x70,0x20,0x77,0x61,0x69,0x74,0x0d,0x00,0x00,0x00,0x47,0x45,0x54,0x45,0x00,
0x00,0x00,0x23,0x23,0x23,0x23,0x77,0x61,0x76,0x68,0x74,0x74,0x70,0x20,0x61,0x62,
0x6f,0x72,0x74,0x00,0x00,0x00,0x00,0x02,0x00,0x00,0x00,0x04,0x00,0x00,0x00,0x06,
0x00,0x00,0x00,0x22,0x00,0x00,0x00,0xa0,0x0f,0x00,0x00,0x04,0x00,0x00,0x00,0xff,
0xff,0xff,0xff,0xff,0xff,0xff,0xff,0xff,0xff,0xff,0xff,0xff,0xff,0xff,0xff,0xff,
0xff,0xff,0xff,0x21,0x00,0x00,0x00,0x65,0x61,0x72,0x52,0x65,0x73,0x65,0x74,0x21,
0x00,0x00,0x00,0x6e,0x65,0x77,0x20,0x76,0x61,0x6c,0x20,0x39,0x00,0x00,0x00,0x41,
0x63,0x71,0x75,0x69,0x73,0x69,0x74,0x69,0x6f,0x6e,0x20,0x3a,0x20,0x09,0x00,0x00,
0x00,0x2c,0x20,0x21,0x00,0x00,0x00,0x62,0x72,0x6f,0x6b,0x65,0x6e,0x20,0x3a,0x1d,
0x00,0x00,0x00,0x65,0x61,0x72,0x53,0x74,0x6f,0x70,0x19,0x00,0x00,0x00,0x65,0x61,
0x72,0x47,0x6f,0x20,0x25,0x00,0x00,0x00,0x20,0x62,0x72,0x6f,0x6b,0x65,0x6e,0x20,
0x21,0x19,0x00,0x00,0x00,0x65,0x61,0x72,0x47,0x6f,0x20,0x11,0x00,0x00,0x00,0x20,
0x74,0x6f,0x20,0x15,0x00,0x00,0x00,0x20,0x64,0x69,0x72,0x20,0xff,0xff,0xff,0xff,
0xff,0xff,0xff,0xff,0x43,0x00,0x00,0x00,0x00,0x00,0x00,0x00,0x00,0x00,0xfe,0x01,
0x00,0xfe,0x01,0x00,0x00,0xfe,0xff,0x01,0xfe,0x01,0x00,0x00,0xfe,0x01,0xfe,0x01,
0xfe,0xff,0x01,0x00,0xfe,0xff,0xff,0x01,0x00,0x01,0x01,0x01,0x00,0x01,0xff,0x01,
0x00,0xff,0x01,0x01,0x00,0xff,0xff,0x01,0xfe,0x01,0x01,0x01,0xfe,0x01,0xff,0x01,
0xfe,0xff,0x01,0x01,0x00,0x00,0xff,0x01,0xff,0xff,0xff,0xff,0xff,0xff,0xff,0xff,
0xff,0xff,0xff,0xff,0xff,0xff,0xff,0xff,0xff,0xff,0xff,0xff,0x00,0x00,0x00,0x00,
0x14,0x00,0x00,0x00,0x0d,0x00,0x00,0x00,0x20,0x3a,0x20,0x01,0x00,0x00,0x00,0x00,
0x00,0x00,0x00,0x02,0x00,0x00,0x00,0x04,0x00,0x00,0x00,0x06,0x00,0x00,0x00,0x08,
0x00,0x00,0x00,0x0a,0x00,0x00,0x00,0x00,0x00,0x00,0x00,0x02,0x00,0x00,0x00,0xff,
0xff,0xff,0xff,0x05,0x00,0x00,0x00,0x00,0xff,0xff,0xff,0xff,0xff,0xff,0xff,0xff,
0x05,0x00,0x00,0x00,0x3a,0x01,0x00,0x00,0x00,0x2d,0x00,0x00,0x00,0x77,0x69,0x66,
0x69,0x20,0x73,0x74,0x61,0x74,0x65,0x3d,0x21,0x00,0x00,0x00,0x4e,0x61,0x62,0x61,
0x7a,0x74,0x61,0x67,0x55,0x00,0x00,0x00,0x2d,0x2d,0x2d,0x2d,0x2d,0x2d,0x2d,0x2d,
0x2d,0x2d,0x2d,0x2d,0x2d,0x67,0x6f,0x6d,0x61,0x73,0x74,0x65,0x72,0x5d,0x00,0x00,
0x00,0x3a,0x2d,0x2d,0x2d,0x2d,0x2d,0x2d,0x2d,0x2d,0x2d,0x2d,0x2d,0x2d,0x2d,0x67,
0x6f,0x73,0x74,0x61,0x74,0x69,0x6f,0x6e,0x4d,0x00,0x00,0x00,0x2d,0x2d,0x2d,0x2d,
0x2d,0x2d,0x2d,0x2d,0x2d,0x2d,0x2d,0x2d,0x2d,0x6d,0x61,0x73,0x74,0x65,0x72,0x45,
0x00,0x00,0x00,0x2d,0x2d,0x2d,0x2d,0x2d,0x2d,0x2d,0x2d,0x2d,0x2d,0x2d,0x2d,0x2d,
0x64,0x68,0x63,0x70,0x51,0x00,0x00,0x00,0x2d,0x2d,0x2d,0x2d,0x2d,0x2d,0x2d,0x2d,
0x2d,0x2d,0x2d,0x2d,0x2d,0x73,0x74,0x61,0x74,0x69,0x6f,0x6e,0x5d,0x00,0x00,0x00,
0x3a,0x2d,0x2d,0x2d,0x2d,0x2d,0x2d,0x2d,0x2d,0x2d,0x2d,0x2d,0x2d,0x2d,0x67,0x6f,
0x73,0x74,0x61,0x74,0x69,0x6f,0x6e,0x1c,0x00,0x00,0x00,0x03,0x01,0x00,0x00,0x00,
0x00,0x00,0x00,0x00,0x00,0x00,0x00,0x00,0x00,0x00,0x00,0x00,0x00,0x00,0x00,0x00,
0x00,0x00,0x00,0x00,0x00,0x00,0x00,0x02,0x00,0x00,0x00,0x02,0x00,0x00,0x00,0x04,
0x00,0x00,0x00,0x06,0x00,0x00,0x00,0x06,0x00,0x00,0x00,0x08,0x00,0x00,0x00,0x0a,
0x00,0x00,0x00,0x0c,0x00,0x00,0x00,0x0e,0x00,0x00,0x00,0x10,0x00,0x00,0x00,0x12,
0x00,0x00,0x00,0x14,0x00,0x00,0x00,0x18,0x00,0x00,0x00,0x1a,0x00,0x00,0x00,0x1e,
0x00,0x00,0x00,0x20,0x00,0x00,0x00,0x24,0x00,0x00,0x00,0x26,0x00,0x00,0x00,0x2a,
0x00,0x00,0x00,0x2e,0x00,0x00,0x00,0x32,0x00,0x00,0x00,0x36,0x00,0x00,0x00,0x3a,
0x00,0x00,0x00,0x3e,0x00,0x00,0x00,0x42,0x00,0x00,0x00,0x46,0x00,0x00,0x00,0x4a,
0x00,0x00,0x00,0x4e,0x00,0x00,0x00,0x54,0x00,0x00,0x00,0x58,0x00,0x00,0x00,0x5c,
0x00,0x00,0x00,0x62,0x00,0x00,0x00,0x66,0x00,0x00,0x00,0x6c,0x00,0x00,0x00,0x70,
0x00,0x00,0x00,0x76,0x00,0x00,0x00,0x7c,0x00,0x00,0x00,0x80,0x00,0x00,0x00,0x86,
0x00,0x00,0x00,0x8c,0x00,0x00,0x00,0x92,0x00,0x00,0x00,0x98,0x00,0x00,0x00,0x9e,
0x00,0x00,0x00,0xa2,0x00,0x00,0x00,0xa8,0x00,0x00,0x00,0xae,0x00,0x00,0x00,0xb4,
0x00,0x00,0x00,0xba,0x00,0x00,0x00,0xc0,0x00,0x00,0x00,0xc6,0x00,0x00,0x00,0xce,
0x00,0x00,0x00,0xd4,0x00,0x00,0x00,0xda,0x00,0x00,0x00,0xe0,0x00,0x00,0x00,0xe6,
0x00,0x00,0x00,0xec,0x00,0x00,0x00,0xf2,0x00,0x00,0x00,0xf8,0x00,0x00,0x00,0xcd,
0x01,0x00,0x00,0x4d,0x54,0x68,0x64,0x00,0x00,0x00,0x06,0x00,0x00,0x00,0x01,0x01,
0xe0,0x4d,0x54,0x72,0x6b,0x00,0x00,0x00,0x5d,0x00,0xff,0x51,0x03,0x10,0x59,0x43,
0x00,0xc0,0x09,0x02,0x90,0x58,0x5a,0x12,0x48,0x62,0x31,0x60,0x62,0x0a,0x80,0x58,
0x78,0x2c,0x90,0x58,0x52,0x12,0x80,0x60,0x54,0x43,0x90,0x60,0x49,0x04,0x80,0x58,
0x6c,0x33,0x90,0x58,0x45,0x05,0x80,0x60,0x6a,0x81,0x00,0x90,0x60,0x40,0x22,0x80,
0x58,0x6f,0x7a,0x90,0x5d,0x58,0x03,0x80,0x48,0x49,0x04,0x60,0x52,0x0b,0x90,0x4f,
0x48,0x84,0x24,0x80,0x5d,0x4d,0x11,0x4f,0x76,0x81,0x3a,0x90,0x30,0x01,0x74,0x80,
0x30,0x40,0x00,0xff,0x2f,0x00,0xff,0xff,0xff,0xff,0xff,0xff,0xff,0xff,0xff,0xff,
0xff,0xff,0x00,0x00,0x00,0x00,0x00,0x00,0x00,0x00,0x14,0x00,0x00,0x00,0x08,0x00,
0x00,0x00,0xff,0xff,0xff,0xff,0xff,0xff,0xff,0xff,0xff,0xff,0xff,0xff,0xff,0xff,
0xff,0xff,0xff,0xff,0xff,0xff,0xff,0xff,0xff,0xff,0xff,0xff,0xff,0xff,0xff,0xff,
0xff,0xff,0x25,0x00,0x00,0x00,0x62,0x72,0x6f,0x61,0x64,0x63,0x61,0x73,0x74,0x80,
0x38,0x01,0x00,0xfe,0xff,0xff,0xff,0xfc,0xff,0xff,0xff,0x78,0x00,0x00,0x00,0x78,
0x00,0x00,0x00,0xb0,0x04,0x00,0x00,0x02,0x00,0x00,0x00,0x0e,0x00,0x00,0x00,0x10,
0x00,0x00,0x00,0x1c,0x00,0x00,0x00,0x20,0x00,0x00,0x00,0x22,0x00,0x00,0x00,0x24,
0x00,0x00,0x00,0x26,0x00,0x00,0x00,0xff,0xff,0xff,0xff,0x23,0x00,0x00,0x00,0x63,
0x00,0x00,0x00,0xfe,0x01,0x00,0x00,0x18,0x00,0x00,0x00,0x00,0x00,0x00,0x00,0x00,
0x00,0x00,0x00,0xfe,0x01,0x00,0x00,0x3e,0x00,0x00,0x00,0xfe,0x01,0x00,0x00,0xe4,
0x01,0x00,0x00,0x00,0x00,0x00,0x00,0x00,0x00,0x00,0x00,0x06,0x00,0x00,0x00,0xfe,
0x01,0x00,0x00,0xfe,0x01,0x00,0x00,0xe4,0x01,0x00,0x00,0x00,0x00,0x00,0x00,0x00,
0x00,0x00,0x00,0xfe,0x01,0x00,0x00,0x3e,0x00,0x00,0x00,0xfe,0x01,0x00,0x00,0x18,
0x00,0x00,0x00,0x00,0x00,0x00,0x00,0x00,0x00,0x00,0x00,0x00,0x00,0x00,0x00,0x00,
0x00,0x00,0x00,0x63,0x00,0x00,0x00,0xbe,0x00,0x00,0x00,0x00,0x00,0x00,0x00,0xfe,
0x01,0x00,0x00,0xfe,0x00,0x00,0x00,0x00,0x00,0x00,0x00,0xfe,0x01,0x00,0x00,0x24,
0x01,0x00,0x00,0x00,0x00,0x00,0x00,0xfe,0x01,0x00,0x00,0x7e,0x01,0x00,0x00,0x00,
0x00,0x00,0x00,0xfe,0x01,0x00,0x00,0xbe,0x01,0x00,0x00,0x00,0x00,0x00,0x00,0xfe,
0x01,0x00,0x00,0xfe,0x01,0x00,0x00,0x00,0x00,0x00,0x00,0xbe,0x01,0x00,0x00,0xfe,
0x01,0x00,0x00,0x00,0x00,0x00,0x00,0x24,0x01,0x00,0x00,0x00,0x00,0x00,0x00,0x00,
0x00,0x00,0x00,0x00,0x00,0x00,0x00,0x63,0x00,0x00,0x00,0xfe,0x01,0x00,0x00,0xfe,
0x01,0x00,0x00,0xfe,0x01,0x00,0x00,0xfe,0x01,0x00,0x00,0xfe,0x01,0x00,0x00,0xfe,
0x01,0x00,0x00,0xfe,0x01,0x00,0x00,0xfe,0x01,0x00,0x00,0xfe,0x01,0x00,0x00,0xfe,
0x01,0x00,0x00,0xfe,0x01,0x00,0x00,0xfe,0x01,0x00,0x00,0xfe,0x01,0x00,0x00,0xfe,
0x01,0x00,0x00,0xfe,0x01,0x00,0x00,0xfe,0x01,0x00,0x00,0xfe,0x01,0x00,0x00,0xfe,
0x01,0x00,0x00,0xfe,0x01,0x00,0x00,0xfe,0x01,0x00,0x00,0xfe,0x01,0x00,0x00,0x00,
0x00,0x00,0x00,0x00,0x00,0x00,0x00,0x00,0x00,0x00,0x00,0x63,0x00,0x00,0x00,0xfc,
0x01,0x00,0x00,0x00,0x01,0x00,0x00,0x04,0x00,0x00,0x00,0xe6,0x01,0x00,0x00,0x88,
0x00,0x00,0x00,0x04,0x00,0x00,0x00,0xb0,0x01,0x00,0x00,0x0c,0x00,0x00,0x00,0x0e,
0x00,0x00,0x00,0x90,0x01,0x00,0x00,0x08,0x00,0x00,0x00,0x1a,0x00,0x00,0x00,0x54,
0x01,0x00,0x00,0x00,0x00,0x00,0x00,0x30,0x00,0x00,0x00,0xb4,0x01,0x00,0x00,0x0a,
0x00,0x00,0x00,0xc0,0x00,0x00,0x00,0x9e,0x01,0x00,0x00,0x0c,0x00,0x00,0x00,0x14,
0x01,0x00,0x00,0x00,0x00,0x00,0x00,0x00,0x00,0x00,0x00,0x00,0x00,0x00,0x00,0x63,
0x00,0x00,0x00,0x28,0x00,0x00,0x00,0x36,0x01,0x00,0x00,0x24,0x00,0x00,0x00,0xfe,
0x01,0x00,0x00,0x00,0x00,0x00,0x00,0x00,0x00,0x00,0x00,0xf8,0x01,0x00,0x00,0xe6,
0x01,0x00,0x00,0x0a,0x00,0x00,0x00,0x28,0x00,0x00,0x00,0x36,0x01,0x00,0x00,0x24,
0x00,0x00,0x00,0xf8,0x01,0x00,0x00,0xe6,0x01,0x00,0x00,0x0a,0x00,0x00,0x00,0xfe,
0x01,0x00,0x00,0x00,0x00,0x00,0x00,0x00,0x00,0x00,0x00,0x28,0x00,0x00,0x00,0x36,
0x01,0x00,0x00,0x24,0x00,0x00,0x00,0x00,0x00,0x00,0x00,0x00,0x00,0x00,0x00,0x00,
0x00,0x00,0x00,0x63,0x00,0x00,0x00,0xf8,0x01,0x00,0x00,0xdc,0x01,0x00,0x00,0x8e,
0x00,0x00,0x00,0x9c,0x01,0x00,0x00,0x76,0x00,0x00,0x00,0x8a,0x00,0x00,0x00,0xaa,
0x00,0x00,0x00,0x88,0x00,0x00,0x00,0xa8,0x01,0x00,0x00,0x9c,0x00,0x00,0x00,0x4e,
0x01,0x00,0x00,0xa4,0x00,0x00,0x00,0xe6,0x01,0x00,0x00,0x96,0x00,0x00,0x00,0x32,
0x01,0x00,0x00,0x2e,0x01,0x00,0x00,0x8e,0x00,0x00,0x00,0x88,0x01,0x00,0x00,0xfe,
0x01,0x00,0x00,0xfe,0x01,0x00,0x00,0xfe,0x01,0x00,0x00,0x00,0x00,0x00,0x00,0x00,
0x00,0x00,0x00,0x00,0x00,0x00,0x00,0x5f,0x00,0x00,0x00,0x98,0x01,0x00,0x00,0xfe,
0x01,0x00,0x00,0xcc,0x00,0x00,0x00,0x98,0x01,0x00,0x00,0xfe,0x01,0x00,0x00,0x00,
0x00,0x00,0x00,0x32,0x01,0x00,0x00,0xfe,0x01,0x00,0x00,0x00,0x00,0x00,0x00,0x66,
0x00,0x00,0x00,0x98,0x01,0x00,0x00,0x00,0x00,0x00,0x00,0x00,0x00,0x00,0x00,0x32,
0x01,0x00,0x00,0x66,0x00,0x00,0x00,0x00,0x00,0x00,0x00,0x10,0x01,0x00,0x00,0x00,
0x00,0x00,0x00,0x00,0x00,0x00,0x00,0xcc,0x00,0x00,0x00,0xfc,0x03,0x00,0x00,0x00,
0x00,0x00,0x00,0x00,0x00,0x00,0x00,0x5f,0x00,0x00,0x00,0x98,0x01,0x00,0x00,0xfe,
0x01,0x00,0x00,0xcc,0x00,0x00,0x00,0x98,0x01,0x00,0x00,0xfe,0x01,0x00,0x00,0x00,
0x00,0x00,0x00,0x32,0x01,0x00,0x00,0xfe,0x01,0x00,0x00,0x00,0x00,0x00,0x00,0x66,
0x00,0x00,0x00,0x98,0x01,0x00,0x00,0x00,0x00,0x00,0x00,0x00,0x00,0x00,0x00,0x32,
0x01,0x00,0x00,0x66,0x00,0x00,0x00,0x00,0x00,0x00,0x00,0x10,0x01,0x00,0x00,0x00,
0x00,0x00,0x00,0x00,0x00,0x00,0x00,0xcc,0x00,0x00,0x00,0xfc,0x03,0x00,0x00,0x00,
0x00,0x00,0x00,0x00,0x00,0x00,0x00,0x1d,0x02,0x00,0x00,0x4d,0x54,0x68,0x64,0x00,
0x00,0x00,0x06,0x00,0x00,0x00,0x01,0x01,0xe0,0x4d,0x54,0x72,0x6b,0x00,0x00,0x00,
0x71,0x00,0xff,0x03,0x07,0x63,0x6f,0x6d,0x70,0x72,0x69,0x73,0x00,0xff,0x51,0x03,
0x07,0xa1,0x20,0x00,0xff,0x58,0x04,0x04,0x02,0x18,0x08,0x00,0xc0,0x0c,0x7a,0x90,
0x34,0x50,0x6f,0x53,0x1a,0x08,0x80,0x34,0x40,0x81,0x02,0x53,0x40,0x15,0x90,0x64,
0x27,0x81,0x02,0x54,0x37,0x08,0x80,0x64,0x40,0x81,0x02,0x54,0x40,0x15,0x90,0x34,
0x50,0x81,0x02,0x53,0x2b,0x07,0x80,0x34,0x40,0x81,0x02,0x53,0x40,0x16,0x90,0x43,
0x3f,0x81,0x02,0x64,0x60,0x07,0x80,0x43,0x40,0x81,0x02,0x64,0x40,0x15,0x90,0x54,
0x5c,0x55,0x80,0x54,0x40,0x83,0x39,0x90,0x25,0x01,0x74,0x80,0x25,0x40,0x00,0xff,
0x2f,0x00,0xc1,0x01,0x00,0x00,0x4d,0x54,0x68,0x64,0x00,0x00,0x00,0x06,0x00,0x00,
0x00,0x01,0x01,0xe0,0x4d,0x54,0x72,0x6b,0x00,0x00,0x00,0x5a,0x00,0xff,0x03,0x05,
0x73,0x74,0x6f,0x70,0x30,0x00,0xff,0x51,0x03,0x07,0xa1,0x20,0x00,0xff,0x58,0x04,
0x04,0x02,0x18,0x08,0x00,0xc9,0x00,0x00,0xc4,0x09,0x03,0x99,0x2a,0x7f,0x00,0x2c,
0x7f,0x00,0x56,0x7f,0x00,0x94,0x24,0x7f,0x00,0x28,0x64,0x00,0x2d,0x64,0x01,0x99,
0x3c,0x64,0x0a,0x84,0x24,0x40,0x01,0x28,0x40,0x01,0x2d,0x40,0x0b,0x89,0x2a,0x40,
0x00,0x56,0x40,0x01,0x2c,0x40,0x00,0x3c,0x40,0x81,0x52,0x99,0x2c,0x01,0x1a,0x89,
0x2c,0x40,0x00,0xff,0x2f,0x00,0xc5,0x02,0x00,0x00,0x4d,0x54,0x68,0x64,0x00,0x00,
0x00,0x06,0x00,0x00,0x00,0x01,0x01,0xe0,0x4d,0x54,0x72,0x6b,0x00,0x00,0x00,0x9b,
0x00,0xff,0x03,0x0b,0x63,0x6f,0x6d,0x6d,0x75,0x6e,0x69,0x6f,0x6e,0x30,0x30,0x00,
0xff,0x51,0x03,0x10,0x59,0x43,0x00,0xff,0x58,0x04,0x04,0x02,0x18,0x08,0x00,0xc0,
0x0c,0x02,0x90,0x60,0x67,0x04,0x48,0x6a,0x7b,0x5f,0x4d,0x12,0x80,0x60,0x65,0x2a,
0x90,0x5d,0x51,0x0b,0x80,0x5f,0x76,0x18,0x48,0x2b,0x10,0x5d,0x7f,0x07,0x90,0x60,
0x64,0x08,0x4f,0x5e,0x7c,0x5f,0x52,0x15,0x80,0x60,0x71,0x19,0x90,0x5d,0x56,0x1a,
0x80,0x5f,0x6c,0x15,0x5d,0x7f,0x0e,0x90,0x58,0x56,0x0c,0x80,0x4f,0x7c,0x14,0x90,
0x4d,0x5e,0x6e,0x80,0x58,0x73,0x01,0x90,0x5d,0x62,0x75,0x80,0x5d,0x7a,0x0d,0x4d,
0x67,0x05,0x90,0x5b,0x5a,0x05,0x54,0x60,0x2a,0x80,0x5b,0x65,0x81,0x1e,0x54,0x60,
0x51,0x90,0x58,0x60,0x15,0x4c,0x6a,0x81,0x1e,0x80,0x58,0x63,0x0e,0x4c,0x45,0x4d,
0x90,0x24,0x01,0x72,0x80,0x24,0x40,0x00,0xff,0x2f,0x00,0xc5,0x02,0x00,0x00,0x4d,
0x54,0x68,0x64,0x00,0x00,0x00,0x06,0x00,0x00,0x00,0x01,0x01,0xe0,0x4d,0x54,0x72,
0x6b,0x00,0x00,0x00,0x9b,0x00,0xff,0x03,0x0b,0x63,0x6f,0x6d,0x6d,0x75,0x6e,0x69,
0x6f,0x6e,0x30,0x30,0x00,0xff,0x51,0x03,0x10,0x59,0x43,0x00,0xff,0x58,0x04,0x04,
0x02,0x18,0x08,0x00,0xc0,0x0c,0x02,0x90,0x60,0x67,0x04,0x48,0x6a,0x7b,0x5f,0x4d,
0x12,0x80,0x60,0x65,0x2a,0x90,0x5d,0x51,0x0b,0x80,0x5f,0x76,0x18,0x48,0x2b,0x10,
0x5d,0x7f,0x07,0x90,0x60,0x64,0x08,0x4f,0x5e,0x7c,0x5f,0x52,0x15,0x80,0x60,0x71,
0x19,0x90,0x5d,0x56,0x1a,0x80,0x5f,0x6c,0x15,0x5d,0x7f,0x0e,0x90,0x58,0x56,0x0c,
0x80,0x4f,0x7c,0x14,0x90,0x4d,0x5e,0x6e,0x80,0x58,0x73,0x01,0x90,0x5d,0x62,0x75,
0x80,0x5d,0x7a,0x0d,0x4d,0x67,0x05,0x90,0x5b,0x5a,0x05,0x54,0x60,0x2a,0x80,0x5b,
0x65,0x81,0x1e,0x54,0x60,0x51,0x90,0x58,0x60,0x15,0x4c,0x6a,0x81,0x1e,0x80,0x58,
0x63,0x0e,0x4c,0x45,0x4d,0x90,0x24,0x01,0x72,0x80,0x24,0x40,0x00,0xff,0x2f,0x00,
0xad,0x01,0x00,0x00,0x4d,0x54,0x68,0x64,0x00,0x00,0x00,0x06,0x00,0x00,0x00,0x01,
0x01,0xe0,0x4d,0x54,0x72,0x6b,0x00,0x00,0x00,0x55,0x00,0xff,0x03,0x07,0x65,0x66,
0x66,0x61,0x63,0x65,0x30,0x00,0xff,0x51,0x03,0x10,0x59,0x43,0x00,0xff,0x58,0x04,
0x04,0x02,0x18,0x08,0x00,0x90,0x3c,0x7f,0x00,0x41,0x7f,0x00,0x48,0x7f,0x00,0x4f,
0x7f,0x00,0x54,0x7f,0x00,0xc0,0x77,0x00,0xc1,0x74,0x84,0x54,0x80,0x4f,0x40,0x40,
0x91,0x30,0x7f,0x00,0x53,0x64,0x1a,0x80,0x41,0x40,0x00,0x54,0x40,0x00,0x81,0x30,
0x40,0x00,0x53,0x40,0x3c,0x80,0x48,0x40,0x1e,0x3c,0x40,0x00,0xff,0x2f,0x00,0xdd,
0x3d,0x00,0x00,0x00,0x00,0x0f,0x6f,0x00,0x01,0x0a,0x00,0x10,0x00,0x01,0x04,0x01,
0x07,0x04,0x00,0x33,0xff,0x00,0x00,0x00,0x07,0x02,0xff,0x00,0x00,0x00,0x00,0x00,
0x07,0x00,0xff,0xff,0x00,0x00,0x00,0x01,0x07,0x04,0x00,0x00,0x00,0x00,0x00,0x00,
0x07,0x02,0x00,0x00,0x00,0x00,0x00,0x00,0x07,0x00,0x00,0x00,0x00,0x00,0x00,0x00,
0x07,0x01,0xff,0xff,0x00,0x00,0x00,0x01,0x07,0x01,0x00,0x00,0x00,0x00,0x00,0x00,
0x07,0x04,0xff,0xff,0x00,0x00,0x00,0x00,0x07,0x02,0x00,0xee,0x00,0x00,0x00,0x00,
0x07,0x00,0xff,0x00,0x00,0x00,0x00,0x01,0x07,0x04,0x00,0x00,0x00,0x00,0x00,0x00,
0x07,0x02,0x00,0x00,0x00,0x00,0x00,0x00,0x07,0x00,0x00,0x00,0x00,0x00,0x00,0x00,
0x07,0x03,0x00,0xee,0x00,0x00,0x00,0x01,0x07,0x03,0x00,0x00,0x00,0x00,0x00,0x00,
0x07,0x04,0xee,0x00,0x00,0x00,0x00,0x00,0x07,0x01,0x00,0x33,0xff,0x00,0x00,0x01,
0x07,0x04,0x00,0x00,0x00,0x00,0x00,0x00,0x07,0x01,0x00,0x00,0x00,0x00,0x00,0x00,
0x07,0x04,0xff,0x00,0x00,0x00,0x00,0x00,0x07,0x00,0xff,0xff,0x00,0x00,0x00,0x01,
0x07,0x04,0x00,0x00,0x00,0x00,0x00,0x00,0x07,0x00,0x00,0x00,0x00,0x00,0x00,0x00,
0x07,0x03,0x00,0x33,0xff,0x00,0x00,0x01,0x07,0x03,0x00,0x00,0x00,0x00,0x00,0x00,
0x07,0x02,0xff,0xff,0x00,0x00,0x00,0x00,0x07,0x00,0xff,0x00,0x00,0x00,0x00,0x01,
0x07,0x02,0x00,0x00,0x00,0x00,0x00,0x00,0x07,0x00,0x00,0x00,0x00,0x00,0x00,0x01,
0x07,0x03,0xee,0x00,0x00,0x00,0x00,0x00,0x07,0x00,0x00,0xee,0x00,0x00,0x00,0x01,
0x07,0x03,0x00,0x00,0x00,0x00,0x00,0x00,0x07,0x00,0x00,0x00,0x00,0x00,0x00,0x00,
0x07,0x03,0xff,0x00,0x00,0x00,0x00,0x00,0x07,0x02,0x00,0xee,0x00,0x00,0x00,0x01,
0x07,0x03,0x00,0x00,0x00,0x00,0x00,0x00,0x07,0x02,0x00,0x00,0x00,0x00,0x00,0x00,
0x07,0x01,0x00,0x33,0xff,0x00,0x00,0x01,0x07,0x01,0x00,0x00,0x00,0x00,0x00,0x01,
0x07,0x04,0x00,0x33,0xff,0x00,0x00,0x00,0x07,0x02,0xff,0x00,0x00,0x00,0x00,0x00,
0x07,0x00,0xff,0xff,0x00,0x00,0x00,0x01,0x07,0x04,0x00,0x00,0x00,0x00,0x00,0x00,
0x07,0x02,0x00,0x00,0x00,0x00,0x00,0x00,0x07,0x00,0x00,0x00,0x00,0x00,0x00,0x00,
0x07,0x01,0xff,0xff,0x00,0x00,0x00,0x01,0x07,0x01,0x00,0x00,0x00,0x00,0x00,0x00,
0x07,0x04,0xff,0xff,0x00,0x00,0x00,0x00,0x07,0x02,0x00,0xee,0x00,0x00,0x00,0x00,
0x07,0x00,0xff,0x00,0x00,0x00,0x00,0x01,0x07,0x04,0x00,0x00,0x00,0x00,0x00,0x00,
0x07,0x02,0x00,0x00,0x00,0x00,0x00,0x00,0x07,0x00,0x00,0x00,0x00,0x00,0x00,0x00,
0x07,0x03,0x00,0xee,0x00,0x00,0x00,0x01,0x07,0x03,0x00,0x00,0x00,0x00,0x00,0x00,
0x07,0x04,0xee,0x00,0x00,0x00,0x00,0x00,0x07,0x01,0x00,0x33,0xff,0x00,0x00,0x01,
0x07,0x04,0x00,0x00,0x00,0x00,0x00,0x00,0x07,0x01,0x00,0x00,0x00,0x00,0x00,0x00,
0x07,0x04,0xff,0x00,0x00,0x00,0x00,0x00,0x07,0x00,0xff,0xff,0x00,0x00,0x00,0x01,
0x07,0x04,0x00,0x00,0x00,0x00,0x00,0x00,0x07,0x00,0x00,0x00,0x00,0x00,0x00,0x00,
0x07,0x03,0x00,0x33,0xff,0x00,0x00,0x01,0x07,0x03,0x00,0x00,0x00,0x00,0x00,0x00,
0x07,0x02,0xff,0xff,0x00,0x00,0x00,0x00,0x07,0x00,0xff,0x00,0x00,0x00,0x00,0x01,
0x07,0x02,0x00,0x00,0x00,0x00,0x00,0x00,0x07,0x00,0x00,0x00,0x00,0x00,0x00,0x01,
0x07,0x03,0xee,0x00,0x00,0x00,0x00,0x00,0x07,0x00,0x00,0xee,0x00,0x00,0x00,0x01,
0x07,0x03,0x00,0x00,0x00,0x00,0x00,0x00,0x07,0x00,0x00,0x00,0x00,0x00,0x00,0x00,
0x07,0x03,0xff,0x00,0x00,0x00,0x00,0x00,0x07,0x02,0x00,0xee,0x00,0x00,0x00,0x01,
0x07,0x03,0x00,0x00,0x00,0x00,0x00,0x00,0x07,0x02,0x00,0x00,0x00,0x00,0x00,0x00,
0x07,0x01,0x00,0x33,0xff,0x00,0x00,0x01,0x07,0x01,0x00,0x00,0x00,0x00,0x00,0x00,
0x01,0x0a,0x00,0x12,0x00,0x03,0x43,0x00,0x01,0x08,0x00,0x07,0x04,0xee,0x00,0x00,
0x00,0x00,0x00,0x07,0x03,0xee,0x00,0x00,0x00,0x00,0x00,0x07,0x02,0xee,0x00,0x00,
0x00,0x00,0x00,0x07,0x01,0xee,0x00,0x00,0x00,0x00,0x00,0x07,0x00,0xee,0x00,0x00,
0x00,0x00,0x00,0x11,0x01,0x04,0x00,0x11,0x00,0x04,0x01,0x07,0x04,0x00,0x00,0x00,
0x00,0x00,0x00,0x07,0x03,0x00,0x00,0x00,0x00,0x00,0x00,0x07,0x02,0x00,0x00,0x00,
0x00,0x00,0x00,0x07,0x01,0x00,0x00,0x00,0x00,0x00,0x00,0x07,0x00,0x00,0x00,0x00,
0x00,0x00,0x01,0x07,0x04,0xee,0x00,0x00,0x00,0x00,0x00,0x07,0x03,0xee,0x00,0x00,
0x00,0x00,0x00,0x07,0x02,0xee,0x00,0x00,0x00,0x00,0x00,0x07,0x01,0xee,0x00,0x00,
0x00,0x00,0x00,0x07,0x00,0xee,0x00,0x00,0x00,0x00,0x01,0x07,0x04,0x00,0x00,0x00,
0x00,0x00,0x00,0x07,0x03,0x00,0x00,0x00,0x00,0x00,0x00,0x07,0x02,0x00,0x00,0x00,
0x00,0x00,0x00,0x07,0x01,0x00,0x00,0x00,0x00,0x00,0x00,0x07,0x00,0x00,0x00,0x00,
0x00,0x00,0x20,0x07,0x04,0xee,0x00,0x00,0x00,0x00,0x00,0x07,0x03,0xee,0x00,0x00,
0x00,0x00,0x00,0x07,0x02,0xee,0x00,0x00,0x00,0x00,0x00,0x07,0x01,0xee,0x00,0x00,
0x00,0x00,0x00,0x07,0x00,0xee,0x00,0x00,0x00,0x00,0x00,0x11,0x01,0x04,0x00,0x11,
0x00,0x04,0x01,0x07,0x04,0x00,0x00,0x00,0x00,0x00,0x00,0x07,0x03,0x00,0x00,0x00,
0x00,0x00,0x00,0x07,0x02,0x00,0x00,0x00,0x00,0x00,0x00,0x07,0x01,0x00,0x00,0x00,
0x00,0x00,0x00,0x07,0x00,0x00,0x00,0x00,0x00,0x00,0x01,0x07,0x04,0xee,0x00,0x00,
0x00,0x00,0x00,0x07,0x03,0xee,0x00,0x00,0x00,0x00,0x00,0x07,0x02,0xee,0x00,0x00,
0x00,0x00,0x00,0x07,0x01,0xee,0x00,0x00,0x00,0x00,0x00,0x07,0x00,0xee,0x00,0x00,
0x00,0x00,0x01,0x07,0x04,0x00,0x00,0x00,0x00,0x00,0x00,0x07,0x03,0x00,0x00,0x00,
0x00,0x00,0x00,0x07,0x02,0x00,0x00,0x00,0x00,0x00,0x00,0x07,0x01,0x00,0x00,0x00,
0x00,0x00,0x00,0x07,0x00,0x00,0x00,0x00,0x00,0x00,0x20,0x07,0x04,0xee,0x00,0x00,
0x00,0x00,0x00,0x07,0x03,0xee,0x00,0x00,0x00,0x00,0x00,0x07,0x02,0xee,0x00,0x00,
0x00,0x00,0x00,0x07,0x01,0xee,0x00,0x00,0x00,0x00,0x00,0x07,0x00,0xee,0x00,0x00,
0x00,0x00,0x00,0x11,0x01,0x05,0x00,0x11,0x00,0x05,0x01,0x07,0x04,0x00,0x00,0x00,
0x00,0x00,0x00,0x07,0x03,0x00,0x00,0x00,0x00,0x00,0x00,0x07,0x02,0x00,0x00,0x00,
0x00,0x00,0x00,0x07,0x01,0x00,0x00,0x00,0x00,0x00,0x00,0x07,0x00,0x00,0x00,0x00,
0x00,0x00,0x01,0x07,0x04,0xee,0x00,0x00,0x00,0x00,0x00,0x07,0x03,0xee,0x00,0x00,
0x00,0x00,0x00,0x07,0x02,0xee,0x00,0x00,0x00,0x00,0x00,0x07,0x01,0xee,0x00,0x00,
0x00,0x00,0x00,0x07,0x00,0xee,0x00,0x00,0x00,0x00,0x01,0x07,0x04,0x00,0x00,0x00,
0x00,0x00,0x00,0x07,0x03,0x00,0x00,0x00,0x00,0x00,0x00,0x07,0x02,0x00,0x00,0x00,
0x00,0x00,0x00,0x07,0x01,0x00,0x00,0x00,0x00,0x00,0x00,0x07,0x00,0x00,0x00,0x00,
0x00,0x00,0x20,0x07,0x04,0xee,0x00,0x00,0x00,0x00,0x00,0x07,0x03,0xee,0x00,0x00,
0x00,0x00,0x00,0x07,0x02,0xee,0x00,0x00,0x00,0x00,0x00,0x07,0x01,0xee,0x00,0x00,
0x00,0x00,0x00,0x07,0x00,0xee,0x00,0x00,0x00,0x00,0x00,0x11,0x01,0x04,0x00,0x11,
0x00,0x04,0x01,0x07,0x04,0x00,0x00,0x00,0x00,0x00,0x00,0x07,0x03,0x00,0x00,0x00,
0x00,0x00,0x00,0x07,0x02,0x00,0x00,0x00,0x00,0x00,0x00,0x07,0x01,0x00,0x00,0x00,
0x00,0x00,0x00,0x07,0x00,0x00,0x00,0x00,0x00,0x00,0x01,0x07,0x04,0xee,0x00,0x00,
0x00,0x00,0x00,0x07,0x03,0xee,0x00,0x00,0x00,0x00,0x00,0x07,0x02,0xee,0x00,0x00,
0x00,0x00,0x00,0x07,0x01,0xee,0x00,0x00,0x00,0x00,0x00,0x07,0x00,0xee,0x00,0x00,
0x00,0x00,0x01,0x07,0x04,0x00,0x00,0x00,0x00,0x00,0x00,0x07,0x03,0x00,0x00,0x00,
0x00,0x00,0x00,0x07,0x02,0x00,0x00,0x00,0x00,0x00,0x00,0x07,0x01,0x00,0x00,0x00,
0x00,0x00,0x00,0x07,0x00,0x00,0x00,0x00,0x00,0x00,0x17,0x07,0x04,0xee,0x00,0x00,
0x00,0x00,0x00,0x07,0x03,0xee,0x00,0x00,0x00,0x00,0x00,0x07,0x02,0xee,0x00,0x00,
0x00,0x00,0x00,0x07,0x01,0xee,0x00,0x00,0x00,0x00,0x00,0x07,0x00,0xee,0x00,0x00,
0x00,0x00,0x01,0x07,0x04,0x00,0x00,0x00,0x00,0x00,0x00,0x07,0x03,0x00,0x00,0x00,
0x00,0x00,0x00,0x07,0x02,0x00,0x00,0x00,0x00,0x00,0x00,0x07,0x01,0x00,0x00,0x00,
0x00,0x00,0x00,0x07,0x00,0x00,0x00,0x00,0x00,0x00,0x01,0x07,0x04,0xee,0x00,0x00,
0x00,0x00,0x00,0x07,0x03,0xee,0x00,0x00,0x00,0x00,0x00,0x07,0x02,0xee,0x00,0x00,
0x00,0x00,0x00,0x07,0x01,0xee,0x00,0x00,0x00,0x00,0x00,0x07,0x00,0xee,0x00,0x00,
0x00,0x00,0x01,0x07,0x00,0x00,0x00,0x00,0x00,0x00,0x00,0x07,0x01,0x00,0x00,0x00,
0x00,0x00,0x00,0x07,0x02,0x00,0x00,0x00,0x00,0x00,0x00,0x07,0x03,0x00,0x00,0x00,
0x00,0x00,0x00,0x07,0x04,0x00,0x00,0x00,0x00,0x00,0x00,0x12,0x01,0x01,0x6b,0x00,
0x01,0x14,0x00,0x07,0x02,0x00,0xee,0x00,0x00,0x00,0x00,0x11,0x01,0x06,0x00,0x11,
0x00,0x06,0x01,0x07,0x02,0x00,0x00,0x00,0x00,0x00,0x01,0x07,0x02,0x00,0xee,0x00,
0x00,0x00,0x01,0x07,0x02,0x00,0x00,0x00,0x00,0x00,0x01,0x07,0x02,0x00,0x00,0xff,
0x00,0x00,0x01,0x07,0x02,0x00,0x00,0x00,0x00,0x00,0x01,0x07,0x02,0x99,0xff,0x00,
0x00,0x00,0x01,0x07,0x02,0x00,0x00,0x00,0x00,0x00,0x01,0x07,0x02,0xff,0x00,0x00,
0x00,0x00,0x01,0x07,0x02,0x00,0x00,0x00,0x00,0x00,0x01,0x07,0x02,0xcc,0x00,0xff,
0x00,0x00,0x01,0x07,0x02,0x00,0x00,0x00,0x00,0x00,0x01,0x07,0x02,0x00,0xff,0xff,
0x00,0x00,0x01,0x07,0x02,0x00,0x00,0x00,0x00,0x00,0x00,0x11,0x01,0x05,0x00,0x11,
0x00,0x05,0x01,0x07,0x02,0xff,0xcc,0x00,0x00,0x00,0x01,0x07,0x02,0x00,0x00,0x00,
0x00,0x00,0x01,0x07,0x02,0x00,0x99,0xff,0x00,0x00,0x01,0x07,0x02,0x00,0x00,0x00,
0x00,0x00,0x01,0x07,0x02,0xee,0x00,0x00,0x00,0x00,0x01,0x07,0x02,0x00,0x00,0x00,
0x00,0x00,0x01,0x07,0x02,0xff,0x00,0x00,0x00,0x00,0x01,0x07,0x02,0x00,0x00,0x00,
0x00,0x00,0x01,0x07,0x02,0xcc,0x00,0xff,0x00,0x00,0x01,0x07,0x02,0x00,0x00,0x00,
0x00,0x00,0x01,0x07,0x02,0x00,0xff,0xff,0x00,0x00,0x01,0x07,0x02,0x00,0x00,0x00,
0x00,0x00,0x01,0x07,0x02,0xff,0xcc,0x00,0x00,0x00,0x00,0x11,0x01,0x06,0x00,0x11,
0x00,0x06,0x01,0x07,0x02,0x00,0x00,0x00,0x00,0x00,0x01,0x07,0x02,0x00,0xee,0x00,
0x00,0x00,0x01,0x07,0x02,0x00,0x00,0x00,0x00,0x00,0x01,0x07,0x02,0x00,0x00,0xff,
0x00,0x00,0x01,0x07,0x02,0x00,0x00,0x00,0x00,0x00,0x01,0x07,0x02,0xcc,0x00,0xff,
0x00,0x00,0x01,0x07,0x02,0x00,0x00,0x00,0x00,0x00,0x01,0x07,0x02,0x00,0xff,0xff,
0x00,0x00,0x01,0x07,0x02,0x00,0x00,0x00,0x00,0x00,0x01,0x07,0x02,0xff,0xcc,0x00,
0x00,0x00,0x01,0x07,0x02,0x00,0x00,0x00,0x00,0x00,0x01,0x07,0x02,0xcc,0x00,0xff,
0x00,0x00,0x01,0x07,0x02,0x00,0x00,0x00,0x00,0x00,0x01,0x07,0x02,0x00,0xff,0xff,
0x00,0x00,0x01,0x07,0x02,0x00,0x00,0x00,0x00,0x00,0x00,0x12,0x02,0x02,0x6b,0x00,
0x01,0x10,0x00,0x11,0x01,0x02,0x07,0x07,0x04,0xff,0xff,0x00,0x00,0x00,0x00,0x07,
0x03,0xff,0xff,0x00,0x00,0x00,0x00,0x07,0x02,0xff,0xff,0x00,0x00,0x00,0x00,0x07,
0x01,0xff,0xff,0x00,0x00,0x00,0x00,0x07,0x00,0xff,0xff,0x00,0x00,0x00,0x00,0x11,
0x00,0x02,0x07,0x11,0x01,0x02,0x01,0x07,0x04,0x00,0x00,0x00,0x00,0x00,0x00,0x07,
0x03,0x00,0x00,0x00,0x00,0x00,0x00,0x07,0x02,0x00,0x00,0x00,0x00,0x00,0x00,0x07,
0x01,0x00,0x00,0x00,0x00,0x00,0x00,0x07,0x00,0x00,0x00,0x00,0x00,0x00,0x06,0x07,
0x04,0xff,0xff,0x00,0x00,0x00,0x00,0x07,0x03,0xff,0xff,0x00,0x00,0x00,0x00,0x07,
0x02,0xff,0xff,0x00,0x00,0x00,0x00,0x07,0x01,0xff,0xff,0x00,0x00,0x00,0x00,0x07,
0x00,0xff,0xff,0x00,0x00,0x00,0x00,0x11,0x00,0x02,0x07,0x11,0x01,0x02,0x01,0x07,
0x04,0x00,0x00,0x00,0x00,0x00,0x00,0x07,0x03,0x00,0x00,0x00,0x00,0x00,0x00,0x07,
0x02,0x00,0x00,0x00,0x00,0x00,0x00,0x07,0x01,0x00,0x00,0x00,0x00,0x00,0x00,0x07,
0x00,0x00,0x00,0x00,0x00,0x00,0x06,0x07,0x04,0xff,0xff,0x00,0x00,0x00,0x00,0x07,
0x03,0xff,0xff,0x00,0x00,0x00,0x00,0x07,0x02,0xff,0xff,0x00,0x00,0x00,0x00,0x07,
0x01,0xff,0xff,0x00,0x00,0x00,0x00,0x07,0x00,0xff,0xff,0x00,0x00,0x00,0x00,0x11,
0x00,0x02,0x07,0x11,0x01,0x03,0x01,0x07,0x04,0x00,0x00,0x00,0x00,0x00,0x00,0x07,
0x03,0x00,0x00,0x00,0x00,0x00,0x00,0x07,0x02,0x00,0x00,0x00,0x00,0x00,0x00,0x07,
0x01,0x00,0x00,0x00,0x00,0x00,0x00,0x07,0x00,0x00,0x00,0x00,0x00,0x00,0x06,0x07,
0x04,0xff,0xff,0x00,0x00,0x00,0x00,0x07,0x03,0xff,0xff,0x00,0x00,0x00,0x00,0x07,
0x02,0xff,0xff,0x00,0x00,0x00,0x00,0x07,0x01,0xff,0xff,0x00,0x00,0x00,0x00,0x07,
0x00,0xff,0xff,0x00,0x00,0x00,0x00,0x11,0x00,0x03,0x07,0x11,0x01,0x02,0x01,0x07,
0x04,0x00,0x00,0x00,0x00,0x00,0x00,0x07,0x03,0x00,0x00,0x00,0x00,0x00,0x00,0x07,
0x02,0x00,0x00,0x00,0x00,0x00,0x00,0x07,0x01,0x00,0x00,0x00,0x00,0x00,0x00,0x07,
0x00,0x00,0x00,0x00,0x00,0x00,0x06,0x07,0x04,0xff,0xff,0x00,0x00,0x00,0x00,0x07,
0x03,0xff,0xff,0x00,0x00,0x00,0x00,0x07,0x02,0xff,0xff,0x00,0x00,0x00,0x00,0x07,
0x01,0xff,0xff,0x00,0x00,0x00,0x00,0x07,0x00,0xff,0xff,0x00,0x00,0x00,0x00,0x11,
0x00,0x02,0x07,0x11,0x01,0x04,0x01,0x07,0x04,0x00,0x00,0x00,0x00,0x00,0x00,0x07,
0x03,0x00,0x00,0x00,0x00,0x00,0x00,0x07,0x02,0x00,0x00,0x00,0x00,0x00,0x00,0x07,
0x01,0x00,0x00,0x00,0x00,0x00,0x00,0x07,0x00,0x00,0x00,0x00,0x00,0x00,0x06,0x07,
0x04,0xff,0xff,0x00,0x00,0x00,0x00,0x07,0x03,0xff,0xff,0x00,0x00,0x00,0x00,0x07,
0x02,0xff,0xff,0x00,0x00,0x00,0x00,0x07,0x01,0xff,0xff,0x00,0x00,0x00,0x00,0x07,
0x00,0xff,0xff,0x00,0x00,0x00,0x00,0x11,0x00,0x04,0x07,0x11,0x01,0x02,0x01,0x07,
0x04,0x00,0x00,0x00,0x00,0x00,0x00,0x07,0x03,0x00,0x00,0x00,0x00,0x00,0x00,0x07,
0x02,0x00,0x00,0x00,0x00,0x00,0x00,0x07,0x01,0x00,0x00,0x00,0x00,0x00,0x00,0x07,
0x00,0x00,0x00,0x00,0x00,0x00,0x06,0x07,0x04,0xff,0xff,0x00,0x00,0x00,0x00,0x07,
0x03,0xff,0xff,0x00,0x00,0x00,0x00,0x07,0x02,0xff,0xff,0x00,0x00,0x00,0x00,0x07,
0x01,0xff,0xff,0x00,0x00,0x00,0x00,0x07,0x00,0xff,0xff,0x00,0x00,0x00,0x00,0x11,
0x00,0x02,0x08,0x07,0x04,0x00,0x00,0x00,0x00,0x00,0x00,0x07,0x03,0x00,0x00,0x00,
0x00,0x00,0x00,0x07,0x02,0x00,0x00,0x00,0x00,0x00,0x00,0x07,0x01,0x00,0x00,0x00,
0x00,0x00,0x00,0x07,0x00,0x00,0x00,0x00,0x00,0x00,0x00,0x12,0x03,0x01,0x1b,0x00,
0x01,0x10,0x00,0x07,0x03,0xff,0x00,0x00,0x00,0x00,0x00,0x11,0x01,0x02,0x07,0x07,
0x01,0xff,0x00,0x00,0x00,0x00,0x00,0x11,0x00,0x02,0x01,0x07,0x03,0x00,0x00,0x00,
0x00,0x00,0x06,0x07,0x03,0xff,0x00,0x00,0x00,0x00,0x00,0x11,0x01,0x02,0x01,0x07,
0x01,0x00,0x00,0x00,0x00,0x00,0x06,0x07,0x01,0xff,0x00,0x00,0x00,0x00,0x00,0x11,
0x00,0x02,0x01,0x07,0x03,0x00,0x00,0x00,0x00,0x00,0x06,0x07,0x03,0xff,0x00,0x00,
0x00,0x00,0x00,0x11,0x01,0x02,0x01,0x07,0x01,0x00,0x00,0x00,0x00,0x00,0x06,0x07,
0x01,0xff,0x00,0x00,0x00,0x00,0x00,0x11,0x00,0x02,0x01,0x07,0x03,0x00,0x00,0x00,
0x00,0x00,0x06,0x07,0x03,0xff,0x00,0x00,0x00,0x00,0x00,0x11,0x01,0x03,0x01,0x07,
0x01,0x00,0x00,0x00,0x00,0x00,0x06,0x07,0x01,0xff,0x00,0x00,0x00,0x00,0x00,0x11,
0x00,0x03,0x01,0x07,0x03,0x00,0x00,0x00,0x00,0x00,0x06,0x07,0x03,0xff,0x00,0x00,
0x00,0x00,0x00,0x11,0x01,0x02,0x01,0x07,0x01,0x00,0x00,0x00,0x00,0x00,0x06,0x07,
0x01,0xff,0x00,0x00,0x00,0x00,0x00,0x11,0x00,0x02,0x01,0x07,0x03,0x00,0x00,0x00,
0x00,0x00,0x06,0x07,0x03,0xff,0x00,0x00,0x00,0x00,0x00,0x11,0x01,0x04,0x01,0x07,
0x01,0x00,0x00,0x00,0x00,0x00,0x06,0x07,0x01,0xff,0x00,0x00,0x00,0x00,0x00,0x11,
0x00,0x04,0x01,0x07,0x03,0x00,0x00,0x00,0x00,0x00,0x06,0x07,0x03,0xff,0x00,0x00,
0x00,0x00,0x00,0x11,0x01,0x02,0x01,0x07,0x01,0x00,0x00,0x00,0x00,0x00,0x06,0x07,
0x01,0xff,0x00,0x00,0x00,0x00,0x00,0x11,0x00,0x02,0x01,0x07,0x03,0x00,0x00,0x00,
0x00,0x00,0x07,0x07,0x01,0x00,0x00,0x00,0x00,0x00,0x00,0x12,0x04,0x01,0x03,0x00,
0x01,0x08,0x00,0x11,0x01,0x04,0x00,0x11,0x00,0x04,0x1e,0x07,0x03,0x00,0xee,0x00,
0x00,0x00,0x01,0x07,0x03,0x00,0x00,0x00,0x00,0x00,0x01,0x07,0x02,0x00,0xee,0x00,
0x00,0x00,0x01,0x07,0x02,0x00,0x00,0x00,0x00,0x00,0x01,0x07,0x01,0x00,0xee,0x00,
0x00,0x00,0x01,0x07,0x01,0x00,0x00,0x00,0x00,0x00,0x01,0x07,0x02,0x00,0xee,0x00,
0x00,0x00,0x01,0x07,0x02,0x00,0x00,0x00,0x00,0x00,0x01,0x07,0x03,0x00,0xee,0x00,
0x00,0x00,0x01,0x07,0x03,0x00,0x00,0x00,0x00,0x00,0x01,0x07,0x02,0x00,0xee,0x00,
0x00,0x00,0x01,0x07,0x02,0x00,0x00,0x00,0x00,0x00,0x01,0x07,0x01,0x00,0xee,0x00,
0x00,0x00,0x01,0x07,0x01,0x00,0x00,0x00,0x00,0x00,0x01,0x07,0x02,0x00,0xee,0x00,
0x00,0x00,0x01,0x07,0x02,0x00,0x00,0x00,0x00,0x00,0x01,0x07,0x03,0x00,0xee,0x00,
0x00,0x00,0x01,0x07,0x03,0x00,0x00,0x00,0x00,0x00,0x01,0x07,0x02,0x00,0xee,0x00,
0x00,0x00,0x01,0x07,0x02,0x00,0x00,0x00,0x00,0x00,0x01,0x07,0x01,0x00,0xee,0x00,
0x00,0x00,0x01,0x07,0x01,0x00,0x00,0x00,0x00,0x00,0x01,0x07,0x02,0x00,0xee,0x00,
0x00,0x00,0x01,0x07,0x02,0x00,0x00,0x00,0x00,0x00,0x01,0x07,0x03,0x00,0xee,0x00,
0x00,0x00,0x01,0x07,0x03,0x00,0x00,0x00,0x00,0x00,0x01,0x07,0x02,0x00,0xee,0x00,
0x00,0x00,0x01,0x07,0x02,0x00,0x00,0x00,0x00,0x00,0x01,0x07,0x01,0x00,0xee,0x00,
0x00,0x00,0x01,0x07,0x01,0x00,0x00,0x00,0x00,0x00,0x00,0x11,0x01,0x0d,0x00,0x11,
0x00,0x0d,0x00,0x12,0x05,0x01,0x03,0x00,0x01,0x08,0x00,0x11,0x01,0x04,0x00,0x11,
0x00,0x04,0x1e,0x07,0x04,0xff,0x00,0x00,0x00,0x00,0x01,0x07,0x04,0x00,0x00,0x00,
0x00,0x00,0x01,0x07,0x02,0xff,0x00,0x00,0x00,0x00,0x01,0x07,0x02,0x00,0x00,0x00,
0x00,0x00,0x01,0x07,0x00,0xff,0x00,0x00,0x00,0x00,0x01,0x07,0x00,0x00,0x00,0x00,
0x00,0x00,0x01,0x07,0x02,0xff,0x00,0x00,0x00,0x00,0x01,0x07,0x02,0x00,0x00,0x00,
0x00,0x00,0x01,0x07,0x04,0xff,0x00,0x00,0x00,0x00,0x01,0x07,0x04,0x00,0x00,0x00,
0x00,0x00,0x01,0x07,0x02,0xff,0x00,0x00,0x00,0x00,0x01,0x07,0x02,0x00,0x00,0x00,
0x00,0x00,0x01,0x07,0x00,0xff,0x00,0x00,0x00,0x00,0x01,0x07,0x00,0x00,0x00,0x00,
0x00,0x00,0x01,0x07,0x02,0xff,0x00,0x00,0x00,0x00,0x01,0x07,0x02,0x00,0x00,0x00,
0x00,0x00,0x01,0x07,0x04,0xff,0x00,0x00,0x00,0x00,0x01,0x07,0x04,0x00,0x00,0x00,
0x00,0x00,0x01,0x07,0x02,0xff,0x00,0x00,0x00,0x00,0x01,0x07,0x02,0x00,0x00,0x00,
0x00,0x00,0x01,0x07,0x00,0xff,0x00,0x00,0x00,0x00,0x01,0x07,0x00,0x00,0x00,0x00,
0x00,0x00,0x01,0x07,0x02,0xff,0x00,0x00,0x00,0x00,0x01,0x07,0x02,0x00,0x00,0x00,
0x00,0x00,0x01,0x07,0x04,0xff,0x00,0x00,0x00,0x00,0x01,0x07,0x04,0x00,0x00,0x00,
0x00,0x00,0x01,0x07,0x02,0xff,0x00,0x00,0x00,0x00,0x01,0x07,0x02,0x00,0x00,0x00,
0x00,0x00,0x01,0x07,0x00,0xff,0x00,0x00,0x00,0x00,0x01,0x07,0x00,0x00,0x00,0x00,
0x00,0x00,0x00,0x11,0x01,0x0d,0x00,0x11,0x00,0x0d,0x01,0x13,0x00,0x01,0x0a,0x00,
0x10,0x00,0x01,0x04,0x01,0x07,0x04,0x00,0x33,0xff,0x00,0x00,0x00,0x07,0x02,0xff,
0x00,0x00,0x00,0x00,0x00,0x07,0x00,0xff,0xff,0x00,0x00,0x00,0x01,0x07,0x04,0x00,
0x00,0x00,0x00,0x00,0x00,0x07,0x02,0x00,0x00,0x00,0x00,0x00,0x00,0x07,0x00,0x00,
0x00,0x00,0x00,0x00,0x00,0x07,0x01,0xff,0xff,0x00,0x00,0x00,0x01,0x07,0x01,0x00,
0x00,0x00,0x00,0x00,0x00,0x07,0x04,0xff,0xff,0x00,0x00,0x00,0x00,0x07,0x02,0x00,
0xee,0x00,0x00,0x00,0x00,0x07,0x00,0xff,0x00,0x00,0x00,0x00,0x01,0x07,0x04,0x00,
0x00,0x00,0x00,0x00,0x00,0x07,0x02,0x00,0x00,0x00,0x00,0x00,0x00,0x07,0x00,0x00,
0x00,0x00,0x00,0x00,0x00,0x07,0x03,0x00,0xee,0x00,0x00,0x00,0x01,0x07,0x03,0x00,
0x00,0x00,0x00,0x00,0x00,0x07,0x04,0xee,0x00,0x00,0x00,0x00,0x00,0x07,0x01,0x00,
0x33,0xff,0x00,0x00,0x01,0x07,0x04,0x00,0x00,0x00,0x00,0x00,0x00,0x07,0x01,0x00,
0x00,0x00,0x00,0x00,0x00,0x07,0x04,0xff,0x00,0x00,0x00,0x00,0x00,0x07,0x00,0xff,
0xff,0x00,0x00,0x00,0x01,0x07,0x04,0x00,0x00,0x00,0x00,0x00,0x00,0x07,0x00,0x00,
0x00,0x00,0x00,0x00,0x00,0x07,0x03,0x00,0x33,0xff,0x00,0x00,0x01,0x07,0x03,0x00,
0x00,0x00,0x00,0x00,0x00,0x07,0x02,0xff,0xff,0x00,0x00,0x00,0x00,0x07,0x00,0xff,
0x00,0x00,0x00,0x00,0x01,0x07,0x02,0x00,0x00,0x00,0x00,0x00,0x00,0x07,0x00,0x00,
0x00,0x00,0x00,0x00,0x01,0x07,0x03,0xee,0x00,0x00,0x00,0x00,0x00,0x07,0x00,0x00,
0xee,0x00,0x00,0x00,0x01,0x07,0x03,0x00,0x00,0x00,0x00,0x00,0x00,0x07,0x00,0x00,
0x00,0x00,0x00,0x00,0x00,0x07,0x03,0xff,0x00,0x00,0x00,0x00,0x00,0x07,0x02,0x00,
0xee,0x00,0x00,0x00,0x01,0x07,0x03,0x00,0x00,0x00,0x00,0x00,0x00,0x07,0x02,0x00,
0x00,0x00,0x00,0x00,0x00,0x07,0x01,0x00,0x33,0xff,0x00,0x00,0x01,0x07,0x01,0x00,
0x00,0x00,0x00,0x00,0x01,0x07,0x04,0x00,0x33,0xff,0x00,0x00,0x00,0x07,0x02,0xff,
0x00,0x00,0x00,0x00,0x00,0x07,0x00,0xff,0xff,0x00,0x00,0x00,0x01,0x07,0x04,0x00,
0x00,0x00,0x00,0x00,0x00,0x07,0x02,0x00,0x00,0x00,0x00,0x00,0x00,0x07,0x00,0x00,
0x00,0x00,0x00,0x00,0x00,0x07,0x01,0xff,0xff,0x00,0x00,0x00,0x01,0x07,0x01,0x00,
0x00,0x00,0x00,0x00,0x00,0x07,0x04,0xff,0xff,0x00,0x00,0x00,0x00,0x07,0x02,0x00,
0xee,0x00,0x00,0x00,0x00,0x07,0x00,0xff,0x00,0x00,0x00,0x00,0x01,0x07,0x04,0x00,
0x00,0x00,0x00,0x00,0x00,0x07,0x02,0x00,0x00,0x00,0x00,0x00,0x00,0x07,0x00,0x00,
0x00,0x00,0x00,0x00,0x00,0x07,0x03,0x00,0xee,0x00,0x00,0x00,0x01,0x07,0x03,0x00,
0x00,0x00,0x00,0x00,0x00,0x07,0x04,0xee,0x00,0x00,0x00,0x00,0x00,0x07,0x01,0x00,
0x33,0xff,0x00,0x00,0x01,0x07,0x04,0x00,0x00,0x00,0x00,0x00,0x00,0x07,0x01,0x00,
0x00,0x00,0x00,0x00,0x00,0x07,0x04,0xff,0x00,0x00,0x00,0x00,0x00,0x07,0x00,0xff,
0xff,0x00,0x00,0x00,0x01,0x07,0x04,0x00,0x00,0x00,0x00,0x00,0x00,0x07,0x00,0x00,
0x00,0x00,0x00,0x00,0x00,0x07,0x03,0x00,0x33,0xff,0x00,0x00,0x01,0x07,0x03,0x00,
0x00,0x00,0x00,0x00,0x00,0x07,0x02,0xff,0xff,0x00,0x00,0x00,0x00,0x07,0x00,0xff,
0x00,0x00,0x00,0x00,0x01,0x07,0x02,0x00,0x00,0x00,0x00,0x00,0x00,0x07,0x00,0x00,
0x00,0x00,0x00,0x00,0x01,0x07,0x03,0xee,0x00,0x00,0x00,0x00,0x00,0x07,0x00,0x00,
0xee,0x00,0x00,0x00,0x01,0x07,0x03,0x00,0x00,0x00,0x00,0x00,0x00,0x07,0x00,0x00,
0x00,0x00,0x00,0x00,0x00,0x07,0x03,0xff,0x00,0x00,0x00,0x00,0x00,0x07,0x02,0x00,
0xee,0x00,0x00,0x00,0x01,0x07,0x03,0x00,0x00,0x00,0x00,0x00,0x00,0x07,0x02,0x00,
0x00,0x00,0x00,0x00,0x00,0x07,0x01,0x00,0x33,0xff,0x00,0x00,0x01,0x07,0x01,0x00,
0x00,0x00,0x00,0x00,0x01,0x13,0x00,0x00,0x00,0x00,0x0b,0x00,0x00,0x00,0x35,0x0d,
0x00,0x00,0x00,0x04,0xff,0x66,0x00,0x00,0x03,0xff,0xff,0x00,0x00,0x01,0xff,0xff,
0x00,0x00,0x00,0xff,0x00,0x00,0x01,0x03,0x00,0x00,0x00,0x00,0x01,0x00,0x00,0x00,
0x00,0x02,0xff,0xff,0x00,0x01,0x02,0x00,0x00,0x00,0x01,0x00,0x00,0x00,0x00,0x01,
0x03,0xff,0xff,0x00,0x01,0x04,0x00,0x00,0x00,0x00,0x03,0x00,0x00,0x00,0x00,0x02,
0xff,0xff,0x00,0x00,0x00,0xff,0x00,0x00,0x01,0x02,0x00,0x00,0x00,0x00,0x01,0xff,
0xff,0x00,0x01,0x01,0x00,0x00,0x00,0x00,0x04,0xff,0x66,0x00,0x01,0x00,0x00,0x00,
0x00,0x01,0x03,0xff,0xff,0x00,0x01,0x03,0x00,0x00,0x00,0x00,0x02,0xff,0xff,0x00,
0x00,0x00,0xff,0x00,0x00,0x01,0x02,0x00,0x00,0x00,0x00,0x01,0xff,0xff,0x00,0x01,
0x04,0x00,0x00,0x00,0x00,0x01,0x00,0x00,0x00,0x01,0x00,0x00,0x00,0x00,0x01,0x04,
0xff,0x66,0x00,0x00,0x01,0xff,0xff,0x00,0x01,0x01,0x00,0x00,0x00,0x00,0x02,0xff,
0xff,0x00,0x00,0x00,0xff,0x00,0x00,0x01,0x02,0x00,0x00,0x00,0x00,0x03,0xff,0xff,
0x00,0x01,0x03,0x00,0x00,0x00,0x01,0x00,0x00,0x00,0x00,0x01,0x04,0x00,0x00,0x00,
0x00,0x02,0xff,0xff,0x00,0x01,0x02,0x00,0x00,0x00,0x00,0x03,0xff,0xff,0x00,0x00,
0x01,0xff,0xff,0x00,0x00,0x00,0xff,0x00,0x00,0x01,0x03,0x00,0x00,0x00,0x00,0x01,
0x00,0x00,0x00,0x00,0x04,0xff,0x66,0x00,0x00,0x02,0xff,0xff,0x00,0x01,0x02,0x00,
0x00,0x00,0x01,0x00,0x00,0x00,0x00,0x01,0x03,0xff,0xff,0x00,0x00,0x02,0xff,0xff,
0x00,0x00,0x01,0xff,0xff,0x00,0x01,0x03,0x00,0x00,0x00,0x00,0x02,0x00,0x00,0x00,
0x00,0x01,0x00,0x00,0x00,0x00,0x00,0xff,0x00,0x00,0x01,0x04,0x00,0x00,0x00,0x02,
0x00,0x00,0x00,0x00,0x00,0x04,0xff,0x66,0x00,0x02,0x00,0xff,0x00,0x00,0x01,0x03,
0xff,0xff,0x00,0x00,0x01,0xff,0xff,0x00,0x01,0x03,0x00,0x00,0x00,0x00,0x01,0x00,
0x00,0x00,0x00,0x02,0xff,0xff,0x00,0x01,0x04,0x00,0x00,0x00,0x00,0x02,0x00,0x00,
0x00,0x00,0x00,0x00,0x00,0x00,0x02,0x04,0xff,0x66,0x00,0x00,0x03,0xff,0xff,0x00,
0x00,0x00,0xff,0x00,0x00,0x01,0x03,0x00,0x00,0x00,0x00,0x02,0xff,0xff,0x00,0x01,
0x02,0x00,0x00,0x00,0x00,0x01,0xff,0xff,0x00,0x01,0x01,0x00,0x00,0x00,0x00,0x00,
0x00,0x00,0x00,0x02,0x04,0x00,0x00,0x00,0x00,0x01,0xff,0xff,0x00,0x00,0x00,0xff,
0x00,0x00,0x01,0x01,0x00,0x00,0x00,0x00,0x02,0xff,0xff,0x00,0x01,0x02,0x00,0x00,
0x00,0x00,0x04,0xff,0x66,0x00,0x00,0x03,0xff,0xff,0x00,0x01,0x04,0x00,0x00,0x00,
0x00,0x03,0x00,0x00,0x00,0x00,0x00,0x00,0x00,0x00,0x1e,0x04,0xff,0xff,0x00,0x00,
0x03,0xff,0x00,0x00,0x00,0x01,0xff,0x00,0x00,0x00,0x00,0xff,0xff,0xff,0x01,0x03,
0x00,0x00,0x00,0x00,0x01,0x00,0x00,0x00,0x00,0x02,0xff,0x00,0x00,0x01,0x02,0x00,
0x00,0x00,0x01,0x00,0x00,0x00,0x00,0x01,0x03,0xff,0x00,0x00,0x01,0x03,0x00,0x00,
0x00,0x00,0x02,0xff,0x00,0x00,0x00,0x00,0xff,0xff,0xff,0x01,0x02,0x00,0x00,0x00,
0x00,0x01,0xff,0x00,0x00,0x01,0x04,0x00,0x00,0x00,0x00,0x01,0x00,0x00,0x00,0x01,
0x00,0x00,0x00,0x00,0x01,0x04,0xff,0xff,0x00,0x01,0x00,0xff,0xff,0xff,0x03,0x00,
0x00,0x00,0x00,0x01,0x01,0xff,0x00,0x00,0x01,0x01,0x00,0x00,0x00,0x00,0x02,0xff,
0x00,0x00,0x00,0x00,0xff,0xff,0xff,0x01,0x04,0x00,0x00,0x00,0x00,0x02,0x00,0x00,
0x00,0x00,0x03,0xff,0x00,0x00,0x01,0x03,0x00,0x00,0x00,0x01,0x00,0x00,0x00,0x00,
0x01,0x02,0xff,0x00,0x00,0x01,0x02,0x00,0x00,0x00,0x00,0x03,0xff,0x00,0x00,0x00,
0x01,0xff,0x00,0x00,0x00,0x00,0xff,0xff,0xff,0x01,0x03,0x00,0x00,0x00,0x00,0x01,
0x00,0x00,0x00,0x00,0x02,0xff,0x00,0x00,0x01,0x02,0x00,0x00,0x00,0x01,0x00,0x00,
0x00,0x00,0x01,0x03,0xff,0x00,0x00,0x00,0x02,0xff,0x00,0x00,0x00,0x01,0xff,0x00,
0x00,0x01,0x03,0x00,0x00,0x00,0x00,0x02,0x00,0x00,0x00,0x00,0x01,0x00,0x00,0x00,
0x00,0x00,0xff,0xff,0xff,0x02,0x04,0xff,0xff,0x00,0x00,0x03,0xff,0x00,0x00,0x00,
0x01,0xff,0x00,0x00,0x01,0x03,0x00,0x00,0x00,0x00,0x01,0x00,0x00,0x00,0x00,0x00,
0x00,0x00,0x00,0x00,0x02,0xff,0x00,0x00,0x01,0x02,0x00,0x00,0x00,0x01,0x00,0xff,
0xff,0xff,0x03,0x00,0x00,0x00,0x00,0x01,0x04,0x00,0x00,0x00,0x01,0x03,0xff,0x00,
0x00,0x00,0x00,0xff,0xff,0xff,0x01,0x03,0x00,0x00,0x00,0x00,0x04,0xff,0xff,0x00,
0x00,0x02,0xff,0x00,0x00,0x01,0x02,0x00,0x00,0x00,0x00,0x01,0xff,0x00,0x00,0x01,
0x01,0x00,0x00,0x00,0x00,0x00,0x00,0x00,0x00,0x02,0x01,0xff,0x00,0x00,0x00,0x00,
0xff,0xff,0xff,0x01,0x01,0x00,0x00,0x00,0x00,0x02,0xff,0x00,0x00,0x01,0x02,0x00,
0x00,0x00,0x00,0x03,0xff,0x00,0x00,0x01,0x04,0x00,0x00,0x00,0x00,0x03,0x00,0x00,
0x00,0x00,0x00,0x00,0x00,0x00,0x02,0x00,0x00,0x00,0x00,0x00,0x01,0x00,0x00,0x00,
0x00,0x02,0x00,0x00,0x00,0x00,0x03,0x00,0x00,0x00,0x00,0x04,0x00,0x00,0x00,0x0b,
0x00,0x00,0x00,0x85,0x0d,0x00,0x00,0x00,0x04,0xff,0xff,0x00,0x00,0x03,0xff,0x00,
0x00,0x00,0x01,0xff,0x00,0x00,0x00,0x00,0xff,0xff,0xff,0x01,0x03,0x00,0x00,0x00,
0x00,0x01,0x00,0x00,0x00,0x00,0x02,0xff,0x00,0x00,0x01,0x02,0x00,0x00,0x00,0x01,
0x00,0x00,0x00,0x00,0x01,0x03,0xff,0x00,0x00,0x01,0x03,0x00,0x00,0x00,0x00,0x02,
0xff,0x00,0x00,0x00,0x00,0xff,0xff,0xff,0x01,0x02,0x00,0x00,0x00,0x00,0x01,0xff,
0x00,0x00,0x01,0x04,0x00,0x00,0x00,0x00,0x01,0x00,0x00,0x00,0x01,0x00,0x00,0x00,
0x00,0x01,0x04,0xff,0xff,0x00,0x01,0x00,0xff,0xff,0xff,0x03,0x00,0x00,0x00,0x00,
0x01,0x01,0xff,0x00,0x00,0x01,0x01,0x00,0x00,0x00,0x00,0x02,0xff,0x00,0x00,0x00,
0x00,0xff,0xff,0xff,0x01,0x04,0x00,0x00,0x00,0x00,0x02,0x00,0x00,0x00,0x00,0x03,
0xff,0x00,0x00,0x01,0x03,0x00,0x00,0x00,0x01,0x00,0x00,0x00,0x00,0x01,0x02,0xff,
0x00,0x00,0x01,0x02,0x00,0x00,0x00,0x00,0x03,0xff,0x00,0x00,0x00,0x01,0xff,0x00,
0x00,0x00,0x00,0xff,0xff,0xff,0x01,0x03,0x00,0x00,0x00,0x00,0x01,0x00,0x00,0x00,
0x00,0x02,0xff,0x00,0x00,0x01,0x02,0x00,0x00,0x00,0x01,0x00,0x00,0x00,0x00,0x01,
0x03,0xff,0x00,0x00,0x00,0x02,0xff,0x00,0x00,0x00,0x01,0xff,0x00,0x00,0x01,0x03,
0x00,0x00,0x00,0x00,0x02,0x00,0x00,0x00,0x00,0x01,0x00,0x00,0x00,0x00,0x00,0xff,
0xff,0xff,0x02,0x04,0xff,0xff,0x00,0x00,0x03,0xff,0x00,0x00,0x00,0x01,0xff,0x00,
0x00,0x01,0x03,0x00,0x00,0x00,0x00,0x01,0x00,0x00,0x00,0x00,0x00,0x00,0x00,0x00,
0x00,0x02,0xff,0x00,0x00,0x01,0x02,0x00,0x00,0x00,0x01,0x00,0xff,0xff,0xff,0x03,
0x00,0x00,0x00,0x00,0x01,0x04,0x00,0x00,0x00,0x01,0x03,0xff,0x00,0x00,0x00,0x00,
0xff,0xff,0xff,0x01,0x03,0x00,0x00,0x00,0x00,0x04,0xff,0xff,0x00,0x00,0x02,0xff,
0x00,0x00,0x01,0x02,0x00,0x00,0x00,0x00,0x01,0xff,0x00,0x00,0x01,0x01,0x00,0x00,
0x00,0x00,0x00,0x00,0x00,0x00,0x02,0x01,0xff,0x00,0x00,0x00,0x00,0xff,0xff,0xff,
0x01,0x01,0x00,0x00,0x00,0x00,0x02,0xff,0x00,0x00,0x01,0x02,0x00,0x00,0x00,0x00,
0x03,0xff,0x00,0x00,0x01,0x04,0x00,0x00,0x00,0x00,0x03,0x00,0x00,0x00,0x00,0x00,
0x00,0x00,0x00,0x06,0x04,0xff,0x00,0x00,0x00,0x03,0xff,0xff,0xff,0x00,0x01,0xff,
0xff,0xff,0x00,0x00,0xff,0xff,0x00,0x01,0x02,0xff,0xff,0xff,0x01,0x00,0x00,0x00,
0x00,0x01,0x03,0x00,0x00,0x00,0x00,0x01,0x00,0x00,0x00,0x01,0x02,0x00,0x00,0x00,
0x01,0x03,0xff,0xff,0xff,0x01,0x04,0x00,0x00,0x00,0x00,0x02,0xff,0xff,0xff,0x00,
0x00,0xff,0xff,0x00,0x01,0x01,0xff,0xff,0xff,0x01,0x03,0x00,0x00,0x00,0x00,0x00,
0x00,0x00,0x00,0x01,0x02,0x00,0x00,0x00,0x01,0x01,0x00,0x00,0x00,0x00,0x04,0xff,
0x00,0x00,0x02,0x00,0xff,0xff,0x00,0x01,0x01,0xff,0xff,0xff,0x01,0x00,0x00,0x00,
0x00,0x00,0x02,0xff,0xff,0xff,0x01,0x03,0xff,0xff,0xff,0x01,0x01,0x00,0x00,0x00,
0x01,0x04,0x00,0x00,0x00,0x00,0x02,0x00,0x00,0x00,0x01,0x03,0x00,0x00,0x00,0x00,
0x00,0xff,0xff,0x00,0x01,0x02,0xff,0xff,0xff,0x01,0x00,0x00,0x00,0x00,0x00,0x03,
0xff,0xff,0xff,0x00,0x01,0xff,0xff,0xff,0x01,0x04,0xff,0x00,0x00,0x01,0x02,0x00,
0x00,0x00,0x01,0x02,0xff,0xff,0xff,0x01,0x00,0xff,0xff,0x00,0x01,0x03,0x00,0x00,
0x00,0x00,0x01,0x00,0x00,0x00,0x01,0x02,0x00,0x00,0x00,0x00,0x00,0x00,0x00,0x00,
0x02,0x04,0x00,0x00,0x00,0x02,0x03,0xff,0xff,0xff,0x00,0x02,0xff,0xff,0xff,0x00,
0x01,0xff,0xff,0xff,0x00,0x00,0xff,0xff,0x00,0x01,0x04,0xff,0x00,0x00,0x01,0x00,
0x00,0x00,0x00,0x01,0x03,0x00,0x00,0x00,0x00,0x02,0x00,0x00,0x00,0x00,0x01,0x00,
0x00,0x00,0x03,0x00,0xff,0xff,0x00,0x02,0x04,0x00,0x00,0x00,0x00,0x00,0x00,0x00,
0x00,0x00,0x01,0xff,0xff,0xff,0x01,0x02,0xff,0xff,0xff,0x01,0x03,0xff,0xff,0xff,
0x01,0x01,0x00,0x00,0x00,0x01,0x02,0x00,0x00,0x00,0x00,0x00,0xff,0xff,0x00,0x01,
0x03,0x00,0x00,0x00,0x01,0x00,0x00,0x00,0x00,0x01,0x03,0xff,0xff,0xff,0x01,0x02,
0xff,0xff,0xff,0x01,0x01,0xff,0xff,0xff,0x01,0x03,0x00,0x00,0x00,0x00,0x00,0xff,
0xff,0x00,0x01,0x02,0x00,0x00,0x00,0x01,0x01,0x00,0x00,0x00,0x00,0x00,0x00,0x00,
0x00,0x00,0x04,0xff,0x00,0x00,0x03,0x03,0xff,0xff,0xff,0x00,0x01,0xff,0xff,0xff,
0x01,0x02,0xff,0xff,0xff,0x00,0x00,0xff,0xff,0x00,0x02,0x03,0x00,0x00,0x00,0x00,
0x01,0x00,0x00,0x00,0x00,0x00,0x00,0x00,0x00,0x01,0x04,0x00,0x00,0x00,0x00,0x02,
0x00,0x00,0x00,0x03,0x00,0xff,0xff,0x00,0x01,0x04,0xff,0x00,0x00,0x00,0x03,0xff,
0xff,0xff,0x00,0x01,0xff,0xff,0xff,0x01,0x00,0x00,0x00,0x00,0x00,0x02,0xff,0xff,
0xff,0x02,0x03,0x00,0x00,0x00,0x00,0x01,0x00,0x00,0x00,0x01,0x02,0x00,0x00,0x00,
0x01,0x00,0xff,0xff,0x00,0x02,0x04,0x00,0x00,0x00,0x00,0x00,0x00,0x00,0x00,0x04,
0x00,0x00,0x00,0x00,0x00,0x01,0x00,0x00,0x00,0x00,0x02,0x00,0x00,0x00,0x00,0x03,
0x00,0x00,0x00,0x00,0x04,0x00,0x00,0x00,0x0b,0x00,0x00,0x00,0xed,0x09,0x00,0x00,
0x00,0x04,0xff,0x00,0x00,0x00,0x03,0xff,0xff,0xff,0x00,0x01,0xff,0xff,0xff,0x00,
0x00,0xff,0xff,0x00,0x01,0x02,0xff,0xff,0xff,0x01,0x00,0x00,0x00,0x00,0x01,0x03,
0x00,0x00,0x00,0x00,0x01,0x00,0x00,0x00,0x01,0x02,0x00,0x00,0x00,0x01,0x03,0xff,
0xff,0xff,0x01,0x04,0x00,0x00,0x00,0x00,0x02,0xff,0xff,0xff,0x00,0x00,0xff,0xff,
0x00,0x01,0x01,0xff,0xff,0xff,0x01,0x03,0x00,0x00,0x00,0x00,0x00,0x00,0x00,0x00,
0x01,0x02,0x00,0x00,0x00,0x01,0x01,0x00,0x00,0x00,0x00,0x04,0xff,0x00,0x00,0x02,
0x04,0x00,0x00,0x00,0x42,0x04,0xff,0xcc,0x00,0x00,0x01,0xff,0xcc,0x00,0x00,0x00,
0xff,0x00,0x00,0x01,0x02,0xff,0xcc,0x00,0x01,0x04,0x00,0x00,0x00,0x00,0x03,0xff,
0xcc,0x00,0x02,0x01,0x00,0x00,0x00,0x00,0x04,0xff,0xcc,0x00,0x01,0x02,0x00,0x00,
0x00,0x00,0x00,0x00,0x00,0x00,0x01,0x04,0x00,0x00,0x00,0x00,0x03,0x00,0x00,0x00,
0x01,0x00,0xff,0x00,0x00,0x01,0x04,0xff,0xcc,0x00,0x00,0x03,0xff,0xcc,0x00,0x01,
0x02,0xff,0xcc,0x00,0x01,0x04,0x00,0x00,0x00,0x00,0x01,0xff,0xcc,0x00,0x01,0x03,
0x00,0x00,0x00,0x01,0x02,0x00,0x00,0x00,0x00,0x00,0x00,0x00,0x00,0x01,0x01,0x00,
0x00,0x00,0x01,0x00,0xff,0x00,0x00,0x01,0x01,0xff,0xcc,0x00,0x01,0x04,0xff,0xcc,
0x00,0x00,0x02,0xff,0xcc,0x00,0x01,0x03,0xff,0xcc,0x00,0x01,0x04,0x00,0x00,0x00,
0x01,0x01,0x00,0x00,0x00,0x00,0x00,0x00,0x00,0x00,0x01,0x02,0x00,0x00,0x00,0x00,
0x04,0xff,0xcc,0x00,0x01,0x03,0x00,0x00,0x00,0x00,0x00,0xff,0x00,0x00,0x01,0x04,
0x00,0x00,0x00,0x01,0x03,0xff,0xcc,0x00,0x01,0x04,0xff,0xcc,0x00,0x00,0x02,0xff,
0xcc,0x00,0x01,0x01,0xff,0xcc,0x00,0x01,0x04,0x00,0x00,0x00,0x00,0x03,0x00,0x00,
0x00,0x00,0x00,0x00,0x00,0x00,0x01,0x02,0x00,0x00,0x00,0x01,0x01,0x00,0x00,0x00,
0x00,0x00,0xff,0x00,0x00,0x04,0x04,0xff,0xcc,0x00,0x00,0x03,0xff,0xcc,0x00,0x00,
0x01,0xff,0xcc,0x00,0x01,0x00,0x00,0x00,0x00,0x00,0x02,0xff,0xcc,0x00,0x01,0x04,
0x00,0x00,0x00,0x01,0x03,0x00,0x00,0x00,0x00,0x01,0x00,0x00,0x00,0x00,0x00,0xff,
0x00,0x00,0x01,0x02,0x00,0x00,0x00,0x00,0x04,0xff,0xcc,0x00,0x01,0x03,0xff,0xcc,
0x00,0x00,0x01,0xff,0xcc,0x00,0x01,0x04,0x00,0x00,0x00,0x00,0x02,0xff,0xcc,0x00,
0x02,0x03,0x00,0x00,0x00,0x00,0x01,0x00,0x00,0x00,0x00,0x00,0x00,0x00,0x00,0x00,
0x04,0xff,0xcc,0x00,0x01,0x02,0x00,0x00,0x00,0x01,0x04,0x00,0x00,0x00,0x00,0x03,
0xff,0xcc,0x00,0x00,0x01,0xff,0xcc,0x00,0x00,0x00,0xff,0x00,0x00,0x01,0x02,0xff,
0xcc,0x00,0x02,0x03,0x00,0x00,0x00,0x00,0x01,0x00,0x00,0x00,0x01,0x02,0x00,0x00,
0x00,0x01,0x00,0x00,0x00,0x00,0x00,0x03,0xff,0xcc,0x00,0x00,0x01,0xff,0xcc,0x00,
0x01,0x04,0xff,0xcc,0x00,0x00,0x02,0xff,0xcc,0x00,0x01,0x00,0xff,0x00,0x00,0x01,
0x04,0x00,0x00,0x00,0x00,0x03,0x00,0x00,0x00,0x00,0x01,0x00,0x00,0x00,0x01,0x02,
0x00,0x00,0x00,0x01,0x04,0xff,0xcc,0x00,0x00,0x03,0xff,0xcc,0x00,0x00,0x01,0xff,
0xcc,0x00,0x01,0x02,0xff,0xcc,0x00,0x01,0x04,0x00,0x00,0x00,0x00,0x00,0x00,0x00,
0x00,0x01,0x03,0x00,0x00,0x00,0x00,0x01,0x00,0x00,0x00,0x01,0x02,0x00,0x00,0x00,
0x00,0x04,0xff,0xcc,0x00,0x00,0x00,0xff,0x00,0x00,0x01,0x03,0xff,0xcc,0x00,0x00,
0x01,0xff,0xcc,0x00,0x01,0x04,0x00,0x00,0x00,0x00,0x02,0xff,0xcc,0x00,0x02,0x03,
0x00,0x00,0x00,0x00,0x01,0x00,0x00,0x00,0x01,0x02,0x00,0x00,0x00,0x00,0x00,0x00,
0x00,0x00,0x02,0x00,0x00,0x00,0x00,0x00,0x01,0x00,0x00,0x00,0x00,0x02,0x00,0x00,
0x00,0x00,0x03,0x00,0x00,0x00,0x00,0x04,0x00,0x00,0x00,0x0b,0x00,0x00,0x00,0x5d,
0x08,0x00,0x00,0x00,0x04,0xff,0xcc,0x00,0x00,0x01,0xff,0xcc,0x00,0x00,0x00,0xff,
0x00,0x00,0x01,0x02,0xff,0xcc,0x00,0x01,0x04,0x00,0x00,0x00,0x00,0x03,0xff,0xcc,
0x00,0x02,0x01,0x00,0x00,0x00,0x00,0x04,0xff,0xcc,0x00,0x01,0x02,0x00,0x00,0x00,
0x00,0x00,0x00,0x00,0x00,0x01,0x04,0x00,0x00,0x00,0x00,0x03,0x00,0x00,0x00,0x01,
0x00,0xff,0x00,0x00,0x01,0x04,0xff,0xcc,0x00,0x00,0x03,0xff,0xcc,0x00,0x01,0x02,
0xff,0xcc,0x00,0x01,0x04,0x00,0x00,0x00,0x00,0x01,0xff,0xcc,0x00,0x01,0x03,0x00,
0x00,0x00,0x01,0x02,0x00,0x00,0x00,0x00,0x00,0x00,0x00,0x00,0x01,0x01,0x00,0x00,
0x00,0x01,0x00,0xff,0x00,0x00,0x01,0x01,0xff,0xcc,0x00,0x01,0x04,0xff,0xcc,0x00,
0x00,0x02,0xff,0xcc,0x00,0x01,0x03,0xff,0xcc,0x00,0x01,0x04,0x00,0x00,0x00,0x01,
0x01,0x00,0x00,0x00,0x00,0x00,0x00,0x00,0x00,0x01,0x02,0x00,0x00,0x00,0x00,0x04,
0xff,0xcc,0x00,0x01,0x03,0x00,0x00,0x00,0x00,0x00,0xff,0x00,0x00,0x01,0x04,0x00,
0x00,0x00,0x01,0x03,0xff,0xcc,0x00,0x01,0x04,0xff,0xcc,0x00,0x00,0x02,0xff,0xcc,
0x00,0x01,0x01,0xff,0xcc,0x00,0x01,0x04,0x00,0x00,0x00,0x00,0x03,0x00,0x00,0x00,
0x00,0x00,0x00,0x00,0x00,0x01,0x02,0x00,0x00,0x00,0x01,0x01,0x00,0x00,0x00,0x00,
0x00,0xff,0x00,0x00,0x04,0x04,0xff,0xcc,0x00,0x00,0x03,0xff,0xcc,0x00,0x00,0x01,
0xff,0xcc,0x00,0x01,0x00,0x00,0x00,0x00,0x00,0x02,0xff,0xcc,0x00,0x01,0x04,0x00,
0x00,0x00,0x01,0x03,0x00,0x00,0x00,0x00,0x01,0x00,0x00,0x00,0x00,0x00,0xff,0x00,
0x00,0x01,0x02,0x00,0x00,0x00,0x00,0x04,0xff,0xcc,0x00,0x01,0x03,0xff,0xcc,0x00,
0x00,0x01,0xff,0xcc,0x00,0x01,0x04,0x00,0x00,0x00,0x00,0x02,0xff,0xcc,0x00,0x02,
0x03,0x00,0x00,0x00,0x00,0x01,0x00,0x00,0x00,0x00,0x00,0x00,0x00,0x00,0x00,0x04,
0xff,0xcc,0x00,0x01,0x02,0x00,0x00,0x00,0x01,0x04,0x00,0x00,0x00,0x00,0x03,0xff,
0xcc,0x00,0x00,0x01,0xff,0xcc,0x00,0x00,0x00,0xff,0x00,0x00,0x01,0x02,0xff,0xcc,
0x00,0x02,0x03,0x00,0x00,0x00,0x00,0x01,0x00,0x00,0x00,0x01,0x02,0x00,0x00,0x00,
0x01,0x00,0x00,0x00,0x00,0x00,0x03,0xff,0xcc,0x00,0x00,0x01,0xff,0xcc,0x00,0x01,
0x04,0xff,0xcc,0x00,0x00,0x02,0xff,0xcc,0x00,0x01,0x00,0xff,0x00,0x00,0x01,0x04,
0x00,0x00,0x00,0x00,0x03,0x00,0x00,0x00,0x00,0x01,0x00,0x00,0x00,0x01,0x02,0x00,
0x00,0x00,0x01,0x04,0xff,0xcc,0x00,0x00,0x03,0xff,0xcc,0x00,0x00,0x01,0xff,0xcc,
0x00,0x01,0x02,0xff,0xcc,0x00,0x01,0x04,0x00,0x00,0x00,0x00,0x00,0x00,0x00,0x00,
0x01,0x03,0x00,0x00,0x00,0x00,0x01,0x00,0x00,0x00,0x01,0x02,0x00,0x00,0x00,0x00,
0x04,0xff,0xcc,0x00,0x00,0x00,0xff,0x00,0x00,0x01,0x03,0xff,0xcc,0x00,0x00,0x01,
0xff,0xcc,0x00,0x01,0x04,0x00,0x00,0x00,0x00,0x02,0xff,0xcc,0x00,0x02,0x03,0x00,
0x00,0x00,0x00,0x01,0x00,0x00,0x00,0x01,0x02,0x00,0x00,0x00,0x00,0x00,0x00,0x00,
0x00,0x02,0x00,0x00,0x00,0x00,0x00,0x01,0x00,0x00,0x00,0x00,0x02,0x00,0x00,0x00,
0x00,0x03,0x00,0x00,0x00,0x00,0x04,0x00,0x00,0x00,0xff,0xff,0xff,0xff,0x01,0x01,
0x00,0x00,0x4d,0x54,0x68,0x64,0x00,0x00,0x00,0x06,0x00,0x00,0x00,0x01,0x01,0xe0,
0x4d,0x54,0x72,0x6b,0x00,0x00,0x00,0x2a,0x00,0xff,0x03,0x07,0x31,0x6e,0x6f,0x74,
0x65,0x41,0x35,0x00,0xff,0x51,0x03,0x10,0x59,0x42,0x00,0xff,0x58,0x04,0x04,0x02,
0x18,0x08,0x00,0xc0,0x09,0x14,0x90,0x51,0x78,0x82,0x4a,0x80,0x51,0x49,0x00,0xff,
0x2f,0x00,0x01,0x01,0x00,0x00,0x4d,0x54,0x68,0x64,0x00,0x00,0x00,0x06,0x00,0x00,
0x00,0x01,0x01,0xe0,0x4d,0x54,0x72,0x6b,0x00,0x00,0x00,0x2a,0x00,0xff,0x03,0x07,
0x31,0x6e,0x6f,0x74,0x65,0x42,0x35,0x00,0xff,0x51,0x03,0x10,0x59,0x42,0x00,0xff,
0x58,0x04,0x04,0x02,0x18,0x08,0x00,0xc0,0x09,0x0a,0x90,0x5f,0x76,0x82,0x5d,0x80,
0x5f,0x4d,0x00,0xff,0x2f,0x00,0x05,0x01,0x00,0x00,0x4d,0x54,0x68,0x64,0x00,0x00,
0x00,0x06,0x00,0x00,0x00,0x01,0x01,0xe0,0x4d,0x54,0x72,0x6b,0x00,0x00,0x00,0x2b,
0x00,0xff,0x03,0x08,0x31,0x6e,0x6f,0x74,0x65,0x42,0x62,0x34,0x00,0xff,0x51,0x03,
0x10,0x59,0x42,0x00,0xff,0x58,0x04,0x04,0x02,0x18,0x08,0x00,0xc0,0x09,0x14,0x90,
0x52,0x64,0x82,0x7a,0x80,0x52,0x49,0x00,0xff,0x2f,0x00,0x01,0x01,0x00,0x00,0x4d,
0x54,0x68,0x64,0x00,0x00,0x00,0x06,0x00,0x00,0x00,0x01,0x01,0xe0,0x4d,0x54,0x72,
0x6b,0x00,0x00,0x00,0x2a,0x00,0xff,0x03,0x07,0x31,0x6e,0x6f,0x74,0x65,0x43,0x36,
0x00,0xff,0x51,0x03,0x10,0x59,0x42,0x00,0xff,0x58,0x04,0x04,0x02,0x18,0x08,0x00,
0xc0,0x09,0x0d,0x90,0x54,0x7a,0x83,0x39,0x80,0x54,0x76,0x00,0xff,0x2f,0x00,0xfd,
0x00,0x00,0x00,0x4d,0x54,0x68,0x64,0x00,0x00,0x00,0x06,0x00,0x00,0x00,0x01,0x01,
0xe0,0x4d,0x54,0x72,0x6b,0x00,0x00,0x00,0x29,0x00,0xff,0x03,0x06,0x4e,0x6f,0x74,
0x65,0x31,0x41,0x00,0xff,0x51,0x03,0x10,0x59,0x42,0x00,0xff,0x58,0x04,0x04,0x02,
0x18,0x08,0x00,0xc0,0x09,0x11,0x90,0x4c,0x7f,0x82,0x56,0x80,0x4c,0x76,0x00,0xff,
0x2f,0x00,0x05,0x01,0x00,0x00,0x4d,0x54,0x68,0x64,0x00,0x00,0x00,0x06,0x00,0x00,
0x00,0x01,0x01,0xe0,0x4d,0x54,0x72,0x6b,0x00,0x00,0x00,0x2b,0x00,0xff,0x03,0x08,
0x31,0x6e,0x6f,0x74,0x65,0x46,0x23,0x34,0x00,0xff,0x51,0x03,0x10,0x59,0x42,0x00,
0xff,0x58,0x04,0x04,0x02,0x18,0x08,0x00,0xc0,0x09,0x12,0x90,0x4e,0x6e,0x82,0x46,
0x80,0x4e,0x49,0x00,0xff,0x2f,0x00,0x01,0x01,0x00,0x00,0x4d,0x54,0x68,0x64,0x00,
0x00,0x00,0x06,0x00,0x00,0x00,0x01,0x01,0xe0,0x4d,0x54,0x72,0x6b,0x00,0x00,0x00,
0x2a,0x00,0xff,0x03,0x07,0x31,0x6e,0x6f,0x74,0x65,0x46,0x35,0x00,0xff,0x51,0x03,
0x10,0x59,0x42,0x00,0xff,0x58,0x04,0x04,0x02,0x18,0x08,0x00,0xc0,0x09,0x12,0x90,
0x59,0x70,0x81,0x7f,0x80,0x59,0x49,0x00,0xff,0x2f,0x00,0x01,0x01,0x00,0x00,0x4d,
0x54,0x68,0x64,0x00,0x00,0x00,0x06,0x00,0x00,0x00,0x01,0x01,0xe0,0x4d,0x54,0x72,
0x6b,0x00,0x00,0x00,0x2a,0x00,0xff,0x03,0x07,0x31,0x6e,0x6f,0x74,0x65,0x47,0x35,
0x00,0xff,0x51,0x03,0x10,0x59,0x42,0x00,0xff,0x58,0x04,0x04,0x02,0x18,0x08,0x00,
0xc0,0x09,0x0f,0x90,0x5b,0x7b,0x82,0x20,0x80,0x5b,0x4d,0x00,0xff,0x2f,0x00,0x29,
0x01,0x00,0x00,0x4d,0x54,0x68,0x64,0x00,0x00,0x00,0x06,0x00,0x00,0x00,0x01,0x01,
0xe0,0x4d,0x54,0x72,0x6b,0x00,0x00,0x00,0x34,0x00,0xff,0x03,0x0a,0x32,0x6e,0x6f,
0x74,0x65,0x73,0x43,0x36,0x43,0x34,0x00,0xff,0x51,0x03,0x10,0x59,0x42,0x00,0xff,
0x58,0x04,0x04,0x02,0x18,0x08,0x00,0xc0,0x09,0x11,0x90,0x60,0x63,0x81,0x06,0x48,
0x53,0x82,0x0a,0x80,0x60,0x4d,0x5e,0x48,0x76,0x00,0xff,0x2f,0x00,0x29,0x01,0x00,
0x00,0x4d,0x54,0x68,0x64,0x00,0x00,0x00,0x06,0x00,0x00,0x00,0x01,0x01,0xe0,0x4d,
0x54,0x72,0x6b,0x00,0x00,0x00,0x34,0x00,0xff,0x03,0x0b,0x32,0x6e,0x6f,0x74,0x65,
0x73,0x43,0x36,0x46,0x23,0x35,0x00,0xff,0x51,0x03,0x10,0x59,0x42,0x00,0xff,0x58,
0x04,0x04,0x02,0x18,0x08,0x00,0xc0,0x09,0x14,0x90,0x60,0x5d,0x38,0x5a,0x67,0x02,
0x80,0x60,0x6a,0x81,0x23,0x5a,0x6f,0x00,0xff,0x2f,0x00,0x25,0x01,0x00,0x00,0x4d,
0x54,0x68,0x64,0x00,0x00,0x00,0x06,0x00,0x00,0x00,0x01,0x01,0xe0,0x4d,0x54,0x72,
0x6b,0x00,0x00,0x00,0x33,0x00,0xff,0x03,0x0a,0x32,0x6e,0x6f,0x74,0x65,0x73,0x44,
0x34,0x41,0x35,0x00,0xff,0x51,0x03,0x10,0x59,0x42,0x00,0xff,0x58,0x04,0x04,0x02,
0x18,0x08,0x00,0xc0,0x09,0x45,0x90,0x4a,0x5b,0x81,0x70,0x5d,0x69,0x06,0x80,0x4a,
0x49,0x78,0x5d,0x52,0x00,0xff,0x2f,0x00,0x31,0x01,0x00,0x00,0x4d,0x54,0x68,0x64,
0x00,0x00,0x00,0x06,0x00,0x00,0x00,0x01,0x01,0xe0,0x4d,0x54,0x72,0x6b,0x00,0x00,
0x00,0x36,0x00,0xff,0x03,0x0a,0x32,0x6e,0x6f,0x74,0x65,0x73,0x44,0x34,0x47,0x34,
0x00,0xff,0x51,0x03,0x10,0x59,0x42,0x00,0xff,0x58,0x04,0x04,0x02,0x18,0x08,0x00,
0xc0,0x09,0x15,0x90,0x4a,0x62,0x84,0x15,0x80,0x4a,0x49,0x10,0x90,0x4f,0x71,0x84,
0x33,0x80,0x4f,0x76,0x00,0xff,0x2f,0x00,0x21,0x01,0x00,0x00,0x4d,0x54,0x68,0x64,
0x00,0x00,0x00,0x06,0x00,0x00,0x00,0x01,0x01,0xe0,0x4d,0x54,0x72,0x6b,0x00,0x00,
0x00,0x32,0x00,0xff,0x03,0x0a,0x32,0x6e,0x6f,0x74,0x65,0x73,0x44,0x35,0x47,0x34,
0x00,0xff,0x51,0x03,0x10,0x59,0x42,0x00,0xff,0x58,0x04,0x04,0x02,0x18,0x08,0x00,
0xc0,0x09,0x08,0x90,0x56,0x5f,0x3d,0x4f,0x5a,0x0e,0x80,0x56,0x78,0x49,0x4f,0x6c,
0x00,0xff,0x2f,0x00,0x25,0x01,0x00,0x00,0x4d,0x54,0x68,0x64,0x00,0x00,0x00,0x06,
0x00,0x00,0x00,0x01,0x01,0xe0,0x4d,0x54,0x72,0x6b,0x00,0x00,0x00,0x33,0x00,0xff,
0x03,0x0a,0x32,0x6e,0x6f,0x74,0x65,0x73,0x41,0x35,0x45,0x35,0x00,0xff,0x51,0x03,
0x10,0x59,0x42,0x00,0xff,0x58,0x04,0x04,0x02,0x18,0x08,0x00,0xc0,0x09,0x14,0x90,
0x58,0x59,0x81,0x03,0x5d,0x58,0x22,0x80,0x58,0x6f,0x7f,0x5d,0x52,0x00,0xff,0x2f,
0x00,0x21,0x01,0x00,0x00,0x4d,0x54,0x68,0x64,0x00,0x00,0x00,0x06,0x00,0x00,0x00,
0x01,0x01,0xe0,0x4d,0x54,0x72,0x6b,0x00,0x00,0x00,0x32,0x00,0xff,0x03,0x0a,0x32,
0x6e,0x6f,0x74,0x65,0x73,0x45,0x35,0x43,0x36,0x00,0xff,0x51,0x03,0x10,0x59,0x42,
0x00,0xff,0x58,0x04,0x04,0x02,0x18,0x08,0x00,0xc0,0x09,0x02,0x90,0x58,0x5a,0x43,
0x60,0x62,0x08,0x80,0x58,0x78,0x61,0x60,0x54,0x00,0xff,0x2f,0x00,0x25,0x01,0x00,
0x00,0x4d,0x54,0x68,0x64,0x00,0x00,0x00,0x06,0x00,0x00,0x00,0x01,0x01,0xe0,0x4d,
0x54,0x72,0x6b,0x00,0x00,0x00,0x33,0x00,0xff,0x03,0x0a,0x32,0x6e,0x6f,0x74,0x65,
0x73,0x45,0x35,0x45,0x34,0x00,0xff,0x51,0x03,0x10,0x59,0x42,0x00,0xff,0x58,0x04,
0x04,0x02,0x18,0x08,0x00,0xc0,0x09,0x02,0x90,0x58,0x5a,0x2c,0x4c,0x62,0x1f,0x80,
0x58,0x78,0x83,0x76,0x4c,0x49,0x00,0xff,0x2f,0x00,0x49,0x01,0x00,0x00,0x4d,0x54,
0x68,0x64,0x00,0x00,0x00,0x06,0x00,0x00,0x00,0x01,0x01,0xe0,0x4d,0x54,0x72,0x6b,
0x00,0x00,0x00,0x3c,0x00,0xff,0x03,0x0c,0x33,0x6e,0x6f,0x74,0x65,0x73,0x41,0x34,
0x47,0x35,0x47,0x35,0x00,0xff,0x51,0x03,0x10,0x59,0x42,0x00,0xff,0x58,0x04,0x04,
0x02,0x18,0x08,0x00,0xc0,0x09,0x11,0x90,0x51,0x62,0x6c,0x5b,0x52,0x57,0x80,0x5b,
0x6c,0x54,0x90,0x5b,0x62,0x46,0x80,0x5b,0x54,0x56,0x51,0x49,0x00,0xff,0x2f,0x00,
0x49,0x01,0x00,0x00,0x4d,0x54,0x68,0x64,0x00,0x00,0x00,0x06,0x00,0x00,0x00,0x01,
0x01,0xe0,0x4d,0x54,0x72,0x6b,0x00,0x00,0x00,0x3c,0x00,0xff,0x03,0x0c,0x33,0x6e,
0x6f,0x74,0x65,0x73,0x42,0x35,0x41,0x35,0x46,0x35,0x00,0xff,0x51,0x03,0x10,0x59,
0x42,0x00,0xff,0x58,0x04,0x04,0x02,0x18,0x08,0x00,0xc0,0x09,0x10,0x90,0x5f,0x49,
0x27,0x5d,0x62,0x13,0x80,0x5f,0x6a,0x2b,0x90,0x59,0x5a,0x08,0x80,0x5d,0x54,0x44,
0x59,0x78,0x00,0xff,0x2f,0x00,0x49,0x01,0x00,0x00,0x4d,0x54,0x68,0x64,0x00,0x00,
0x00,0x06,0x00,0x00,0x00,0x01,0x01,0xe0,0x4d,0x54,0x72,0x6b,0x00,0x00,0x00,0x3c,
0x00,0xff,0x03,0x0c,0x33,0x6e,0x6f,0x74,0x65,0x73,0x42,0x35,0x44,0x35,0x43,0x36,
0x00,0xff,0x51,0x03,0x10,0x59,0x42,0x00,0xff,0x58,0x04,0x04,0x02,0x18,0x08,0x00,
0xc0,0x09,0x14,0x90,0x5f,0x62,0x28,0x56,0x52,0x10,0x80,0x5f,0x54,0x32,0x90,0x60,
0x5a,0x15,0x80,0x56,0x6c,0x46,0x60,0x6a,0x00,0xff,0x2f,0x00,0x49,0x01,0x00,0x00,
0x4d,0x54,0x68,0x64,0x00,0x00,0x00,0x06,0x00,0x00,0x00,0x01,0x01,0xe0,0x4d,0x54,
0x72,0x6b,0x00,0x00,0x00,0x3c,0x00,0xff,0x03,0x0c,0x33,0x6e,0x6f,0x74,0x65,0x73,
0x44,0x34,0x45,0x34,0x47,0x34,0x00,0xff,0x51,0x03,0x10,0x59,0x42,0x00,0xff,0x58,
0x04,0x04,0x02,0x18,0x08,0x00,0xc0,0x09,0x03,0x90,0x4a,0x5a,0x28,0x4c,0x52,0x23,
0x80,0x4a,0x78,0x01,0x90,0x4f,0x62,0x33,0x80,0x4c,0x6c,0x13,0x4f,0x54,0x00,0xff,
0x2f,0x00,0x5d,0x01,0x00,0x00,0x4d,0x54,0x68,0x64,0x00,0x00,0x00,0x06,0x00,0x00,
0x00,0x01,0x01,0xe0,0x4d,0x54,0x72,0x6b,0x00,0x00,0x00,0x41,0x00,0xff,0x03,0x0c,
0x33,0x6e,0x6f,0x74,0x65,0x73,0x45,0x35,0x41,0x35,0x43,0x36,0x00,0xff,0x51,0x03,
0x10,0x59,0x42,0x00,0xff,0x58,0x04,0x04,0x02,0x18,0x08,0x00,0xc0,0x09,0x02,0x90,
0x58,0x5a,0x4b,0x80,0x58,0x78,0x81,0x01,0x90,0x5d,0x49,0x3a,0x80,0x5d,0x6a,0x82,
0x22,0x90,0x60,0x58,0x81,0x77,0x80,0x60,0x4d,0x00,0xff,0x2f,0x00,0x4d,0x01,0x00,
0x00,0x4d,0x54,0x68,0x64,0x00,0x00,0x00,0x06,0x00,0x00,0x00,0x01,0x01,0xe0,0x4d,
0x54,0x72,0x6b,0x00,0x00,0x00,0x3d,0x00,0xff,0x03,0x0c,0x33,0x6e,0x6f,0x74,0x65,
0x73,0x45,0x35,0x43,0x36,0x44,0x35,0x00,0xff,0x51,0x03,0x10,0x59,0x42,0x00,0xff,
0x58,0x04,0x04,0x02,0x18,0x08,0x00,0xc0,0x09,0x02,0x90,0x58,0x5a,0x43,0x60,0x62,
0x08,0x80,0x58,0x78,0x26,0x90,0x56,0x48,0x18,0x80,0x60,0x54,0x82,0x3b,0x56,0x76,
0x00,0xff,0x2f,0x00,0x51,0x01,0x00,0x00,0x4d,0x54,0x68,0x64,0x00,0x00,0x00,0x06,
0x00,0x00,0x00,0x01,0x01,0xe0,0x4d,0x54,0x72,0x6b,0x00,0x00,0x00,0x3e,0x00,0xff,
0x03,0x0c,0x33,0x6e,0x6f,0x74,0x65,0x73,0x45,0x35,0x44,0x35,0x41,0x35,0x00,0xff,
0x51,0x03,0x10,0x59,0x42,0x00,0xff,0x58,0x04,0x04,0x02,0x18,0x08,0x00,0xc0,0x09,
0x0b,0x90,0x58,0x40,0x36,0x56,0x58,0x6b,0x80,0x58,0x52,0x54,0x90,0x5d,0x48,0x81,
0x72,0x80,0x56,0x4d,0x81,0x5c,0x5d,0x76,0x00,0xff,0x2f,0x00,0x49,0x01,0x00,0x00,
0x4d,0x54,0x68,0x64,0x00,0x00,0x00,0x06,0x00,0x00,0x00,0x01,0x01,0xe0,0x4d,0x54,
0x72,0x6b,0x00,0x00,0x00,0x3c,0x00,0xff,0x03,0x0c,0x33,0x6e,0x6f,0x74,0x65,0x73,
0x46,0x35,0x43,0x36,0x47,0x35,0x00,0xff,0x51,0x03,0x10,0x59,0x42,0x00,0xff,0x58,
0x04,0x04,0x02,0x18,0x08,0x00,0xc0,0x09,0x04,0x90,0x59,0x5a,0x41,0x60,0x62,0x0a,
0x80,0x59,0x78,0x2f,0x90,0x5b,0x52,0x0d,0x80,0x60,0x54,0x4a,0x5b,0x6c,0x00,0xff,
0x2f,0x00,0xd5,0x02,0x00,0x00,0x4d,0x54,0x68,0x64,0x00,0x00,0x00,0x06,0x00,0x00,
0x00,0x01,0x03,0xc0,0x4d,0x54,0x72,0x6b,0x00,0x00,0x00,0x9f,0x00,0xc0,0x11,0x00,
0xb0,0x0a,0x40,0x00,0xb0,0x65,0x00,0x00,0xb0,0x64,0x02,0x00,0xb0,0x06,0x40,0x00,
0xb0,0x65,0x00,0x00,0xb0,0x64,0x01,0x00,0xb0,0x06,0x40,0x00,0xb0,0x26,0x00,0x00,
0xb0,0x65,0x00,0x00,0xb0,0x64,0x00,0x00,0xb0,0x06,0x02,0x00,0xb0,0x26,0x00,0x00,
0xff,0x51,0x03,0x09,0x27,0xc0,0x1e,0x90,0x4f,0x7f,0x00,0xb0,0x0b,0x7f,0x00,0xe0,
0x00,0x3f,0x1e,0xb0,0x0b,0x7a,0x00,0xe0,0x00,0x40,0x1e,0xb0,0x0b,0x52,0x1e,0xb0,
0x0b,0x69,0x3c,0x80,0x4f,0x7b,0x00,0x90,0x51,0x7b,0x00,0xb0,0x0b,0x7f,0x00,0xe0,
0x00,0x3b,0x1e,0xb0,0x0b,0x65,0x00,0xe0,0x00,0x3c,0x1e,0xb0,0x0b,0x5d,0x00,0xe0,
0x00,0x40,0x1e,0xe0,0x00,0x3d,0x3c,0x80,0x51,0x5b,0x1e,0xb0,0x0b,0x7f,0x00,0xe0,
0x00,0x3e,0x1e,0xb0,0x0b,0x5e,0x00,0xe0,0x00,0x40,0x1e,0xb0,0x0b,0x34,0x00,0x90,
0x54,0x7f,0x83,0x60,0x80,0x54,0x00,0x00,0xff,0x2f,0x00,0xdd,0x01,0x00,0x00,0x4d,
0x54,0x68,0x64,0x00,0x00,0x00,0x06,0x00,0x00,0x00,0x01,0x01,0xe0,0x4d,0x54,0x72,
0x6b,0x00,0x00,0x00,0x61,0x00,0xff,0x03,0x07,0x52,0x65,0x63,0x46,0x69,0x6e,0x31,
0x00,0xff,0x51,0x03,0x10,0x59,0x42,0x00,0xff,0x58,0x04,0x04,0x02,0x18,0x08,0x00,
0xc0,0x71,0x00,0x90,0x48,0x7f,0x1a,0x80,0x48,0x40,0x04,0x90,0x4a,0x72,0x1a,0x80,
0x4a,0x40,0x04,0x90,0x4d,0x7b,0x1a,0x80,0x4d,0x40,0x04,0x90,0x4f,0x7f,0x1a,0x80,
0x4f,0x40,0x04,0x90,0x51,0x76,0x1a,0x80,0x51,0x40,0x04,0x90,0x53,0x7b,0x1a,0x80,
0x53,0x40,0x04,0x90,0x54,0x7f,0x1a,0x80,0x54,0x40,0x22,0x91,0x24,0x01,0x54,0x81,
0x24,0x40,0x00,0xff,0x2f,0x00,0x45,0x34,0x00,0x00,0x49,0x44,0x33,0x03,0x00,0x00,
0x00,0x00,0x00,0x00,0xff,0xf3,0x66,0xc0,0x00,0x00,0x00,0x02,0x58,0x01,0x40,0x00,
0x00,0x16,0x83,0x41,0x61,0x80,0x07,0xfe,0xb1,0x30,0x32,0x63,0x6c,0x84,0xff,0xfe,
0x9b,0x81,0x51,0x83,0x99,0xff,0xff,0x0c,0xb4,0xcc,0xc9,0x41,0x7b,0x2d,0xc0,0x28,
0x60,0x19,0x06,0x80,0x70,0x8d,0x7d,0x48,0x20,0x07,0x81,0x10,0x18,0xd5,0x20,0x04,
0xec,0x00,0x8c,0xfd,0x66,0xe9,0x98,0x1a,0x01,0x9f,0x26,0x25,0xc0,0x14,0x9c,0x2f,
0x98,0x03,0x0f,0xfc,0xd0,0xcc,0xdc,0xdd,0x08,0x2c,0x90,0x21,0x18,0x06,0xb0,0xa0,
0x1e,0x79,0x60,0x6d,0xd6,0x81,0x9d,0x03,0xfd,0x9e,0xd6,0x82,0x88,0x01,0xb6,0x62,
0xde,0x07,0xfb,0x00,0x1c,0x47,0x00,0x6b,0x03,0x01,0x91,0x4b,0xff,0x5a,0x6e,0xab,
0x3b,0x20,0x06,0xbd,0x08,0x2c,0x2c,0x01,0x94,0x00,0x28,0xb0,0x1a,0x0e,0x06,0xb0,
0x20,0x06,0x87,0x02,0x40,0xff,0xf3,0x66,0xc0,0x84,0x3e,0x64,0x2a,0x7a,0x21,0x9b,
0xa0,0x00,0xc0,0xcb,0x10,0xff,0xf5,0xa6,0x9a,0xad,0xbe,0xc0,0x63,0x08,0x00,0x12,
0x40,0x35,0xaf,0xc0,0xe8,0xc9,0x03,0x56,0x0c,0x0d,0x31,0xc0,0x32,0xc4,0x80,0x38,
0xc0,0x19,0x11,0x60,0x61,0xc1,0x85,0x8f,0x80,0x30,0x8f,0xff,0xf5,0xbb,0xaa,0xdf,
0x6f,0x17,0x08,0xf6,0x06,0x94,0x88,0x36,0x3e,0x1b,0x78,0x05,0x0c,0x14,0xa1,0x04,
0x0b,0x2b,0x25,0xce,0x81,0xae,0x28,0x24,0xa5,0x70,0xb9,0xc0,0xc0,0x1f,0xff,0xff,
0xff,0x7f,0xff,0xc3,0xa4,0x03,0x0e,0x0c,0x0c,0x08,0x30,0x1a,0x06,0x06,0x80,0x90,
0x0a,0x00,0x10,0x00,0x0c,0xc9,0xb0,0x33,0xa4,0xc0,0xb0,0x30,0x6d,0x40,0x6c,0x80,
0xc1,0x00,0x34,0x0d,0x02,0x2e,0x5f,0x70,0x00,0x6a,0x01,0x6a,0x23,0x6f,0xfe,0xac,
0x8f,0xf9,0x98,0x4f,0xff,0x81,0xff,0xf3,0x66,0xc0,0x0e,0x1d,0x4a,0x9b,0x06,0x7f,
0xc1,0xa0,0x00,0x18,0x7e,0xc0,0x61,0xc1,0x81,0xbe,0x30,0x28,0x12,0xaa,0x53,0x15,
0xbb,0xcd,0x52,0x06,0xdc,0x13,0x24,0xab,0x35,0x28,0x97,0x4d,0x56,0x62,0x89,0xaa,
0x57,0x30,0x1c,0xe3,0x64,0x92,0x49,0x96,0x8a,0x28,0xb2,0x4a,0x33,0x3e,0x74,0xd5,
0x03,0x22,0xf4,0x88,0x93,0xa4,0x44,0x8a,0x97,0x59,0x12,0x88,0xb9,0xcc,0x4d,0x4c,
0x8d,0x9d,0x03,0x62,0x91,0x06,0x36,0x75,0x22,0x2b,0x53,0x1d,0x66,0xa3,0xa4,0x70,
0x9a,0xae,0xa7,0x55,0xbf,0xf4,0x46,0x74,0xbc,0x92,0x49,0x25,0xd1,0xfa,0xdf,0xff,
0xeb,0x41,0x27,0x5a,0x06,0xff,0xff,0x2b,0xff,0xf5,0x80,0xb8,0x83,0x56,0xe0,0x00,
0x44,0x60,0xc6,0x3b,0x45,0xc6,0xab,0xcc,0x96,0x7a,0xc3,0x58,0xde,0x26,0xfe,0x2d,
0xb8,0x52,0x63,0xef,0x63,0xa1,0x24,0xff,0xf3,0x66,0xc0,0x1c,0x18,0x4b,0x7a,0xce,
0xec,0x7c,0xd4,0xd8,0x80,0xac,0x43,0x94,0x5f,0xe8,0xa2,0x80,0x5f,0xe2,0xb5,0x9b,
0xfd,0x4d,0x29,0x08,0x54,0xd9,0x05,0x37,0xf3,0x23,0xf5,0xb2,0x92,0x73,0x86,0xa6,
0x44,0x55,0x47,0x19,0x82,0x81,0x4a,0x7d,0xfd,0x85,0xa1,0xf7,0x88,0xe2,0xd9,0xdf,
0x4f,0xfe,0x75,0xd7,0xe4,0x63,0x8f,0xff,0xff,0xfe,0x84,0xd6,0xff,0xff,0xfe,0x83,
0xe7,0xff,0xff,0xff,0xc4,0x91,0x37,0xff,0xc8,0x80,0xa5,0x54,0x67,0x80,0x00,0x00,
0xcc,0x26,0x49,0x01,0x81,0x40,0x83,0x3b,0xdb,0x5d,0x34,0x4e,0x3d,0xee,0xb3,0x13,
0x57,0x55,0x66,0xc6,0x28,0x1d,0x14,0x08,0x0b,0xdc,0x04,0x53,0x42,0xd8,0x17,0x52,
0xf6,0x94,0x48,0x80,0xa9,0x3f,0xfe,0xa2,0xf2,0x44,0x90,0x29,0xc2,0xf8,0x58,0x39,
0xa2,0x1f,0xa9,0x26,0xea,0x52,0x6a,0x48,0xff,0xf3,0x66,0xc0,0x3e,0x18,0x9a,0x2a,
0xb7,0x04,0x5d,0x1a,0xb4,0x9a,0xa7,0xac,0xba,0x81,0x2c,0x75,0x77,0xe8,0xf8,0xfa,
0x4a,0xf5,0x92,0x21,0xc2,0x53,0xfd,0x2f,0xff,0xea,0xe3,0xb4,0x71,0x3f,0xff,0xd8,
0xa2,0xbf,0xf9,0x52,0x3f,0xfe,0xb3,0xbf,0xfd,0x40,0x73,0x44,0x78,0x80,0x00,0x01,
0x93,0x98,0x42,0x0e,0x6e,0xbf,0xb7,0x3c,0xe3,0x5d,0x4d,0x38,0x60,0x89,0xc9,0x48,
0x83,0x13,0x29,0x11,0x60,0xf8,0x40,0x34,0x2c,0x06,0x4f,0x74,0x01,0xa6,0x02,0xc0,
0x61,0x80,0x00,0xc7,0x99,0x2e,0xce,0xa5,0x13,0x41,0x8c,0x8b,0x5d,0x1f,0xd7,0x93,
0x22,0x95,0x22,0xa4,0x44,0x5b,0xc0,0x6c,0x1d,0xea,0x43,0xea,0x5a,0x15,0x2c,0xb6,
0x69,0x62,0x8b,0x2f,0xac,0xba,0x6a,0x64,0x6e,0x64,0x9e,0x82,0x1a,0x8a,0xc4,0xdb,
0xe8,0x92,0xa2,0x3b,0x10,0xe6,0x57,0xff,0xff,0xff,0xf3,0x66,0xc0,0x5f,0x19,0xf2,
0x2e,0x9f,0x00,0x5d,0x60,0xb4,0xa6,0xd9,0x88,0x62,0x93,0xe7,0xff,0xf8,0x90,0x96,
0x98,0x8a,0x90,0x00,0x04,0x13,0x78,0xe2,0x2d,0xc6,0x94,0xd1,0x62,0xe1,0x82,0x36,
0xb3,0xac,0x6e,0x4b,0x5d,0xdf,0x7f,0xfb,0xbf,0xc7,0x19,0x53,0x58,0x30,0x32,0xa3,
0x4f,0x2e,0x18,0x83,0x36,0xb4,0x53,0x25,0x01,0x70,0x38,0xce,0xeb,0x63,0x94,0xdc,
0x38,0xe6,0x53,0xf3,0x0e,0xff,0xff,0xff,0xff,0x7d,0x92,0x49,0x33,0x51,0x25,0x24,
0x84,0x98,0x5e,0x18,0x73,0xe5,0xc6,0x7f,0x74,0xd6,0xcc,0xc7,0x51,0xab,0xea,0x7a,
0x92,0x9f,0xa6,0x82,0x06,0x2b,0x43,0x5a,0x24,0x80,0x48,0xc9,0x77,0xff,0xff,0xff,
0x50,0x54,0x87,0x21,0xdf,0xfe,0x54,0xb9,0xbb,0x9c,0xc0,0x00,0x04,0x11,0x66,0xbe,
0x9c,0x56,0x3c,0x66,0xf1,0x5f,0xea,0xd7,0xf6,0x89,0xff,0xf3,0x66,0xc0,0x7b,0x19,
0xf2,0x2e,0xa7,0x00,0x7e,0xda,0xb4,0x1a,0xf5,0xb2,0xcf,0x9f,0xff,0xff,0xfa,0x7f,
0x9d,0xb6,0x04,0x2a,0x14,0xd0,0x17,0x35,0xb4,0x8c,0x20,0xb0,0xc2,0x8d,0xa3,0xb3,
0x7e,0xc6,0x9e,0x25,0xc6,0x1c,0x70,0xcd,0x06,0x31,0x2a,0xcd,0x8a,0x90,0xe4,0xe5,
0xfc,0x79,0x6d,0x5e,0xee,0xff,0xf6,0xcd,0x38,0xd0,0x5c,0x00,0xc0,0x04,0x0e,0xc3,
0x02,0x5c,0xc3,0x19,0x68,0xba,0x2b,0x73,0xee,0xe6,0x29,0xe7,0x9e,0x7a,0x22,0x38,
0xe9,0x73,0x75,0x53,0x98,0x03,0x8c,0xcf,0x14,0x10,0x4f,0xff,0xfe,0xa0,0x36,0x82,
0xb1,0xb8,0x97,0x48,0x8b,0xb0,0x00,0x06,0x91,0x4f,0x30,0x8d,0xe6,0x5f,0xfe,0x64,
0x5d,0x38,0x44,0xd7,0x9e,0x94,0xc6,0xe7,0x37,0xff,0xff,0xff,0xf5,0x72,0x8c,0xdc,
0x7e,0xd9,0xa1,0x83,0x8a,0x15,0x80,0x3a,0xea,0x6a,0xed,0xff,0xf3,0x66,0xc0,0x97,
0x1b,0x6a,0x3e,0xab,0x00,0x7e,0x8e,0xb4,0x2d,0x76,0x94,0xa1,0xe8,0xaa,0x82,0xc9,
0x38,0x62,0x63,0x46,0x12,0x28,0x6a,0x70,0x46,0x8e,0xda,0x64,0x0c,0xc6,0xbc,0x8c,
0x02,0x50,0x62,0x76,0xd8,0x64,0xea,0x2f,0xa2,0x9a,0xd3,0x8e,0x72,0x15,0x25,0x15,
0x4a,0x11,0xb9,0x9f,0xea,0x61,0x3b,0x51,0x48,0x47,0xa5,0x05,0xa1,0xe9,0x09,0x31,
0x84,0xaf,0xd1,0xd4,0x84,0xdd,0x47,0xa1,0x24,0x45,0xa2,0xff,0xff,0xe7,0x51,0xc2,
0x72,0x40,0x75,0x76,0x69,0x90,0x00,0x04,0x60,0xa9,0x14,0x11,0xad,0xc8,0xea,0x22,
0x61,0x6d,0x3a,0x68,0xed,0xa7,0x73,0xf8,0x63,0xff,0xff,0xff,0x72,0xac,0xa6,0x55,
0x02,0x3e,0xab,0x04,0xe4,0xaf,0x66,0xc5,0x49,0x4d,0x01,0xbb,0x31,0x56,0x94,0xed,
0x30,0xb6,0x40,0x8c,0x4f,0xc0,0xc0,0x59,0x96,0x13,0x98,0x41,0xff,0xf3,0x66,0xc0,
0xad,0x1c,0x92,0x3e,0x9f,0x00,0x7e,0xd4,0xb4,0x79,0xb5,0x4e,0x98,0xd3,0xb1,0xb0,
0x8b,0x87,0x07,0xa8,0x30,0xa6,0x81,0xbe,0x04,0x99,0x41,0x1c,0xfb,0x24,0xb4,0x14,
0x8d,0x34,0x92,0x44,0x87,0x09,0xb8,0x82,0x95,0xd9,0xff,0x69,0x1a,0x93,0x7f,0x5a,
0x27,0x4c,0x9d,0x6a,0xa0,0xdf,0xa2,0xb1,0xd2,0x33,0x1a,0x6f,0xff,0xff,0x5a,0x46,
0xc3,0x4d,0x40,0xf6,0xdb,0xe1,0x40,0x01,0xf1,0x0e,0x8a,0x89,0xb1,0x26,0x0c,0x88,
0x98,0xbc,0x8f,0x7c,0x2e,0x70,0x94,0xbf,0x85,0x65,0x4e,0x74,0x81,0x9a,0x1c,0x27,
0x8d,0x8b,0xa3,0x9a,0x66,0x70,0x77,0x13,0x23,0xa4,0xd4,0x4a,0x22,0x95,0x24,0x88,
0x30,0x84,0x63,0x32,0x2e,0x21,0x08,0x40,0x58,0x68,0x1a,0x02,0x20,0x60,0x12,0x80,
0x11,0xc0,0x24,0x58,0x04,0x39,0x04,0x88,0x81,0x85,0x88,0x06,0x90,0xff,0xf3,0x66,
0xc0,0xbe,0x1c,0xda,0x4a,0x93,0x00,0x66,0xe2,0xb4,0x20,0x72,0x85,0xa2,0x60,0x8a,
0x1a,0x37,0xf4,0x52,0x91,0xc2,0xe6,0x1c,0x4c,0x99,0x06,0x1a,0x0b,0xf6,0x59,0x75,
0x16,0x4f,0xfa,0x27,0xba,0x5a,0x2f,0xe9,0x51,0x38,0x6c,0x99,0x44,0xac,0x87,0xff,
0xfd,0x68,0x98,0xa0,0x3a,0x4a,0xe9,0x80,0x56,0x08,0x70,0x88,0x08,0x80,0x00,0x00,
0x00,0x00,0x04,0x46,0x2c,0x26,0x18,0x12,0x07,0xa7,0xb2,0x58,0x62,0xa5,0x4e,0x2b,
0x65,0x5c,0xaa,0x6c,0x89,0x5a,0xa6,0x6a,0x56,0x20,0x63,0x2e,0x32,0x7c,0xb2,0xa2,
0x54,0xd1,0x12,0xa9,0x4c,0xbd,0x4a,0xb2,0x70,0x4f,0x84,0xb8,0x74,0x45,0x13,0xeb,
0x28,0x9b,0x90,0x64,0x4c,0x52,0x78,0x0b,0x05,0x03,0x58,0xd0,0x0e,0x31,0x70,0xb9,
0x92,0x4a,0x20,0x80,0x00,0x9c,0x03,0x66,0x4c,0x36,0x21,0xa6,0x6e,0x3e,0xff,0xf3,
0x66,0xc0,0xce,0x1d,0xca,0x56,0x8a,0x61,0x49,0xa0,0x00,0x84,0xa4,0x23,0x14,0x51,
0x45,0x69,0x13,0x44,0xd1,0xbd,0x65,0xc5,0x32,0x8a,0xc6,0x86,0x6a,0x49,0x2a,0x28,
0xcc,0x9e,0x9e,0x7f,0x28,0xbd,0x6e,0x83,0x6b,0x45,0x49,0x25,0x52,0x52,0xc9,0x08,
0x8f,0xd4,0x34,0xb4,0x0b,0xac,0xee,0xd9,0x80,0xf4,0xc9,0xd5,0xfa,0x96,0x8f,0xff,
0xfd,0x34,0xd9,0x6b,0x41,0x06,0x7d,0x34,0xdd,0x0d,0x15,0x24,0x97,0xa2,0x8f,0xff,
0xff,0xff,0x98,0x17,0x0d,0x09,0xf3,0x74,0xd6,0x5f,0x37,0x22,0x85,0xc6,0x02,0x19,
0xcb,0x65,0x40,0x0c,0x04,0x04,0x2a,0xaa,0xc6,0x5f,0xdb,0xaa,0xa7,0x55,0x57,0x8c,
0xdb,0x35,0xff,0x0c,0xb5,0x0c,0x2c,0x74,0x87,0x20,0xd4,0xe2,0x45,0x69,0x9a,0x43,
0x90,0x6a,0x74,0xc0,0x2a,0x00,0x60,0x16,0x1e,0x0e,0x80,0x04,0x17,0x07,0xc7,0xff,
0xf3,0x66,0xc0,0xda,0x2b,0x53,0xbe,0x83,0x07,0x8f,0xa0,0x00,0x35,0xf0,0x51,0xd0,
0x1d,0x07,0xc7,0x5a,0xd3,0x0b,0x2e,0xcc,0xd7,0x22,0xa2,0xb6,0x48,0xaa,0xc3,0x5a,
0x8a,0xb6,0xaa,0xbc,0x33,0x53,0x33,0x6b,0x50,0xd5,0xb7,0xff,0xff,0xff,0xff,0xff,
0xff,0xf0,0xcd,0x2a,0x2a,0x05,0x05,0x4b,0x3c,0x37,0xc1,0xa2,0xc1,0xdf,0xc1,0x55,
0x86,0xbf,0x06,0x94,0x1d,0xe4,0xb1,0x2f,0x2c,0x78,0x44,0x00,0x00,0x00,0x00,0x00,
0x00,0x00,0x00,0x00,0x00,0x00,0x00,0x00,0x00,0x00,0x00,0x00,0x00,0x00,0x00,0x00,
0x00,0x00,0x00,0x00,0x00,0x00,0x00,0x00,0x00,0x00,0x00,0x00,0x00,0x00,0x00,0x00,
0x00,0x00,0x00,0x00,0x00,0x00,0x00,0x00,0x00,0x00,0x00,0x00,0x00,0x00,0x00,0x00,
0x00,0x00,0x00,0x00,0x00,0x00,0x00,0x00,0x00,0x00,0x00,0x00,0x00,0x00,0x00,0x00,
0xff,0xf3,0x66,0xc0,0xb0,0x1a,0xba,0x65,0xe4,0x01,0xc3,0x40,0x00,0x00,0x00,0x00,
0x00,0x00,0x00,0x00,0x00,0x00,0x00,0x00,0x00,0x00,0x00,0x00,0x00,0x00,0x00,0x00,
0x00,0x00,0x00,0x00,0x00,0x00,0x00,0x00,0x00,0x00,0x00,0x00,0x00,0x00,0x00,0x00,
0x00,0x00,0x00,0x00,0x00,0x00,0x00,0x00,0x00,0x00,0x00,0x00,0x00,0x00,0x00,0x00,
0x00,0x00,0x00,0x00,0x00,0x00,0x00,0x00,0x00,0x00,0x00,0x00,0x00,0x00,0x00,0x00,
0x00,0x00,0x00,0x00,0x00,0x00,0x00,0x00,0x00,0x00,0x00,0x00,0x00,0x00,0x00,0x00,
0x00,0x00,0x00,0x00,0x00,0x00,0x00,0x00,0x00,0x00,0x00,0x00,0x00,0x00,0x00,0x00,
0x00,0x00,0x00,0x00,0x00,0x00,0x00,0x00,0x00,0x00,0x00,0x00,0x00,0x00,0x00,0x00,
0x00,0x00,0x00,0x00,0x00,0x00,0x00,0x00,0x00,0x00,0x00,0x00,0x00,0x00,0x00,0x00,
0x00,0xff,0xf3,0x66,0xc0,0xc9,0x00,0x00,0x02,0x58,0x00,0x00,0x00,0x00,0x00,0x00,
0x00,0x00,0x00,0x00,0x00,0x00,0x00,0x00,0x00,0x00,0x00,0x00,0x00,0x00,0x00,0x00,
0x00,0x00,0x00,0x00,0x00,0x00,0x00,0x00,0x00,0x00,0x00,0x00,0x00,0x00,0x00,0x00,
0x00,0x00,0x00,0x00,0x00,0x00,0x00,0x00,0x00,0x00,0x00,0x00,0x00,0x00,0x00,0x00,
0x00,0x00,0x00,0x00,0x00,0x00,0x00,0x00,0x00,0x00,0x00,0x00,0x00,0x00,0x00,0x00,
0x00,0x00,0x00,0x00,0x00,0x00,0x00,0x00,0x00,0x00,0x00,0x00,0x00,0x00,0x00,0x00,
0x00,0x00,0x00,0x00,0x00,0x00,0x00,0x00,0x00,0x00,0x00,0x00,0x00,0x00,0x00,0x00,
0x00,0x00,0x00,0x00,0x00,0x00,0x00,0x00,0x00,0x00,0x00,0x00,0x00,0x00,0x00,0x00,
0x00,0x00,0x00,0x00,0x00,0x00,0x00,0x00,0x00,0x00,0x00,0x00,0x00,0x00,0x00,0x00,
0x00,0x00,0xff,0xf3,0x66,0xc0,0xff,0x00,0x00,0x02,0x58,0x00,0x00,0x00,0x00,0x00,
0x00,0x00,0x00,0x00,0x00,0x00,0x00,0x00,0x00,0x00,0x00,0x00,0x00,0x00,0x00,0x00,
0x00,0x00,0x00,0x00,0x00,0x00,0x00,0x00,0x00,0x00,0x00,0x00,0x00,0x00,0x00,0x00,
0x00,0x00,0x00,0x00,0x00,0x00,0x00,0x00,0x00,0x00,0x00,0x00,0x00,0x00,0x00,0x00,
0x00,0x00,0x00,0x00,0x00,0x00,0x00,0x00,0x00,0x00,0x00,0x00,0x00,0x00,0x00,0x00,
0x00,0x00,0x00,0x00,0x00,0x00,0x00,0x00,0x00,0x00,0x00,0x00,0x00,0x00,0x00,0x00,
0x00,0x00,0x00,0x00,0x00,0x00,0x00,0x00,0x00,0x00,0x00,0x00,0x00,0x00,0x00,0x00,
0x00,0x00,0x00,0x00,0x00,0x00,0x00,0x00,0x00,0x00,0x00,0x00,0x00,0x00,0x00,0x00,
0x00,0x00,0x00,0x00,0x00,0x00,0x00,0x00,0x00,0x00,0x00,0x00,0x00,0x00,0x00,0x00,
0x00,0x00,0x00,0xff,0xf3,0x66,0xc0,0xff,0x00,0x00,0x02,0x58,0x00,0x00,0x00,0x00,
0x00,0x00,0x00,0x00,0x00,0x00,0x00,0x00,0x00,0x00,0x00,0x00,0x00,0x00,0x00,0x00,
0x00,0x00,0x00,0x00,0x00,0x00,0x00,0x00,0x00,0x00,0x00,0x00,0x00,0x00,0x00,0x00,
0x00,0x00,0x00,0x00,0x00,0x00,0x00,0x00,0x00,0x00,0x00,0x00,0x00,0x00,0x00,0x00,
0x00,0x00,0x00,0x00,0x00,0x00,0x00,0x00,0x00,0x00,0x00,0x00,0x00,0x00,0x00,0x00,
0x00,0x00,0x00,0x00,0x00,0x00,0x00,0x00,0x00,0x00,0x00,0x00,0x00,0x00,0x00,0x00,
0x00,0x00,0x00,0x00,0x00,0x00,0x00,0x00,0x00,0x00,0x00,0x00,0x00,0x00,0x00,0x00,
0x00,0x00,0x00,0x00,0x00,0x00,0x00,0x00,0x00,0x00,0x00,0x00,0x00,0x00,0x00,0x00,
0x00,0x00,0x00,0x00,0x00,0x00,0x00,0x00,0x00,0x00,0x00,0x00,0x00,0x00,0x00,0x00,
0x00,0x00,0x00,0x00,0xff,0xf3,0x66,0xc0,0xff,0x00,0x00,0x02,0x58,0x00,0x00,0x00,
0x00,0x00,0x00,0x00,0x00,0x00,0x00,0x00,0x00,0x00,0x00,0x00,0x00,0x00,0x00,0x00,
0x00,0x00,0x00,0x00,0x00,0x00,0x00,0x00,0x00,0x00,0x00,0x00,0x00,0x00,0x00,0x00,
0x00,0x00,0x00,0x00,0x00,0x00,0x00,0x00,0x00,0x00,0x00,0x00,0x00,0x00,0x00,0x00,
0x00,0x00,0x00,0x00,0x00,0x00,0x00,0x00,0x00,0x00,0x00,0x00,0x00,0x00,0x00,0x00,
0x00,0x00,0x00,0x00,0x00,0x00,0x00,0x00,0x00,0x00,0x00,0x00,0x00,0x00,0x00,0x00,
0x00,0x00,0x00,0x00,0x00,0x00,0x00,0x00,0x00,0x00,0x00,0x00,0x00,0x00,0x00,0x00,
0x00,0x00,0x00,0x00,0x00,0x00,0x00,0x00,0x00,0x00,0x00,0x00,0x00,0x00,0x00,0x00,
0x00,0x00,0x00,0x00,0x00,0x00,0x00,0x00,0x00,0x00,0x00,0x00,0x00,0x00,0x00,0x00,
0x00,0x00,0x00,0x00,0x00,0xff,0xf3,0x66,0xc0,0xff,0x00,0x00,0x02,0x58,0x00,0x00,
0x00,0x00,0x00,0x00,0x00,0x00,0x00,0x00,0x00,0x00,0x00,0x00,0x00,0x00,0x00,0x00,
0x00,0x00,0x00,0x00,0x00,0x00,0x00,0x00,0x00,0x00,0x00,0x00,0x00,0x00,0x00,0x00,
0x00,0x00,0x00,0x00,0x00,0x00,0x00,0x00,0x00,0x00,0x00,0x00,0x00,0x00,0x00,0x00,
0x00,0x00,0x00,0x00,0x00,0x00,0x00,0x00,0x00,0x00,0x00,0x00,0x00,0x00,0x00,0x00,
0x00,0x00,0x00,0x00,0x00,0x00,0x00,0x00,0x00,0x00,0x00,0x00,0x00,0x00,0x00,0x00,
0x00,0x00,0x00,0x00,0x00,0x00,0x00,0x00,0x00,0x00,0x00,0x00,0x00,0x00,0x00,0x00,
0x00,0x00,0x00,0x00,0x00,0x00,0x00,0x00,0x00,0x00,0x00,0x00,0x00,0x00,0x00,0x00,
0x00,0x00,0x00,0x00,0x00,0x00,0x00,0x00,0x00,0x00,0x00,0x00,0x00,0x00,0x00,0x00,
0x00,0x00,0x00,0x00,0x00,0x00,0xff,0xf3,0x66,0xc0,0xff,0x00,0x00,0x02,0x58,0x00,
0x00,0x00,0x00,0x00,0x00,0x00,0x00,0x00,0x00,0x00,0x00,0x00,0x00,0x00,0x00,0x00,
0x00,0x00,0x00,0x00,0x00,0x00,0x00,0x00,0x00,0x00,0x00,0x00,0x00,0x00,0x00,0x00,
0x00,0x00,0x00,0x00,0x00,0x00,0x00,0x00,0x00,0x00,0x00,0x00,0x00,0x00,0x00,0x00,
0x00,0x00,0x00,0x00,0x00,0x00,0x00,0x00,0x00,0x00,0x00,0x00,0x00,0x00,0x00,0x00,
0x00,0x00,0x00,0x00,0x00,0x00,0x00,0x00,0x00,0x00,0x00,0x00,0x00,0x00,0x00,0x00,
0x00,0x00,0x00,0x00,0x00,0x00,0x00,0x00,0x00,0x00,0x00,0x00,0x00,0x00,0x00,0x00,
0x00,0x00,0x00,0x00,0x00,0x00,0x00,0x00,0x00,0x00,0x00,0x00,0x00,0x00,0x00,0x00,
0x00,0x00,0x00,0x00,0x00,0x00,0x00,0x00,0x00,0x00,0x00,0x00,0x00,0x00,0x00,0x00,
0x00,0x00,0x00,0x00,0x00,0x00,0x00,0xff,0xf3,0x66,0xc0,0xff,0x00,0x00,0x02,0x58,
0x00,0x00,0x00,0x00,0x00,0x00,0x00,0x00,0x00,0x00,0x00,0x00,0x00,0x00,0x00,0x00,
0x00,0x00,0x00,0x00,0x00,0x00,0x00,0x00,0x00,0x00,0x00,0x00,0x00,0x00,0x00,0x00,
0x00,0x00,0x00,0x00,0x00,0x00,0x00,0x00,0x00,0x00,0x00,0x00,0x00,0x00,0x00,0x00,
0x00,0x00,0x00,0x00,0x00,0x00,0x00,0x00,0x00,0x00,0x00,0x00,0x00,0x00,0x00,0x00,
0x00,0x00,0x00,0x00,0x00,0x00,0x00,0x00,0x00,0x00,0x00,0x00,0x00,0x00,0x00,0x00,
0x00,0x00,0x00,0x00,0x00,0x00,0x00,0x00,0x00,0x00,0x00,0x00,0x00,0x00,0x00,0x00,
0x00,0x00,0x00,0x00,0x00,0x00,0x00,0x00,0x00,0x00,0x00,0x00,0x00,0x00,0x00,0x00,
0x00,0x00,0x00,0x00,0x00,0x00,0x00,0x00,0x00,0x00,0x00,0x00,0x00,0x00,0x00,0x00,
0x00,0x00,0x00,0x00,0x00,0x00,0x00,0x00,0xff,0xf3,0x66,0xc0,0xff,0x00,0x00,0x02,
0x58,0x00,0x00,0x00,0x00,0x00,0x00,0x00,0x00,0x00,0x00,0x00,0x00,0x00,0x00,0x00,
0x00,0x00,0x00,0x00,0x00,0x00,0x00,0x00,0x00,0x00,0x00,0x00,0x00,0x00,0x00,0x00,
0x00,0x00,0x00,0x00,0x00,0x00,0x00,0x00,0x00,0x00,0x00,0x00,0x00,0x00,0x00,0x00,
0x00,0x00,0x00,0x00,0x00,0x00,0x00,0x00,0x00,0x00,0x00,0x00,0x00,0x00,0x00,0x00,
0x00,0x00,0x00,0x00,0x00,0x00,0x00,0x00,0x00,0x00,0x00,0x00,0x00,0x00,0x00,0x00,
0x00,0x00,0x00,0x00,0x00,0x00,0x00,0x00,0x00,0x00,0x00,0x00,0x00,0x00,0x00,0x00,
0x00,0x00,0x00,0x00,0x00,0x00,0x00,0x00,0x00,0x00,0x00,0x00,0x00,0x00,0x00,0x00,
0x00,0x00,0x00,0x00,0x00,0x00,0x00,0x00,0x00,0x00,0x00,0x00,0x00,0x00,0x00,0x00,
0x00,0x00,0x00,0x00,0x00,0x00,0x00,0x00,0x00,0xff,0xf3,0x66,0xc0,0xff,0x00,0x00,
0x02,0x58,0x00,0x00,0x00,0x00,0x00,0x00,0x00,0x00,0x00,0x00,0x00,0x00,0x00,0x20,
0x00,0x20,0x00,0x20,0x00,0x20,0x00,0x20,0x00,0x20,0x00,0x20,0x00,0x20,0x00,0x20,
0x00,0x20,0x00,0x20,0x00,0x20,0x00,0x20,0x00,0x20,0x00,0x20,0x00,0x20,0x00,0x20,
0x00,0x20,0x00,0x20,0x00,0x20,0x00,0x20,0x00,0x20,0x00,0x20,0x00,0x20,0x00,0x20,
0x00,0x20,0x00,0x20,0x00,0x20,0x00,0x20,0x00,0x20,0x00,0x20,0x00,0x20,0x00,0x20,
0x00,0x20,0x00,0x20,0x00,0x20,0x00,0x20,0x00,0x20,0x00,0x20,0x00,0x20,0x00,0x20,
0x00,0x20,0x00,0x20,0x00,0x20,0x00,0x20,0x00,0x20,0x00,0x20,0x00,0x20,0x00,0x20,
0x00,0x20,0x00,0x20,0x00,0x20,0x00,0x20,0x00,0x20,0x00,0x20,0x00,0x20,0x00,0x20,
0x00,0x20,0x00,0x20,0x00,0x20,0x00,0x20,0x00,0x20,0xff,0xf3,0x66,0xc0,0xff,0x00,
0x00,0x02,0x58,0x00,0x00,0x00,0x00,0x00,0x20,0x00,0x20,0x00,0x20,0x00,0x20,0x00,
0x20,0x00,0x20,0x00,0x20,0x00,0x20,0x00,0x20,0x00,0x20,0x00,0x20,0x00,0x20,0x00,
0x20,0x00,0x20,0x00,0x20,0x00,0x20,0x00,0x20,0x00,0x20,0x00,0x20,0x00,0x20,0x00,
0x20,0x00,0x20,0x00,0x20,0x00,0x20,0x00,0x20,0x00,0x20,0x00,0x20,0x00,0x20,0x00,
0x20,0x00,0x20,0x00,0x20,0x00,0x20,0x00,0x20,0x00,0x20,0x00,0x20,0x00,0x20,0x00,
0x20,0x00,0x20,0x00,0x20,0x00,0x20,0x00,0x20,0x00,0x20,0x00,0x20,0x00,0x20,0x00,
0x20,0x00,0x20,0x00,0x20,0x00,0x20,0x00,0x20,0x00,0x20,0x00,0x20,0x00,0x20,0x00,
0x20,0x00,0x20,0x00,0x20,0x00,0x20,0x00,0x20,0x00,0x20,0x00,0x20,0x00,0x20,0x00,
0x20,0x00,0x20,0x00,0x20,0x00,0x20,0x00,0x20,0x00,0x00,0x49,0x01,0x00,0x00,0x4d,
0x54,0x68,0x64,0x00,0x00,0x00,0x06,0x00,0x00,0x00,0x01,0x01,0xe0,0x4d,0x54,0x72,
0x6b,0x00,0x00,0x00,0x3c,0x00,0xff,0x03,0x06,0x52,0x46,0x49,0x44,0x6f,0x6b,0x00,
0xff,0x51,0x03,0x07,0xa1,0x20,0x00,0xff,0x58,0x04,0x04,0x02,0x18,0x08,0x00,0xc9,
0x00,0x0c,0x99,0x47,0x79,0x03,0x45,0x7f,0x02,0x52,0x79,0x67,0x89,0x47,0x00,0x04,
0x45,0x00,0x01,0x52,0x00,0x24,0x99,0x18,0x01,0x47,0x89,0x18,0x00,0x00,0xff,0x2f,
0x00,0xff,0xff,0xff,0xff,0xff,0xff,0xff,0xff,0xff,0xff,0xff,0xff,0xff,0xff,0xff,
0xff,0xff,0xff,0xff,0xff,0x02,0x00,0x00,0x00,0x04,0x00,0x00,0x00,0x06,0x00,0x00,
0x00,0x08,0x00,0x00,0x00,0xe8,0x03,0x00,0x00,0xb8,0x0b,0x00,0x00,0x3d,0x00,0x00,
0x00,0x2f,0x6c,0x6f,0x63,0x61,0x74,0x65,0x2e,0x6a,0x73,0x70,0x3f,0x73,0x6e,0x3d,
0x0d,0x00,0x00,0x00,0x26,0x68,0x3d,0x21,0x00,0x00,0x00,0x37,0x66,0x66,0x66,0x66,
0x66,0x66,0x66,0x21,0x00,0x00,0x00,0x37,0x66,0x66,0x66,0x66,0x66,0x66,0x65,0x39,
0x00,0x00,0x00,0x2f,0x76,0x6c,0x2f,0x70,0x34,0x2e,0x6a,0x73,0x70,0x3f,0x73,0x6e,
0x3d,0x0d,0x00,0x00,0x00,0x26,0x76,0x3d,0x25,0x00,0x00,0x00,0x26,0x73,0x74,0x3d,
0x31,0x26,0x73,0x64,0x3d,0x11,0x00,0x00,0x00,0x26,0x74,0x63,0x3d,0x0d,0x00,0x00,
0x00,0x26,0x68,0x3d,0x49,0x00,0x00,0x00,0x2f,0x76,0x6c,0x2f,0x72,0x65,0x63,0x6f,
0x72,0x64,0x2e,0x6a,0x73,0x70,0x3f,0x73,0x6e,0x3d,0x0d,0x00,0x00,0x00,0x26,0x76,
0x3d,0x0d,0x00,0x00,0x00,0x26,0x68,0x3d,0x0d,0x00,0x00,0x00,0x26,0x6d,0x3d,0x41,
0x00,0x00,0x00,0x2f,0x76,0x6c,0x2f,0x72,0x66,0x69,0x64,0x2e,0x6a,0x73,0x70,0x3f,
0x73,0x6e,0x3d,0x0d,0x00,0x00,0x00,0x26,0x76,0x3d,0x0d,0x00,0x00,0x00,0x26,0x68,
0x3d,0x0d,0x00,0x00,0x00,0x26,0x74,0x3d,0x05,0x00,0x00,0x00,0x20,0x05,0x00,0x00,
0x00,0x0a,0x05,0x00,0x00,0x00,0x0d,0x01,0x00,0x00,0x00,0x39,0x00,0x00,0x00,0x23,
0x23,0x64,0x75,0x6d,0x70,0x63,0x6f,0x6e,0x66,0x69,0x67,0x20,0x3a,0x0d,0x00,0x00,
0x00,0x20,0x3d,0x20,0x1d,0x00,0x00,0x00,0x63,0x6f,0x6e,0x66,0x69,0x67,0x3d,0x11,
0x00,0x00,0x00,0x70,0x69,0x6e,0x67,0x15,0x00,0x00,0x00,0x62,0x72,0x6f,0x61,0x64,
0x0d,0x00,0x00,0x00,0x47,0x45,0x54,0x5d,0x00,0x00,0x00,0x23,0x23,0x74,0x69,0x6d,
0x65,0x6f,0x75,0x74,0x20,0x6f,0x6e,0x20,0x63,0x6f,0x6e,0x66,0x69,0x67,0x77,0x61,
0x69,0x74,0x09,0x00,0x00,0x00,0x4d,0x55,0x09,0x00,0x00,0x00,0x43,0x48,0x09,0x00,
0x00,0x00,0x4d,0x43,0x6d,0x00,0x00,0x00,0x23,0x23,0x23,0x23,0x23,0x23,0x23,0x23,
0x23,0x23,0x23,0x23,0x23,0x23,0x23,0x23,0x23,0x23,0x23,0x23,0x6d,0x73,0x67,0x49,
0x6e,0x69,0x74,0x09,0x00,0x00,0x00,0x49,0x44,0x1d,0x00,0x00,0x00,0x2d,0x3e,0x20,
0x69,0x64,0x6c,0x65,0x25,0x00,0x00,0x00,0x2d,0x3e,0x20,0x61,0x73,0x6c,0x65,0x65,
0x70,0x09,0x00,0x00,0x00,0x49,0x44,0x39,0x00,0x00,0x00,0x52,0x65,0x61,0x64,0x79,
0x20,0x74,0x6f,0x20,0x72,0x75,0x6e,0x20,0x21,0x0d,0x00,0x00,0x00,0x47,0x45,0x54,
0x51,0x00,0x00,0x00,0x23,0x23,0x74,0x69,0x6d,0x65,0x6f,0x75,0x74,0x20,0x6f,0x6e,
0x20,0x6d,0x73,0x67,0x6c,0x6f,0x61,0x64,0x0d,0x00,0x00,0x00,0x47,0x45,0x54,0x65,
0x00,0x00,0x00,0x23,0x23,0x74,0x69,0x6d,0x65,0x6f,0x75,0x74,0x20,0x6f,0x6e,0x20,
0x70,0x69,0x6e,0x67,0x73,0x65,0x6e,0x64,0x77,0x61,0x69,0x74,0xff,0xff,0xff,0xff,
0xff,0xff,0xff,0xff,0xff,0xff,0xff,0xff,0xff,0xff,0xff,0xff,0xff,0xff,0xff,0xff,
0xff,0xff,0xff,0xff,0x4d,0x00,0x00,0x00,0x23,0x23,0x74,0x69,0x6d,0x65,0x6f,0x75,
0x74,0x20,0x6f,0x6e,0x20,0x75,0x70,0x6c,0x6f,0x61,0x64,0x11,0x00,0x00,0x00,0x50,
0x4f,0x53,0x54,0x11,0x00,0x00,0x00,0x50,0x4f,0x53,0x54,0xff,0xff,0xff,0xff,0xff,
0xff,0xff,0xff,0xff,0xff,0xff,0xff,0xff,0xff,0xff,0xff,0xff,0xff,0xff,0xff,0xff,
0xff,0xff,0xff,0x31,0x00,0x00,0x00,0x74,0x61,0x69,0x63,0x68,0x69,0x73,0x74,0x61,
0x72,0x74,0x20,0x5d,0x00,0x00,0x00,0x23,0x23,0x23,0x23,0x23,0x23,0x23,0x23,0x23,
0x23,0x23,0x23,0x73,0x65,0x74,0x70,0x61,0x6c,0x65,0x74,0x74,0x65,0x20,0x55,0x00,
0x00,0x00,0x23,0x23,0x23,0x23,0x23,0x23,0x23,0x23,0x23,0x23,0x23,0x23,0x73,0x65,
0x74,0x63,0x6f,0x6c,0x6f,0x72,0x20,0x11,0x00,0x00,0x00,0x20,0x3d,0x20,0x24,0x21,
0x00,0x00,0x00,0x72,0x61,0x6e,0x64,0x6d,0x69,0x64,0x69,0x19,0x00,0x00,0x00,0x61,
0x76,0x61,0x6e,0x63,0x65,0x15,0x00,0x00,0x00,0x69,0x66,0x6e,0x65,0x20,0x19,0x00,
0x00,0x00,0x61,0x74,0x74,0x65,0x6e,0x64,0x39,0x00,0x00,0x00,0x73,0x74,0x72,0x65,
0x61,0x6d,0x69,0x6e,0x67,0x20,0x70,0x69,0x6e,0x67,0x09,0x00,0x00,0x00,0x49,0x44,
0xff,0xff,0xff,0xff,0xff,0xff,0xff,0xff,0xff,0xff,0xff,0xff,0xff,0xff,0xff,0xff,
0xff,0xff,0xff,0xff,0x49,0x00,0x00,0x00,0x53,0x74,0x61,0x72,0x74,0x20,0x43,0x68,
0x6f,0x72,0x20,0x53,0x74,0x72,0x65,0x61,0x6d,0x20,0x19,0x00,0x00,0x00,0x74,0x65,
0x6d,0x70,0x6f,0x20,0x1d,0x00,0x00,0x00,0x72,0x65,0x70,0x65,0x61,0x74,0x20,0x1d,
0x00,0x00,0x00,0x72,0x65,0x70,0x65,0x61,0x74,0x20,0x0d,0x00,0x00,0x00,0x47,0x45,
0x54,0x09,0x00,0x00,0x00,0x4d,0x55,0x09,0x00,0x00,0x00,0x4d,0x43,0x59,0x00,0x00,
0x00,0x23,0x23,0x23,0x23,0x23,0x23,0x23,0x23,0x23,0x23,0x23,0x53,0x74,0x61,0x72,
0x74,0x20,0x6d,0x75,0x73,0x69,0x63,0x2d,0x00,0x00,0x00,0x23,0x23,0x23,0x6e,0x69,
0x6c,0x6d,0x75,0x73,0x69,0x63,0x09,0x00,0x00,0x00,0x53,0x54,0x81,0x00,0x00,0x00,
0x23,0x23,0x23,0x23,0x23,0x23,0x23,0x23,0x23,0x23,0x23,0x53,0x74,0x61,0x72,0x74,
0x20,0x73,0x74,0x72,0x65,0x61,0x6d,0x69,0x6e,0x67,0x20,0x6d,0x75,0x73,0x69,0x63,
0x09,0x00,0x00,0x00,0x4d,0x57,0x09,0x00,0x00,0x00,0x43,0x48,0x09,0x00,0x00,0x00,
0x50,0x4c,0x09,0x00,0x00,0x00,0x43,0x4c,0xff,0xff,0xff,0xff,0x31,0x00,0x00,0x00,
0x63,0x68,0x65,0x63,0x6b,0x74,0x61,0x69,0x63,0x68,0x69,0x20,0x15,0x00,0x00,0x00,
0x70,0x69,0x6e,0x67,0x3d,0x0d,0x00,0x00,0x00,0x20,0x3a,0x20,0x0d,0x00,0x00,0x00,
0x47,0x45,0x54,0x55,0x00,0x00,0x00,0x23,0x23,0x74,0x69,0x6d,0x65,0x6f,0x75,0x74,
0x20,0x6f,0x6e,0x20,0x70,0x69,0x6e,0x67,0x77,0x61,0x69,0x74,0xff,0xff,0xff,0xff,
0x0d,0x00,0x00,0x00,0x47,0x45,0x54,0x2d,0x00,0x00,0x00,0x63,0x6f,0x6e,0x74,0x72,
0x6f,0x6c,0x70,0x6c,0x61,0x79,0x2d,0x00,0x00,0x00,0x63,0x6f,0x6e,0x74,0x72,0x6f,
0x6c,0x77,0x61,0x69,0x74,0x02,0x00,0x00,0x00,0x04,0x00,0x00,0x00,0x4d,0x00,0x00,
0x00,0x23,0x23,0x23,0x23,0x23,0x23,0x23,0x23,0x23,0x20,0x77,0x69,0x66,0x69,0x20,
0x6c,0x6f,0x73,0x74,0x21,0x00,0x00,0x00,0x3a,0x73,0x74,0x61,0x72,0x74,0x65,0x64,
0x15,0x00,0x00,0x00,0x3a,0x64,0x6f,0x6e,0x65,0xc3,0x55,0x00,0x00,0x00,0x00,0x00,
0x6a,0x02,0x00,0x02,0x01,0x02,0x19,0x00,0x05,0x02,0x10,0x02,0x00,0x2a,0x05,0x03,
0xd2,0x01,0x00,0x00,0x25,0x60,0x05,0x02,0x20,0x00,0x05,0x02,0x00,0x02,0xbe,0x00,
0x05,0x02,0xcd,0x5e,0x05,0x02,0xa0,0x00,0x05,0x02,0xae,0x00,0x05,0x02,0x69,0x00,
0x05,0x02,0x77,0x00,0x05,0x03,0xd3,0x01,0x00,0x00,0x25,0x60,0x05,0x35,0x3c,0x05,
0x02,0x8f,0x00,0x05,0x24,0x15,0x02,0x1e,0x00,0x05,0x02,0xd5,0x00,0x05,0x02,0x00,
0x01,0x00,0x00,0x00,0x02,0xcb,0x00,0x05,0x03,0x67,0x01,0x00,0x00,0x25,0x04,0x17,
0x1d,0x15,0x00,0x02,0xcd,0x00,0x1c,0x16,0x00,0x04,0x05,0x02,0x00,0x01,0x03,0x00,
0x00,0x07,0x00,0x07,0x02,0x07,0x01,0x02,0x00,0x04,0x42,0x01,0x01,0x00,0x00,0x07,
0x00,0x04,0x16,0x1d,0x0f,0x00,0x02,0x30,0x04,0x20,0x02,0x1c,0x11,0x00,0x07,0x00,
0x01,0x01,0x00,0x00,0x07,0x00,0x04,0x16,0x1d,0x0c,0x00,0x02,0x00,0x1c,0x15,0x00,
0x02,0x01,0x07,0x00,0x2e,0x02,0x04,0x00,0x09,0x01,0x02,0x00,0x00,0x07,0x00,0x04,
0x17,0x1d,0x26,0x00,0x07,0x01,0x07,0x00,0x2d,0x16,0x1d,0x16,0x00,0x07,0x00,0x2e,
0x1c,0x23,0x00,0x07,0x00,0x2d,0x07,0x00,0x2e,0x07,0x01,0x02,0x05,0x00,0x20,0x02,
0x1c,0x27,0x00,0x04,0x01,0x01,0x00,0x00,0x07,0x00,0x04,0x16,0x1d,0x0c,0x00,0x02,
0x00,0x1c,0x17,0x00,0x07,0x00,0x2d,0x44,0x07,0x00,0x2e,0x02,0x06,0x00,0x09,0x01,
0x02,0x00,0x00,0x07,0x01,0x15,0x1d,0x0c,0x00,0x07,0x00,0x2d,0x1c,0x23,0x00,0x07,
0x01,0x02,0x00,0x19,0x1d,0x22,0x00,0x07,0x00,0x2e,0x07,0x01,0x02,0x01,0x0a,0x02,
0x07,0x00,0x1c,0x23,0x00,0x04,0x01,0x01,0x03,0x00,0x07,0x00,0x02,0x04,0x00,0x3e,
0x28,0x01,0x02,0x00,0x28,0x02,0x07,0x00,0x28,0x03,0x04,0x07,0x03,0x04,0x17,0x1d,
0x38,0x00,0x1c,0x23,0x00,0x07,0x03,0x2e,0x28,0x03,0x1c,0x11,0x00,0x05,0x07,0x01,
0x07,0x02,0x07,0x03,0x2d,0x3f,0x05,0x02,0x02,0x07,0x02,0x02,0x01,0x09,0x2f,0x1c,
0x1b,0x00,0x05,0x07,0x01,0x01,0x01,0x00,0x00,0x07,0x00,0x75,0x7b,0x01,0x03,0x01,
0x00,0x07,0x00,0x07,0x01,0x07,0x02,0x02,0x02,0x00,0x28,0x03,0x07,0x03,0x04,0x16,
0x1d,0x17,0x00,0x02,0x00,0x1c,0x27,0x00,0x02,0x01,0x07,0x00,0x07,0x01,0x07,0x03,
0x07,0x01,0x44,0x09,0x02,0x0a,0x00,0x09,0x01,0x06,0x02,0x00,0x07,0x04,0x07,0x01,
0x44,0x18,0x1d,0x70,0x00,0x07,0x01,0x07,0x02,0x07,0x04,0x02,0x02,0x00,0x28,0x06,
0x07,0x06,0x04,0x16,0x1d,0x21,0x00,0x07,0x01,0x44,0x1c,0x23,0x00,0x07,0x06,0x28,
0x07,0x07,0x00,0x07,0x05,0x07,0x01,0x07,0x04,0x07,0x07,0x07,0x04,0x0a,0x40,0x05,
0x07,0x06,0x04,0x17,0x1d,0x4e,0x00,0x07,0x00,0x07,0x05,0x07,0x07,0x09,0x07,0x04,
0x0a,0x07,0x03,0x02,0x00,0x04,0x40,0x1c,0x4f,0x00,0x04,0x05,0x07,0x00,0x07,0x01,
0x07,0x02,0x07,0x03,0x07,0x07,0x07,0x02,0x44,0x09,0x07,0x05,0x07,0x07,0x09,0x07,
0x04,0x0a,0x07,0x03,0x44,0x09,0x02,0x0b,0x00,0x1c,0x71,0x00,0x04,0x01,0x03,0x02,
0x00,0x07,0x00,0x07,0x01,0x02,0x00,0x02,0x0a,0x00,0x28,0x03,0x07,0x03,0x15,0x1d,
0x16,0x00,0x07,0x00,0x1c,0x39,0x00,0x07,0x00,0x44,0x07,0x02,0x44,0x07,0x01,0x44,
0x0a,0x07,0x03,0x0b,0x09,0x3e,0x28,0x04,0x07,0x04,0x07,0x00,0x07,0x01,0x07,0x02,
0x02,0x00,0x02,0x00,0x02,0x0b,0x00,0x05,0x07,0x04,0x01,0x02,0x00,0x00,0x07,0x00,
0x04,0x16,0x1d,0x0c,0x00,0x07,0x01,0x1c,0x19,0x00,0x07,0x00,0x2e,0x07,0x00,0x2d,
0x07,0x01,0x20,0x02,0x02,0x0d,0x00,0x01,0x02,0x00,0x00,0x07,0x00,0x04,0x17,0x1d,
0x26,0x00,0x07,0x01,0x07,0x00,0x2d,0x16,0x1d,0x16,0x00,0x07,0x00,0x2e,0x1c,0x23,
0x00,0x07,0x00,0x2d,0x07,0x00,0x2e,0x07,0x01,0x02,0x0e,0x00,0x20,0x02,0x1c,0x27,
0x00,0x04,0x01,0x03,0x01,0x00,0x07,0x01,0x04,0x16,0x1d,0x0f,0x00,0x07,0x00,0x04,
0x20,0x02,0x1c,0x4f,0x00,0x07,0x02,0x07,0x00,0x07,0x01,0x2d,0x32,0x02,0x28,0x03,
0x07,0x03,0x02,0x00,0x19,0x1d,0x34,0x00,0x07,0x01,0x2d,0x07,0x00,0x07,0x01,0x2e,
0x07,0x02,0x02,0x0f,0x00,0x20,0x02,0x1c,0x4f,0x00,0x07,0x03,0x02,0x00,0x18,0x1d,
0x45,0x00,0x07,0x00,0x07,0x01,0x20,0x02,0x1c,0x4f,0x00,0x07,0x00,0x07,0x01,0x2e,
0x07,0x02,0x02,0x0f,0x00,0x01,0x02,0x00,0x00,0x07,0x00,0x04,0x17,0x1d,0x1a,0x00,
0x07,0x00,0x2d,0x07,0x00,0x2e,0x07,0x01,0x02,0x10,0x00,0x07,0x01,0x02,0x0f,0x00,
0x1c,0x1b,0x00,0x04,0x01,0x03,0x01,0x00,0x07,0x00,0x04,0x17,0x1d,0x35,0x00,0x07,
0x00,0x2d,0x28,0x03,0x07,0x02,0x07,0x03,0x07,0x01,0x32,0x02,0x1d,0x28,0x00,0x07,
0x03,0x07,0x00,0x2e,0x07,0x01,0x07,0x02,0x02,0x11,0x00,0x20,0x02,0x1c,0x32,0x00,
0x07,0x00,0x2e,0x07,0x01,0x07,0x02,0x02,0x11,0x00,0x1c,0x36,0x00,0x04,0x01,0x02,
0x00,0x00,0x07,0x00,0x04,0x16,0x1d,0x0c,0x00,0x07,0x01,0x1c,0x19,0x00,0x07,0x00,
0x2d,0x07,0x00,0x2e,0x07,0x01,0x02,0x12,0x00,0x20,0x02,0x01,0x04,0x01,0x00,0x07,
0x01,0x02,0x04,0x18,0x1d,0x50,0x00,0x07,0x02,0x24,0x1e,0x07,0x03,0x02,0x02,0x00,
0x28,0x04,0x07,0x00,0x07,0x01,0x07,0x02,0x07,0x03,0x07,0x04,0x04,0x16,0x1d,0x26,
0x00,0x04,0x1c,0x2b,0x00,0x07,0x04,0x07,0x03,0x0a,0x46,0x75,0x3f,0x05,0x07,0x00,
0x07,0x01,0x02,0x01,0x09,0x07,0x02,0x07,0x04,0x04,0x16,0x1d,0x45,0x00,0x07,0x02,
0x44,0x1c,0x4a,0x00,0x07,0x04,0x02,0x01,0x09,0x02,0x13,0x00,0x1c,0x51,0x00,0x04,
0x01,0x01,0x01,0x00,0x02,0x04,0x3e,0x28,0x01,0x07,0x01,0x02,0x00,0x07,0x00,0x02,
0x00,0x02,0x13,0x00,0x05,0x07,0x01,0x01,0x01,0x00,0x00,0x07,0x00,0x02,0x00,0x45,
0x77,0x24,0x1f,0x07,0x00,0x02,0x01,0x45,0x77,0x24,0x20,0x07,0x00,0x02,0x02,0x45,
0x77,0x24,0x21,0x07,0x00,0x02,0x03,0x45,0x77,0x04,0x20,0x02,0x20,0x02,0x20,0x02,
0x20,0x02,0x20,0x02,0x20,0x02,0x20,0x02,0x49,0x01,0x02,0x00,0x00,0x07,0x01,0x07,
0x00,0x44,0x18,0x1d,0x3b,0x00,0x07,0x00,0x07,0x01,0x45,0x7a,0x07,0x01,0x02,0x01,
0x09,0x07,0x00,0x44,0x18,0x1d,0x2c,0x00,0x24,0x22,0x07,0x00,0x07,0x01,0x02,0x01,
0x09,0x02,0x16,0x00,0x20,0x02,0x1c,0x36,0x00,0x07,0x00,0x07,0x01,0x02,0x01,0x09,
0x02,0x16,0x00,0x20,0x02,0x1c,0x3c,0x00,0x04,0x01,0x01,0x00,0x00,0x07,0x00,0x02,
0x00,0x02,0x16,0x00,0x49,0x01,0x01,0x01,0x00,0x02,0x00,0x28,0x01,0x04,0x07,0x01,
0x02,0x05,0x18,0x1d,0x1d,0x00,0x05,0x07,0x01,0x07,0x00,0x4a,0x07,0x01,0x02,0x01,
0x09,0x28,0x01,0x1c,0x05,0x00,0x01,0x03,0x01,0x00,0x02,0x00,0x28,0x03,0x04,0x07,
0x03,0x02,0x06,0x18,0x1d,0x26,0x00,0x05,0x07,0x00,0x07,0x01,0x07,0x03,0x09,0x45,
0x7a,0x26,0x05,0x24,0x23,0x26,0x07,0x03,0x02,0x01,0x09,0x28,0x03,0x1c,0x05,0x00,
0x05,0x07,0x02,0x1d,0x32,0x00,0x24,0x24,0x60,0x1c,0x33,0x00,0x04,0x05,0x07,0x00,
0x01,0x03,0x01,0x00,0x02,0x00,0x28,0x03,0x04,0x07,0x03,0x02,0x04,0x18,0x1d,0x26,
0x00,0x05,0x07,0x00,0x07,0x01,0x07,0x03,0x09,0x45,0x7a,0x26,0x05,0x24,0x25,0x26,
0x07,0x03,0x02,0x01,0x09,0x28,0x03,0x1c,0x05,0x00,0x05,0x07,0x02,0x1d,0x32,0x00,
0x24,0x26,0x60,0x1c,0x33,0x00,0x04,0x05,0x07,0x00,0x01,0x03,0x01,0x00,0x02,0x00,
0x28,0x03,0x04,0x07,0x03,0x02,0x04,0x18,0x1d,0x25,0x00,0x05,0x07,0x00,0x07,0x01,
0x07,0x03,0x09,0x45,0x27,0x05,0x24,0x27,0x26,0x07,0x03,0x02,0x01,0x09,0x28,0x03,
0x1c,0x05,0x00,0x05,0x07,0x02,0x1d,0x31,0x00,0x24,0x28,0x60,0x1c,0x32,0x00,0x04,
0x05,0x07,0x00,0x01,0x01,0x00,0x00,0x07,0x00,0x02,0x18,0x12,0x7a,0x07,0x00,0x02,
0x10,0x12,0x7a,0x07,0x00,0x02,0x08,0x12,0x7a,0x07,0x00,0x7a,0x04,0x20,0x02,0x20,
0x02,0x20,0x02,0x20,0x02,0x49,0x01,0x01,0x03,0x00,0x02,0x00,0x28,0x01,0x04,0x07,
0x01,0x07,0x00,0x44,0x18,0x1d,0xa8,0x00,0x1c,0x1b,0x00,0x07,0x01,0x02,0x10,0x09,
0x28,0x01,0x1c,0x05,0x00,0x05,0x07,0x01,0x02,0x1c,0x00,0x26,0x05,0x24,0x29,0x26,
0x05,0x02,0x00,0x28,0x02,0x04,0x07,0x02,0x02,0x10,0x18,0x1d,0x5d,0x00,0x05,0x07,
0x00,0x07,0x01,0x07,0x02,0x09,0x45,0x28,0x03,0x07,0x03,0x04,0x16,0x1d,0x4b,0x00,
0x24,0x2a,0x1c,0x4e,0x00,0x07,0x03,0x7a,0x26,0x05,0x24,0x2b,0x26,0x07,0x02,0x02,
0x01,0x09,0x28,0x02,0x1c,0x2c,0x00,0x05,0x24,0x2c,0x26,0x05,0x02,0x00,0x28,0x02,
0x04,0x07,0x02,0x02,0x10,0x18,0x1d,0xa1,0x00,0x05,0x07,0x00,0x07,0x01,0x07,0x02,
0x09,0x45,0x28,0x03,0x07,0x03,0x04,0x16,0x1d,0x86,0x00,0x24,0x2d,0x1c,0x96,0x00,
0x07,0x03,0x02,0x20,0x18,0x1d,0x93,0x00,0x24,0x2e,0x1c,0x96,0x00,0x07,0x03,0x78,
0x26,0x07,0x02,0x02,0x01,0x09,0x28,0x02,0x1c,0x67,0x00,0x05,0x24,0x2f,0x60,0x1c,
0x11,0x00,0x05,0x07,0x00,0x01,0x01,0x08,0x00,0x24,0x30,0x60,0x05,0x07,0x00,0x28,
0x01,0x04,0x07,0x01,0x04,0x17,0x1d,0x89,0x00,0x1c,0x1b,0x00,0x07,0x01,0x2e,0x28,
0x01,0x1c,0x09,0x00,0x05,0x07,0x01,0x2d,0x06,0x22,0x00,0x28,0x02,0x06,0x22,0x01,
0x28,0x03,0x06,0x22,0x02,0x28,0x04,0x06,0x22,0x03,0x28,0x05,0x06,0x22,0x04,0x28,
0x06,0x06,0x22,0x05,0x28,0x07,0x06,0x22,0x06,0x28,0x08,0x05,0x24,0x31,0x26,0x05,
0x07,0x02,0x60,0x05,0x24,0x32,0x26,0x05,0x07,0x03,0x02,0x00,0x02,0x01,0x02,0x19,
0x00,0x05,0x24,0x33,0x26,0x05,0x07,0x04,0x02,0x00,0x02,0x01,0x02,0x19,0x00,0x05,
0x24,0x34,0x26,0x05,0x07,0x05,0x5f,0x05,0x24,0x35,0x26,0x05,0x07,0x06,0x5f,0x05,
0x24,0x36,0x26,0x05,0x07,0x07,0x5f,0x05,0x24,0x37,0x26,0x05,0x07,0x08,0x5f,0x1c,
0x13,0x00,0x05,0x07,0x00,0x01,0x00,0x00,0x00,0x24,0x4b,0x60,0x05,0x24,0x4a,0x02,
0x1d,0x00,0x05,0x24,0x4a,0x02,0x00,0x24,0x4c,0x02,0x00,0x24,0x49,0x5c,0x01,0x00,
0x00,0x00,0x02,0x4a,0x24,0x49,0x3e,0x2a,0x05,0x24,0x4a,0x02,0x00,0x24,0x4d,0x02,
0x00,0x24,0x49,0x52,0x05,0x24,0x4a,0x02,0x1d,0x00,0x01,0x02,0x00,0x00,0x24,0x4a,
0x07,0x00,0x07,0x01,0x46,0x01,0x02,0x00,0x00,0x24,0x4a,0x07,0x00,0x07,0x01,0x46,
0x01,0x02,0x01,0x00,0x24,0x4a,0x24,0x4e,0x07,0x00,0x02,0x02,0x00,0x28,0x02,0x24,
0x4a,0x07,0x00,0x07,0x02,0x04,0x16,0x1d,0x1b,0x00,0x07,0x01,0x1c,0x23,0x00,0x07,
0x01,0x07,0x02,0x07,0x00,0x0a,0x3a,0x46,0x01,0x03,0x00,0x00,0x24,0x4a,0x07,0x00,
0x07,0x01,0x02,0x00,0x07,0x02,0x40,0x01,0x03,0x00,0x00,0x24,0x4a,0x07,0x00,0x07,
0x01,0x02,0x00,0x07,0x02,0x40,0x01,0x03,0x01,0x00,0x07,0x01,0x44,0x07,0x02,0x02,
0x01,0x0a,0x3a,0x28,0x03,0x24,0x4a,0x07,0x00,0x07,0x01,0x02,0x00,0x07,0x03,0x40,
0x05,0x24,0x4a,0x07,0x00,0x07,0x03,0x09,0x02,0x00,0x3f,0x01,0x01,0x00,0x00,0x07,
0x00,0x02,0x00,0x45,0x02,0x08,0x11,0x07,0x00,0x02,0x01,0x45,0x09,0x01,0x00,0x00,
0x00,0x24,0x3e,0x02,0x20,0x02,0x23,0x00,0x01,0x00,0x00,0x00,0x24,0x40,0x02,0x01,
0x02,0x21,0x00,0x02,0x00,0x45,0x01,0x00,0x00,0x00,0x24,0x41,0x02,0x40,0x02,0x23,
0x00,0x01,0x00,0x00,0x00,0x24,0x3f,0x02,0x01,0x02,0x21,0x00,0x02,0x00,0x45,0x01,
0x00,0x00,0x00,0x24,0x47,0x02,0x20,0x02,0x22,0x00,0x01,0x00,0x00,0x00,0x24,0x39,
0x02,0x01,0x02,0x21,0x00,0x02,0x00,0x45,0x01,0x00,0x00,0x00,0x24,0x3a,0x02,0x04,
0x02,0x21,0x00,0x01,0x00,0x00,0x00,0x24,0x3b,0x02,0x04,0x02,0x21,0x00,0x01,0x00,
0x00,0x00,0x24,0x3c,0x02,0x04,0x02,0x21,0x00,0x01,0x00,0x00,0x00,0x24,0x3d,0x02,
0x04,0x02,0x21,0x00,0x01,0x00,0x00,0x00,0x24,0x38,0x02,0x28,0x02,0x23,0x00,0x01,
0x00,0x00,0x00,0x24,0x45,0x02,0x06,0x02,0x21,0x00,0x01,0x00,0x00,0x00,0x24,0x46,
0x02,0x06,0x02,0x21,0x00,0x01,0x00,0x00,0x00,0x24,0x42,0x02,0x01,0x02,0x21,0x00,
0x02,0x00,0x45,0x01,0x00,0x00,0x00,0x24,0x43,0x02,0x04,0x02,0x21,0x00,0x01,0x00,
0x00,0x00,0x24,0x44,0x02,0x02,0x02,0x21,0x00,0x02,0x27,0x00,0x01,0x03,0x00,0x00,
0x07,0x00,0x07,0x01,0x07,0x02,0x02,0x08,0x12,0x14,0x3f,0x05,0x07,0x00,0x07,0x01,
0x02,0x01,0x09,0x07,0x02,0x14,0x3f,0x05,0x02,0x00,0x01,0x04,0x00,0x00,0x24,0x53,
0x07,0x00,0x78,0x24,0x0d,0x24,0x09,0x07,0x02,0x07,0x03,0x04,0x20,0x02,0x20,0x02,
0x20,0x02,0x20,0x02,0x20,0x02,0x20,0x02,0x49,0x01,0x01,0x00,0x00,0x24,0x4f,0x24,
0x09,0x24,0x0e,0x07,0x00,0x02,0x39,0x00,0x02,0x00,0x04,0x24,0x0e,0x02,0x00,0x02,
0x01,0x68,0x01,0x02,0x01,0x00,0x07,0x00,0x04,0x17,0x1d,0x3d,0x00,0x07,0x00,0x2d,
0x06,0x22,0x00,0x28,0x02,0x05,0x07,0x01,0x02,0x08,0x02,0x0e,0x09,0x07,0x02,0x02,
0x00,0x02,0x04,0x41,0x15,0x1d,0x2d,0x00,0x07,0x00,0x2e,0x07,0x01,0x02,0x3b,0x00,
0x1c,0x3a,0x00,0x07,0x00,0x2d,0x07,0x00,0x2e,0x07,0x01,0x02,0x3b,0x00,0x20,0x02,
0x1c,0x3e,0x00,0x04,0x01,0x02,0x03,0x00,0x07,0x00,0x04,0x17,0x1d,0x65,0x00,0x07,
0x00,0x2d,0x06,0x22,0x00,0x28,0x02,0x06,0x22,0x02,0x28,0x03,0x05,0x07,0x01,0x02,
0x08,0x02,0x0e,0x09,0x07,0x02,0x02,0x00,0x02,0x04,0x41,0x15,0x1d,0x58,0x00,0x07,
0x01,0x02,0x08,0x02,0x08,0x09,0x02,0x06,0x46,0x28,0x04,0x24,0x54,0x26,0x05,0x07,
0x04,0x02,0x00,0x02,0x01,0x02,0x19,0x00,0x05,0x02,0x51,0x07,0x02,0x07,0x04,0x20,
0x02,0x24,0x51,0x20,0x02,0x2a,0x05,0x07,0x03,0x07,0x04,0x32,0x01,0x1c,0x59,0x00,
0x04,0x05,0x07,0x00,0x2e,0x07,0x01,0x02,0x3c,0x00,0x1c,0x66,0x00,0x04,0x01,0x02,
0x02,0x00,0x24,0x55,0x26,0x05,0x07,0x00,0x02,0x08,0x02,0x07,0x09,0x45,0x28,0x02,
0x07,0x02,0x02,0x01,0x16,0x1d,0x4d,0x00,0x07,0x00,0x02,0x20,0x24,0x09,0x02,0x00,
0x02,0x04,0x41,0x15,0x1d,0x47,0x00,0x24,0x50,0x24,0x09,0x07,0x00,0x02,0x10,0x02,
0x06,0x46,0x07,0x00,0x02,0x16,0x02,0x04,0x46,0x02,0x39,0x00,0x02,0x00,0x04,0x07,
0x01,0x02,0x00,0x02,0x01,0x68,0x1c,0x48,0x00,0x04,0x05,0x04,0x1c,0x6f,0x00,0x07,
0x02,0x02,0x02,0x16,0x1d,0x6e,0x00,0x24,0x52,0x28,0x03,0x02,0x52,0x24,0x52,0x07,
0x00,0x02,0x3b,0x00,0x2a,0x05,0x07,0x03,0x07,0x00,0x02,0x3c,0x00,0x1c,0x6f,0x00,
0x04,0x01,0x02,0x00,0x00,0x07,0x01,0x02,0x00,0x18,0x1d,0x0d,0x00,0x02,0x01,0x1c,
0x30,0x00,0x07,0x00,0x07,0x01,0x45,0x24,0x09,0x07,0x01,0x45,0x10,0x24,0x0a,0x07,
0x01,0x45,0x0e,0x1d,0x26,0x00,0x02,0x00,0x1c,0x30,0x00,0x07,0x00,0x07,0x01,0x02,
0x01,0x0a,0x02,0x3e,0x00,0x01,0x01,0x00,0x00,0x24,0x56,0x26,0x05,0x07,0x00,0x02,
0x00,0x02,0x01,0x02,0x1b,0x00,0x05,0x07,0x00,0x02,0x03,0x02,0x3e,0x00,0x5f,0x01,
0x02,0x02,0x00,0x07,0x00,0x02,0x3f,0x00,0x1d,0x0d,0x00,0x07,0x00,0x1c,0x0f,0x00,
0x24,0x0b,0x02,0x00,0x02,0x01,0x02,0x1b,0x00,0x28,0x02,0x24,0x51,0x07,0x02,0x7d,
0x28,0x03,0x07,0x03,0x04,0x17,0x1d,0x2f,0x00,0x07,0x01,0x07,0x03,0x32,0x01,0x1c,
0x46,0x00,0x07,0x02,0x02,0x3a,0x00,0x05,0x02,0x52,0x07,0x02,0x3d,0x07,0x01,0x20,
0x03,0x24,0x52,0x20,0x02,0x2a,0x05,0x02,0x00,0x01,0x02,0x02,0x00,0x07,0x00,0x04,
0x17,0x1d,0x40,0x00,0x07,0x00,0x2d,0x06,0x22,0x00,0x28,0x02,0x06,0x22,0x01,0x28,
0x03,0x05,0x3d,0x07,0x03,0x0a,0x07,0x01,0x19,0x1d,0x2a,0x00,0x07,0x00,0x2e,0x07,
0x01,0x02,0x41,0x00,0x1c,0x3d,0x00,0x07,0x02,0x02,0x3a,0x00,0x05,0x07,0x00,0x2d,
0x07,0x00,0x2e,0x07,0x01,0x02,0x41,0x00,0x20,0x02,0x1c,0x41,0x00,0x04,0x01,0x00,
0x00,0x00,0x02,0x52,0x24,0x52,0x02,0x0a,0x02,0x41,0x00,0x2a,0x01,0x00,0x00,0x00,
0x02,0x51,0x04,0x2a,0x05,0x02,0x52,0x04,0x2a,0x05,0x02,0x00,0x01,0x05,0x01,0x00,
0x24,0x57,0x07,0x00,0x07,0x01,0x24,0x58,0x07,0x04,0x04,0x20,0x02,0x20,0x02,0x20,
0x02,0x20,0x02,0x20,0x02,0x49,0x28,0x05,0x07,0x05,0x02,0x08,0x02,0x02,0x09,0x02,
0x1c,0x07,0x04,0x44,0x09,0x74,0x05,0x07,0x05,0x02,0x08,0x02,0x14,0x09,0x07,0x02,
0x74,0x05,0x07,0x05,0x02,0x08,0x02,0x16,0x09,0x07,0x03,0x74,0x05,0x07,0x05,0x02,
0x08,0x02,0x18,0x09,0x02,0x08,0x07,0x04,0x44,0x09,0x74,0x05,0x07,0x05,0x02,0x08,
0x02,0x0a,0x09,0x07,0x05,0x02,0x08,0x02,0x14,0x02,0x00,0x6b,0x02,0x38,0x00,0x05,
0x07,0x05,0x02,0x08,0x02,0x1a,0x09,0x07,0x05,0x02,0x08,0x02,0x14,0x09,0x02,0x08,
0x07,0x04,0x44,0x09,0x07,0x05,0x02,0x08,0x02,0x18,0x09,0x02,0x02,0x24,0x59,0x02,
0x00,0x04,0x07,0x05,0x02,0x08,0x02,0x0c,0x09,0x02,0x08,0x02,0x00,0x6b,0x6b,0x6b,
0x6b,0x02,0x38,0x00,0x05,0x07,0x05,0x01,0x02,0x00,0x00,0x24,0x5a,0x26,0x05,0x07,
0x01,0x02,0x00,0x04,0x07,0x00,0x02,0x00,0x02,0x01,0x02,0x19,0x00,0x02,0x00,0x02,
0x01,0x68,0x01,0x06,0x02,0x00,0x07,0x00,0x07,0x02,0x07,0x01,0x07,0x03,0x07,0x04,
0x02,0x44,0x00,0x28,0x06,0x07,0x05,0x04,0x17,0x1d,0x20,0x00,0x07,0x05,0x07,0x06,
0x02,0x45,0x00,0x1c,0x2e,0x00,0x07,0x02,0x28,0x07,0x07,0x07,0x02,0x45,0x07,0x06,
0x37,0x02,0x40,0x00,0x01,0x02,0x01,0x00,0x07,0x00,0x04,0x17,0x1d,0x33,0x00,0x07,
0x00,0x2d,0x06,0x22,0x00,0x28,0x02,0x05,0x07,0x02,0x07,0x01,0x16,0x1d,0x23,0x00,
0x07,0x00,0x2e,0x07,0x01,0x02,0x47,0x00,0x1c,0x30,0x00,0x07,0x00,0x2d,0x07,0x00,
0x2e,0x07,0x01,0x02,0x47,0x00,0x20,0x02,0x1c,0x34,0x00,0x04,0x01,0x02,0x00,0x00,
0x02,0x5b,0x07,0x00,0x07,0x01,0x20,0x02,0x24,0x5b,0x07,0x00,0x02,0x47,0x00,0x20,
0x02,0x2a,0x01,0x01,0x00,0x00,0x02,0x5b,0x24,0x5b,0x07,0x00,0x02,0x47,0x00,0x2a,
0x01,0x00,0x00,0x00,0x02,0x5b,0x04,0x2a,0x01,0x02,0x02,0x00,0x24,0x5c,0x26,0x05,
0x07,0x00,0x02,0x08,0x02,0x14,0x09,0x02,0x02,0x09,0x73,0x5f,0x28,0x02,0x24,0x5b,
0x07,0x02,0x7c,0x28,0x03,0x07,0x03,0x07,0x00,0x02,0x08,0x02,0x14,0x09,0x02,0x08,
0x09,0x04,0x46,0x07,0x01,0x07,0x00,0x02,0x14,0x02,0x04,0x46,0x32,0x03,0x01,0x08,
0x03,0x00,0x24,0x6f,0x07,0x00,0x07,0x01,0x24,0x70,0x07,0x04,0x07,0x05,0x24,0x71,
0x07,0x06,0x24,0x5e,0x0e,0x1d,0x22,0x00,0x24,0x72,0x07,0x07,0x04,0x20,0x02,0x20,
0x02,0x1c,0x27,0x00,0x07,0x07,0x04,0x20,0x02,0x20,0x02,0x20,0x02,0x20,0x02,0x20,
0x02,0x20,0x02,0x20,0x02,0x20,0x02,0x49,0x28,0x08,0x07,0x08,0x44,0x28,0x09,0x07,
0x08,0x02,0x08,0x02,0x02,0x09,0x07,0x09,0x02,0x08,0x0a,0x74,0x05,0x07,0x08,0x02,
0x08,0x02,0x14,0x09,0x07,0x02,0x74,0x05,0x07,0x08,0x02,0x08,0x02,0x16,0x09,0x07,
0x03,0x74,0x05,0x07,0x08,0x02,0x08,0x02,0x20,0x09,0x02,0x04,0x07,0x06,0x24,0x5e,
0x0e,0x1d,0x77,0x00,0x02,0x18,0x1c,0x79,0x00,0x02,0x14,0x0b,0x3f,0x05,0x07,0x08,
0x02,0x08,0x02,0x21,0x09,0x07,0x06,0x3f,0x05,0x07,0x08,0x02,0x08,0x02,0x0a,0x09,
0x07,0x08,0x02,0x08,0x02,0x14,0x02,0x00,0x6b,0x02,0x38,0x00,0x05,0x02,0x02,0x3e,
0x28,0x0a,0x07,0x0a,0x02,0x00,0x07,0x09,0x02,0x1c,0x0a,0x74,0x05,0x07,0x08,0x02,
0x08,0x02,0x24,0x09,0x07,0x08,0x02,0x08,0x02,0x14,0x09,0x07,0x09,0x02,0x1c,0x0a,
0x07,0x0a,0x02,0x00,0x02,0x02,0x24,0x73,0x02,0x00,0x04,0x07,0x08,0x02,0x08,0x02,
0x0c,0x09,0x02,0x08,0x02,0x00,0x6b,0x6b,0x6b,0x6b,0x02,0x38,0x00,0x05,0x07,0x08,
0x01,0x03,0x00,0x00,0x07,0x00,0x22,0x01,0x07,0x00,0x22,0x02,0x07,0x00,0x22,0x03,
0x07,0x00,0x22,0x04,0x07,0x00,0x22,0x05,0x07,0x00,0x22,0x06,0x07,0x01,0x07,0x02,
0x02,0x4c,0x00,0x01,0x01,0x00,0x00,0x07,0x00,0x22,0x09,0x02,0x00,0x04,0x07,0x00,
0x22,0x08,0x02,0x00,0x02,0x01,0x02,0x19,0x00,0x02,0x00,0x02,0x01,0x68,0x05,0x02,
0x00,0x01,0x01,0x00,0x00,0x07,0x00,0x02,0x08,0x02,0x20,0x09,0x45,0x02,0x04,0x12,
0x02,0x02,0x11,0x01,0x01,0x00,0x00,0x07,0x00,0x02,0x0a,0x73,0x02,0x14,0x0a,0x07,
0x00,0x02,0x4f,0x00,0x0a,0x01,0x02,0x01,0x00,0x07,0x01,0x02,0x00,0x04,0x07,0x00,
0x22,0x08,0x02,0x00,0x02,0x01,0x68,0x05,0x07,0x01,0x02,0x08,0x02,0x21,0x09,0x45,
0x28,0x02,0x07,0x00,0x02,0x05,0x07,0x00,0x22,0x05,0x07,0x01,0x02,0x50,0x00,0x07,
0x02,0x24,0x5e,0x24,0x5d,0x0f,0x0e,0x1d,0x36,0x00,0x02,0x01,0x1c,0x38,0x00,0x02,
0x00,0x09,0x72,0x30,0x05,0x02,0x00,0x01,0x02,0x00,0x00,0x07,0x00,0x02,0x09,0x07,
0x01,0x30,0x05,0x07,0x00,0x02,0x0a,0x04,0x30,0x05,0x07,0x00,0x07,0x01,0x02,0x51,
0x00,0x01,0x03,0x00,0x00,0x07,0x01,0x02,0x08,0x07,0x00,0x30,0x05,0x07,0x01,0x07,
0x02,0x02,0x52,0x00,0x01,0x01,0x00,0x00,0x07,0x00,0x02,0x00,0x24,0x63,0x30,0x05,
0x02,0x74,0x24,0x74,0x07,0x00,0x02,0x0e,0x00,0x2a,0x01,0x05,0x04,0x00,0x07,0x01,
0x04,0x16,0x1d,0x29,0x00,0x03,0x00,0x04,0x00,0x00,0x02,0x75,0x24,0x75,0x04,0x16,
0x1d,0x19,0x00,0x35,0x1c,0x1b,0x00,0x24,0x75,0x02,0x01,0x09,0x03,0xff,0x3f,0x00,
0x00,0x0e,0x2a,0x09,0x1c,0x2b,0x00,0x07,0x01,0x28,0x05,0x1e,0x0d,0x24,0x64,0x2b,
0x00,0x07,0x00,0x2b,0x01,0x07,0x02,0x2b,0x02,0x07,0x05,0x2b,0x03,0x07,0x03,0x2b,
0x04,0x24,0x68,0x2b,0x05,0x24,0x69,0x2b,0x06,0x07,0x04,0x2b,0x07,0x02,0x01,0x2b,
0x0c,0x28,0x06,0x07,0x06,0x24,0x5e,0x04,0x02,0x4d,0x00,0x28,0x07,0x07,0x02,0x28,
0x08,0x02,0x74,0x07,0x06,0x24,0x74,0x20,0x02,0x2a,0x05,0x07,0x08,0x02,0x53,0x07,
0x07,0x37,0x07,0x06,0x37,0x02,0x40,0x00,0x05,0x07,0x06,0x01,0x02,0x01,0x00,0x1e,
0x0d,0x24,0x66,0x2b,0x00,0x07,0x00,0x2b,0x03,0x07,0x01,0x2b,0x07,0x02,0x01,0x2b,
0x0c,0x28,0x02,0x02,0x74,0x07,0x02,0x24,0x74,0x20,0x02,0x2a,0x01,0x04,0x01,0x00,
0x07,0x00,0x04,0x17,0x1d,0x7d,0x00,0x07,0x00,0x2d,0x28,0x04,0x07,0x04,0x22,0x03,
0x07,0x01,0x16,0x06,0x1d,0x1f,0x00,0x05,0x07,0x04,0x22,0x04,0x07,0x02,0x16,0x06,
0x1d,0x35,0x00,0x05,0x07,0x03,0x02,0x08,0x02,0x10,0x09,0x07,0x04,0x22,0x01,0x02,
0x00,0x02,0x04,0x41,0x15,0x06,0x1d,0x4b,0x00,0x05,0x07,0x03,0x02,0x08,0x02,0x0c,
0x09,0x07,0x04,0x22,0x02,0x02,0x00,0x02,0x04,0x41,0x15,0x1d,0x53,0x00,0x07,0x04,
0x1c,0x7a,0x00,0x07,0x04,0x22,0x00,0x24,0x66,0x16,0x06,0x1d,0x66,0x00,0x05,0x07,
0x04,0x22,0x03,0x07,0x01,0x16,0x1d,0x6e,0x00,0x07,0x04,0x1c,0x7a,0x00,0x07,0x00,
0x2e,0x07,0x01,0x07,0x02,0x07,0x03,0x02,0x57,0x00,0x1c,0x7e,0x00,0x04,0x01,0x01,
0x00,0x00,0x24,0x76,0x60,0x05,0x07,0x00,0x07,0x00,0x24,0x5d,0x24,0x61,0x09,0x04,
0x02,0x4d,0x00,0x02,0x51,0x00,0x05,0x07,0x00,0x02,0x00,0x24,0x67,0x30,0x05,0x02,
0x00,0x01,0x02,0x0c,0x00,0x24,0x77,0x26,0x05,0x07,0x00,0x02,0x08,0x02,0x14,0x09,
0x02,0x02,0x09,0x73,0x28,0x02,0x07,0x00,0x02,0x08,0x02,0x14,0x09,0x02,0x00,0x09,
0x73,0x28,0x03,0x24,0x74,0x07,0x02,0x07,0x03,0x07,0x00,0x02,0x57,0x00,0x28,0x04,
0x07,0x04,0x04,0x17,0x06,0x1d,0x38,0x00,0x05,0x07,0x04,0x22,0x0c,0x1d,0x0b,0x03,
0x07,0x04,0x22,0x00,0x28,0x05,0x07,0x00,0x02,0x08,0x02,0x21,0x09,0x45,0x28,0x06,
0x07,0x00,0x02,0x08,0x02,0x18,0x09,0x02,0x04,0x46,0x28,0x07,0x07,0x00,0x02,0x08,
0x02,0x1c,0x09,0x02,0x04,0x46,0x28,0x08,0x07,0x05,0x24,0x64,0x16,0x1d,0xec,0x00,
0x24,0x78,0x60,0x05,0x07,0x06,0x24,0x5e,0x24,0x61,0x09,0x16,0x06,0x1d,0x91,0x00,
0x05,0x07,0x04,0x22,0x05,0x02,0x00,0x02,0x01,0x02,0x1a,0x00,0x02,0x00,0x07,0x08,
0x02,0x00,0x02,0x04,0x41,0x15,0x1d,0xd1,0x00,0x07,0x04,0x02,0x06,0x07,0x07,0x02,
0x01,0x72,0x02,0x00,0x02,0x01,0x02,0x1a,0x00,0x30,0x05,0x07,0x04,0x07,0x04,0x24,
0x61,0x04,0x02,0x4d,0x00,0x02,0x51,0x00,0x05,0x07,0x04,0x02,0x00,0x24,0x65,0x30,
0x05,0x07,0x04,0x02,0x09,0x04,0x30,0x05,0x07,0x04,0x22,0x07,0x07,0x04,0x24,0x6a,
0x04,0x32,0x03,0x1c,0xe9,0x00,0x07,0x04,0x07,0x04,0x24,0x5f,0x24,0x61,0x09,0x04,
0x02,0x4d,0x00,0x02,0x51,0x00,0x05,0x07,0x04,0x02,0x54,0x00,0x05,0x04,0x1c,0x08,
0x03,0x07,0x05,0x24,0x65,0x16,0x1d,0x53,0x02,0x07,0x04,0x22,0x06,0x02,0x00,0x07,
0x07,0x02,0x00,0x02,0x04,0x41,0x15,0x1d,0x3d,0x02,0x07,0x00,0x02,0x0a,0x73,0x28,
0x09,0x07,0x00,0x02,0x08,0x02,0x20,0x09,0x45,0x02,0x04,0x12,0x02,0x02,0x11,0x28,
0x0a,0x07,0x00,0x02,0x50,0x00,0x28,0x0b,0x07,0x0b,0x1d,0x37,0x01,0x07,0x04,0x02,
0x06,0x07,0x04,0x22,0x06,0x07,0x0b,0x72,0x30,0x1c,0x38,0x01,0x04,0x05,0x07,0x06,
0x24,0x5d,0x0e,0x1d,0x52,0x01,0x07,0x04,0x02,0x06,0x07,0x04,0x22,0x06,0x02,0x01,
0x72,0x30,0x05,0x04,0x1c,0xbd,0x01,0x07,0x04,0x22,0x05,0x02,0x00,0x07,0x08,0x02,
0x00,0x02,0x04,0x41,0x15,0x1d,0xa2,0x01,0x07,0x04,0x02,0x09,0x04,0x30,0x05,0x07,
0x04,0x22,0x0b,0x02,0x01,0x16,0x1d,0x8a,0x01,0x07,0x04,0x02,0x0b,0x02,0x00,0x30,
0x05,0x07,0x04,0x22,0x07,0x07,0x04,0x24,0x6a,0x04,0x32,0x03,0x1c,0x9f,0x01,0x07,
0x04,0x22,0x0b,0x02,0x02,0x16,0x1d,0x9e,0x01,0x07,0x04,0x02,0x58,0x00,0x05,0x04,
0x1c,0x9f,0x01,0x04,0x1c,0xbd,0x01,0x24,0x79,0x60,0x05,0x07,0x04,0x22,0x05,0x02,
0x00,0x02,0x01,0x02,0x1a,0x00,0x05,0x07,0x08,0x02,0x00,0x02,0x01,0x02,0x1a,0x00,
0x05,0x04,0x05,0x07,0x0b,0x1d,0xe8,0x01,0x02,0x08,0x02,0x14,0x09,0x07,0x00,0x02,
0x4f,0x00,0x09,0x28,0x0c,0x07,0x00,0x07,0x0c,0x07,0x0b,0x46,0x28,0x0d,0x07,0x04,
0x22,0x07,0x07,0x04,0x24,0x6b,0x07,0x0d,0x32,0x03,0x1c,0xe9,0x01,0x04,0x05,0x07,
0x0b,0x06,0x15,0x1d,0xf7,0x01,0x05,0x07,0x06,0x24,0x5d,0x0e,0x1d,0x0a,0x02,0x07,
0x04,0x07,0x04,0x24,0x61,0x04,0x02,0x4d,0x00,0x02,0x51,0x00,0x1c,0x0b,0x02,0x04,
0x05,0x07,0x06,0x24,0x5d,0x0e,0x1d,0x39,0x02,0x07,0x04,0x07,0x04,0x24,0x5d,0x24,
0x61,0x09,0x04,0x02,0x4d,0x00,0x02,0x51,0x00,0x05,0x07,0x04,0x02,0x54,0x00,0x05,
0x07,0x04,0x22,0x07,0x07,0x04,0x24,0x6c,0x04,0x32,0x03,0x1c,0x3a,0x02,0x04,0x1c,
0x50,0x02,0x24,0x7a,0x26,0x05,0x07,0x04,0x07,0x04,0x24,0x61,0x04,0x02,0x4d,0x00,
0x02,0x51,0x00,0x05,0x04,0x1c,0x08,0x03,0x07,0x05,0x24,0x67,0x16,0x1d,0x89,0x02,
0x24,0x7b,0x60,0x05,0x07,0x04,0x02,0x06,0x07,0x07,0x02,0x01,0x72,0x02,0x00,0x02,
0x01,0x02,0x1a,0x00,0x30,0x05,0x07,0x04,0x07,0x04,0x24,0x61,0x04,0x02,0x4d,0x00,
0x02,0x51,0x00,0x05,0x07,0x04,0x02,0x54,0x00,0x05,0x04,0x1c,0x08,0x03,0x07,0x05,
0x24,0x66,0x16,0x1d,0x07,0x03,0x07,0x06,0x24,0x5e,0x0e,0x1d,0x03,0x03,0x1e,0x0d,
0x24,0x65,0x2b,0x00,0x07,0x00,0x02,0x08,0x02,0x10,0x09,0x02,0x04,0x46,0x2b,0x01,
0x07,0x00,0x02,0x08,0x02,0x0c,0x09,0x02,0x04,0x46,0x2b,0x02,0x07,0x02,0x2b,0x03,
0x07,0x03,0x2b,0x04,0x24,0x68,0x2b,0x05,0x07,0x07,0x02,0x01,0x72,0x2b,0x06,0x07,
0x04,0x22,0x07,0x2b,0x07,0x07,0x01,0x2b,0x08,0x02,0x01,0x2b,0x0c,0x28,0x09,0x02,
0x74,0x07,0x09,0x24,0x74,0x20,0x02,0x2a,0x05,0x07,0x09,0x07,0x09,0x24,0x61,0x24,
0x5e,0x09,0x04,0x02,0x4d,0x00,0x02,0x52,0x00,0x05,0x07,0x09,0x22,0x07,0x07,0x09,
0x24,0x6d,0x04,0x32,0x03,0x1c,0x04,0x03,0x04,0x1c,0x08,0x03,0x04,0x1c,0x0c,0x03,
0x04,0x01,0x03,0x03,0x00,0x07,0x00,0x22,0x00,0x24,0x65,0x17,0x1d,0x0e,0x00,0x04,
0x1c,0x5f,0x00,0x07,0x00,0x22,0x09,0x04,0x17,0x1d,0x24,0x00,0x07,0x00,0x02,0x0b,
0x02,0x01,0x30,0x05,0x07,0x02,0x1c,0x5f,0x00,0x07,0x01,0x07,0x02,0x24,0x6e,0x46,
0x28,0x03,0x07,0x00,0x24,0x61,0x07,0x03,0x02,0x4d,0x00,0x28,0x04,0x07,0x00,0x07,
0x04,0x02,0x52,0x00,0x05,0x07,0x02,0x07,0x03,0x44,0x09,0x28,0x05,0x07,0x05,0x07,
0x01,0x44,0x17,0x1d,0x5b,0x00,0x07,0x00,0x02,0x0b,0x02,0x01,0x30,0x1c,0x5c,0x00,
0x04,0x05,0x07,0x05,0x01,0x01,0x00,0x00,0x07,0x00,0x22,0x00,0x24,0x65,0x17,0x1d,
0x0f,0x00,0x02,0x00,0x1c,0x2a,0x00,0x07,0x00,0x22,0x09,0x04,0x17,0x1d,0x25,0x00,
0x07,0x00,0x02,0x0b,0x02,0x02,0x30,0x05,0x02,0x00,0x1c,0x2a,0x00,0x07,0x00,0x02,
0x58,0x00,0x05,0x02,0x00,0x01,0x02,0x00,0x00,0x07,0x00,0x02,0x07,0x07,0x01,0x30,
0x01,0x02,0x00,0x00,0x07,0x00,0x02,0x0c,0x07,0x01,0x30,0x01,0x00,0x02,0x00,0x24,
0x74,0x28,0x00,0x04,0x07,0x00,0x04,0x17,0x1d,0x72,0x00,0x1c,0x17,0x00,0x07,0x00,
0x2e,0x28,0x00,0x1c,0x05,0x00,0x05,0x07,0x00,0x2d,0x28,0x01,0x07,0x01,0x22,0x09,
0x04,0x17,0x1d,0x6e,0x00,0x07,0x01,0x22,0x0a,0x04,0x17,0x1d,0x64,0x00,0x07,0x01,
0x02,0x0a,0x02,0x01,0x07,0x01,0x22,0x0a,0x09,0x30,0x05,0x07,0x01,0x22,0x0a,0x02,
0x0a,0x19,0x1d,0x5c,0x00,0x07,0x01,0x02,0x54,0x00,0x05,0x07,0x01,0x22,0x07,0x07,
0x01,0x24,0x6c,0x04,0x32,0x03,0x05,0x04,0x1c,0x61,0x00,0x07,0x01,0x02,0x4e,0x00,
0x1c,0x6b,0x00,0x07,0x01,0x02,0x0a,0x02,0x00,0x30,0x1c,0x6f,0x00,0x04,0x1c,0x0f,
0x00,0x05,0x02,0x00,0x01,0x00,0x00,0x00,0x02,0x74,0x04,0x2a,0x05,0x02,0x00,0x01,
0x04,0x03,0x00,0x02,0xec,0x02,0x10,0x09,0x02,0x0e,0x09,0x28,0x04,0x07,0x04,0x3e,
0x28,0x05,0x02,0x00,0x28,0x06,0x04,0x07,0x06,0x07,0x04,0x18,0x1d,0x2e,0x00,0x05,
0x07,0x05,0x07,0x06,0x02,0x00,0x3f,0x07,0x06,0x02,0x01,0x09,0x28,0x06,0x1c,0x14,
0x00,0x05,0x07,0x05,0x02,0x00,0x24,0x81,0x02,0x00,0x02,0x03,0x40,0x05,0x07,0x05,
0x02,0x0c,0x07,0x01,0x02,0x00,0x02,0x04,0x40,0x05,0x07,0x05,0x02,0x0c,0x02,0x10,
0x09,0x24,0x0d,0x02,0x00,0x02,0x06,0x40,0x05,0x07,0x05,0x02,0xec,0x24,0x82,0x02,
0x00,0x02,0x06,0x40,0x05,0x07,0x05,0x02,0xec,0x02,0x06,0x09,0x07,0x00,0x3f,0x05,
0x07,0x05,0x02,0xec,0x02,0x07,0x09,0x24,0x83,0x02,0x00,0x02,0x03,0x40,0x05,0x07,
0x05,0x02,0xec,0x02,0x0a,0x09,0x24,0x0d,0x02,0x00,0x02,0x06,0x40,0x05,0x07,0x05,
0x02,0xec,0x02,0x10,0x09,0x24,0x84,0x02,0x00,0x02,0x0e,0x40,0x05,0x07,0x00,0x24,
0x7e,0x16,0x1d,0xbf,0x00,0x07,0x05,0x24,0x85,0x07,0x02,0x24,0x86,0x07,0x03,0x24,
0x87,0x04,0x20,0x02,0x20,0x02,0x20,0x02,0x20,0x02,0x20,0x02,0x20,0x02,0x49,0x1c,
0xc4,0x00,0x07,0x05,0x24,0x88,0x47,0x01,0x04,0x03,0x00,0x02,0xec,0x02,0x07,0x09,
0x28,0x04,0x07,0x04,0x3e,0x28,0x05,0x02,0x00,0x28,0x06,0x04,0x07,0x06,0x07,0x04,
0x18,0x1d,0x2b,0x00,0x05,0x07,0x05,0x07,0x06,0x02,0x00,0x3f,0x07,0x06,0x02,0x01,
0x09,0x28,0x06,0x1c,0x11,0x00,0x05,0x07,0x05,0x02,0x00,0x24,0x89,0x02,0x00,0x02,
0x03,0x40,0x05,0x07,0x05,0x02,0x04,0x07,0x01,0x02,0x00,0x02,0x04,0x40,0x05,0x07,
0x05,0x02,0x10,0x07,0x02,0x02,0x00,0x02,0x04,0x40,0x05,0x07,0x05,0x02,0x0c,0x02,
0x10,0x09,0x07,0x03,0x02,0x00,0x02,0x06,0x40,0x05,0x07,0x05,0x02,0xec,0x24,0x8a,
0x02,0x00,0x02,0x06,0x40,0x05,0x07,0x05,0x02,0xec,0x02,0x06,0x09,0x07,0x00,0x3f,
0x05,0x07,0x05,0x24,0x8b,0x07,0x02,0x24,0x8c,0x24,0x0a,0x24,0x8d,0x24,0x09,0x24,
0x8e,0x24,0x09,0x24,0x8f,0x04,0x20,0x02,0x20,0x02,0x20,0x02,0x20,0x02,0x20,0x02,
0x20,0x02,0x20,0x02,0x20,0x02,0x20,0x02,0x20,0x02,0x49,0x01,0x08,0x03,0x00,0x07,
0x01,0x07,0x00,0x44,0x18,0x1d,0x36,0x01,0x07,0x00,0x07,0x01,0x45,0x28,0x08,0x07,
0x08,0x02,0xff,0x16,0x1d,0x29,0x00,0x07,0x02,0x07,0x03,0x07,0x04,0x07,0x05,0x07,
0x06,0x07,0x07,0x20,0x06,0x1c,0x33,0x01,0x07,0x00,0x07,0x01,0x02,0x01,0x09,0x45,
0x28,0x09,0x07,0x01,0x02,0x02,0x09,0x28,0x0a,0x07,0x08,0x02,0x35,0x16,0x1d,0x5e,
0x00,0x07,0x00,0x07,0x0a,0x07,0x09,0x09,0x07,0x00,0x07,0x0a,0x45,0x07,0x03,0x07,
0x04,0x07,0x05,0x07,0x06,0x07,0x07,0x02,0x62,0x00,0x1c,0x33,0x01,0x07,0x08,0x02,
0x33,0x16,0x1d,0x82,0x00,0x07,0x00,0x07,0x0a,0x07,0x09,0x09,0x07,0x02,0x07,0x00,
0x07,0x0a,0x73,0x07,0x04,0x07,0x05,0x07,0x06,0x07,0x07,0x02,0x62,0x00,0x1c,0x33,
0x01,0x07,0x08,0x02,0x01,0x16,0x1d,0xa8,0x00,0x07,0x00,0x07,0x0a,0x07,0x09,0x09,
0x07,0x02,0x07,0x03,0x07,0x00,0x07,0x0a,0x02,0x04,0x46,0x07,0x05,0x07,0x06,0x07,
0x07,0x02,0x62,0x00,0x1c,0x33,0x01,0x07,0x08,0x02,0x06,0x16,0x1d,0xce,0x00,0x07,
0x00,0x07,0x0a,0x07,0x09,0x09,0x07,0x02,0x07,0x03,0x07,0x04,0x07,0x00,0x07,0x0a,
0x02,0x04,0x46,0x07,0x06,0x07,0x07,0x02,0x62,0x00,0x1c,0x33,0x01,0x07,0x08,0x02,
0x03,0x16,0x1d,0xf4,0x00,0x07,0x00,0x07,0x0a,0x07,0x09,0x09,0x07,0x02,0x07,0x03,
0x07,0x04,0x07,0x05,0x07,0x00,0x07,0x0a,0x02,0x04,0x46,0x07,0x07,0x02,0x62,0x00,
0x1c,0x33,0x01,0x07,0x08,0x02,0x3d,0x16,0x1d,0x1d,0x01,0x07,0x00,0x07,0x0a,0x07,
0x09,0x09,0x07,0x02,0x07,0x03,0x07,0x04,0x07,0x05,0x07,0x06,0x07,0x00,0x07,0x0a,
0x02,0x01,0x09,0x02,0x06,0x46,0x02,0x62,0x00,0x1c,0x33,0x01,0x07,0x00,0x07,0x0a,
0x07,0x09,0x09,0x07,0x02,0x07,0x03,0x07,0x04,0x07,0x05,0x07,0x06,0x07,0x07,0x02,
0x62,0x00,0x1c,0x37,0x01,0x04,0x01,0x01,0x01,0x00,0x02,0x04,0x3e,0x28,0x01,0x07,
0x01,0x02,0x00,0x24,0x09,0x02,0x00,0x02,0x04,0x40,0x05,0x07,0x01,0x02,0x03,0x07,
0x00,0x02,0x05,0x45,0x02,0x7f,0x0e,0x02,0x64,0x09,0x3f,0x05,0x07,0x01,0x01,0x03,
0x08,0x00,0x24,0x90,0x60,0x05,0x07,0x01,0x02,0x00,0x02,0x01,0x02,0x19,0x00,0x05,
0x07,0x00,0x02,0x00,0x45,0x28,0x03,0x07,0x00,0x02,0x1c,0x02,0x06,0x46,0x02,0x00,
0x02,0x01,0x02,0x19,0x00,0x28,0x04,0x07,0x03,0x02,0x02,0x16,0x06,0x1d,0x35,0x00,
0x05,0x07,0x04,0x24,0x0d,0x89,0x15,0x1d,0x0f,0x01,0x07,0x00,0x02,0x10,0x02,0x04,
0x46,0x02,0x00,0x02,0x01,0x02,0x1b,0x00,0x28,0x05,0x07,0x00,0x02,0xf0,0x02,0x00,
0x04,0x04,0x04,0x04,0x04,0x02,0x62,0x00,0x06,0x22,0x00,0x28,0x06,0x06,0x22,0x01,
0x28,0x07,0x06,0x22,0x02,0x28,0x08,0x06,0x22,0x03,0x28,0x09,0x06,0x22,0x04,0x28,
0x0a,0x05,0x07,0x06,0x24,0x7d,0x16,0x1d,0x99,0x00,0x24,0x91,0x60,0x05,0x24,0x09,
0x02,0x44,0x24,0x0f,0x02,0x43,0x24,0x7e,0x24,0x09,0x07,0x02,0x07,0x05,0x02,0x60,
0x00,0x24,0x0e,0x02,0x46,0x00,0x05,0x04,0x1c,0x0c,0x01,0x07,0x06,0x24,0x80,0x16,
0x1d,0x0b,0x01,0x24,0x92,0x60,0x05,0x24,0x93,0x26,0x05,0x07,0x02,0x02,0x00,0x02,
0x01,0x02,0x1b,0x00,0x05,0x24,0x94,0x26,0x05,0x02,0x09,0x07,0x05,0x2a,0x02,0x00,
0x02,0x01,0x02,0x1b,0x00,0x05,0x24,0x95,0x26,0x05,0x07,0x06,0x5f,0x05,0x24,0x96,
0x26,0x05,0x07,0x07,0x5f,0x05,0x24,0x97,0x26,0x05,0x02,0x0a,0x07,0x08,0x2a,0x02,
0x00,0x02,0x01,0x02,0x1b,0x00,0x05,0x24,0x98,0x26,0x05,0x02,0x0c,0x07,0x09,0x2a,
0x02,0x00,0x02,0x01,0x02,0x1b,0x00,0x05,0x24,0x99,0x26,0x05,0x02,0x0b,0x07,0x0a,
0x2a,0x02,0x00,0x02,0x01,0x02,0x1b,0x00,0x05,0x04,0x1c,0x0c,0x01,0x04,0x1c,0x10,
0x01,0x04,0x01,0x03,0x06,0x00,0x24,0x9a,0x60,0x05,0x07,0x01,0x02,0x00,0x02,0x01,
0x02,0x19,0x00,0x05,0x07,0x00,0x02,0x00,0x45,0x28,0x03,0x07,0x00,0x02,0x1c,0x02,
0x06,0x46,0x02,0x00,0x02,0x01,0x02,0x19,0x00,0x28,0x04,0x07,0x03,0x02,0x01,0x16,
0x1d,0xac,0x00,0x07,0x00,0x02,0xf0,0x02,0x00,0x04,0x04,0x04,0x04,0x04,0x02,0x62,
0x00,0x06,0x22,0x00,0x28,0x05,0x06,0x22,0x05,0x28,0x06,0x05,0x07,0x00,0x02,0x04,
0x02,0x04,0x46,0x28,0x07,0x07,0x01,0x02,0x63,0x00,0x28,0x08,0x07,0x05,0x24,0x7c,
0x16,0x1d,0x7f,0x00,0x24,0x9b,0x60,0x05,0x24,0x09,0x02,0x43,0x24,0x0f,0x02,0x44,
0x24,0x7d,0x07,0x07,0x07,0x08,0x07,0x06,0x02,0x61,0x00,0x24,0x0e,0x02,0x46,0x00,
0x05,0x04,0x1c,0xa9,0x00,0x07,0x05,0x24,0x7e,0x16,0x1d,0xa8,0x00,0x24,0x9c,0x60,
0x05,0x24,0x09,0x02,0x43,0x24,0x0f,0x02,0x44,0x24,0x80,0x07,0x07,0x07,0x08,0x07,
0x06,0x02,0x61,0x00,0x24,0x0e,0x02,0x46,0x00,0x05,0x04,0x1c,0xa9,0x00,0x04,0x1c,
0xad,0x00,0x04,0x01,0x00,0x00,0x00,0x24,0x09,0x02,0x44,0x24,0x0f,0x02,0x43,0x24,
0x7c,0x24,0x9d,0x04,0x04,0x02,0x60,0x00,0x24,0x0e,0x02,0x46,0x00,0x05,0x02,0x44,
0x02,0x64,0x02,0x48,0x00,0x05,0x02,0x00,0x01,0x00,0x00,0x00,0x02,0x43,0x02,0x65,
0x02,0x48,0x00,0x05,0x02,0x00,0x01,0x02,0x02,0x00,0x24,0x9e,0x26,0x05,0x07,0x00,
0x02,0x07,0x45,0x28,0x02,0x07,0x02,0x02,0x06,0x16,0x1d,0x1d,0x00,0x07,0x00,0x07,
0x01,0x02,0x3d,0x00,0x1c,0x55,0x00,0x07,0x02,0x02,0x00,0x16,0x1d,0x54,0x00,0x07,
0x00,0x02,0x11,0x45,0x28,0x03,0x07,0x03,0x02,0x06,0x16,0x1d,0x3e,0x00,0x07,0x00,
0x07,0x01,0x02,0x59,0x00,0x1c,0x51,0x00,0x07,0x03,0x02,0x11,0x16,0x1d,0x50,0x00,
0x07,0x00,0x07,0x01,0x02,0x4b,0x00,0x1c,0x51,0x00,0x04,0x1c,0x55,0x00,0x04,0x05,
0x02,0x00,0x05,0x02,0x01,0x00,0x05,0x02,0x00,0x01,0x00,0x00,0x00,0x02,0x68,0x67,
0x05,0x02,0x43,0x00,0x05,0x02,0x5f,0x00,0x05,0x02,0x4a,0x00,0x05,0x02,0x00,0x01,
0x00,0x00,0x00,0x02,0x42,0x00,0x05,0x02,0x5e,0x00,0x05,0x02,0x00,0x01,0x02,0x01,
0x00,0x07,0x00,0x07,0x01,0x24,0x9f,0x02,0x00,0x04,0x42,0x28,0x02,0x07,0x02,0x02,
0x05,0x09,0x01,0x03,0x00,0x00,0x07,0x02,0x02,0x00,0x1a,0x1d,0x0d,0x00,0x07,0x01,
0x1c,0x1e,0x00,0x07,0x00,0x07,0x00,0x07,0x01,0x02,0x6b,0x00,0x07,0x02,0x02,0x01,
0x0a,0x02,0x6c,0x00,0x01,0x02,0x01,0x00,0x07,0x00,0x07,0x01,0x73,0x28,0x02,0x07,
0x02,0x03,0x00,0xc0,0x00,0x00,0x0e,0x03,0x00,0xc0,0x00,0x00,0x16,0x1d,0x20,0x00,
0x07,0x01,0x02,0x02,0x09,0x1c,0x2d,0x00,0x07,0x00,0x07,0x01,0x24,0xa0,0x02,0x00,
0x04,0x42,0x02,0x01,0x09,0x01,0x03,0x02,0x00,0x07,0x02,0x02,0x00,0x1a,0x1d,0x0c,
0x00,0x04,0x1c,0x79,0x00,0x07,0x00,0x07,0x01,0x02,0x6d,0x00,0x28,0x03,0x07,0x00,
0x07,0x03,0x73,0x28,0x04,0x07,0x04,0x02,0x01,0x16,0x1d,0x61,0x00,0x07,0x00,0x07,
0x03,0x02,0x0a,0x09,0x45,0x77,0x24,0xa1,0x07,0x00,0x07,0x03,0x02,0x0b,0x09,0x45,
0x77,0x24,0xa2,0x07,0x00,0x07,0x03,0x02,0x0c,0x09,0x45,0x77,0x24,0xa3,0x07,0x00,
0x07,0x03,0x02,0x0d,0x09,0x45,0x77,0x04,0x20,0x02,0x20,0x02,0x20,0x02,0x20,0x02,
0x20,0x02,0x20,0x02,0x20,0x02,0x49,0x1c,0x79,0x00,0x07,0x00,0x07,0x03,0x02,0x0a,
0x09,0x07,0x00,0x07,0x03,0x02,0x08,0x09,0x73,0x09,0x07,0x02,0x02,0x01,0x0a,0x02,
0x6e,0x00,0x01,0x01,0x05,0x00,0x07,0x00,0x02,0x00,0x73,0x28,0x01,0x07,0x00,0x02,
0x02,0x73,0x28,0x02,0x07,0x00,0x02,0x04,0x73,0x28,0x03,0x07,0x00,0x02,0x06,0x73,
0x28,0x04,0x07,0x04,0x02,0x00,0x16,0x1d,0x28,0x00,0x04,0x1c,0x3c,0x00,0x07,0x00,
0x02,0x0c,0x07,0x03,0x02,0x6c,0x00,0x28,0x05,0x07,0x00,0x07,0x05,0x07,0x04,0x02,
0x6e,0x00,0x01,0x01,0x01,0x00,0x07,0x00,0x02,0x00,0x24,0xa4,0x02,0x00,0x04,0x42,
0x28,0x01,0x07,0x01,0x04,0x17,0x1d,0x2e,0x00,0x07,0x01,0x78,0x07,0x00,0x02,0x00,
0x07,0x01,0x46,0x47,0x07,0x00,0x07,0x01,0x02,0x01,0x09,0x04,0x46,0x02,0x70,0x00,
0x47,0x1c,0x35,0x00,0x07,0x00,0x44,0x78,0x07,0x00,0x47,0x01,0x02,0x00,0x00,0x07,
0x00,0x7b,0x24,0xa5,0x07,0x01,0x02,0x70,0x00,0x24,0xa6,0x04,0x20,0x02,0x20,0x02,
0x20,0x02,0x20,0x02,0x49,0x01,0x02,0x02,0x00,0x02,0xa7,0x24,0xa7,0x04,0x16,0x1d,
0x0d,0x00,0x35,0x1c,0x12,0x00,0x24,0xa7,0x02,0x01,0x09,0x2a,0x05,0x24,0xa9,0x07,
0x00,0x7d,0x28,0x02,0x07,0x02,0x04,0x17,0x1d,0x2b,0x00,0x07,0x01,0x07,0x02,0x32,
0x01,0x1c,0x67,0x00,0x24,0xa7,0x07,0x00,0x02,0x71,0x00,0x02,0x1d,0x00,0x28,0x03,
0x24,0x09,0x24,0x07,0x24,0x0c,0x02,0x35,0x07,0x03,0x04,0x02,0x46,0x00,0x05,0x02,
0xa8,0x1e,0x05,0x24,0xa7,0x2b,0x00,0x07,0x00,0x2b,0x01,0x07,0x03,0x2b,0x02,0x3d,
0x02,0x05,0x09,0x2b,0x03,0x07,0x01,0x2b,0x04,0x24,0xa8,0x20,0x02,0x2a,0x05,0x04,
0x05,0x02,0x00,0x01,0x02,0x00,0x00,0x07,0x00,0x22,0x00,0x07,0x01,0x16,0x01,0x03,
0x03,0x00,0x07,0x00,0x02,0x00,0x73,0x28,0x03,0x07,0x00,0x02,0x6f,0x00,0x28,0x04,
0x24,0xa8,0x07,0x03,0x02,0x73,0x02,0x11,0x00,0x2d,0x28,0x05,0x07,0x05,0x04,0x17,
0x1d,0x52,0x00,0x02,0xa8,0x24,0xa8,0x07,0x05,0x02,0x05,0x00,0x2a,0x05,0x07,0x04,
0x04,0x17,0x1d,0x45,0x00,0x02,0xa9,0x07,0x05,0x22,0x01,0x07,0x04,0x20,0x02,0x24,
0xa9,0x20,0x02,0x2a,0x1c,0x46,0x00,0x04,0x05,0x07,0x05,0x22,0x04,0x07,0x04,0x32,
0x01,0x1c,0x53,0x00,0x04,0x05,0x02,0x00,0x01,0x01,0x01,0x00,0x07,0x00,0x04,0x17,
0x1d,0x2c,0x00,0x07,0x00,0x2d,0x28,0x01,0x07,0x01,0x22,0x03,0x04,0x16,0x1d,0x1e,
0x00,0x07,0x00,0x2e,0x02,0x75,0x00,0x1c,0x29,0x00,0x07,0x00,0x2d,0x07,0x00,0x2e,
0x02,0x75,0x00,0x20,0x02,0x1c,0x2d,0x00,0x04,0x01,0x00,0x02,0x00,0x24,0xa8,0x28,
0x00,0x04,0x07,0x00,0x04,0x17,0x1d,0x3e,0x00,0x1c,0x17,0x00,0x07,0x00,0x2e,0x28,
0x00,0x1c,0x05,0x00,0x05,0x07,0x00,0x2d,0x28,0x01,0x3d,0x07,0x01,0x22,0x03,0x0a,
0x02,0x00,0x1b,0x1d,0x3a,0x00,0x07,0x01,0x02,0x03,0x04,0x30,0x05,0x07,0x01,0x22,
0x04,0x04,0x32,0x01,0x1c,0x3b,0x00,0x04,0x1c,0x0f,0x00,0x05,0x02,0xa8,0x24,0xa8,
0x02,0x75,0x00,0x2a,0x05,0x02,0x00,0x01,0x00,0x00,0x00,0x24,0x07,0x02,0x74,0x02,
0x48,0x00,0x05,0x02,0xa8,0x04,0x2a,0x05,0x02,0xa9,0x04,0x2a,0x05,0x02,0x00,0x01,
0x03,0x02,0x00,0x07,0x01,0x04,0x16,0x06,0x15,0x1d,0x10,0x00,0x05,0x02,0x00,0x07,
0x01,0x44,0x16,0x1d,0x43,0x00,0x07,0x00,0x02,0x5b,0x00,0x05,0x07,0x02,0x22,0x05,
0x24,0xaa,0x16,0x1d,0x37,0x00,0x07,0x02,0x22,0x04,0x07,0x02,0x07,0x02,0x22,0x01,
0x04,0x02,0x0d,0x00,0x49,0x32,0x02,0x1c,0x40,0x00,0x07,0x02,0x22,0x04,0x07,0x02,
0x04,0x32,0x02,0x1c,0xef,0x00,0x02,0xb0,0x3d,0x2a,0x05,0x07,0x02,0x02,0x07,0x35,
0x30,0x05,0x07,0x02,0x22,0x05,0x24,0xaa,0x16,0x1d,0x69,0x00,0x07,0x02,0x02,0x01,
0x07,0x01,0x07,0x02,0x22,0x01,0x20,0x02,0x30,0x1c,0xed,0x00,0x07,0x02,0x22,0x05,
0x24,0xac,0x16,0x1d,0x82,0x00,0x07,0x02,0x22,0x04,0x07,0x02,0x07,0x01,0x32,0x02,
0x05,0x04,0x1c,0xed,0x00,0x07,0x02,0x22,0x01,0x2d,0x07,0x01,0x47,0x28,0x03,0x07,
0x03,0x24,0xb1,0x02,0x00,0x02,0x02,0x00,0x28,0x04,0x07,0x04,0x04,0x16,0x1d,0xab,
0x00,0x07,0x02,0x02,0x01,0x07,0x03,0x04,0x20,0x02,0x30,0x1c,0xed,0x00,0x07,0x02,
0x02,0x01,0x04,0x30,0x05,0x07,0x02,0x02,0x05,0x24,0xac,0x30,0x05,0x07,0x02,0x22,
0x04,0x07,0x02,0x07,0x03,0x02,0x00,0x07,0x04,0x46,0x32,0x02,0x05,0x07,0x04,0x02,
0x04,0x09,0x07,0x03,0x44,0x18,0x1d,0xea,0x00,0x07,0x02,0x22,0x04,0x07,0x02,0x07,
0x03,0x07,0x04,0x02,0x04,0x09,0x04,0x46,0x32,0x02,0x1c,0xeb,0x00,0x04,0x05,0x04,
0x05,0x04,0x01,0x02,0x00,0x00,0x07,0x01,0x02,0x06,0x24,0xaf,0x30,0x05,0x07,0x01,
0x02,0x07,0x35,0x30,0x05,0x07,0x01,0x22,0x02,0x04,0x17,0x1d,0x69,0x00,0x07,0x01,
0x02,0x03,0x07,0x00,0x07,0x01,0x22,0x02,0x07,0x01,0x22,0x03,0x02,0x5a,0x00,0x30,
0x05,0x07,0x01,0x22,0x03,0x04,0x16,0x1d,0x46,0x00,0x07,0x00,0x02,0x5b,0x00,0x05,
0x07,0x01,0x22,0x04,0x07,0x01,0x04,0x32,0x02,0x1c,0x66,0x00,0x07,0x01,0x22,0x03,
0x07,0x01,0x22,0x02,0x44,0x1b,0x1d,0x65,0x00,0x07,0x01,0x02,0x03,0x04,0x30,0x05,
0x07,0x01,0x02,0x02,0x04,0x30,0x05,0x04,0x1c,0x66,0x00,0x04,0x1c,0x6a,0x00,0x04,
0x01,0x02,0x01,0x00,0x07,0x01,0x07,0x00,0x44,0x1b,0x1d,0x0e,0x00,0x02,0x01,0x1c,
0x41,0x00,0x07,0x00,0x07,0x01,0x45,0x28,0x02,0x07,0x02,0x02,0x30,0x18,0x06,0x15,
0x1d,0x25,0x00,0x05,0x07,0x02,0x02,0x39,0x19,0x06,0x1d,0x2f,0x00,0x05,0x07,0x02,
0x02,0x2e,0x17,0x1d,0x37,0x00,0x02,0x00,0x1c,0x41,0x00,0x07,0x00,0x07,0x01,0x02,
0x01,0x09,0x02,0x7a,0x00,0x01,0x01,0x06,0x00,0x07,0x00,0x02,0x00,0x24,0xb2,0x44,
0x46,0x24,0xb2,0x89,0x15,0x1d,0x1e,0x00,0x07,0x00,0x24,0xb2,0x44,0x07,0x00,0x44,
0x46,0x02,0x7b,0x00,0x1c,0x97,0x00,0x07,0x00,0x24,0xb3,0x02,0x00,0x02,0x02,0x00,
0x28,0x01,0x07,0x01,0x04,0x16,0x1d,0x35,0x00,0x07,0x00,0x1c,0x3c,0x00,0x07,0x00,
0x02,0x00,0x07,0x01,0x46,0x28,0x02,0x07,0x02,0x24,0xb4,0x02,0x00,0x02,0x02,0x00,
0x28,0x03,0x07,0x03,0x04,0x16,0x1d,0x59,0x00,0x07,0x02,0x02,0x50,0x20,0x02,0x1c,
0x6e,0x00,0x07,0x02,0x02,0x00,0x07,0x03,0x46,0x07,0x02,0x07,0x03,0x02,0x01,0x09,
0x07,0x02,0x44,0x46,0x75,0x20,0x02,0x06,0x22,0x00,0x28,0x04,0x06,0x22,0x01,0x28,
0x05,0x05,0x07,0x01,0x04,0x16,0x1d,0x85,0x00,0x24,0xb5,0x1c,0x8d,0x00,0x07,0x00,
0x07,0x01,0x07,0x00,0x44,0x46,0x28,0x06,0x07,0x04,0x07,0x05,0x07,0x06,0x20,0x03,
0x01,0x04,0x00,0x00,0x07,0x01,0x24,0x6a,0x16,0x1d,0x12,0x00,0x07,0x00,0x07,0x03,
0x02,0x79,0x00,0x1c,0x2e,0x00,0x07,0x01,0x24,0x6c,0x16,0x1d,0x25,0x00,0x07,0x00,
0x04,0x07,0x03,0x02,0x78,0x00,0x1c,0x2e,0x00,0x07,0x00,0x07,0x02,0x07,0x03,0x02,
0x78,0x00,0x05,0x02,0x00,0x01,0x02,0x02,0x00,0x24,0xb6,0x26,0x05,0x07,0x00,0x60,
0x05,0x07,0x01,0x06,0x22,0x00,0x28,0x02,0x06,0x22,0x01,0x28,0x03,0x05,0x07,0x00,
0x04,0x16,0x1d,0x2a,0x00,0x07,0x03,0x22,0x04,0x07,0x03,0x04,0x32,0x02,0x05,0x04,
0x1c,0x4b,0x00,0x07,0x03,0x02,0x00,0x24,0x09,0x04,0x07,0x00,0x02,0x14,0x00,0x07,
0x02,0x02,0x7c,0x07,0x03,0x37,0x02,0x55,0x00,0x30,0x05,0x07,0x03,0x02,0x06,0x24,
0xae,0x30,0x05,0x04,0x05,0x02,0x00,0x01,0x05,0x08,0x00,0x07,0x01,0x02,0x7b,0x00,
0x06,0x22,0x00,0x28,0x05,0x06,0x22,0x01,0x28,0x06,0x06,0x22,0x02,0x28,0x07,0x05,
0x02,0x35,0x00,0x1d,0x35,0x00,0x24,0xb7,0x07,0x05,0x24,0xb8,0x07,0x06,0x77,0x07,
0x07,0x04,0x20,0x02,0x20,0x02,0x20,0x02,0x20,0x02,0x20,0x02,0x49,0x1c,0x37,0x00,
0x07,0x07,0x28,0x08,0x07,0x00,0x24,0xb9,0x07,0x08,0x24,0xba,0x07,0x05,0x24,0xbb,
0x07,0x02,0x04,0x16,0x1d,0x54,0x00,0x24,0xbc,0x04,0x20,0x02,0x1c,0x67,0x00,0x24,
0xbd,0x07,0x02,0x44,0x77,0x24,0xbe,0x07,0x02,0x04,0x20,0x02,0x20,0x02,0x20,0x02,
0x20,0x02,0x20,0x02,0x20,0x02,0x20,0x02,0x20,0x02,0x20,0x02,0x20,0x02,0x49,0x28,
0x09,0x02,0x35,0x00,0x1d,0x85,0x00,0x02,0x36,0x00,0x02,0x15,0x00,0x1c,0x87,0x00,
0x07,0x05,0x28,0x0a,0x02,0x35,0x00,0x1d,0x95,0x00,0x02,0x37,0x00,0x1c,0x97,0x00,
0x07,0x06,0x28,0x0b,0x1e,0x08,0x07,0x09,0x2b,0x02,0x02,0x00,0x2b,0x03,0x07,0x03,
0x2b,0x04,0x07,0x04,0x2b,0x05,0x24,0xad,0x2b,0x06,0x35,0x2b,0x07,0x28,0x0c,0x07,
0x0a,0x02,0x00,0x02,0x7a,0x00,0x1d,0xcc,0x00,0x07,0x0a,0x07,0x0b,0x07,0x0c,0x20,
0x02,0x02,0x7d,0x00,0x1c,0xdc,0x00,0x07,0x0a,0x02,0x7d,0x07,0x0b,0x07,0x0c,0x20,
0x02,0x37,0x02,0x72,0x00,0x05,0x04,0x05,0x07,0x0c,0x01,0x01,0x00,0x00,0x07,0x00,
0x22,0x00,0x02,0x5b,0x00,0x01,0x02,0x00,0x00,0x07,0x00,0x22,0x00,0x07,0x01,0x02,
0x5d,0x00,0x01,0x01,0x00,0x00,0x07,0x00,0x22,0x06,0x01,0x01,0x00,0x00,0x35,0x07,
0x00,0x22,0x07,0x0a,0x01,0x01,0x01,0x00,0x07,0x00,0x24,0xbf,0x02,0x00,0x02,0x02,
0x00,0x28,0x01,0x07,0x01,0x04,0x16,0x1d,0x17,0x00,0x07,0x00,0x1c,0x22,0x00,0x07,
0x00,0x02,0x00,0x07,0x01,0x24,0xbf,0x44,0x09,0x46,0x01,0x01,0x01,0x00,0x07,0x00,
0x24,0xbf,0x02,0x00,0x02,0x02,0x00,0x28,0x01,0x07,0x01,0x04,0x16,0x1d,0x16,0x00,
0x04,0x1c,0x22,0x00,0x07,0x00,0x07,0x01,0x24,0xbf,0x44,0x09,0x07,0x00,0x44,0x46,
0x01,0x03,0x01,0x00,0x07,0x01,0x07,0x02,0x09,0x02,0x01,0x12,0x28,0x03,0x07,0x03,
0x07,0x01,0x16,0x1d,0x17,0x00,0x07,0x01,0x1c,0x37,0x00,0x07,0x03,0x07,0x03,0x0b,
0x07,0x00,0x19,0x1d,0x2e,0x00,0x07,0x00,0x07,0x01,0x07,0x03,0x02,0x85,0x00,0x1c,
0x37,0x00,0x07,0x00,0x07,0x03,0x07,0x02,0x02,0x85,0x00,0x01,0x01,0x00,0x00,0x07,
0x00,0x02,0x00,0x03,0x00,0x01,0x00,0x00,0x02,0x85,0x00,0x01,0x01,0x03,0x00,0x07,
0x00,0x44,0x27,0x05,0x24,0xc5,0x26,0x05,0x02,0xff,0x07,0x00,0x02,0x00,0x71,0x02,
0x86,0x00,0x5f,0x0a,0x28,0x01,0x02,0xff,0x07,0x01,0x07,0x01,0x0b,0x02,0x08,0x12,
0x0a,0x28,0x02,0x07,0x02,0x02,0x10,0x11,0x28,0x03,0x02,0x01,0x07,0x03,0x4a,0x05,
0x02,0x02,0x07,0x03,0x4a,0x05,0x02,0x03,0x07,0x03,0x4a,0x05,0x02,0xc0,0x07,0x00,
0x24,0xc0,0x20,0x02,0x2a,0x05,0x02,0x00,0x01,0x01,0x01,0x00,0x02,0x04,0x3e,0x28,
0x01,0x07,0x01,0x02,0x00,0x07,0x00,0x3f,0x05,0x07,0x01,0x02,0x01,0x07,0x00,0x02,
0x08,0x12,0x3f,0x05,0x07,0x01,0x02,0x02,0x07,0x00,0x02,0x10,0x12,0x3f,0x05,0x07,
0x01,0x02,0x03,0x07,0x00,0x02,0x18,0x12,0x3f,0x05,0x07,0x01,0x01,0x02,0x00,0x00,
0x07,0x00,0x04,0x16,0x1d,0x0c,0x00,0x07,0x01,0x1c,0x19,0x00,0x07,0x00,0x2e,0x07,
0x01,0x07,0x00,0x2d,0x44,0x09,0x02,0x89,0x00,0x01,0x01,0x01,0x00,0x24,0xc6,0x26,
0x05,0x07,0x00,0x02,0x00,0x02,0x89,0x00,0x5f,0x28,0x01,0x24,0xc7,0x07,0x01,0x02,
0x34,0x09,0x02,0x88,0x00,0x24,0xc8,0x24,0xc9,0x07,0x01,0x02,0x08,0x12,0x03,0xf9,
0x01,0x00,0x00,0x0b,0x02,0x88,0x00,0x24,0xca,0x07,0x01,0x02,0x88,0x00,0x04,0x20,
0x02,0x20,0x02,0x20,0x02,0x20,0x02,0x20,0x02,0x20,0x02,0x20,0x02,0x49,0x07,0x00,
0x20,0x02,0x01,0x00,0x00,0x00,0x70,0x05,0x24,0xcb,0x60,0x05,0x02,0xc1,0x02,0x01,
0x2a,0x05,0x02,0xc0,0x04,0x2a,0x05,0x03,0x40,0x1f,0x00,0x00,0x02,0x00,0x02,0x87,
0x6f,0x01,0x00,0x00,0x00,0x02,0xc1,0x02,0x00,0x2a,0x05,0x70,0x01,0x00,0x01,0x00,
0x24,0xc0,0x04,0x02,0x0d,0x00,0x02,0x8a,0x00,0x28,0x00,0x02,0xc0,0x04,0x2a,0x05,
0x07,0x00,0x01,0x01,0x01,0x00,0x02,0xff,0x07,0x00,0x0a,0x28,0x01,0x02,0xff,0x07,
0x01,0x07,0x01,0x0b,0x02,0x08,0x12,0x0a,0x01,0x00,0x01,0x00,0x4e,0x28,0x00,0x24,
0xdd,0x15,0x06,0x1d,0x10,0x00,0x05,0x07,0x00,0x24,0xdc,0x17,0x06,0x1d,0x18,0x00,
0x05,0x24,0xc1,0x15,0x06,0x1d,0x2d,0x00,0x05,0x24,0xdc,0x02,0xff,0x17,0x06,0x15,
0x1d,0x2d,0x00,0x05,0x07,0x00,0x02,0xfa,0x18,0x1d,0x3f,0x00,0x02,0xdc,0x07,0x00,
0x2a,0x05,0x07,0x00,0x02,0x8e,0x00,0x64,0x1c,0x40,0x00,0x04,0x01,0x01,0x00,0x00,
0x4e,0x07,0x00,0x0b,0x02,0x08,0x12,0x02,0x8e,0x00,0x64,0x05,0x02,0xdd,0x02,0x01,
0x2a,0x05,0x02,0x00,0x01,0x00,0x00,0x00,0x02,0xdd,0x02,0x00,0x2a,0x05,0x02,0xdc,
0x04,0x2a,0x05,0x02,0x00,0x01,0x00,0x01,0x00,0x24,0xdb,0x04,0x16,0x1d,0x36,0x00,
0x02,0xdb,0x03,0x00,0x08,0x00,0x00,0x3e,0x2a,0x05,0x02,0x00,0x28,0x00,0x04,0x07,
0x00,0x03,0x00,0x08,0x00,0x00,0x18,0x1d,0x33,0x00,0x05,0x24,0xdb,0x07,0x00,0x02,
0x00,0x3f,0x07,0x00,0x02,0x01,0x09,0x28,0x00,0x1c,0x16,0x00,0x1c,0x37,0x00,0x04,
0x05,0x24,0xdb,0x01,0x00,0x00,0x00,0x24,0xde,0x60,0x05,0x24,0xd4,0x24,0xcc,0x17,
0x1d,0x2c,0x00,0x51,0x05,0x24,0xd5,0x04,0x17,0x1d,0x1d,0x00,0x24,0xd5,0x02,0x7f,
0x00,0x1c,0x1e,0x00,0x04,0x05,0x02,0xd5,0x04,0x2a,0x05,0x02,0xd4,0x24,0xcc,0x2a,
0x1c,0x2d,0x00,0x04,0x01,0x00,0x00,0x00,0x24,0xd4,0x24,0xcc,0x16,0x1d,0x0d,0x00,
0x02,0x00,0x1c,0x48,0x00,0x24,0xd6,0x04,0x16,0x06,0x1d,0x1b,0x00,0x05,0x24,0xd4,
0x24,0xce,0x16,0x06,0x1d,0x27,0x00,0x05,0x35,0x24,0xd9,0x0a,0x24,0xd3,0x19,0x1d,
0x37,0x00,0x24,0xdf,0x60,0x05,0x02,0x93,0x00,0x05,0x02,0x00,0x1c,0x48,0x00,0x24,
0xd9,0x04,0x16,0x1d,0x46,0x00,0x03,0xff,0xff,0xff,0xff,0x1c,0x48,0x00,0x02,0x01,
0x01,0x01,0x02,0x00,0x02,0xd9,0x35,0x2a,0x05,0x24,0xd6,0x04,0x16,0x1d,0x31,0x00,
0x24,0xd4,0x24,0xce,0x16,0x1d,0x1b,0x00,0x04,0x04,0x04,0x50,0x1c,0x2e,0x00,0x24,
0xd7,0x15,0x1d,0x27,0x00,0x24,0xe0,0x60,0x1c,0x28,0x00,0x04,0x05,0x02,0xd7,0x02,
0x01,0x2a,0x1c,0xbf,0x00,0x24,0xd7,0x06,0x1d,0x4b,0x00,0x05,0x24,0xd4,0x24,0xce,
0x16,0x06,0x15,0x1d,0x4b,0x00,0x05,0x24,0xd6,0x02,0x06,0x00,0x24,0xcf,0x1b,0x1d,
0x56,0x00,0x02,0xd7,0x02,0x00,0x2a,0x1c,0x57,0x00,0x04,0x05,0x24,0xd7,0x15,0x1d,
0xbe,0x00,0x24,0xd6,0x2d,0x28,0x01,0x07,0x01,0x44,0x28,0x02,0x24,0xd8,0x07,0x02,
0x18,0x1d,0x7f,0x00,0x02,0xd8,0x24,0xd8,0x07,0x01,0x24,0xd8,0x04,0x50,0x09,0x2a,
0x1c,0x80,0x00,0x04,0x05,0x24,0xd8,0x07,0x02,0x1b,0x1d,0xba,0x00,0x02,0xd8,0x02,
0x00,0x2a,0x05,0x02,0xd6,0x24,0xd6,0x2e,0x2a,0x05,0x24,0xd5,0x04,0x17,0x1d,0xb6,
0x00,0x24,0xd6,0x02,0x06,0x00,0x24,0xd0,0x18,0x1d,0xb2,0x00,0x24,0xd5,0x02,0x01,
0x02,0x80,0x00,0x1c,0xb3,0x00,0x04,0x1c,0xb7,0x00,0x04,0x1c,0xbb,0x00,0x04,0x1c,
0xbf,0x00,0x04,0x05,0x02,0x00,0x01,0x00,0x00,0x00,0x02,0xd8,0x02,0x00,0x2a,0x05,
0x02,0xd7,0x02,0x01,0x2a,0x05,0x03,0x00,0x04,0x00,0x00,0x02,0x95,0x4f,0x01,0x02,
0x00,0x00,0x02,0x93,0x00,0x05,0x02,0xd3,0x07,0x01,0x2a,0x05,0x02,0xd6,0x07,0x00,
0x02,0x92,0x00,0x04,0x20,0x02,0x02,0x12,0x00,0x2a,0x05,0x02,0xd4,0x24,0xce,0x2a,
0x05,0x02,0xd9,0x35,0x2a,0x05,0x02,0xd5,0x04,0x2a,0x05,0x02,0x96,0x00,0x01,0x01,
0x00,0x00,0x07,0x00,0x24,0xd1,0x02,0x97,0x00,0x01,0x02,0x01,0x00,0x02,0xda,0x35,
0x2a,0x05,0x07,0x01,0x04,0x16,0x1d,0x58,0x00,0x24,0xe1,0x60,0x05,0x02,0xd4,0x24,
0xce,0x2a,0x05,0x24,0xd6,0x04,0x17,0x1d,0x2e,0x00,0x02,0xd6,0x24,0xd6,0x02,0x92,
0x00,0x04,0x20,0x02,0x02,0x12,0x00,0x2a,0x1c,0x2f,0x00,0x04,0x05,0x24,0xd8,0x04,
0x16,0x1d,0x51,0x00,0x02,0xd6,0x24,0xd6,0x2e,0x2a,0x05,0x24,0xd6,0x04,0x16,0x1d,
0x4b,0x00,0x02,0x93,0x00,0x1c,0x4e,0x00,0x02,0x96,0x00,0x1c,0x52,0x00,0x04,0x05,
0x02,0x00,0x1c,0xa4,0x00,0x02,0xd6,0x24,0xd6,0x07,0x01,0x04,0x20,0x02,0x02,0x12,
0x00,0x2a,0x05,0x24,0xd6,0x02,0x06,0x00,0x28,0x02,0x24,0xd8,0x04,0x16,0x06,0x1d,
0x7b,0x00,0x05,0x07,0x02,0x24,0xcf,0x19,0x1d,0x8b,0x00,0x02,0xd6,0x24,0xd6,0x2e,
0x2a,0x05,0x02,0x96,0x00,0x1c,0xa2,0x00,0x07,0x02,0x24,0xd0,0x19,0x1d,0xa1,0x00,
0x24,0xe2,0x60,0x05,0x07,0x00,0x02,0x00,0x02,0x80,0x00,0x1c,0xa2,0x00,0x04,0x05,
0x04,0x05,0x02,0x8f,0x00,0x05,0x02,0x00,0x01,0x01,0x00,0x00,0x02,0x93,0x00,0x05,
0x02,0xd3,0x24,0xd1,0x2a,0x05,0x02,0xd6,0x04,0x2a,0x05,0x02,0xd4,0x24,0xcd,0x2a,
0x05,0x02,0xd8,0x04,0x2a,0x05,0x02,0xd7,0x02,0x01,0x2a,0x05,0x02,0xd9,0x04,0x2a,
0x05,0x02,0xda,0x35,0x2a,0x05,0x02,0xd5,0x24,0xe3,0x07,0x00,0x04,0x02,0x99,0x24,
0xab,0x02,0x7e,0x00,0x2a,0x01,0x00,0x00,0x00,0x24,0xd5,0x04,0x17,0x06,0x1d,0x0e,
0x00,0x05,0x24,0xd4,0x24,0xcd,0x16,0x06,0x1d,0x1a,0x00,0x05,0x35,0x24,0xda,0x0a,
0x24,0xd2,0x19,0x1d,0x43,0x00,0x24,0xd5,0x04,0x17,0x1d,0x3f,0x00,0x24,0xe4,0x60,
0x05,0x24,0xd5,0x02,0x7f,0x00,0x05,0x02,0xd5,0x04,0x2a,0x05,0x24,0xd5,0x04,0x02,
0x99,0x00,0x05,0x02,0x00,0x1c,0x40,0x00,0x04,0x1c,0x44,0x00,0x04,0x05,0x02,0x00,
0x01,0x00,0x01,0x00,0x24,0xf0,0x28,0x00,0x02,0xf0,0x04,0x2a,0x05,0x07,0x00,0x01,
0x01,0x00,0x00,0x07,0x00,0x02,0x00,0x18,0x1d,0x13,0x00,0x07,0x00,0x24,0xe9,0x09,
0x02,0x9d,0x00,0x1c,0x28,0x00,0x07,0x00,0x24,0xe9,0x1b,0x1d,0x26,0x00,0x07,0x00,
0x24,0xe9,0x0a,0x02,0x9d,0x00,0x1c,0x28,0x00,0x07,0x00,0x01,0x02,0x00,0x00,0x07,
0x00,0x02,0x01,0x07,0x01,0x30,0x05,0x07,0x00,0x22,0x00,0x07,0x01,0x4b,0x01,0x00,
0x02,0x00,0x24,0xf1,0x60,0x05,0x02,0xed,0x24,0xe5,0x2a,0x05,0x02,0x00,0x28,0x00,
0x04,0x07,0x00,0x02,0x02,0x18,0x1d,0x56,0x00,0x05,0x24,0xec,0x07,0x00,0x23,0x28,
0x01,0x07,0x01,0x02,0x01,0x02,0x9e,0x00,0x05,0x07,0x01,0x02,0x08,0x02,0x00,0x30,
0x05,0x07,0x01,0x02,0x02,0x04,0x30,0x05,0x07,0x01,0x02,0x04,0x07,0x00,0x4c,0x30,
0x05,0x07,0x01,0x02,0x05,0x04,0x30,0x05,0x07,0x01,0x02,0x06,0x35,0x30,0x07,0x00,
0x02,0x01,0x09,0x28,0x00,0x1c,0x0f,0x00,0x01,0x00,0x01,0x00,0x02,0xec,0x04,0x02,
0x02,0x36,0x2a,0x05,0x02,0x00,0x28,0x00,0x04,0x07,0x00,0x02,0x02,0x18,0x1d,0x2b,
0x00,0x05,0x24,0xec,0x07,0x00,0x1e,0x09,0x07,0x00,0x2b,0x00,0x30,0x07,0x00,0x02,
0x01,0x09,0x28,0x00,0x1c,0x0d,0x00,0x05,0x02,0x9f,0x00,0x01,0x00,0x00,0x00,0x03,
0x00,0x80,0xff,0x00,0x02,0x18,0x00,0x05,0x02,0xed,0x24,0xe8,0x2a,0x05,0x02,0xef,
0x35,0x2a,0x05,0x02,0xee,0x02,0x00,0x4c,0x02,0x01,0x4c,0x09,0x2a,0x01,0x00,0x05,
0x00,0x24,0xef,0x04,0x17,0x1d,0x9c,0x00,0x02,0x00,0x4c,0x02,0x01,0x4c,0x09,0x28,
0x00,0x07,0x00,0x24,0xee,0x17,0x1d,0x2d,0x00,0x24,0xf2,0x26,0x05,0x07,0x00,0x5f,
0x05,0x02,0xee,0x07,0x00,0x2a,0x05,0x02,0xef,0x35,0x2a,0x1c,0x99,0x00,0x35,0x24,
0xef,0x0a,0x24,0xea,0x19,0x1d,0x98,0x00,0x02,0xef,0x04,0x2a,0x05,0x02,0x00,0x28,
0x01,0x04,0x07,0x01,0x02,0x02,0x18,0x1d,0x95,0x00,0x05,0x24,0xec,0x07,0x01,0x23,
0x28,0x02,0x07,0x02,0x22,0x08,0x02,0x01,0x17,0x1d,0x8a,0x00,0x07,0x02,0x02,0x04,
0x07,0x01,0x4c,0x30,0x05,0x07,0x02,0x02,0x05,0x02,0x00,0x30,0x05,0x07,0x02,0x02,
0x06,0x35,0x30,0x05,0x07,0x02,0x02,0x01,0x02,0x9e,0x00,0x05,0x07,0x02,0x02,0x07,
0x07,0x02,0x22,0x04,0x24,0xe9,0x09,0x30,0x1c,0x8b,0x00,0x04,0x07,0x01,0x02,0x01,
0x09,0x28,0x01,0x1c,0x41,0x00,0x1c,0x99,0x00,0x04,0x1c,0xa5,0x01,0x02,0x00,0x28,
0x00,0x04,0x07,0x00,0x02,0x02,0x18,0x1d,0x49,0x01,0x05,0x24,0xec,0x07,0x00,0x23,
0x28,0x01,0x07,0x01,0x22,0x08,0x02,0x01,0x17,0x1d,0x3e,0x01,0x07,0x01,0x22,0x01,
0x1d,0x3a,0x01,0x07,0x00,0x4c,0x28,0x02,0x07,0x02,0x07,0x01,0x22,0x04,0x17,0x1d,
0x36,0x01,0x35,0x28,0x03,0x07,0x03,0x07,0x01,0x22,0x06,0x0a,0x28,0x04,0x07,0x04,
0x07,0x01,0x22,0x05,0x19,0x1d,0x09,0x01,0x07,0x01,0x02,0x03,0x07,0x01,0x22,0x07,
0x07,0x01,0x22,0x04,0x0a,0x24,0xeb,0x0a,0x02,0x01,0x0a,0x02,0x9d,0x00,0x30,0x05,
0x07,0x01,0x02,0x05,0x07,0x04,0x30,0x1c,0x0a,0x01,0x04,0x05,0x07,0x01,0x02,0x06,
0x07,0x03,0x30,0x05,0x07,0x01,0x02,0x04,0x07,0x02,0x30,0x05,0x07,0x02,0x07,0x01,
0x22,0x07,0x0a,0x02,0x00,0x1b,0x1d,0x32,0x01,0x07,0x01,0x02,0x00,0x02,0x9e,0x00,
0x1c,0x33,0x01,0x04,0x1c,0x37,0x01,0x04,0x1c,0x3b,0x01,0x04,0x1c,0x3f,0x01,0x04,
0x07,0x00,0x02,0x01,0x09,0x28,0x00,0x1c,0xa1,0x00,0x05,0x24,0xec,0x02,0x00,0x23,
0x22,0x01,0x02,0x00,0x16,0x06,0x1d,0x63,0x01,0x05,0x24,0xec,0x02,0x01,0x23,0x22,
0x01,0x02,0x00,0x16,0x1d,0xa4,0x01,0x02,0xf0,0x03,0x00,0x80,0x00,0x00,0x24,0xec,
0x02,0x00,0x23,0x22,0x03,0x02,0x08,0x11,0x09,0x24,0xec,0x02,0x01,0x23,0x22,0x03,
0x09,0x2a,0x05,0x24,0xf3,0x26,0x05,0x24,0xec,0x02,0x00,0x23,0x22,0x03,0x27,0x05,
0x24,0xf4,0x26,0x05,0x24,0xec,0x02,0x01,0x23,0x22,0x03,0x5f,0x05,0x02,0xed,0x24,
0xe7,0x2a,0x1c,0xa5,0x01,0x04,0x01,0x00,0x05,0x00,0x02,0x00,0x28,0x00,0x04,0x07,
0x00,0x02,0x02,0x18,0x1d,0x2a,0x01,0x05,0x24,0xec,0x07,0x00,0x23,0x28,0x01,0x07,
0x01,0x22,0x01,0x1d,0x1f,0x01,0x07,0x00,0x4c,0x28,0x02,0x07,0x02,0x07,0x01,0x22,
0x04,0x16,0x1d,0x80,0x00,0x35,0x28,0x03,0x07,0x03,0x07,0x01,0x22,0x06,0x0a,0x28,
0x04,0x07,0x04,0x03,0x88,0x13,0x00,0x00,0x19,0x1d,0x7c,0x00,0x24,0xf5,0x60,0x05,
0x07,0x00,0x5f,0x05,0x07,0x01,0x02,0x08,0x02,0x01,0x30,0x05,0x07,0x01,0x02,0x03,
0x02,0x00,0x30,0x05,0x07,0x01,0x02,0x04,0x07,0x02,0x30,0x05,0x07,0x01,0x02,0x02,
0x02,0x00,0x30,0x05,0x07,0x01,0x02,0x05,0x02,0x00,0x30,0x05,0x07,0x01,0x02,0x00,
0x02,0x9e,0x00,0x1c,0x7d,0x00,0x04,0x1c,0x1c,0x01,0x07,0x01,0x22,0x02,0x04,0x17,
0x1d,0xc0,0x00,0x07,0x01,0x02,0x03,0x07,0x01,0x22,0x03,0x07,0x02,0x09,0x07,0x01,
0x22,0x04,0x0a,0x02,0x9d,0x00,0x30,0x05,0x07,0x01,0x02,0x04,0x07,0x02,0x30,0x05,
0x07,0x01,0x22,0x03,0x07,0x01,0x22,0x02,0x16,0x1d,0xbc,0x00,0x07,0x01,0x02,0x00,
0x02,0x9e,0x00,0x1c,0xbd,0x00,0x04,0x1c,0x1c,0x01,0x35,0x28,0x03,0x07,0x03,0x07,
0x01,0x22,0x06,0x0a,0x28,0x04,0x07,0x04,0x03,0x10,0x27,0x00,0x00,0x18,0x06,0x1d,
0xe1,0x00,0x05,0x07,0x04,0x03,0x58,0x02,0x00,0x00,0x19,0x06,0x1d,0xec,0x00,0x05,
0x04,0x07,0x01,0x22,0x05,0x17,0x1d,0x05,0x01,0x07,0x01,0x02,0x03,0x24,0xeb,0x13,
0x02,0x9d,0x00,0x30,0x05,0x07,0x01,0x02,0x02,0x02,0x00,0x30,0x1c,0x0c,0x01,0x07,
0x01,0x02,0x06,0x07,0x03,0x30,0x05,0x07,0x01,0x02,0x04,0x07,0x02,0x30,0x05,0x07,
0x01,0x02,0x05,0x07,0x04,0x30,0x1c,0x20,0x01,0x04,0x07,0x00,0x02,0x01,0x09,0x28,
0x00,0x1c,0x05,0x00,0x05,0x24,0xec,0x02,0x00,0x23,0x22,0x01,0x02,0x00,0x16,0x06,
0x1d,0x44,0x01,0x05,0x24,0xec,0x02,0x01,0x23,0x22,0x01,0x02,0x00,0x16,0x1d,0x4f,
0x01,0x02,0xed,0x24,0xe6,0x2a,0x1c,0x50,0x01,0x04,0x01,0x00,0x04,0x00,0x02,0x00,
0x28,0x00,0x04,0x07,0x00,0x02,0x02,0x18,0x1d,0xb5,0x00,0x05,0x24,0xec,0x07,0x00,
0x23,0x28,0x01,0x07,0x01,0x22,0x08,0x02,0x01,0x17,0x1d,0xaa,0x00,0x07,0x00,0x4c,
0x28,0x02,0x07,0x02,0x07,0x01,0x22,0x04,0x17,0x1d,0xa6,0x00,0x07,0x02,0x07,0x01,
0x22,0x04,0x0a,0x28,0x03,0x07,0x01,0x22,0x01,0x1d,0x80,0x00,0x07,0x01,0x02,0x04,
0x07,0x02,0x30,0x05,0x07,0x01,0x02,0x03,0x07,0x01,0x22,0x03,0x07,0x01,0x22,0x01,
0x02,0x00,0x19,0x1d,0x5d,0x00,0x07,0x03,0x1c,0x60,0x00,0x07,0x03,0x13,0x09,0x02,
0x9d,0x00,0x30,0x05,0x07,0x01,0x22,0x03,0x07,0x01,0x22,0x02,0x16,0x1d,0x7c,0x00,
0x07,0x01,0x02,0x00,0x02,0x9e,0x00,0x1c,0x7d,0x00,0x04,0x1c,0xa3,0x00,0x07,0x03,
0x02,0x02,0x19,0x1d,0xa2,0x00,0x07,0x01,0x02,0x04,0x07,0x02,0x30,0x05,0x24,0xed,
0x24,0xe7,0x16,0x1d,0x9e,0x00,0x02,0xa1,0x00,0x1c,0x9f,0x00,0x04,0x1c,0xa3,0x00,
0x04,0x1c,0xa7,0x00,0x04,0x1c,0xab,0x00,0x04,0x07,0x00,0x02,0x01,0x09,0x28,0x00,
0x1c,0x05,0x00,0x01,0x00,0x00,0x00,0x24,0xed,0x24,0xe5,0x16,0x1d,0x0e,0x00,0x02,
0xa3,0x00,0x1c,0x1f,0x00,0x24,0xed,0x24,0xe8,0x16,0x1d,0x1c,0x00,0x02,0xa2,0x00,
0x1c,0x1f,0x00,0x02,0xa4,0x00,0x05,0x02,0x00,0x01,0x00,0x00,0x00,0x24,0xed,0x24,
0xe5,0x17,0x01,0x00,0x00,0x00,0x24,0xed,0x24,0xe8,0x16,0x01,0x00,0x00,0x00,0x02,
0xa6,0x00,0x06,0x1d,0x10,0x00,0x05,0x24,0xec,0x02,0x00,0x23,0x22,0x01,0x15,0x06,
0x1d,0x1d,0x00,0x05,0x24,0xec,0x02,0x01,0x23,0x22,0x01,0x15,0x01,0x00,0x00,0x00,
0x24,0xed,0x24,0xe6,0x16,0x1d,0x10,0x00,0x02,0xed,0x24,0xe7,0x2a,0x1c,0x11,0x00,
0x04,0x01,0x00,0x00,0x00,0x24,0xed,0x24,0xe7,0x16,0x1d,0x10,0x00,0x02,0xed,0x24,
0xe6,0x2a,0x1c,0x11,0x00,0x04,0x01,0x00,0x01,0x00,0x24,0xf6,0x60,0x05,0x24,0xed,
0x24,0xe5,0x17,0x1d,0x31,0x00,0x02,0x00,0x28,0x00,0x04,0x07,0x00,0x02,0x02,0x18,
0x1d,0x2e,0x00,0x05,0x24,0xec,0x07,0x00,0x23,0x02,0x00,0x02,0x9e,0x00,0x07,0x00,
0x02,0x01,0x09,0x28,0x00,0x1c,0x11,0x00,0x1c,0x32,0x00,0x04,0x05,0x02,0x00,0x01,
0x01,0x00,0x00,0x24,0xec,0x07,0x00,0x23,0x22,0x02,0x01,0x03,0x02,0x00,0x24,0xed,
0x24,0xe6,0x16,0x06,0x15,0x1d,0x10,0x00,0x05,0x24,0xed,0x24,0xe7,0x16,0x1d,0x8f,
0x00,0x24,0xec,0x07,0x00,0x23,0x28,0x03,0x07,0x01,0x02,0x9d,0x00,0x28,0x04,0x07,
0x03,0x22,0x08,0x02,0x01,0x16,0x1d,0x3b,0x00,0x24,0xf7,0x26,0x05,0x07,0x00,0x27,
0x05,0x24,0xf8,0x60,0x05,0x04,0x1c,0x8c,0x00,0x07,0x04,0x07,0x03,0x22,0x02,0x17,
0x1d,0x8b,0x00,0x24,0xf9,0x26,0x05,0x07,0x00,0x27,0x05,0x24,0xfa,0x26,0x05,0x07,
0x04,0x27,0x05,0x24,0xfb,0x26,0x05,0x07,0x02,0x5f,0x05,0x07,0x03,0x02,0x02,0x07,
0x04,0x30,0x05,0x07,0x03,0x07,0x04,0x07,0x03,0x22,0x03,0x16,0x1d,0x76,0x00,0x02,
0x00,0x1c,0x85,0x00,0x07,0x02,0x1d,0x83,0x00,0x03,0xff,0xff,0xff,0xff,0x1c,0x85,
0x00,0x02,0x01,0x02,0x9e,0x00,0x1c,0x8c,0x00,0x04,0x1c,0x90,0x00,0x04,0x05,0x02,
0x00,0x01,0x00,0x00,0x00,0x02,0xfd,0x02,0x00,0x02,0x20,0x36,0x2a,0x05,0x02,0xfc,
0x02,0x00,0x02,0x04,0x02,0x03,0x02,0x03,0x02,0x03,0x02,0x00,0x02,0x00,0x02,0x00,
0x20,0x06,0x20,0x02,0x02,0x04,0x02,0x00,0x02,0x03,0x02,0x00,0x02,0x04,0x02,0x00,
0x02,0x04,0x20,0x06,0x20,0x02,0x02,0x03,0x02,0x04,0x02,0x04,0x02,0x04,0x02,0x04,
0x02,0x04,0x02,0x04,0x02,0x04,0x02,0x04,0x02,0x04,0x02,0x00,0x02,0x00,0x02,0x00,
0x20,0x0c,0x20,0x02,0x02,0x03,0x02,0x04,0x02,0x00,0x02,0x00,0x02,0x00,0x02,0x00,
0x02,0x04,0x02,0x00,0x02,0x00,0x02,0x00,0x02,0x00,0x02,0x04,0x02,0x00,0x02,0x04,
0x02,0x00,0x02,0x00,0x02,0x00,0x02,0x00,0x02,0x00,0x02,0x04,0x02,0x00,0x02,0x04,
0x02,0x00,0x02,0x00,0x02,0x00,0x20,0x18,0x20,0x02,0x02,0x04,0x02,0x04,0x02,0x00,
0x02,0x00,0x02,0x00,0x02,0x04,0x02,0x00,0x02,0x04,0x02,0x00,0x02,0x00,0x02,0x00,
0x02,0x04,0x02,0x00,0x02,0x00,0x02,0x00,0x02,0x04,0x02,0x00,0x02,0x04,0x02,0x00,
0x02,0x00,0x02,0x00,0x02,0x04,0x02,0x00,0x02,0x04,0x02,0x00,0x20,0x18,0x20,0x02,
0x02,0x03,0x02,0x00,0x02,0x03,0x02,0x04,0x02,0x03,0x02,0x04,0x02,0xd5,0x02,0x47,
0x02,0x00,0x02,0x00,0x02,0x04,0x02,0x03,0x02,0x00,0x02,0x00,0x02,0x04,0x02,0x03,
0x02,0x00,0x02,0x00,0x02,0x00,0x02,0x03,0x02,0x04,0x02,0x00,0x02,0x00,0x02,0x00,
0x02,0x00,0x20,0x18,0x20,0x02,0x20,0x06,0x20,0x02,0x02,0x01,0x02,0x01,0x02,0x00,
0x02,0x00,0x02,0x0b,0x02,0x00,0x02,0x0b,0x02,0x00,0x02,0x0b,0x02,0x00,0x02,0x00,
0x02,0x00,0x02,0x00,0x02,0x00,0x20,0x0c,0x20,0x02,0x02,0x02,0x02,0x00,0x02,0x00,
0x02,0x0b,0x02,0x00,0x02,0x0b,0x02,0x00,0x02,0x0b,0x02,0x00,0x02,0x00,0x02,0x00,
0x02,0x00,0x02,0x00,0x20,0x0c,0x20,0x02,0x02,0x03,0x02,0x00,0x02,0x00,0x02,0x0b,
0x02,0x00,0x02,0x0b,0x02,0x00,0x02,0x0b,0x02,0x00,0x02,0x00,0x02,0x00,0x02,0x00,
0x02,0x00,0x20,0x0c,0x20,0x02,0x02,0x04,0x02,0x00,0x02,0x0b,0x02,0x00,0x02,0x00,
0x02,0x00,0x02,0x00,0x20,0x06,0x20,0x02,0x02,0x03,0x02,0x0b,0x02,0x00,0x02,0x00,
0x02,0x00,0x02,0x0b,0x02,0x00,0x02,0x00,0x02,0x00,0x02,0x0b,0x02,0x00,0x02,0x00,
0x02,0x00,0x20,0x0c,0x20,0x02,0x02,0x02,0x02,0x0b,0x02,0x00,0x02,0x00,0x02,0x00,
0x02,0x0b,0x02,0x00,0x02,0x00,0x02,0x00,0x02,0x0b,0x02,0x00,0x02,0x00,0x02,0x00,
0x20,0x0c,0x20,0x02,0x02,0x01,0x02,0x0b,0x02,0x00,0x02,0x00,0x02,0x00,0x02,0x0b,
0x02,0x00,0x02,0x00,0x02,0x00,0x02,0x0b,0x02,0x00,0x02,0x00,0x02,0x00,0x20,0x0c,
0x20,0x02,0x20,0x07,0x20,0x02,0x02,0x02,0x02,0x06,0x02,0x09,0x02,0x00,0x02,0x09,
0x02,0x00,0x02,0x00,0x02,0x00,0x20,0x06,0x20,0x02,0x02,0x05,0x02,0x00,0x02,0x09,
0x02,0x00,0x02,0x09,0x02,0x00,0x02,0x09,0x02,0x00,0x02,0x00,0x02,0x00,0x02,0x00,
0x02,0x00,0x02,0x00,0x20,0x0c,0x20,0x02,0x02,0x04,0x02,0x00,0x02,0x09,0x02,0x00,
0x02,0x09,0x02,0x00,0x02,0x09,0x02,0x00,0x02,0x00,0x02,0x00,0x02,0x00,0x02,0x00,
0x02,0x00,0x20,0x0c,0x20,0x02,0x02,0x03,0x02,0x00,0x02,0x09,0x02,0x00,0x02,0x09,
0x02,0x00,0x02,0x09,0x02,0x00,0x02,0x00,0x02,0x00,0x02,0x00,0x02,0x00,0x02,0x00,
0x20,0x0c,0x20,0x02,0x02,0x02,0x02,0x00,0x02,0x09,0x02,0x00,0x02,0x09,0x02,0x00,
0x02,0x09,0x02,0x00,0x02,0x00,0x02,0x00,0x02,0x00,0x02,0x00,0x02,0x00,0x20,0x0c,
0x20,0x02,0x02,0x01,0x02,0x00,0x02,0x09,0x02,0x00,0x02,0x09,0x02,0x00,0x02,0x09,
0x02,0x00,0x02,0x00,0x02,0x00,0x02,0x00,0x02,0x00,0x02,0x00,0x20,0x0c,0x20,0x02,
0x02,0x00,0x02,0x00,0x02,0x09,0x02,0x00,0x02,0x09,0x02,0x00,0x02,0x09,0x02,0x00,
0x02,0x00,0x02,0x00,0x02,0x00,0x02,0x00,0x02,0x00,0x20,0x0c,0x20,0x02,0x20,0x07,
0x20,0x02,0x02,0x05,0x02,0x03,0x02,0x05,0x02,0x00,0x02,0x00,0x02,0x00,0x02,0x05,
0x02,0x00,0x02,0x00,0x02,0x00,0x02,0x05,0x02,0x00,0x02,0x05,0x02,0x00,0x20,0x0c,
0x20,0x02,0x02,0x03,0x02,0x00,0x02,0x05,0x02,0x00,0x02,0x00,0x02,0x00,0x02,0x00,
0x20,0x06,0x20,0x02,0x02,0x03,0x02,0x05,0x02,0x00,0x02,0x05,0x02,0x00,0x02,0x00,
0x02,0x00,0x20,0x06,0x20,0x02,0x02,0x03,0x02,0x05,0x02,0x05,0x02,0x05,0x02,0x00,
0x02,0x00,0x02,0x00,0x20,0x06,0x20,0x02,0x20,0x04,0x20,0x02,0x02,0x06,0x02,0x04,
0x02,0x06,0x02,0x06,0x02,0x06,0x02,0x06,0x02,0x06,0x02,0x06,0x02,0x06,0x02,0x06,
0x02,0x06,0x02,0x00,0x02,0x00,0x02,0x00,0x20,0x0c,0x20,0x02,0x02,0x04,0x02,0x06,
0x02,0x06,0x02,0x06,0x02,0x06,0x02,0x06,0x02,0x06,0x02,0x06,0x02,0x06,0x02,0x06,
0x02,0x00,0x02,0x00,0x02,0x00,0x20,0x0c,0x20,0x02,0x02,0x04,0x02,0x06,0x02,0x06,
0x02,0x06,0x02,0x06,0x02,0x06,0x02,0x06,0x02,0x06,0x02,0x06,0x02,0x06,0x02,0x00,
0x02,0x00,0x02,0x00,0x20,0x0c,0x20,0x02,0x02,0x04,0x02,0x06,0x02,0x06,0x02,0x06,
0x02,0x06,0x02,0x06,0x02,0x06,0x02,0x06,0x02,0x06,0x02,0x06,0x02,0x00,0x02,0x00,
0x02,0x00,0x20,0x0c,0x20,0x02,0x02,0x04,0x02,0x06,0x02,0x06,0x02,0x06,0x02,0x06,
0x02,0x06,0x02,0x06,0x02,0x06,0x02,0x06,0x02,0x06,0x02,0x00,0x02,0x00,0x02,0x00,
0x20,0x0c,0x20,0x02,0x02,0x03,0x02,0x06,0x02,0x00,0x02,0x00,0x02,0x00,0x02,0x06,
0x02,0x00,0x02,0x06,0x02,0x06,0x02,0x00,0x02,0x06,0x02,0x06,0x02,0x06,0x02,0x00,
0x02,0x06,0x02,0x06,0x02,0x00,0x02,0x00,0x02,0x06,0x02,0x06,0x02,0x00,0x02,0x06,
0x02,0x06,0x02,0x06,0x02,0x06,0x20,0x18,0x20,0x02,0x02,0x03,0x02,0x06,0x02,0x00,
0x02,0x00,0x02,0x00,0x02,0x06,0x02,0x00,0x02,0x06,0x02,0x06,0x02,0x00,0x02,0x06,
0x02,0x06,0x02,0x06,0x02,0x00,0x02,0x06,0x02,0x06,0x02,0x00,0x02,0x00,0x02,0x06,
0x02,0x06,0x02,0x00,0x02,0x06,0x02,0x06,0x02,0x06,0x02,0x06,0x20,0x18,0x20,0x02,
0x02,0x03,0x02,0x06,0x02,0x00,0x02,0x00,0x02,0x00,0x02,0x06,0x02,0x00,0x02,0x06,
0x02,0x06,0x02,0x00,0x02,0x06,0x02,0x06,0x02,0x06,0x02,0x00,0x02,0x06,0x02,0x06,
0x02,0x00,0x02,0x00,0x02,0x06,0x02,0x06,0x02,0x00,0x02,0x06,0x02,0x06,0x02,0x06,
0x02,0x06,0x20,0x18,0x20,0x02,0x02,0x02,0x02,0x06,0x02,0x00,0x02,0x00,0x02,0x00,
0x02,0x06,0x02,0x00,0x02,0x06,0x02,0x06,0x02,0x00,0x02,0x06,0x02,0x06,0x02,0x06,
0x02,0x00,0x02,0x06,0x02,0x06,0x02,0x00,0x02,0x00,0x02,0x06,0x02,0x06,0x02,0x00,
0x02,0x06,0x02,0x06,0x02,0x06,0x02,0x06,0x20,0x18,0x20,0x02,0x02,0x02,0x02,0x06,
0x02,0x00,0x02,0x00,0x02,0x00,0x02,0x06,0x02,0x00,0x02,0x06,0x02,0x06,0x02,0x00,
0x02,0x06,0x02,0x06,0x02,0x06,0x02,0x00,0x02,0x06,0x02,0x06,0x02,0x00,0x02,0x00,
0x02,0x06,0x02,0x06,0x02,0x00,0x02,0x06,0x02,0x06,0x02,0x06,0x02,0x06,0x20,0x18,
0x20,0x02,0x02,0x02,0x02,0x06,0x02,0x00,0x02,0x00,0x02,0x00,0x02,0x06,0x02,0x00,
0x02,0x06,0x02,0x06,0x02,0x00,0x02,0x06,0x02,0x06,0x02,0x06,0x02,0x00,0x02,0x06,
0x02,0x06,0x02,0x00,0x02,0x00,0x02,0x06,0x02,0x06,0x02,0x00,0x02,0x06,0x02,0x06,
0x02,0x06,0x02,0x06,0x20,0x18,0x20,0x02,0x20,0x0b,0x20,0x02,0x04,0x20,0x02,0x20,
0x02,0x20,0x02,0x20,0x02,0x20,0x02,0x2a,0x01,0x01,0x00,0x00,0x24,0xfc,0x07,0x00,
0x7c,0x01,0x02,0x01,0x00,0x07,0x01,0x02,0x02,0x09,0x28,0x02,0x07,0x02,0x02,0x10,
0x1b,0x1d,0x14,0x00,0x02,0x00,0x1c,0x28,0x00,0x07,0x00,0x07,0x02,0x23,0x1d,0x21,
0x00,0x07,0x02,0x1c,0x28,0x00,0x07,0x00,0x07,0x02,0x02,0xb0,0x00,0x01,0x00,0x02,
0x00,0x03,0x04,0x01,0x00,0x00,0x24,0xfd,0x03,0x04,0x01,0x00,0x00,0x25,0x02,0xb0,
0x00,0x2a,0x05,0x02,0xff,0x24,0xfd,0x03,0x04,0x01,0x00,0x00,0x25,0x23,0x02,0x01,
0x0a,0x2a,0x05,0x03,0x00,0x01,0x00,0x00,0x24,0xfd,0x03,0x04,0x01,0x00,0x00,0x25,
0x02,0x01,0x09,0x23,0x2a,0x05,0x03,0x03,0x01,0x00,0x00,0x3d,0x2a,0x05,0x03,0x01,
0x01,0x00,0x00,0x02,0x00,0x2a,0x05,0x24,0xff,0x02,0xaf,0x00,0x28,0x00,0x07,0x00,
0x04,0x16,0x1d,0x5e,0x00,0x03,0x03,0x01,0x00,0x00,0x04,0x2a,0x1c,0x78,0x00,0x03,
0x02,0x01,0x00,0x00,0x07,0x00,0x03,0x00,0x01,0x00,0x00,0x25,0x23,0x06,0x22,0x00,
0x28,0x01,0x05,0x02,0x02,0x07,0x01,0x11,0x2a,0x05,0x02,0x00,0x01,0x00,0x01,0x00,
0x02,0x00,0x28,0x00,0x04,0x07,0x00,0x02,0x10,0x18,0x1d,0x26,0x00,0x05,0x24,0xfd,
0x07,0x00,0x23,0x27,0x05,0x03,0x06,0x01,0x00,0x00,0x25,0x26,0x07,0x00,0x02,0x01,
0x09,0x28,0x00,0x1c,0x05,0x00,0x05,0x03,0x07,0x01,0x00,0x00,0x25,0x60,0x01,0x00,
0x03,0x00,0x02,0xa7,0x00,0x15,0x1d,0x7d,0x01,0x02,0xff,0x24,0xfd,0x03,0x04,0x01,
0x00,0x00,0x25,0x23,0x02,0x01,0x0a,0x2a,0x05,0x03,0x03,0x01,0x00,0x00,0x25,0x04,
0x16,0x06,0x15,0x1d,0x34,0x00,0x05,0x3d,0x03,0x03,0x01,0x00,0x00,0x25,0x0a,0x03,
0x05,0x01,0x00,0x00,0x25,0x19,0x06,0x15,0x1d,0x3f,0x00,0x05,0x24,0xff,0x02,0x00,
0x18,0x1d,0x48,0x00,0x02,0xb1,0x00,0x1c,0x49,0x00,0x04,0x05,0x24,0xfd,0x02,0x10,
0x02,0x02,0x09,0x23,0x28,0x00,0x24,0xfd,0x02,0x10,0x02,0x03,0x09,0x23,0x28,0x01,
0x35,0x02,0x08,0x12,0x02,0x07,0x0e,0x28,0x02,0x02,0x00,0x07,0x02,0x02,0x01,0x16,
0x06,0x1d,0x75,0x00,0x05,0x07,0x00,0x06,0x15,0x1d,0x8e,0x00,0x05,0x07,0x02,0x02,
0x03,0x16,0x06,0x1d,0x87,0x00,0x05,0x07,0x00,0x06,0x1d,0x8e,0x00,0x05,0x07,0x01,
0x1d,0x99,0x00,0x03,0xff,0x00,0xff,0x00,0x1c,0x9b,0x00,0x02,0x00,0x4a,0x05,0x02,
0xff,0x24,0xfd,0x03,0x04,0x01,0x00,0x00,0x25,0x23,0x02,0x01,0x0a,0x2a,0x05,0x03,
0x00,0x01,0x00,0x00,0x24,0xfd,0x03,0x04,0x01,0x00,0x00,0x25,0x02,0x01,0x09,0x23,
0x2a,0x05,0x24,0xff,0x02,0xaf,0x00,0x28,0x00,0x07,0x00,0x03,0x00,0x01,0x00,0x00,
0x25,0x23,0x06,0x22,0x00,0x28,0x01,0x06,0x22,0x01,0x28,0x02,0x05,0x07,0x02,0x04,
0x17,0x1d,0x69,0x01,0x02,0x01,0x24,0xfe,0x07,0x02,0x03,0x01,0x01,0x00,0x00,0x25,
0x23,0x23,0x4a,0x05,0x02,0x02,0x24,0xfe,0x07,0x02,0x02,0x01,0x03,0x01,0x01,0x00,
0x00,0x25,0x09,0x23,0x23,0x4a,0x05,0x02,0x03,0x24,0xfe,0x07,0x02,0x02,0x02,0x03,
0x01,0x01,0x00,0x00,0x25,0x09,0x23,0x23,0x4a,0x05,0x03,0x02,0x01,0x00,0x00,0x03,
0x02,0x01,0x00,0x00,0x25,0x02,0x01,0x0a,0x2a,0x02,0x00,0x1a,0x1d,0x65,0x01,0x03,
0x01,0x01,0x00,0x00,0x03,0x01,0x01,0x00,0x00,0x25,0x02,0x03,0x09,0x2a,0x05,0x03,
0x02,0x01,0x00,0x00,0x02,0x02,0x07,0x01,0x11,0x2a,0x05,0x03,0x01,0x01,0x00,0x00,
0x25,0x07,0x02,0x48,0x1b,0x1d,0x61,0x01,0x03,0x01,0x01,0x00,0x00,0x02,0x00,0x2a,
0x1c,0x62,0x01,0x04,0x1c,0x66,0x01,0x04,0x1c,0x7a,0x01,0x02,0x03,0x02,0x00,0x4a,
0x05,0x02,0x02,0x02,0x00,0x4a,0x05,0x02,0x01,0x02,0x00,0x4a,0x1c,0x7e,0x01,0x04,
0x01,0x01,0x02,0x00,0x07,0x00,0x44,0x28,0x01,0x02,0x00,0x28,0x02,0x04,0x07,0x02,
0x07,0x01,0x18,0x1d,0x27,0x00,0x05,0x24,0xfd,0x07,0x02,0x07,0x00,0x07,0x02,0x45,
0x30,0x07,0x02,0x02,0x01,0x09,0x28,0x02,0x1c,0x0a,0x00,0x05,0x02,0x00,0x01,0x02,
0x00,0x00,0x07,0x00,0x24,0xfd,0x48,0x1b,0x1d,0x0e,0x00,0x02,0x00,0x1c,0x2e,0x00,
0x07,0x01,0x24,0xfd,0x07,0x00,0x23,0x16,0x1d,0x24,0x00,0x24,0xfd,0x07,0x00,0x02,
0x01,0x09,0x23,0x1c,0x2e,0x00,0x07,0x00,0x02,0x01,0x09,0x07,0x01,0x02,0xb5,0x00,
0x01,0x01,0x00,0x00,0x02,0x00,0x07,0x00,0x02,0xb5,0x00,0x01,0x01,0x07,0x00,0x07,
0x00,0x04,0x17,0x1d,0x67,0x00,0x07,0x00,0x2d,0x06,0x22,0x00,0x28,0x01,0x06,0x22,
0x01,0x28,0x02,0x06,0x22,0x02,0x28,0x03,0x06,0x22,0x03,0x28,0x04,0x06,0x22,0x04,
0x28,0x05,0x06,0x22,0x05,0x28,0x06,0x06,0x22,0x06,0x28,0x07,0x05,0x07,0x01,0x03,
0x11,0x01,0x00,0x00,0x25,0x07,0x02,0x07,0x03,0x07,0x04,0x02,0x1c,0x00,0x07,0x05,
0x02,0x1c,0x00,0x07,0x06,0x02,0x1c,0x00,0x07,0x07,0x02,0x1c,0x00,0x07,0x00,0x2e,
0x02,0xb7,0x00,0x20,0x02,0x20,0x02,0x20,0x02,0x20,0x02,0x20,0x02,0x20,0x02,0x20,
0x02,0x20,0x02,0x1c,0x68,0x00,0x04,0x01,0x01,0x00,0x00,0x07,0x00,0x02,0x04,0x00,
0x02,0x1c,0x00,0x07,0x00,0x02,0xb7,0x00,0x20,0x02,0x01,0x02,0x00,0x00,0x07,0x01,
0x07,0x00,0x44,0x1b,0x1d,0x0e,0x00,0x07,0x01,0x1c,0x26,0x00,0x07,0x00,0x07,0x01,
0x45,0x15,0x1d,0x1c,0x00,0x07,0x01,0x1c,0x26,0x00,0x07,0x00,0x07,0x01,0x02,0x01,
0x09,0x02,0xb9,0x00,0x01,0x03,0x02,0x00,0x07,0x01,0x02,0x00,0x19,0x1d,0x75,0x00,
0x07,0x00,0x07,0x02,0x02,0xb9,0x00,0x28,0x03,0x07,0x03,0x02,0x01,0x09,0x28,0x04,
0x07,0x00,0x07,0x02,0x07,0x03,0x07,0x02,0x0a,0x46,0x07,0x00,0x07,0x04,0x02,0x06,
0x46,0x07,0x00,0x07,0x04,0x02,0x06,0x09,0x02,0x06,0x46,0x07,0x00,0x07,0x04,0x02,
0x0c,0x09,0x02,0x08,0x46,0x76,0x07,0x00,0x07,0x04,0x02,0x14,0x09,0x02,0x08,0x46,
0x76,0x07,0x00,0x07,0x04,0x02,0x1c,0x09,0x02,0x08,0x46,0x76,0x07,0x00,0x07,0x04,
0x02,0x24,0x09,0x02,0x08,0x46,0x76,0x20,0x07,0x07,0x00,0x07,0x01,0x02,0x01,0x0a,
0x07,0x04,0x02,0x2c,0x09,0x02,0xba,0x00,0x20,0x02,0x1c,0x76,0x00,0x04,0x01,0x00,
0x00,0x00,0x24,0x09,0x24,0x0a,0x24,0x0b,0x24,0x0c,0x24,0x15,0x02,0xb8,0x00,0x20,
0x02,0x20,0x02,0x20,0x02,0x20,0x02,0x49,0x01,0x01,0x01,0x00,0x07,0x00,0x04,0x17,
0x1d,0x4f,0x00,0x02,0x09,0x07,0x00,0x02,0x00,0x02,0x04,0x46,0x2a,0x05,0x02,0x0a,
0x07,0x00,0x02,0x04,0x02,0x04,0x46,0x2a,0x05,0x02,0x0b,0x07,0x00,0x02,0x08,0x02,
0x04,0x46,0x2a,0x05,0x02,0x0c,0x07,0x00,0x02,0x0c,0x02,0x04,0x46,0x2a,0x05,0x07,
0x00,0x02,0x10,0x02,0x08,0x46,0x76,0x28,0x01,0x02,0x15,0x07,0x00,0x07,0x01,0x02,
0x18,0x02,0xba,0x00,0x2a,0x05,0x02,0x00,0x1c,0x50,0x00,0x04,0x01,0x02,0x02,0x00,
0x07,0x00,0x06,0x22,0x00,0x28,0x02,0x05,0x07,0x01,0x06,0x22,0x00,0x28,0x03,0x05,
0x07,0x02,0x07,0x03,0x89,0x01,0x01,0x01,0x00,0x03,0x10,0x01,0x00,0x00,0x04,0x2a,
0x05,0x62,0x28,0x01,0x07,0x01,0x04,0x16,0x1d,0x7f,0x00,0x03,0xff,0x00,0xff,0x00,
0x02,0x18,0x00,0x05,0x02,0x08,0x02,0x00,0x20,0x01,0x2a,0x05,0x07,0x00,0x1d,0x2f,
0x00,0x02,0x15,0x04,0x2a,0x1c,0x30,0x00,0x04,0x05,0x24,0x10,0x1d,0x4d,0x00,0x02,
0x09,0x24,0x12,0x2a,0x05,0x02,0x0a,0x24,0x13,0x2a,0x05,0x02,0x0b,0x24,0x14,0x2a,
0x05,0x02,0x00,0x1c,0x79,0x00,0x02,0x2d,0x00,0x1d,0x5b,0x00,0x02,0x09,0x24,0x11,
0x2a,0x1c,0x76,0x00,0x02,0x0a,0x02,0x2f,0x00,0x2a,0x05,0x02,0x0b,0x02,0x30,0x00,
0x2a,0x05,0x02,0x0c,0x02,0x31,0x00,0x2a,0x05,0x02,0x09,0x02,0x2e,0x00,0x2a,0x05,
0x02,0x00,0x05,0x02,0x00,0x1c,0x9f,0x00,0x03,0x00,0xff,0x00,0x00,0x02,0x18,0x00,
0x05,0x02,0x0d,0x6a,0x2a,0x05,0x02,0x08,0x02,0x05,0x20,0x01,0x2a,0x05,0x07,0x01,
0x02,0xbc,0x00,0x05,0x04,0x63,0x05,0x04,0x05,0x02,0x00,0x01,0x02,0x01,0x00,0x07,
0x00,0x06,0x22,0x00,0x28,0x02,0x05,0x07,0x02,0x04,0x17,0x06,0x1d,0x17,0x00,0x05,
0x07,0x01,0x07,0x02,0x89,0x15,0x01,0x03,0x00,0x00,0x07,0x01,0x07,0x02,0x18,0x1d,
0x21,0x00,0x07,0x00,0x07,0x01,0x02,0x02,0x46,0x76,0x07,0x00,0x07,0x01,0x02,0x02,
0x09,0x07,0x02,0x02,0xc0,0x00,0x20,0x02,0x1c,0x22,0x00,0x04,0x01,0x01,0x03,0x00,
0x07,0x00,0x44,0x28,0x01,0x07,0x01,0x02,0x05,0x16,0x06,0x15,0x1d,0x15,0x00,0x05,
0x07,0x01,0x02,0x0d,0x16,0x1d,0x1d,0x00,0x07,0x00,0x1c,0x5d,0x00,0x07,0x00,0x03,
0x14,0x01,0x00,0x00,0x25,0x03,0x15,0x01,0x00,0x00,0x25,0x02,0x0c,0x00,0x28,0x02,
0x07,0x01,0x02,0x0a,0x18,0x1d,0x3d,0x00,0x02,0x00,0x1c,0x4c,0x00,0x07,0x01,0x02,
0x1a,0x18,0x1d,0x4a,0x00,0x02,0x05,0x1c,0x4c,0x00,0x02,0x0d,0x28,0x03,0x07,0x02,
0x02,0x00,0x07,0x03,0x02,0x01,0x11,0x02,0xc0,0x00,0x02,0x08,0x00,0x01,0x02,0x00,
0x00,0x07,0x00,0x02,0x01,0x16,0x1d,0x1b,0x00,0x02,0x05,0x07,0x01,0x44,0x16,0x1d,
0x16,0x00,0x24,0x17,0x1c,0x18,0x00,0x24,0x18,0x1c,0x2a,0x00,0x07,0x00,0x02,0x02,
0x16,0x1d,0x28,0x00,0x24,0x19,0x1c,0x2a,0x00,0x24,0x16,0x01,0x00,0x03,0x00,0x03,
0x00,0x80,0xff,0x00,0x02,0x18,0x00,0x05,0x24,0x15,0x04,0x16,0x1d,0x15,0x00,0x02,
0x00,0x1c,0x64,0x00,0x02,0x29,0x00,0x5f,0x28,0x00,0x02,0x2b,0x00,0x28,0x01,0x07,
0x00,0x02,0x01,0x16,0x1d,0x31,0x00,0x02,0x2a,0x00,0x02,0xc1,0x00,0x1c,0x40,0x00,
0x07,0x00,0x02,0x02,0x16,0x1d,0x3f,0x00,0x02,0x2c,0x00,0x1c,0x40,0x00,0x04,0x28,
0x02,0x07,0x02,0x02,0x1d,0x00,0x05,0x03,0x10,0x01,0x00,0x00,0x3d,0x2a,0x05,0x24,
0x15,0x2d,0x07,0x01,0x5f,0x07,0x00,0x07,0x02,0x02,0xc2,0x00,0x5f,0x07,0x02,0x6e,
0x05,0x02,0x01,0x01,0x00,0x06,0x00,0x69,0x28,0x00,0x07,0x00,0x03,0x12,0x01,0x00,
0x00,0x25,0x17,0x1d,0x1d,0x00,0x03,0x16,0x01,0x00,0x00,0x25,0x26,0x05,0x07,0x00,
0x5f,0x1c,0x1e,0x00,0x04,0x05,0x24,0x08,0x34,0x02,0x05,0x16,0x1d,0x2d,0x00,0x05,
0x04,0x1c,0x0f,0x02,0x34,0x02,0x00,0x16,0x1d,0x02,0x01,0x05,0x07,0x00,0x03,0x09,
0x01,0x00,0x00,0x25,0x16,0x1d,0xfe,0x00,0x02,0x0d,0x6a,0x02,0x00,0x02,0x01,0x02,
0x19,0x00,0x2a,0x05,0x03,0x00,0x80,0xff,0x00,0x02,0x18,0x00,0x05,0x24,0x10,0x1d,
0x8f,0x00,0x02,0x15,0x04,0x6d,0x02,0xbd,0x02,0x10,0x00,0x2a,0x02,0x1e,0x00,0x05,
0x03,0x0f,0x01,0x00,0x00,0x25,0x03,0x17,0x01,0x00,0x00,0x25,0x24,0x0d,0x02,0x05,
0x45,0x7a,0x47,0x02,0x01,0x6c,0x05,0x03,0x18,0x01,0x00,0x00,0x25,0x60,0x05,0x02,
0x01,0x20,0x01,0x1c,0xfb,0x00,0x24,0x15,0x04,0x16,0x1d,0xd9,0x00,0x02,0x28,0x00,
0x28,0x01,0x07,0x01,0x44,0x1d,0xa6,0x00,0x07,0x01,0x1c,0xa7,0x00,0x04,0x28,0x02,
0x07,0x02,0x6d,0x28,0x03,0x07,0x03,0x02,0xbd,0x02,0x10,0x00,0x28,0x04,0x07,0x02,
0x04,0x16,0x1d,0xc3,0x00,0x07,0x04,0x1c,0xcc,0x00,0x07,0x04,0x07,0x02,0x02,0xbf,
0x02,0x11,0x00,0x28,0x05,0x02,0x15,0x07,0x05,0x2a,0x02,0x1e,0x00,0x1c,0xda,0x00,
0x04,0x05,0x02,0xc3,0x00,0x1d,0xfa,0x00,0x02,0x28,0x00,0x26,0x05,0x03,0x19,0x01,
0x00,0x00,0x25,0x60,0x05,0x02,0x03,0x02,0x00,0x3d,0x20,0x02,0x20,0x02,0x1c,0xfb,
0x00,0x04,0x1c,0xff,0x00,0x04,0x1c,0x0f,0x02,0x34,0x02,0x01,0x16,0x1d,0x33,0x01,
0x05,0x07,0x00,0x03,0x0d,0x01,0x00,0x00,0x25,0x16,0x1d,0x2f,0x01,0x02,0xff,0x02,
0x18,0x00,0x05,0x03,0x1a,0x01,0x00,0x00,0x25,0x60,0x05,0x02,0x67,0x00,0x05,0x02,
0x02,0x20,0x01,0x1c,0x30,0x01,0x04,0x1c,0x0f,0x02,0x34,0x02,0x02,0x16,0x1d,0x5e,
0x01,0x05,0x24,0x10,0x15,0x1d,0x5a,0x01,0x02,0x01,0x02,0xbe,0x00,0x05,0x02,0x4a,
0x00,0x05,0x03,0x0e,0x01,0x00,0x00,0x25,0x04,0x02,0x0b,0x6c,0x05,0x04,0x1c,0x5b,
0x01,0x04,0x1c,0x0f,0x02,0x34,0x02,0x03,0x16,0x1d,0x9b,0x01,0x22,0x01,0x28,0x01,
0x07,0x00,0x03,0x0c,0x01,0x00,0x00,0x25,0x16,0x1d,0x97,0x01,0x03,0x1b,0x01,0x00,
0x00,0x25,0x60,0x05,0x02,0x2d,0x00,0x1d,0x89,0x01,0x02,0x66,0x00,0x1c,0x8a,0x01,
0x04,0x05,0x02,0x77,0x00,0x05,0x02,0x04,0x3d,0x20,0x02,0x1c,0x98,0x01,0x04,0x1c,
0x0f,0x02,0x34,0x02,0x04,0x16,0x1d,0xd7,0x01,0x22,0x01,0x28,0x01,0x24,0x09,0x24,
0x11,0x17,0x1d,0xbd,0x01,0x03,0x1c,0x01,0x00,0x00,0x25,0x60,0x05,0x02,0x05,0x20,
0x01,0x1c,0xd4,0x01,0x3d,0x07,0x01,0x0a,0x02,0x03,0x19,0x1d,0xd3,0x01,0x02,0x66,
0x00,0x05,0x02,0x04,0x3d,0x20,0x02,0x1c,0xd4,0x01,0x04,0x1c,0x0f,0x02,0x34,0x02,
0x06,0x16,0x1d,0x0d,0x02,0x05,0x03,0x0e,0x01,0x00,0x00,0x25,0x04,0x02,0x0b,0x6c,
0x05,0x02,0xc3,0x00,0x1d,0x09,0x02,0x02,0x28,0x00,0x26,0x05,0x03,0x1d,0x01,0x00,
0x00,0x25,0x60,0x05,0x02,0x03,0x02,0x00,0x3d,0x20,0x02,0x20,0x02,0x1c,0x0a,0x02,
0x04,0x1c,0x0f,0x02,0x05,0x04,0x28,0x01,0x07,0x01,0x04,0x17,0x1d,0x20,0x02,0x02,
0x08,0x07,0x01,0x2a,0x1c,0x21,0x02,0x04,0x05,0x03,0x12,0x01,0x00,0x00,0x07,0x00,
0x2a,0x05,0x03,0x13,0x01,0x00,0x00,0x25,0x3d,0x17,0x1d,0x4b,0x02,0x03,0x13,0x01,
0x00,0x00,0x3d,0x2a,0x05,0x02,0x6a,0x00,0x05,0x02,0x76,0x00,0x05,0x02,0x00,0x1c,
0x4c,0x02,0x04,0x01,0x00,0x00,0x00,0x24,0x08,0x34,0x02,0x05,0x16,0x1d,0x0f,0x00,
0x05,0x02,0x01,0x1c,0x12,0x00,0x05,0x02,0x00,0x01,0x00,0x00,0x00,0x24,0x08,0x34,
0x02,0x05,0x16,0x1d,0x0f,0x00,0x05,0x02,0x01,0x1c,0x12,0x00,0x05,0x02,0x00,0x01,
0x01,0x02,0x00,0x07,0x00,0x02,0x06,0x12,0x02,0x03,0x0e,0x28,0x01,0x07,0x00,0x02,
0xff,0x0e,0x28,0x02,0x07,0x01,0x02,0x00,0x16,0x1d,0x25,0x00,0x03,0x1f,0x01,0x00,
0x00,0x25,0x07,0x02,0x23,0x1c,0x65,0x00,0x07,0x01,0x02,0x01,0x16,0x1d,0x3f,0x00,
0x02,0xff,0x03,0x1f,0x01,0x00,0x00,0x25,0x02,0x7f,0x07,0x02,0x0a,0x23,0x0a,0x1c,
0x65,0x00,0x07,0x01,0x02,0x02,0x16,0x1d,0x59,0x00,0x02,0xff,0x03,0x1f,0x01,0x00,
0x00,0x25,0x07,0x02,0x02,0x80,0x0a,0x23,0x0a,0x1c,0x65,0x00,0x03,0x1f,0x01,0x00,
0x00,0x25,0x02,0xff,0x07,0x02,0x0a,0x23,0x01,0x02,0x07,0x00,0x03,0xc7,0x01,0x00,
0x00,0x25,0x60,0x05,0x24,0xc1,0x15,0x1d,0xae,0x01,0x04,0x28,0x02,0x07,0x01,0x02,
0x84,0x00,0x02,0x1d,0x00,0x02,0xdf,0x00,0x28,0x03,0x07,0x03,0x04,0x17,0x1d,0x30,
0x00,0x03,0x24,0x01,0x00,0x00,0x02,0x00,0x2a,0x1c,0x31,0x00,0x04,0x05,0x07,0x03,
0x28,0x04,0x04,0x07,0x04,0x04,0x17,0x1d,0x34,0x01,0x1c,0x49,0x00,0x07,0x04,0x2e,
0x28,0x04,0x1c,0x37,0x00,0x05,0x07,0x04,0x2d,0x06,0x22,0x00,0x28,0x05,0x06,0x22,
0x01,0x28,0x06,0x05,0x07,0x05,0x27,0x05,0x03,0xc8,0x01,0x00,0x00,0x25,0x26,0x05,
0x07,0x05,0x02,0x03,0x16,0x1d,0x7e,0x00,0x03,0x26,0x01,0x00,0x00,0x07,0x06,0x02,
0x00,0x45,0x02,0x01,0x0b,0x5f,0x2a,0x1c,0x7f,0x00,0x04,0x05,0x07,0x05,0x02,0x04,
0x16,0x1d,0xea,0x00,0x07,0x06,0x02,0x04,0x04,0x46,0x02,0xb4,0x00,0x05,0x07,0x06,
0x02,0x14,0x45,0x28,0x07,0x07,0x06,0x02,0x15,0x45,0x28,0x08,0x03,0x29,0x01,0x00,
0x00,0x25,0x04,0x17,0x06,0x1d,0xc5,0x00,0x05,0x07,0x07,0x03,0x29,0x01,0x00,0x00,
0x25,0x17,0x06,0x15,0x1d,0xc5,0x00,0x05,0x07,0x08,0x03,0x2a,0x01,0x00,0x00,0x25,
0x17,0x1d,0xd4,0x00,0x03,0x44,0x01,0x00,0x00,0x25,0x02,0xca,0x00,0x1c,0xd5,0x00,
0x04,0x05,0x03,0x29,0x01,0x00,0x00,0x07,0x07,0x2a,0x05,0x03,0x2a,0x01,0x00,0x00,
0x07,0x08,0x2a,0x1c,0xeb,0x00,0x04,0x05,0x07,0x05,0x02,0x0a,0x16,0x1d,0x12,0x01,
0x07,0x06,0x02,0x01,0x04,0x02,0x47,0x02,0x2f,0x91,0x05,0x02,0x02,0x07,0x06,0x02,
0x01,0x02,0xd8,0x00,0x02,0xd9,0x00,0x2f,0x05,0x02,0x00,0x1c,0x13,0x01,0x04,0x05,
0x07,0x05,0x02,0x09,0x16,0x1d,0x2d,0x01,0x03,0x58,0xfe,0x07,0x04,0x03,0x54,0x67,
0xfb,0x13,0x88,0x05,0x02,0x00,0x1c,0x2e,0x01,0x04,0x05,0x02,0x00,0x1c,0x41,0x00,
0x05,0x07,0x02,0x04,0x16,0x1d,0xa0,0x01,0x03,0x25,0x01,0x00,0x00,0x25,0x03,0x32,
0x01,0x00,0x00,0x25,0x16,0x1d,0x8b,0x01,0x02,0x00,0x03,0x29,0x01,0x00,0x00,0x25,
0x02,0x00,0x02,0xad,0x00,0x05,0x02,0x01,0x03,0x2a,0x01,0x00,0x00,0x25,0x02,0x00,
0x02,0xad,0x00,0x05,0x02,0xfd,0x00,0x1d,0x76,0x01,0x02,0xf3,0x00,0x05,0x04,0x1c,
0x88,0x01,0x03,0x21,0x01,0x00,0x00,0x02,0x0b,0x3d,0x03,0x26,0x01,0x00,0x00,0x25,
0x09,0x20,0x02,0x2a,0x1c,0x9d,0x01,0x03,0x21,0x01,0x00,0x00,0x02,0x0b,0x3d,0x03,
0x26,0x01,0x00,0x00,0x25,0x09,0x20,0x02,0x2a,0x1c,0xab,0x01,0x03,0x21,0x01,0x00,
0x00,0x07,0x02,0x02,0xe3,0x00,0x2a,0x1c,0xaf,0x01,0x04,0x05,0x02,0x00,0x01,0x00,
0x00,0x00,0x03,0x64,0x01,0x00,0x00,0x25,0x04,0x16,0x1d,0xa6,0x00,0x03,0x64,0x01,
0x00,0x00,0x03,0x48,0x01,0x00,0x00,0x25,0x03,0x49,0x01,0x00,0x00,0x25,0x03,0x4a,
0x01,0x00,0x00,0x25,0x03,0x4b,0x01,0x00,0x00,0x25,0x03,0x4c,0x01,0x00,0x00,0x25,
0x03,0x4d,0x01,0x00,0x00,0x25,0x03,0x4e,0x01,0x00,0x00,0x25,0x03,0x4f,0x01,0x00,
0x00,0x25,0x03,0x50,0x01,0x00,0x00,0x25,0x03,0x51,0x01,0x00,0x00,0x25,0x03,0x52,
0x01,0x00,0x00,0x25,0x03,0x53,0x01,0x00,0x00,0x25,0x03,0x54,0x01,0x00,0x00,0x25,
0x03,0x55,0x01,0x00,0x00,0x25,0x03,0x56,0x01,0x00,0x00,0x25,0x03,0x57,0x01,0x00,
0x00,0x25,0x03,0x58,0x01,0x00,0x00,0x25,0x03,0x59,0x01,0x00,0x00,0x25,0x03,0x5a,
0x01,0x00,0x00,0x25,0x03,0x5b,0x01,0x00,0x00,0x25,0x03,0x5c,0x01,0x00,0x00,0x25,
0x03,0x5d,0x01,0x00,0x00,0x25,0x03,0x5e,0x01,0x00,0x00,0x25,0x03,0x5f,0x01,0x00,
0x00,0x25,0x20,0x18,0x2a,0x1c,0xa7,0x00,0x04,0x05,0x03,0x64,0x01,0x00,0x00,0x25,
0x01,0x01,0x00,0x00,0x07,0x00,0x04,0x20,0x02,0x02,0x98,0x00,0x05,0x02,0x00,0x01,
0x00,0x01,0x00,0x4d,0x28,0x00,0x07,0x00,0x03,0x65,0x01,0x00,0x00,0x25,0x17,0x1d,
0x6e,0x00,0x03,0x65,0x01,0x00,0x00,0x07,0x00,0x2a,0x05,0x07,0x00,0x1d,0x55,0x00,
0x03,0x66,0x01,0x00,0x00,0x25,0x04,0x16,0x1d,0x3b,0x00,0x03,0x68,0x01,0x00,0x00,
0x02,0x01,0x2a,0x05,0x03,0x66,0x01,0x00,0x00,0x35,0x2a,0x1c,0x52,0x00,0x03,0x68,
0x01,0x00,0x00,0x03,0x68,0x01,0x00,0x00,0x25,0x02,0x01,0x09,0x2a,0x05,0x03,0x66,
0x01,0x00,0x00,0x35,0x2a,0x1c,0x6b,0x00,0x03,0x66,0x01,0x00,0x00,0x25,0x04,0x17,
0x1d,0x6a,0x00,0x03,0x66,0x01,0x00,0x00,0x35,0x2a,0x1c,0x6b,0x00,0x04,0x1c,0x13,
0x01,0x03,0x66,0x01,0x00,0x00,0x25,0x04,0x17,0x1d,0x12,0x01,0x35,0x03,0x66,0x01,
0x00,0x00,0x25,0x0a,0x03,0x6e,0x01,0x00,0x00,0x25,0x1b,0x1d,0xc4,0x00,0x03,0x65,
0x01,0x00,0x00,0x25,0x1d,0xb8,0x00,0x03,0x67,0x01,0x00,0x00,0x03,0x68,0x01,0x00,
0x00,0x25,0x02,0x01,0x16,0x1d,0xae,0x00,0x03,0x6b,0x01,0x00,0x00,0x25,0x1c,0xb4,
0x00,0x03,0x6c,0x01,0x00,0x00,0x25,0x2a,0x1c,0xb9,0x00,0x04,0x05,0x03,0x66,0x01,
0x00,0x00,0x04,0x2a,0x1c,0x0f,0x01,0x35,0x03,0x66,0x01,0x00,0x00,0x25,0x0a,0x03,
0x6d,0x01,0x00,0x00,0x25,0x1b,0x06,0x1d,0xdf,0x00,0x05,0x03,0x65,0x01,0x00,0x00,
0x25,0x15,0x1d,0x0e,0x01,0x03,0x67,0x01,0x00,0x00,0x03,0x68,0x01,0x00,0x00,0x25,
0x02,0x01,0x16,0x1d,0xfc,0x00,0x03,0x69,0x01,0x00,0x00,0x25,0x1c,0x02,0x01,0x03,
0x6a,0x01,0x00,0x00,0x25,0x2a,0x05,0x03,0x66,0x01,0x00,0x00,0x04,0x2a,0x1c,0x0f,
0x01,0x04,0x1c,0x13,0x01,0x04,0x01,0x00,0x01,0x00,0x03,0x67,0x01,0x00,0x00,0x25,
0x28,0x00,0x03,0x67,0x01,0x00,0x00,0x04,0x2a,0x05,0x07,0x00,0x01,0x00,0x01,0x00,
0x02,0xc4,0x00,0x05,0x69,0x03,0x09,0x01,0x00,0x00,0x25,0x16,0x1d,0x33,0x00,0x24,
0x08,0x34,0x02,0x00,0x16,0x1d,0x1d,0x00,0x05,0x04,0x1c,0x30,0x00,0x05,0x03,0xd1,
0x01,0x00,0x00,0x25,0x60,0x05,0x02,0x08,0x02,0x06,0x20,0x01,0x2a,0x05,0x02,0x00,
0x1c,0x34,0x00,0x04,0x05,0x02,0xcb,0x00,0x05,0x03,0x21,0x01,0x00,0x00,0x25,0x34,
0x02,0x00,0x16,0x1d,0x5b,0x00,0x05,0x02,0xa5,0x00,0x05,0x03,0x02,0x01,0x00,0x00,
0x00,0x05,0x02,0xdb,0x00,0x05,0x02,0x00,0x1c,0x80,0x02,0x34,0x02,0x01,0x16,0x1d,
0x7c,0x00,0x22,0x01,0x28,0x00,0x02,0xa5,0x00,0x05,0x03,0x02,0x01,0x00,0x00,0x00,
0x05,0x07,0x00,0x02,0xdc,0x00,0x05,0x02,0x00,0x1c,0x80,0x02,0x34,0x02,0x02,0x16,
0x1d,0xac,0x00,0x05,0x02,0xa5,0x00,0x05,0x03,0x25,0x01,0x00,0x00,0x25,0x03,0x33,
0x01,0x00,0x00,0x25,0x17,0x1d,0xa1,0x00,0x03,0x02,0x01,0x00,0x00,0x00,0x1c,0xa2,
0x00,0x04,0x05,0x02,0xfe,0x00,0x05,0x02,0x00,0x1c,0x80,0x02,0x34,0x02,0x03,0x16,
0x1d,0xfd,0x00,0x22,0x01,0x28,0x00,0x02,0xa5,0x00,0x05,0x03,0x25,0x01,0x00,0x00,
0x25,0x03,0x33,0x01,0x00,0x00,0x25,0x17,0x1d,0xd8,0x00,0x02,0xb3,0x00,0x05,0x03,
0x02,0x01,0x00,0x00,0x00,0x1c,0xd9,0x00,0x04,0x05,0x07,0x00,0x02,0xff,0x00,0x05,
0x03,0x25,0x01,0x00,0x00,0x25,0x03,0x33,0x01,0x00,0x00,0x25,0x17,0x1d,0xf9,0x00,
0x03,0xcf,0x01,0x00,0x00,0x25,0x1c,0xfa,0x00,0x04,0x1c,0x80,0x02,0x34,0x02,0x0b,
0x16,0x1d,0x51,0x01,0x22,0x01,0x28,0x00,0x02,0xa5,0x00,0x05,0x03,0x25,0x01,0x00,
0x00,0x25,0x03,0x33,0x01,0x00,0x00,0x25,0x17,0x1d,0x29,0x01,0x02,0xb3,0x00,0x05,
0x03,0x02,0x01,0x00,0x00,0x00,0x1c,0x2a,0x01,0x04,0x05,0x07,0x00,0x03,0x00,0x01,
0x00,0x00,0x00,0x05,0x03,0x25,0x01,0x00,0x00,0x25,0x03,0x33,0x01,0x00,0x00,0x25,
0x17,0x1d,0x4d,0x01,0x03,0xcf,0x01,0x00,0x00,0x25,0x1c,0x4e,0x01,0x04,0x1c,0x80,
0x02,0x34,0x02,0x04,0x16,0x1d,0x75,0x01,0x05,0x02,0xa5,0x00,0x05,0x02,0xb3,0x00,
0x05,0x03,0x02,0x01,0x00,0x00,0x00,0x05,0x02,0xe6,0x00,0x05,0x03,0xcf,0x01,0x00,
0x00,0x25,0x1c,0x80,0x02,0x34,0x02,0x05,0x16,0x1d,0x9e,0x01,0x22,0x01,0x28,0x00,
0x02,0xa5,0x00,0x05,0x02,0xb3,0x00,0x05,0x03,0x02,0x01,0x00,0x00,0x00,0x05,0x07,
0x00,0x02,0xe7,0x00,0x05,0x03,0xcf,0x01,0x00,0x00,0x25,0x1c,0x80,0x02,0x34,0x02,
0x06,0x16,0x1d,0xb7,0x01,0x05,0x02,0xa5,0x00,0x05,0x02,0xe8,0x00,0x05,0x03,0xd0,
0x01,0x00,0x00,0x25,0x1c,0x80,0x02,0x34,0x02,0x09,0x16,0x1d,0xd5,0x01,0x22,0x01,
0x28,0x00,0x02,0xa5,0x00,0x05,0x07,0x00,0x02,0xfb,0x00,0x05,0x03,0xd0,0x01,0x00,
0x00,0x25,0x1c,0x80,0x02,0x34,0x02,0x07,0x16,0x1d,0xf3,0x01,0x22,0x01,0x28,0x00,
0x02,0xa5,0x00,0x05,0x07,0x00,0x02,0xf7,0x00,0x05,0x03,0xd0,0x01,0x00,0x00,0x25,
0x1c,0x80,0x02,0x34,0x02,0x08,0x16,0x1d,0x0d,0x02,0x22,0x01,0x28,0x00,0x07,0x00,
0x02,0xfa,0x00,0x05,0x03,0xd0,0x01,0x00,0x00,0x25,0x1c,0x80,0x02,0x34,0x02,0x0a,
0x16,0x1d,0x29,0x02,0x05,0x02,0xa5,0x00,0x05,0x03,0x01,0x01,0x00,0x00,0x00,0x05,
0x03,0xcf,0x01,0x00,0x00,0x25,0x1c,0x80,0x02,0x34,0x02,0x0c,0x16,0x1d,0x46,0x02,
0x22,0x01,0x28,0x00,0x03,0x02,0x01,0x00,0x00,0x00,0x05,0x07,0x00,0x02,0xea,0x00,
0x05,0x02,0x00,0x1c,0x80,0x02,0x34,0x02,0x0d,0x16,0x1d,0x57,0x02,0x05,0x02,0xf1,
0x00,0x05,0x02,0x00,0x1c,0x80,0x02,0x34,0x02,0x0e,0x16,0x1d,0x6c,0x02,0x05,0x02,
0xa5,0x00,0x05,0x02,0xfc,0x00,0x05,0x02,0x00,0x1c,0x80,0x02,0x34,0x02,0x0f,0x16,
0x1d,0x7d,0x02,0x05,0x02,0xed,0x00,0x05,0x02,0x00,0x1c,0x80,0x02,0x05,0x02,0x00,
0x28,0x00,0x07,0x00,0x03,0xcf,0x01,0x00,0x00,0x25,0x16,0x1d,0x97,0x02,0x03,0x07,
0x01,0x00,0x00,0x00,0x1c,0xaf,0x02,0x07,0x00,0x03,0xd0,0x01,0x00,0x00,0x25,0x16,
0x1d,0xac,0x02,0x03,0x06,0x01,0x00,0x00,0x00,0x1c,0xaf,0x02,0x02,0xcc,0x00,0x05,
0x02,0xf0,0x00,0x05,0x02,0x9b,0x00,0x05,0x02,0x8f,0x00,0x05,0x02,0x00,0x01,0x02,
0x00,0x00,0x07,0x01,0x07,0x00,0x44,0x18,0x1d,0x1e,0x00,0x07,0x00,0x07,0x01,0x45,
0x7a,0x07,0x00,0x07,0x01,0x02,0x01,0x09,0x02,0xce,0x00,0x20,0x02,0x1c,0x1f,0x00,
0x04,0x01,0x01,0x00,0x00,0x07,0x00,0x02,0x00,0x02,0xce,0x00,0x49,0x01,0x00,0x00,
0x00,0x02,0x32,0x00,0x03,0x6f,0x01,0x00,0x00,0x25,0x6a,0x02,0xcf,0x00,0x03,0x70,
0x01,0x00,0x00,0x25,0x24,0x06,0x77,0x04,0x20,0x02,0x20,0x02,0x20,0x02,0x20,0x02,
0x20,0x02,0x49,0x01,0x01,0x00,0x00,0x07,0x00,0x03,0x32,0x01,0x00,0x00,0x25,0x16,
0x1d,0x15,0x00,0x03,0x71,0x01,0x00,0x00,0x25,0x1c,0x2d,0x00,0x07,0x00,0x03,0x33,
0x01,0x00,0x00,0x25,0x16,0x1d,0x2a,0x00,0x03,0x72,0x01,0x00,0x00,0x25,0x1c,0x2d,
0x00,0x07,0x00,0x79,0x01,0x00,0x00,0x00,0x03,0x22,0x01,0x00,0x00,0x25,0x03,0x73,
0x01,0x00,0x00,0x25,0x6a,0x02,0xcf,0x00,0x03,0x74,0x01,0x00,0x00,0x25,0x24,0x1d,
0x77,0x03,0x75,0x01,0x00,0x00,0x25,0x03,0x24,0x01,0x00,0x00,0x25,0x79,0x03,0x76,
0x01,0x00,0x00,0x25,0x03,0x25,0x01,0x00,0x00,0x25,0x02,0xd1,0x00,0x03,0x77,0x01,
0x00,0x00,0x25,0x24,0x06,0x77,0x04,0x20,0x02,0x20,0x02,0x20,0x02,0x20,0x02,0x20,
0x02,0x20,0x02,0x20,0x02,0x20,0x02,0x20,0x02,0x20,0x02,0x20,0x02,0x49,0x01,0x01,
0x00,0x00,0x03,0x22,0x01,0x00,0x00,0x25,0x03,0x78,0x01,0x00,0x00,0x25,0x6a,0x02,
0xcf,0x00,0x03,0x79,0x01,0x00,0x00,0x25,0x24,0x1d,0x77,0x03,0x7a,0x01,0x00,0x00,
0x25,0x24,0x06,0x77,0x03,0x7b,0x01,0x00,0x00,0x25,0x07,0x00,0x77,0x04,0x20,0x02,
0x20,0x02,0x20,0x02,0x20,0x02,0x20,0x02,0x20,0x02,0x20,0x02,0x20,0x02,0x20,0x02,
0x49,0x01,0x01,0x00,0x00,0x03,0x22,0x01,0x00,0x00,0x25,0x03,0x7c,0x01,0x00,0x00,
0x25,0x6a,0x02,0xcf,0x00,0x03,0x7d,0x01,0x00,0x00,0x25,0x24,0x1d,0x77,0x03,0x7e,
0x01,0x00,0x00,0x25,0x24,0x06,0x77,0x03,0x7f,0x01,0x00,0x00,0x25,0x07,0x00,0x02,
0xcf,0x00,0x04,0x20,0x02,0x20,0x02,0x20,0x02,0x20,0x02,0x20,0x02,0x20,0x02,0x20,
0x02,0x20,0x02,0x20,0x02,0x49,0x01,0x00,0x00,0x00,0x03,0x21,0x01,0x00,0x00,0x02,
0x00,0x20,0x01,0x2a,0x01,0x01,0x01,0x00,0x07,0x00,0x03,0x80,0x01,0x00,0x00,0x25,
0x02,0x00,0x02,0x02,0x00,0x28,0x01,0x07,0x01,0x04,0x17,0x1d,0x2b,0x00,0x07,0x00,
0x02,0x00,0x07,0x01,0x46,0x07,0x00,0x07,0x01,0x02,0x01,0x09,0x04,0x46,0x20,0x02,
0x1c,0x30,0x00,0x07,0x00,0x04,0x20,0x02,0x01,0x02,0x01,0x00,0x07,0x00,0x03,0x81,
0x01,0x00,0x00,0x25,0x07,0x01,0x02,0x02,0x00,0x28,0x02,0x07,0x02,0x04,0x17,0x1d,
0x32,0x00,0x07,0x00,0x07,0x01,0x07,0x02,0x07,0x01,0x0a,0x46,0x02,0xd6,0x00,0x07,
0x00,0x07,0x02,0x02,0x01,0x09,0x02,0xd7,0x00,0x20,0x02,0x1c,0x4b,0x00,0x07,0x01,
0x07,0x00,0x44,0x18,0x1d,0x4a,0x00,0x07,0x00,0x07,0x01,0x04,0x46,0x02,0xd6,0x00,
0x04,0x20,0x02,0x1c,0x4b,0x00,0x04,0x01,0x02,0x01,0x00,0x07,0x00,0x03,0x82,0x01,
0x00,0x00,0x25,0x03,0x83,0x01,0x00,0x00,0x25,0x02,0x0c,0x00,0x28,0x02,0x07,0x02,
0x07,0x01,0x02,0xd7,0x00,0x01,0x01,0x03,0x00,0x03,0x84,0x01,0x00,0x00,0x25,0x60,
0x05,0x07,0x00,0x28,0x01,0x04,0x07,0x01,0x04,0x17,0x1d,0x40,0x00,0x1c,0x1f,0x00,
0x07,0x01,0x2e,0x28,0x01,0x1c,0x0d,0x00,0x05,0x07,0x01,0x2d,0x06,0x22,0x00,0x28,
0x02,0x06,0x22,0x01,0x28,0x03,0x05,0x07,0x02,0x26,0x05,0x03,0x85,0x01,0x00,0x00,
0x25,0x26,0x05,0x07,0x03,0x60,0x1c,0x17,0x00,0x05,0x07,0x00,0x01,0x02,0x01,0x00,
0x03,0x86,0x01,0x00,0x00,0x25,0x60,0x05,0x07,0x01,0x02,0x84,0x00,0x60,0x02,0x00,
0x02,0xd8,0x00,0x28,0x02,0x03,0x22,0x01,0x00,0x00,0x07,0x02,0x03,0x87,0x01,0x00,
0x00,0x25,0x7d,0x2a,0x05,0x03,0x23,0x01,0x00,0x00,0x07,0x02,0x03,0x88,0x01,0x00,
0x00,0x25,0x7d,0x2a,0x05,0x03,0x22,0x01,0x00,0x00,0x25,0x04,0x17,0x06,0x1d,0x4a,
0x00,0x05,0x03,0x23,0x01,0x00,0x00,0x25,0x04,0x17,0x1d,0x5a,0x00,0x03,0x21,0x01,
0x00,0x00,0x02,0x02,0x20,0x01,0x2a,0x1c,0x5b,0x00,0x04,0x05,0x02,0x00,0x01,0x00,
0x00,0x00,0x69,0x03,0x0c,0x01,0x00,0x00,0x25,0x16,0x06,0x1d,0x13,0x00,0x05,0x02,
0x94,0x00,0x02,0x00,0x16,0x1d,0x35,0x00,0x03,0x21,0x01,0x00,0x00,0x02,0x01,0x03,
0x89,0x01,0x00,0x00,0x25,0x02,0xd0,0x00,0x60,0x04,0x02,0xda,0x24,0xaa,0x02,0x7e,
0x00,0x20,0x02,0x2a,0x1c,0x36,0x00,0x04,0x05,0x02,0x00,0x01,0x01,0x00,0x00,0x07,
0x00,0x02,0x82,0x00,0x03,0x10,0x27,0x00,0x00,0x19,0x1d,0x29,0x00,0x03,0x8a,0x01,
0x00,0x00,0x25,0x60,0x05,0x07,0x00,0x02,0x7f,0x00,0x05,0x03,0x21,0x01,0x00,0x00,
0x02,0x00,0x20,0x01,0x2a,0x1c,0x2a,0x00,0x04,0x05,0x02,0x00,0x01,0x02,0x00,0x00,
0x07,0x00,0x07,0x01,0x45,0x02,0x10,0x11,0x07,0x00,0x07,0x01,0x02,0x01,0x09,0x45,
0x02,0x08,0x11,0x09,0x07,0x00,0x07,0x01,0x02,0x02,0x09,0x45,0x09,0x01,0x03,0x02,
0x00,0x07,0x01,0x07,0x00,0x44,0x18,0x1d,0x6d,0x00,0x07,0x00,0x07,0x01,0x45,0x28,
0x03,0x07,0x03,0x02,0xff,0x16,0x1d,0x1d,0x00,0x07,0x02,0x1c,0x6a,0x00,0x07,0x03,
0x02,0x00,0x1b,0x06,0x1d,0x2c,0x00,0x05,0x07,0x03,0x02,0x0a,0x1a,0x1d,0x69,0x00,
0x07,0x00,0x07,0x01,0x02,0x01,0x09,0x02,0xdd,0x00,0x28,0x04,0x07,0x04,0x02,0x00,
0x1b,0x1d,0x65,0x00,0x07,0x00,0x07,0x01,0x02,0x04,0x09,0x07,0x04,0x09,0x07,0x03,
0x07,0x00,0x07,0x01,0x02,0x04,0x09,0x07,0x04,0x46,0x20,0x02,0x07,0x02,0x20,0x02,
0x02,0xde,0x00,0x1c,0x66,0x00,0x04,0x1c,0x6a,0x00,0x04,0x1c,0x6e,0x00,0x04,0x01,
0x01,0x00,0x00,0x07,0x00,0x02,0x00,0x45,0x02,0x7f,0x16,0x1d,0x16,0x00,0x07,0x00,
0x02,0x01,0x04,0x02,0xde,0x00,0x1c,0x17,0x00,0x04,0x01,0x02,0x00,0x00,0x07,0x00,
0x04,0x17,0x06,0x1d,0x0f,0x00,0x05,0x07,0x01,0x07,0x00,0x44,0x18,0x1d,0x30,0x00,
0x07,0x00,0x07,0x01,0x45,0x07,0x00,0x07,0x01,0x02,0x01,0x09,0x45,0x20,0x02,0x07,
0x00,0x07,0x01,0x02,0x02,0x09,0x02,0xe0,0x00,0x20,0x02,0x1c,0x31,0x00,0x04,0x01,
0x01,0x00,0x00,0x02,0x00,0x07,0x00,0x03,0x30,0x01,0x00,0x00,0x25,0x02,0x00,0x02,
0x02,0x00,0x16,0x1d,0x28,0x00,0x03,0x23,0x01,0x00,0x00,0x25,0x07,0x00,0x03,0x30,
0x01,0x00,0x00,0x25,0x44,0x04,0x46,0x47,0x1c,0x2a,0x00,0x07,0x00,0x01,0x01,0x02,
0x00,0x07,0x00,0x04,0x17,0x1d,0x71,0x00,0x07,0x00,0x2d,0x06,0x22,0x00,0x28,0x01,
0x06,0x22,0x01,0x28,0x02,0x05,0x07,0x01,0x03,0x8b,0x01,0x00,0x00,0x25,0x89,0x15,
0x06,0x15,0x1d,0x2f,0x00,0x05,0x07,0x01,0x03,0x8c,0x01,0x00,0x00,0x25,0x89,0x15,
0x1d,0x46,0x00,0x07,0x02,0x03,0xe0,0x93,0x04,0x00,0x20,0x02,0x07,0x00,0x2e,0x02,
0xe2,0x00,0x20,0x02,0x1c,0x6e,0x00,0x07,0x01,0x03,0x8d,0x01,0x00,0x00,0x25,0x89,
0x15,0x1d,0x68,0x00,0x07,0x02,0x03,0x31,0x01,0x00,0x00,0x25,0x20,0x02,0x07,0x00,
0x2e,0x02,0xe2,0x00,0x20,0x02,0x1c,0x6e,0x00,0x07,0x00,0x2e,0x02,0xe2,0x00,0x1c,
0x72,0x00,0x04,0x01,0x01,0x01,0x00,0x03,0x8e,0x01,0x00,0x00,0x25,0x60,0x05,0x07,
0x00,0x03,0x8f,0x01,0x00,0x00,0x25,0x7d,0x75,0x28,0x01,0x07,0x01,0x79,0x60,0x05,
0x07,0x01,0x03,0x32,0x01,0x00,0x00,0x25,0x16,0x1d,0x85,0x00,0x03,0x25,0x01,0x00,
0x00,0x25,0x03,0x32,0x01,0x00,0x00,0x25,0x16,0x1d,0x60,0x00,0x02,0x00,0x03,0x29,
0x01,0x00,0x00,0x25,0x02,0x00,0x02,0xad,0x00,0x05,0x02,0x01,0x03,0x2a,0x01,0x00,
0x00,0x25,0x02,0x00,0x02,0xad,0x00,0x05,0x02,0x0b,0x3d,0x03,0x26,0x01,0x00,0x00,
0x25,0x09,0x20,0x02,0x1c,0x82,0x00,0x03,0x25,0x01,0x00,0x00,0x07,0x01,0x2a,0x05,
0x03,0x90,0x01,0x00,0x00,0x25,0x60,0x05,0x03,0xff,0x00,0xff,0x00,0x02,0x18,0x00,
0x05,0x02,0x9f,0x00,0x05,0x02,0x0a,0x20,0x01,0x1c,0xd7,0x00,0x07,0x01,0x03,0x33,
0x01,0x00,0x00,0x25,0x16,0x1d,0xb6,0x00,0x03,0x25,0x01,0x00,0x00,0x07,0x01,0x2a,
0x05,0x03,0x91,0x01,0x00,0x00,0x25,0x60,0x05,0x03,0xff,0x00,0xff,0x00,0x02,0x18,
0x00,0x05,0x02,0x9f,0x00,0x05,0x02,0x0e,0x20,0x01,0x1c,0xd7,0x00,0x03,0x2b,0x01,
0x00,0x00,0x07,0x00,0x2a,0x05,0x03,0x2d,0x01,0x00,0x00,0x07,0x00,0x02,0xe2,0x00,
0x2a,0x05,0x03,0x2e,0x01,0x00,0x00,0x04,0x2a,0x05,0x02,0x04,0x20,0x01,0x01,0x03,
0x01,0x00,0x24,0xc1,0x1d,0x0f,0x00,0x07,0x00,0x02,0x7f,0x00,0x05,0x04,0x1c,0x9c,
0x00,0x07,0x01,0x04,0x17,0x1d,0x56,0x00,0x03,0x2f,0x01,0x00,0x00,0x07,0x01,0x03,
0x2f,0x01,0x00,0x00,0x25,0x20,0x02,0x2a,0x05,0x07,0x02,0x04,0x17,0x06,0x1d,0x3c,
0x00,0x05,0x03,0x2f,0x01,0x00,0x00,0x25,0x02,0x06,0x00,0x07,0x02,0x19,0x1d,0x4f,
0x00,0x07,0x00,0x02,0x7f,0x00,0x05,0x07,0x00,0x04,0x04,0x02,0xe4,0x00,0x1c,0x50,
0x00,0x04,0x05,0x02,0x00,0x1c,0x9c,0x00,0x03,0x2d,0x01,0x00,0x00,0x25,0x2d,0x06,
0x22,0x00,0x28,0x03,0x05,0x03,0x2e,0x01,0x00,0x00,0x07,0x03,0x03,0x2f,0x01,0x00,
0x00,0x25,0x04,0x02,0x0d,0x00,0x2e,0x20,0x02,0x03,0x2e,0x01,0x00,0x00,0x25,0x20,
0x02,0x2a,0x05,0x03,0x2d,0x01,0x00,0x00,0x03,0x2d,0x01,0x00,0x00,0x25,0x2e,0x2a,
0x05,0x03,0x21,0x01,0x00,0x00,0x02,0x04,0x20,0x01,0x2a,0x05,0x02,0x00,0x01,0x00,
0x00,0x00,0x03,0x00,0x00,0xff,0x00,0x02,0x18,0x00,0x05,0x02,0x9f,0x00,0x05,0x03,
0x3f,0x01,0x00,0x00,0x02,0x08,0x02,0xff,0x36,0x2a,0x05,0x03,0x21,0x01,0x00,0x00,
0x02,0x06,0x20,0x01,0x2a,0x05,0x03,0x25,0x01,0x00,0x00,0x03,0x2b,0x01,0x00,0x00,
0x25,0x03,0x92,0x01,0x00,0x00,0x25,0x7d,0x75,0x2a,0x05,0x02,0x00,0x01,0x00,0x02,
0x00,0x03,0x2d,0x01,0x00,0x00,0x25,0x2d,0x06,0x22,0x00,0x28,0x00,0x06,0x22,0x01,
0x28,0x01,0x05,0x07,0x00,0x04,0x16,0x1d,0x2a,0x00,0x03,0x93,0x01,0x00,0x00,0x25,
0x60,0x05,0x02,0xe5,0x00,0x05,0x02,0x00,0x1c,0x78,0x00,0x04,0x03,0x2e,0x01,0x00,
0x00,0x25,0x07,0x00,0x7d,0x17,0x1d,0x4c,0x00,0x03,0x2d,0x01,0x00,0x00,0x03,0x2d,
0x01,0x00,0x00,0x25,0x2e,0x2a,0x05,0x02,0xe6,0x00,0x1c,0x78,0x00,0x03,0x2f,0x01,
0x00,0x00,0x04,0x2a,0x05,0x03,0x21,0x01,0x00,0x00,0x02,0x05,0x03,0x94,0x01,0x00,
0x00,0x25,0x07,0x00,0x02,0xe1,0x00,0x60,0x04,0x02,0xe4,0x07,0x01,0x37,0x24,0xab,
0x02,0x7e,0x00,0x20,0x02,0x2a,0x05,0x02,0x00,0x01,0x01,0x00,0x00,0x07,0x00,0x02,
0x82,0x00,0x03,0x10,0x27,0x00,0x00,0x19,0x1d,0x29,0x00,0x03,0x95,0x01,0x00,0x00,
0x25,0x60,0x05,0x07,0x00,0x02,0x7f,0x00,0x05,0x03,0x21,0x01,0x00,0x00,0x02,0x04,
0x20,0x01,0x2a,0x1c,0x2a,0x00,0x04,0x05,0x02,0x00,0x01,0x00,0x00,0x00,0x02,0xa6,
0x00,0x1d,0x23,0x00,0x02,0x00,0x02,0x18,0x00,0x05,0x03,0x2c,0x01,0x00,0x00,0x3d,
0x2a,0x05,0x03,0x21,0x01,0x00,0x00,0x02,0x09,0x02,0x00,0x20,0x02,0x2a,0x1c,0x24,
0x00,0x04,0x05,0x02,0x00,0x01,0x01,0x00,0x00,0x07,0x00,0x04,0x17,0x1d,0x12,0x00,
0x03,0x24,0x01,0x00,0x00,0x07,0x00,0x2a,0x1c,0x13,0x00,0x04,0x05,0x03,0x21,0x01,
0x00,0x00,0x02,0x0c,0x03,0x96,0x01,0x00,0x00,0x25,0x02,0xd2,0x00,0x60,0x04,0x02,
0xc8,0x24,0xaa,0x02,0x7e,0x00,0x20,0x02,0x2a,0x05,0x02,0x00,0x01,0x01,0x02,0x00,
0x02,0x01,0x28,0x01,0x04,0x07,0x01,0x02,0x04,0x18,0x1d,0x2f,0x00,0x05,0x35,0x07,
0x01,0x02,0x32,0x0b,0x0a,0x02,0xc7,0x00,0x28,0x02,0x07,0x01,0x07,0x02,0x03,0x01,
0x01,0x00,0x00,0x0b,0x4a,0x07,0x01,0x02,0x01,0x09,0x28,0x01,0x1c,0x05,0x00,0x05,
0x07,0x00,0x02,0x82,0x00,0x03,0x10,0x27,0x00,0x00,0x19,0x1d,0x53,0x00,0x03,0x97,
0x01,0x00,0x00,0x25,0x60,0x05,0x07,0x00,0x02,0x7f,0x00,0x05,0x04,0x02,0xe9,0x00,
0x1c,0x54,0x00,0x04,0x05,0x02,0x00,0x01,0x00,0x00,0x00,0x02,0x02,0x02,0xe9,0x00,
0x05,0x02,0x00,0x01,0x00,0x00,0x00,0x03,0x9b,0x01,0x00,0x00,0x25,0x04,0x17,0x01,
0x00,0x00,0x00,0x02,0x94,0x00,0x15,0x1d,0x2d,0x00,0x02,0x00,0x03,0x00,0x00,0xff,
0x00,0x4a,0x05,0x02,0x91,0x00,0x05,0x02,0x8b,0x00,0x05,0x03,0x98,0x01,0x00,0x00,
0x35,0x2a,0x05,0x03,0x21,0x01,0x00,0x00,0x02,0x0d,0x20,0x01,0x2a,0x1c,0x2e,0x00,
0x04,0x01,0x01,0x00,0x00,0x02,0x00,0x02,0x18,0x00,0x05,0x02,0x93,0x00,0x05,0x02,
0x00,0x02,0x00,0x4b,0x05,0x02,0x01,0x02,0x00,0x4b,0x05,0x02,0x40,0x02,0x90,0x00,
0x05,0x03,0x62,0x01,0x00,0x00,0x25,0x04,0x20,0x02,0x02,0x64,0x02,0x97,0x00,0x05,
0x03,0x99,0x01,0x00,0x00,0x07,0x00,0x2a,0x05,0x03,0x21,0x01,0x00,0x00,0x02,0x0f,
0x20,0x01,0x2a,0x05,0x02,0x00,0x01,0x02,0x00,0x00,0x03,0x9a,0x01,0x00,0x00,0x04,
0x2a,0x05,0x03,0x9b,0x01,0x00,0x00,0x04,0x2a,0x05,0x07,0x01,0x60,0x05,0x02,0x00,
0x02,0x18,0x00,0x05,0x03,0x9d,0x01,0x00,0x00,0x25,0x04,0x17,0x1d,0x3c,0x00,0x03,
0x9d,0x01,0x00,0x00,0x04,0x2a,0x05,0x03,0x61,0x01,0x00,0x00,0x25,0x04,0x20,0x02,
0x02,0x98,0x00,0x1c,0x3d,0x00,0x04,0x05,0x03,0x21,0x01,0x00,0x00,0x02,0x0b,0x3d,
0x03,0x27,0x01,0x00,0x00,0x25,0x09,0x20,0x02,0x2a,0x05,0x02,0x00,0x01,0x00,0x00,
0x00,0x02,0xec,0x00,0x1d,0xc7,0x00,0x03,0x9d,0x01,0x00,0x00,0x25,0x04,0x17,0x06,
0x1d,0x1e,0x00,0x05,0x03,0x9d,0x01,0x00,0x00,0x25,0x35,0x0a,0x02,0x00,0x18,0x1d,
0x38,0x00,0x03,0x9d,0x01,0x00,0x00,0x04,0x2a,0x05,0x03,0x61,0x01,0x00,0x00,0x25,
0x04,0x20,0x02,0x02,0x98,0x00,0x1c,0x39,0x00,0x04,0x05,0x03,0x9b,0x01,0x00,0x00,
0x25,0x02,0x82,0x00,0x03,0x10,0x27,0x00,0x00,0x19,0x1d,0xc3,0x00,0x03,0x9e,0x01,
0x00,0x00,0x25,0x60,0x05,0x03,0x9b,0x01,0x00,0x00,0x25,0x02,0x7f,0x00,0x05,0x03,
0x9b,0x01,0x00,0x00,0x04,0x2a,0x05,0x03,0x9c,0x01,0x00,0x00,0x25,0x02,0x00,0x19,
0x1d,0xaa,0x00,0x03,0x9c,0x01,0x00,0x00,0x03,0x9c,0x01,0x00,0x00,0x25,0x02,0x01,
0x0a,0x2a,0x05,0x03,0x9b,0x01,0x00,0x00,0x03,0x9f,0x01,0x00,0x00,0x25,0x03,0x99,
0x01,0x00,0x00,0x25,0x02,0xd3,0x00,0x60,0x03,0x9a,0x01,0x00,0x00,0x25,0x02,0xef,
0x24,0xaa,0x02,0x7e,0x00,0x2a,0x05,0x04,0x1c,0xc0,0x00,0x03,0x9a,0x01,0x00,0x00,
0x04,0x2a,0x05,0x03,0x21,0x01,0x00,0x00,0x02,0x0b,0x3d,0x02,0x01,0x09,0x20,0x02,
0x2a,0x1c,0xc4,0x00,0x04,0x1c,0xc8,0x00,0x04,0x01,0x00,0x01,0x00,0x4d,0x15,0x06,
0x15,0x1d,0x16,0x00,0x05,0x35,0x03,0x98,0x01,0x00,0x00,0x25,0x0a,0x03,0x40,0x1f,
0x00,0x00,0x19,0x1d,0x82,0x00,0x02,0x8c,0x00,0x05,0x02,0x00,0x02,0x18,0x00,0x05,
0x02,0x8d,0x00,0x28,0x00,0x03,0x9a,0x01,0x00,0x00,0x07,0x00,0x49,0x2a,0x05,0x03,
0x9c,0x01,0x00,0x00,0x02,0x03,0x2a,0x05,0x03,0x9d,0x01,0x00,0x00,0x35,0x03,0x90,
0x01,0x00,0x00,0x09,0x2a,0x05,0x03,0x9b,0x01,0x00,0x00,0x03,0xa0,0x01,0x00,0x00,
0x25,0x03,0x99,0x01,0x00,0x00,0x25,0x02,0xd3,0x00,0x60,0x03,0x9a,0x01,0x00,0x00,
0x25,0x02,0xef,0x24,0xaa,0x02,0x7e,0x00,0x2a,0x05,0x03,0x21,0x01,0x00,0x00,0x02,
0x0b,0x3d,0x03,0x27,0x01,0x00,0x00,0x25,0x09,0x20,0x02,0x2a,0x1c,0x83,0x00,0x04,
0x01,0x02,0x00,0x00,0x03,0xa1,0x01,0x00,0x00,0x07,0x00,0x49,0x2a,0x05,0x03,0xa2,
0x01,0x00,0x00,0x02,0x04,0x02,0x01,0x09,0x2a,0x05,0x03,0xa3,0x01,0x00,0x00,0x02,
0x00,0x2a,0x05,0x03,0xa4,0x01,0x00,0x00,0x35,0x2a,0x05,0x03,0x21,0x01,0x00,0x00,
0x02,0x07,0x07,0x01,0x20,0x02,0x2a,0x05,0x02,0x00,0x01,0x00,0x00,0x00,0x03,0xa7,
0x01,0x00,0x00,0x25,0x26,0x05,0x03,0xa5,0x01,0x00,0x00,0x3b,0x02,0xff,0x0e,0x5f,
0x02,0x06,0x0b,0x02,0x08,0x12,0x2a,0x05,0x03,0xa6,0x01,0x00,0x00,0x3b,0x02,0x01,
0x0e,0x3b,0x02,0x01,0x0e,0x20,0x02,0x2a,0x05,0x02,0xaa,0x00,0x05,0x03,0x46,0x01,
0x00,0x00,0x25,0x04,0x20,0x02,0x04,0x02,0xf2,0x00,0x05,0x02,0x00,0x01,0x01,0x00,
0x00,0x03,0xa4,0x01,0x00,0x00,0x04,0x2a,0x05,0x07,0x00,0x04,0x16,0x1d,0x28,0x00,
0x02,0xa9,0x00,0x05,0x03,0x21,0x01,0x00,0x00,0x02,0x0b,0x3d,0x03,0x26,0x01,0x00,
0x00,0x25,0x09,0x20,0x02,0x2a,0x1c,0x37,0x00,0x03,0x21,0x01,0x00,0x00,0x02,0x09,
0x07,0x00,0x02,0x01,0x09,0x20,0x02,0x2a,0x05,0x02,0x00,0x01,0x01,0x03,0x00,0x03,
0xa8,0x01,0x00,0x00,0x25,0x26,0x05,0x07,0x00,0x02,0x07,0x0e,0x5f,0x05,0x03,0x40,
0x01,0x00,0x00,0x25,0x07,0x00,0x02,0x07,0x0e,0x23,0x28,0x01,0x02,0x00,0x28,0x02,
0x04,0x07,0x02,0x02,0x08,0x18,0x1d,0x62,0x00,0x05,0x07,0x02,0x02,0x03,0x0b,0x28,
0x03,0x03,0x3f,0x01,0x00,0x00,0x25,0x07,0x02,0x07,0x01,0x07,0x03,0x23,0x02,0x10,
0x11,0x07,0x01,0x07,0x03,0x02,0x01,0x09,0x23,0x02,0x08,0x11,0x09,0x07,0x01,0x07,
0x03,0x02,0x02,0x09,0x23,0x09,0x30,0x07,0x02,0x02,0x01,0x09,0x28,0x02,0x1c,0x22,
0x00,0x01,0x02,0x00,0x00,0x03,0xa9,0x01,0x00,0x00,0x25,0x26,0x05,0x07,0x00,0x27,
0x05,0x03,0xaa,0x01,0x00,0x00,0x25,0x26,0x05,0x07,0x01,0x79,0x60,0x05,0x03,0x3f,
0x01,0x00,0x00,0x25,0x07,0x00,0x07,0x01,0x30,0x01,0x01,0x04,0x00,0x03,0xa4,0x01,
0x00,0x00,0x25,0x35,0x0a,0x02,0x00,0x1a,0x1d,0xdf,0x02,0x03,0xa2,0x01,0x00,0x00,
0x25,0x03,0xa1,0x01,0x00,0x00,0x25,0x44,0x1b,0x1d,0x27,0x00,0x07,0x00,0x02,0xf4,
0x00,0x1c,0xa2,0x02,0x03,0xa1,0x01,0x00,0x00,0x25,0x03,0xa2,0x01,0x00,0x00,0x25,
0x45,0x28,0x01,0x03,0xa2,0x01,0x00,0x00,0x03,0xa2,0x01,0x00,0x00,0x25,0x02,0x02,
0x09,0x07,0x01,0x03,0x37,0x01,0x00,0x00,0x25,0x16,0x1d,0x6f,0x00,0x03,0xa3,0x01,
0x00,0x00,0x02,0x0a,0x03,0xa1,0x01,0x00,0x00,0x25,0x03,0xa2,0x01,0x00,0x00,0x25,
0x02,0x01,0x09,0x45,0x0b,0x2a,0x05,0x02,0x01,0x1c,0xa0,0x02,0x07,0x01,0x03,0x39,
0x01,0x00,0x00,0x25,0x16,0x1d,0xb4,0x00,0x03,0xa1,0x01,0x00,0x00,0x25,0x03,0xa2,
0x01,0x00,0x00,0x25,0x02,0x01,0x09,0x45,0x03,0xa1,0x01,0x00,0x00,0x25,0x03,0xa2,
0x01,0x00,0x00,0x25,0x02,0x02,0x09,0x45,0x03,0xa1,0x01,0x00,0x00,0x25,0x03,0xa2,
0x01,0x00,0x00,0x25,0x02,0x03,0x09,0x45,0x02,0xad,0x00,0x05,0x02,0x03,0x1c,0xa0,
0x02,0x07,0x01,0x03,0x38,0x01,0x00,0x00,0x25,0x16,0x1d,0x12,0x01,0x02,0x04,0x03,
0xa1,0x01,0x00,0x00,0x25,0x03,0xa2,0x01,0x00,0x00,0x25,0x02,0x01,0x09,0x45,0x0a,
0x03,0xa1,0x01,0x00,0x00,0x25,0x03,0xa2,0x01,0x00,0x00,0x25,0x02,0x02,0x09,0x45,
0x02,0x10,0x11,0x03,0xa1,0x01,0x00,0x00,0x25,0x03,0xa2,0x01,0x00,0x00,0x25,0x02,
0x03,0x09,0x45,0x02,0x08,0x11,0x09,0x03,0xa1,0x01,0x00,0x00,0x25,0x03,0xa2,0x01,
0x00,0x00,0x25,0x02,0x04,0x09,0x45,0x09,0x4a,0x05,0x02,0x06,0x1c,0xa0,0x02,0x07,
0x01,0x03,0x3a,0x01,0x00,0x00,0x25,0x16,0x1d,0x52,0x01,0x02,0x04,0x03,0xa1,0x01,
0x00,0x00,0x25,0x03,0xa2,0x01,0x00,0x00,0x25,0x02,0x01,0x09,0x45,0x0a,0x03,0x3f,
0x01,0x00,0x00,0x25,0x02,0x07,0x03,0xa1,0x01,0x00,0x00,0x25,0x03,0xa2,0x01,0x00,
0x00,0x25,0x02,0x02,0x09,0x45,0x0e,0x23,0x4a,0x05,0x02,0x02,0x1c,0xa0,0x02,0x07,
0x01,0x03,0x3b,0x01,0x00,0x00,0x25,0x16,0x1d,0x9a,0x01,0x03,0xab,0x01,0x00,0x00,
0x25,0x60,0x05,0x02,0xc9,0x00,0x28,0x02,0x07,0x02,0x48,0x28,0x03,0x07,0x03,0x02,
0x00,0x19,0x1d,0x93,0x01,0x07,0x02,0x3b,0x02,0xff,0x0e,0x07,0x03,0x0b,0x02,0x08,
0x12,0x5f,0x23,0x28,0x04,0x07,0x04,0x04,0x20,0x02,0x02,0x98,0x00,0x1c,0x94,0x01,
0x04,0x05,0x02,0x00,0x1c,0xa0,0x02,0x07,0x01,0x03,0x3c,0x01,0x00,0x00,0x25,0x16,
0x1d,0x00,0x02,0x03,0xac,0x01,0x00,0x00,0x25,0x60,0x05,0x03,0xa1,0x01,0x00,0x00,
0x25,0x03,0xa2,0x01,0x00,0x00,0x25,0x02,0x01,0x09,0x45,0x28,0x02,0x03,0xa1,0x01,
0x00,0x00,0x25,0x03,0xa2,0x01,0x00,0x00,0x25,0x02,0x02,0x09,0x45,0x28,0x03,0x07,
0x02,0x07,0x02,0x02,0xac,0x00,0x03,0xa6,0x01,0x00,0x00,0x25,0x07,0x02,0x23,0x1d,
0xeb,0x01,0x07,0x03,0x13,0x1c,0xed,0x01,0x07,0x03,0x09,0x03,0xa6,0x01,0x00,0x00,
0x25,0x07,0x02,0x23,0x02,0xad,0x00,0x05,0x02,0x02,0x1c,0xa0,0x02,0x07,0x01,0x03,
0x3d,0x01,0x00,0x00,0x25,0x16,0x1d,0x66,0x02,0x03,0xad,0x01,0x00,0x00,0x25,0x26,
0x05,0x03,0xa5,0x01,0x00,0x00,0x25,0x5f,0x05,0x03,0xa5,0x01,0x00,0x00,0x25,0x03,
0xa1,0x01,0x00,0x00,0x25,0x03,0xa2,0x01,0x00,0x00,0x25,0x02,0x01,0x09,0x45,0x5f,
0x16,0x1d,0x3c,0x02,0x02,0x03,0x1c,0x63,0x02,0x02,0x03,0x03,0xa1,0x01,0x00,0x00,
0x25,0x03,0xa2,0x01,0x00,0x00,0x25,0x02,0x02,0x09,0x45,0x02,0x08,0x11,0x09,0x03,
0xa1,0x01,0x00,0x00,0x25,0x03,0xa2,0x01,0x00,0x00,0x25,0x02,0x03,0x09,0x45,0x09,
0x1c,0xa0,0x02,0x07,0x01,0x03,0x3e,0x01,0x00,0x00,0x25,0x16,0x1d,0x98,0x02,0x03,
0xae,0x01,0x00,0x00,0x25,0x60,0x05,0x02,0xa8,0x00,0x06,0x1d,0x88,0x02,0x05,0x02,
0x94,0x00,0x02,0x00,0x16,0x1d,0x90,0x02,0x02,0x00,0x1c,0x95,0x02,0x03,0xfe,0xff,
0xff,0xff,0x1c,0xa0,0x02,0x07,0x00,0x02,0xf4,0x00,0x05,0x02,0x00,0x09,0x2a,0x05,
0x03,0xa4,0x01,0x00,0x00,0x25,0x04,0x17,0x1d,0xdb,0x02,0x03,0xa4,0x01,0x00,0x00,
0x03,0xa4,0x01,0x00,0x00,0x25,0x03,0xa1,0x01,0x00,0x00,0x25,0x03,0xa2,0x01,0x00,
0x00,0x25,0x02,0x01,0x0a,0x45,0x03,0xa3,0x01,0x00,0x00,0x25,0x0b,0x09,0x2a,0x05,
0x07,0x00,0x02,0xf7,0x00,0x1c,0xdc,0x02,0x04,0x1c,0xe0,0x02,0x04,0x01,0x03,0x05,
0x00,0x03,0xaf,0x01,0x00,0x00,0x25,0x60,0x05,0x24,0xc1,0x15,0x1d,0xad,0x00,0x04,
0x28,0x03,0x07,0x01,0x02,0x84,0x00,0x02,0xdf,0x00,0x28,0x04,0x07,0x04,0x28,0x05,
0x04,0x07,0x05,0x04,0x17,0x1d,0x6e,0x00,0x1c,0x32,0x00,0x07,0x05,0x2e,0x28,0x05,
0x1c,0x20,0x00,0x05,0x07,0x05,0x2d,0x06,0x22,0x00,0x28,0x06,0x06,0x22,0x01,0x28,
0x07,0x05,0x07,0x06,0x02,0x0a,0x16,0x1d,0x67,0x00,0x07,0x07,0x02,0x01,0x04,0x02,
0x47,0x02,0x2f,0x91,0x05,0x02,0x03,0x07,0x07,0x02,0x01,0x02,0xd8,0x00,0x02,0xd9,
0x00,0x2f,0x05,0x02,0x00,0x1c,0x68,0x00,0x04,0x05,0x02,0x00,0x1c,0x2a,0x00,0x05,
0x07,0x03,0x04,0x17,0x1d,0xa9,0x00,0x07,0x03,0x03,0xb0,0x01,0x00,0x00,0x25,0x7d,
0x75,0x28,0x04,0x07,0x04,0x03,0x25,0x01,0x00,0x00,0x25,0x17,0x06,0x1d,0x99,0x00,
0x05,0x03,0x25,0x01,0x00,0x00,0x25,0x07,0x02,0x16,0x1d,0xa5,0x00,0x02,0x93,0x00,
0x05,0x02,0x00,0x1c,0xa6,0x00,0x04,0x1c,0xaa,0x00,0x04,0x1c,0xae,0x00,0x04,0x05,
0x02,0x00,0x01,0x00,0x01,0x00,0x03,0xb1,0x01,0x00,0x00,0x25,0x04,0x16,0x06,0x15,
0x1d,0x2a,0x00,0x05,0x03,0xb2,0x01,0x00,0x00,0x25,0x03,0xb1,0x01,0x00,0x00,0x25,
0x44,0x1b,0x06,0x1d,0x2a,0x00,0x05,0x03,0xb4,0x01,0x00,0x00,0x25,0x02,0x01,0x18,
0x1d,0x97,0x00,0x03,0xb6,0x01,0x00,0x00,0x25,0x26,0x05,0x03,0xb1,0x01,0x00,0x00,
0x03,0x47,0x01,0x00,0x00,0x25,0x3b,0x02,0x03,0x0e,0x5f,0x02,0x07,0x00,0x2a,0x05,
0x03,0xb2,0x01,0x00,0x00,0x02,0x01,0x2a,0x05,0x03,0xb7,0x01,0x00,0x00,0x25,0x26,
0x05,0x03,0xb3,0x01,0x00,0x00,0x02,0xa0,0x3b,0x02,0xff,0x0e,0x02,0x5a,0x0b,0x02,
0x08,0x12,0x09,0x2a,0x5f,0x05,0x03,0xb8,0x01,0x00,0x00,0x25,0x26,0x05,0x03,0xb4,
0x01,0x00,0x00,0x02,0x03,0x3b,0x02,0xff,0x0e,0x02,0x12,0x0b,0x02,0x08,0x12,0x09,
0x2a,0x5f,0x05,0x03,0xb5,0x01,0x00,0x00,0x35,0x2a,0x1c,0x98,0x00,0x04,0x05,0x04,
0x03,0xb2,0x01,0x00,0x00,0x25,0x03,0xb1,0x01,0x00,0x00,0x25,0x44,0x18,0x06,0x1d,
0xb8,0x00,0x05,0x35,0x03,0xb5,0x01,0x00,0x00,0x25,0x0a,0x02,0x00,0x19,0x1d,0x49,
0x01,0x05,0x03,0xb1,0x01,0x00,0x00,0x25,0x03,0xb2,0x01,0x00,0x00,0x25,0x45,0x03,
0xb1,0x01,0x00,0x00,0x25,0x03,0xb2,0x01,0x00,0x00,0x25,0x02,0x01,0x09,0x45,0x02,
0x10,0x11,0x03,0xb1,0x01,0x00,0x00,0x25,0x03,0xb2,0x01,0x00,0x00,0x25,0x02,0x02,
0x09,0x45,0x02,0x08,0x11,0x09,0x03,0xb1,0x01,0x00,0x00,0x25,0x03,0xb2,0x01,0x00,
0x00,0x25,0x02,0x03,0x09,0x45,0x09,0x4a,0x05,0x03,0xb2,0x01,0x00,0x00,0x03,0xb2,
0x01,0x00,0x00,0x25,0x02,0x05,0x09,0x2a,0x05,0x03,0xb1,0x01,0x00,0x00,0x25,0x03,
0xb2,0x01,0x00,0x00,0x25,0x02,0x01,0x0a,0x45,0x28,0x00,0x07,0x00,0x04,0x17,0x1d,
0x45,0x01,0x03,0xb5,0x01,0x00,0x00,0x03,0xb5,0x01,0x00,0x00,0x25,0x07,0x00,0x03,
0xb3,0x01,0x00,0x00,0x25,0x0b,0x09,0x2a,0x1c,0x46,0x01,0x04,0x1c,0x9a,0x00,0x05,
0x03,0xb2,0x01,0x00,0x00,0x25,0x03,0xb1,0x01,0x00,0x00,0x25,0x44,0x1b,0x1d,0x87,
0x01,0x03,0xb2,0x01,0x00,0x00,0x02,0x01,0x2a,0x05,0x03,0xb9,0x01,0x00,0x00,0x25,
0x26,0x05,0x03,0xb4,0x01,0x00,0x00,0x03,0xb4,0x01,0x00,0x00,0x25,0x02,0x01,0x0a,
0x2a,0x5f,0x05,0x03,0xb5,0x01,0x00,0x00,0x35,0x2a,0x1c,0x88,0x01,0x04,0x05,0x02,
0x00,0x01,0x01,0x04,0x00,0x07,0x00,0x06,0x22,0x00,0x28,0x01,0x06,0x22,0x01,0x28,
0x02,0x06,0x22,0x02,0x28,0x03,0x05,0x02,0x94,0x00,0x02,0x00,0x16,0x1d,0x3b,0x00,
0x02,0x00,0x02,0x00,0x4b,0x05,0x02,0x01,0x02,0x00,0x4b,0x05,0x03,0x21,0x01,0x00,
0x00,0x02,0x09,0x07,0x01,0x02,0x01,0x09,0x20,0x02,0x2a,0x05,0x04,0x1c,0x19,0x01,
0x24,0xd7,0x1d,0x5a,0x00,0x02,0x00,0x35,0x03,0x00,0x01,0x00,0x00,0x0e,0x1d,0x54,
0x00,0x03,0xff,0x00,0xff,0x00,0x1c,0x56,0x00,0x02,0x00,0x4a,0x1c,0x5d,0x00,0x02,
0xf9,0x00,0x05,0x3d,0x03,0x2c,0x01,0x00,0x00,0x25,0x0a,0x03,0x34,0x01,0x00,0x00,
0x25,0x19,0x1d,0x81,0x00,0x02,0x00,0x02,0x00,0x4b,0x05,0x02,0x01,0x02,0x00,0x4b,
0x05,0x02,0x00,0x1c,0xe4,0x00,0x35,0x02,0x03,0x0b,0x02,0x08,0x12,0x02,0xc7,0x00,
0x02,0x06,0x12,0x28,0x04,0x02,0x00,0x07,0x04,0x02,0x03,0x16,0x1d,0x9f,0x00,0x02,
0x01,0x1c,0xb1,0x00,0x07,0x04,0x02,0x01,0x16,0x1d,0xaf,0x00,0x03,0xff,0xff,0xff,
0xff,0x1c,0xb1,0x00,0x02,0x00,0x4b,0x05,0x35,0x02,0x05,0x0b,0x02,0x08,0x12,0x02,
0xc7,0x00,0x02,0x06,0x12,0x28,0x04,0x02,0x01,0x07,0x04,0x02,0x03,0x16,0x1d,0xd1,
0x00,0x02,0x01,0x1c,0xe3,0x00,0x07,0x04,0x02,0x01,0x16,0x1d,0xe1,0x00,0x03,0xff,
0xff,0xff,0xff,0x1c,0xe3,0x00,0x02,0x00,0x4b,0x05,0x3d,0x07,0x03,0x0a,0x03,0x35,
0x01,0x00,0x00,0x25,0x19,0x1d,0x15,0x01,0x07,0x00,0x3d,0x2b,0x02,0x05,0x03,0xba,
0x01,0x00,0x00,0x25,0x02,0xd2,0x00,0x60,0x04,0x02,0xf8,0x03,0x25,0x01,0x00,0x00,
0x25,0x37,0x24,0xaa,0x02,0x7e,0x00,0x1c,0x16,0x01,0x04,0x05,0x02,0x00,0x01,0x01,
0x03,0x00,0x03,0x2b,0x01,0x00,0x00,0x25,0x07,0x00,0x02,0x07,0x00,0x06,0x22,0x00,
0x28,0x01,0x06,0x22,0x01,0x28,0x02,0x05,0x07,0x01,0x60,0x04,0x16,0x1d,0x27,0x00,
0x02,0xeb,0x00,0x05,0x02,0x00,0x1c,0x74,0x01,0x07,0x01,0x03,0xbb,0x01,0x00,0x00,
0x25,0x89,0x15,0x06,0x15,0x1d,0x41,0x00,0x05,0x07,0x01,0x03,0xbc,0x01,0x00,0x00,
0x25,0x89,0x15,0x1d,0x8d,0x00,0x03,0xbd,0x01,0x00,0x00,0x25,0x60,0x05,0x03,0x2e,
0x01,0x00,0x00,0x25,0x07,0x02,0x60,0x7d,0x28,0x03,0x07,0x03,0x04,0x16,0x1d,0x69,
0x00,0x03,0xbe,0x01,0x00,0x00,0x25,0x60,0x1c,0x6a,0x00,0x04,0x05,0x03,0x2e,0x01,
0x00,0x00,0x25,0x07,0x02,0x7d,0x02,0x98,0x00,0x05,0x03,0x21,0x01,0x00,0x00,0x02,
0x09,0x07,0x00,0x02,0x01,0x09,0x20,0x02,0x2a,0x05,0x02,0x00,0x1c,0x74,0x01,0x07,
0x01,0x03,0xbf,0x01,0x00,0x00,0x25,0x89,0x15,0x1d,0xcd,0x00,0x03,0xc0,0x01,0x00,
0x00,0x25,0x60,0x05,0x03,0xb1,0x01,0x00,0x00,0x04,0x2a,0x05,0x07,0x02,0x02,0xe1,
0x00,0x28,0x03,0x07,0x03,0x02,0x9a,0x00,0x05,0x03,0x21,0x01,0x00,0x00,0x02,0x08,
0x07,0x00,0x3d,0x3d,0x20,0x03,0x20,0x02,0x2a,0x05,0x02,0x00,0x1c,0x74,0x01,0x07,
0x01,0x03,0xc1,0x01,0x00,0x00,0x25,0x89,0x15,0x1d,0xfc,0x00,0x02,0x94,0x00,0x02,
0x00,0x16,0x1d,0xf5,0x00,0x03,0x21,0x01,0x00,0x00,0x02,0x09,0x07,0x00,0x02,0x01,
0x09,0x20,0x02,0x2a,0x1c,0xf6,0x00,0x04,0x05,0x02,0x00,0x1c,0x74,0x01,0x07,0x01,
0x03,0xc2,0x01,0x00,0x00,0x25,0x89,0x15,0x1d,0x1d,0x01,0x03,0x2e,0x01,0x00,0x00,
0x25,0x07,0x02,0x7d,0x07,0x00,0x02,0xf2,0x00,0x05,0x02,0x00,0x1c,0x74,0x01,0x07,
0x01,0x03,0xc3,0x01,0x00,0x00,0x25,0x89,0x15,0x1d,0x33,0x01,0x07,0x02,0x75,0x02,
0xf5,0x00,0x1c,0x34,0x01,0x04,0x05,0x07,0x01,0x03,0xc4,0x01,0x00,0x00,0x25,0x89,
0x15,0x1d,0x5a,0x01,0x07,0x02,0x75,0x28,0x03,0x07,0x03,0x02,0x18,0x12,0x07,0x03,
0x03,0xff,0xff,0xff,0x00,0x0e,0x02,0xf6,0x00,0x1c,0x5b,0x01,0x04,0x05,0x03,0x21,
0x01,0x00,0x00,0x02,0x09,0x07,0x00,0x02,0x01,0x09,0x20,0x02,0x2a,0x05,0x07,0x00,
0x02,0x01,0x09,0x02,0xfb,0x00,0x01,0x00,0x00,0x00,0x02,0xa6,0x00,0x1d,0x38,0x00,
0x02,0x00,0x02,0x18,0x00,0x05,0x02,0x00,0x02,0x08,0x02,0x00,0x02,0xad,0x00,0x05,
0x02,0x01,0x02,0x08,0x02,0x00,0x02,0xad,0x00,0x05,0x03,0x21,0x01,0x00,0x00,0x02,
0x0b,0x3d,0x03,0x26,0x01,0x00,0x00,0x25,0x09,0x20,0x02,0x2a,0x05,0x02,0x00,0x1c,
0x39,0x00,0x04,0x01,0x00,0x02,0x00,0x03,0xc6,0x01,0x00,0x00,0x25,0x26,0x05,0x03,
0x1e,0x01,0x00,0x00,0x25,0x02,0xb6,0x00,0x5f,0x28,0x00,0x07,0x00,0x1d,0x6b,0x00,
0x03,0xc5,0x01,0x00,0x00,0x25,0x04,0x17,0x1d,0x32,0x00,0x3d,0x03,0xc5,0x01,0x00,
0x00,0x25,0x0a,0x02,0x00,0x19,0x1c,0x34,0x00,0x02,0x00,0x28,0x01,0x07,0x01,0x06,
0x15,0x1d,0x46,0x00,0x05,0x03,0xc5,0x01,0x00,0x00,0x25,0x04,0x16,0x1d,0x64,0x00,
0x03,0xc5,0x01,0x00,0x00,0x3d,0x07,0x00,0x02,0x3c,0x0b,0x3b,0x02,0x7f,0x0e,0x02,
0x40,0x09,0x0b,0x02,0x07,0x12,0x09,0x2a,0x1c,0x65,0x00,0x04,0x05,0x07,0x01,0x1c,
0x75,0x00,0x03,0xc5,0x01,0x00,0x00,0x04,0x2a,0x05,0x02,0x00,0x01,0x00,0x00,0x00,
0x69,0x03,0x0c,0x01,0x00,0x00,0x25,0x16,0x1d,0x2a,0x00,0x03,0x21,0x01,0x00,0x00,
0x02,0x03,0x03,0xc9,0x01,0x00,0x00,0x25,0x02,0xd2,0x00,0x60,0x04,0x02,0xc8,0x24,
0xaa,0x02,0x7e,0x00,0x20,0x02,0x2a,0x1c,0x2b,0x00,0x04,0x05,0x02,0x00,0x01,0x01,
0x00,0x00,0x07,0x00,0x02,0x82,0x00,0x03,0x10,0x27,0x00,0x00,0x19,0x1d,0x31,0x00,
0x03,0xca,0x01,0x00,0x00,0x25,0x60,0x05,0x07,0x00,0x02,0x7f,0x00,0x05,0x03,0x21,
0x01,0x00,0x00,0x02,0x0b,0x3d,0x03,0x26,0x01,0x00,0x00,0x25,0x09,0x20,0x02,0x2a,
0x1c,0x32,0x00,0x04,0x05,0x02,0x00,0x01,0x01,0x00,0x00,0x07,0x00,0x3d,0x0a,0x02,
0x00,0x18,0x1d,0x17,0x00,0x03,0x21,0x01,0x00,0x00,0x02,0x02,0x20,0x01,0x2a,0x1c,
0x18,0x00,0x04,0x05,0x02,0x00,0x01,0x00,0x00,0x00,0x02,0xa6,0x00,0x1d,0x41,0x00,
0x02,0xa9,0x00,0x05,0x02,0x00,0x02,0x18,0x00,0x05,0x02,0x00,0x03,0x29,0x01,0x00,
0x00,0x25,0x02,0x00,0x02,0xad,0x00,0x05,0x02,0x01,0x03,0x2a,0x01,0x00,0x00,0x25,
0x02,0x00,0x02,0xad,0x00,0x05,0x03,0x21,0x01,0x00,0x00,0x02,0x0b,0x3d,0x03,0x26,
0x01,0x00,0x00,0x25,0x09,0x20,0x02,0x2a,0x1c,0x42,0x00,0x04,0x05,0x02,0x00,0x01,
0x00,0x03,0x00,0x02,0xa7,0x00,0x15,0x1d,0x5a,0x00,0x3d,0x24,0xb0,0x0a,0x03,0x36,
0x01,0x00,0x00,0x25,0x19,0x28,0x00,0x02,0xec,0x00,0x03,0x21,0x01,0x00,0x00,0x25,
0x34,0x02,0x05,0x16,0x1d,0x2c,0x00,0x22,0x01,0x05,0x02,0x02,0x1c,0x2f,0x00,0x05,
0x02,0x00,0x0f,0x28,0x01,0x35,0x02,0x04,0x07,0x01,0x0a,0x12,0x02,0xc7,0x00,0x28,
0x02,0x02,0x04,0x07,0x00,0x15,0x1d,0x51,0x00,0x07,0x02,0x03,0x01,0x00,0x01,0x00,
0x0b,0x1c,0x56,0x00,0x03,0xff,0x00,0xff,0x00,0x4a,0x1c,0x5b,0x00,0x04,0x05,0x02,
0x00,0x01,0x02,0x00,0x00,0x07,0x01,0x60,0x05,0x02,0x00,0x01,0x01,0x02,0x00,0x07,
0x00,0x28,0x01,0x04,0x07,0x01,0x04,0x17,0x1d,0x26,0x00,0x1c,0x17,0x00,0x07,0x01,
0x2e,0x28,0x01,0x1c,0x05,0x00,0x05,0x07,0x01,0x2d,0x28,0x02,0x07,0x02,0x02,0xcf,
0x00,0x60,0x1c,0x0f,0x00,0x05,0x07,0x00,0x01,0x00,0x01,0x00,0x65,0x28,0x00,0x07,
0x00,0x03,0xcb,0x01,0x00,0x00,0x25,0x89,0x1d,0x46,0x00,0x03,0xcb,0x01,0x00,0x00,
0x07,0x00,0x2a,0x05,0x07,0x00,0x04,0x17,0x1d,0x42,0x00,0x03,0x63,0x01,0x00,0x00,
0x25,0x02,0xca,0x00,0x05,0x03,0xcc,0x01,0x00,0x00,0x25,0x07,0x00,0x02,0xd4,0x00,
0x04,0x03,0x03,0x01,0x00,0x00,0x24,0xaa,0x02,0x7e,0x00,0x1c,0x43,0x00,0x04,0x1c,
0x47,0x00,0x04,0x05,0x02,0x00,0x01,0x00,0x01,0x00,0x02,0xcc,0x00,0x28,0x00,0x07,
0x00,0x04,0x17,0x1d,0x70,0x00,0x03,0xcd,0x01,0x00,0x00,0x25,0x60,0x05,0x02,0x93,
0x00,0x05,0x02,0xab,0x00,0x05,0x07,0x00,0x03,0x69,0x01,0x00,0x00,0x25,0x16,0x1d,
0x3a,0x00,0x03,0x42,0x01,0x00,0x00,0x25,0x02,0xca,0x00,0x05,0x02,0x05,0x02,0xe9,
0x00,0x1c,0x6d,0x00,0x07,0x00,0x03,0x6a,0x01,0x00,0x00,0x25,0x16,0x1d,0x58,0x00,
0x03,0x45,0x01,0x00,0x00,0x25,0x02,0xca,0x00,0x05,0x02,0x01,0x02,0xe9,0x00,0x1c,
0x6d,0x00,0x07,0x00,0x03,0x6b,0x01,0x00,0x00,0x25,0x16,0x1d,0x6c,0x00,0x02,0x05,
0x02,0xe9,0x00,0x1c,0x6d,0x00,0x04,0x1c,0x71,0x00,0x04,0x01,0x00,0x02,0x00,0x02,
0xcc,0x00,0x28,0x00,0x07,0x00,0x04,0x16,0x1d,0x12,0x00,0x02,0x9c,0x00,0x1c,0x14,
0x00,0x07,0x00,0x28,0x01,0x07,0x01,0x04,0x17,0x1d,0xa8,0x00,0x03,0xce,0x01,0x00,
0x00,0x25,0x60,0x05,0x02,0x93,0x00,0x05,0x02,0xab,0x00,0x05,0x07,0x01,0x03,0x69,
0x01,0x00,0x00,0x25,0x16,0x1d,0x41,0x00,0x02,0x03,0x02,0xe9,0x00,0x1c,0xa5,0x00,
0x07,0x01,0x03,0x6a,0x01,0x00,0x00,0x25,0x16,0x1d,0x5f,0x00,0x03,0x45,0x01,0x00,
0x00,0x25,0x02,0xca,0x00,0x05,0x02,0x01,0x02,0xe9,0x00,0x1c,0xa5,0x00,0x07,0x01,
0x03,0x6b,0x01,0x00,0x00,0x25,0x16,0x1d,0x73,0x00,0x02,0x00,0x02,0xee,0x00,0x1c,
0xa5,0x00,0x07,0x01,0x03,0x6c,0x01,0x00,0x00,0x25,0x16,0x1d,0x87,0x00,0x02,0x01,
0x02,0xee,0x00,0x1c,0xa5,0x00,0x07,0x01,0x03,0x00,0x80,0x00,0x00,0x0e,0x1d,0xa4,
0x00,0x03,0x41,0x01,0x00,0x00,0x25,0x02,0xca,0x00,0x05,0x07,0x01,0x02,0xe9,0x00,
0x1c,0xa5,0x00,0x04,0x1c,0xa9,0x00,0x04,0x05,0x03,0x05,0x01,0x00,0x00,0x00,0x01,
0x08,0x01,0x00,0x00,0x00,0x00,0x54,0x00,0x00,0x00,0x71,0x00,0x00,0x00,0x7f,0x00,
0x00,0x00,0x94,0x00,0x00,0x00,0xad,0x00,0x00,0x00,0xd8,0x00,0x00,0x00,0xf3,0x00,
0x00,0x00,0x1a,0x01,0x00,0x00,0x59,0x01,0x00,0x00,0x61,0x01,0x00,0x00,0x8c,0x01,
0x00,0x00,0x01,0x02,0x00,0x00,0x3e,0x02,0x00,0x00,0x5b,0x02,0x00,0x00,0x86,0x02,
0x00,0x00,0xd9,0x02,0x00,0x00,0xf8,0x02,0x00,0x00,0x32,0x03,0x00,0x00,0x4f,0x03,
0x00,0x00,0xa4,0x03,0x00,0x00,0xbb,0x03,0x00,0x00,0xed,0x03,0x00,0x00,0x2d,0x04,
0x00,0x00,0x39,0x04,0x00,0x00,0x5a,0x04,0x00,0x00,0x94,0x04,0x00,0x00,0xce,0x04,
0x00,0x00,0x07,0x05,0x00,0x00,0x2a,0x05,0x00,0x00,0xd9,0x05,0x00,0x00,0x69,0x06,
0x00,0x00,0x82,0x06,0x00,0x00,0x9e,0x06,0x00,0x00,0xa9,0x06,0x00,0x00,0xb4,0x06,
0x00,0x00,0xdc,0x06,0x00,0x00,0xeb,0x06,0x00,0x00,0xfa,0x06,0x00,0x00,0x1f,0x07,
0x00,0x00,0x31,0x07,0x00,0x00,0x3c,0x07,0x00,0x00,0x4a,0x07,0x00,0x00,0x55,0x07,
0x00,0x00,0x63,0x07,0x00,0x00,0x6e,0x07,0x00,0x00,0x7c,0x07,0x00,0x00,0x87,0x07,
0x00,0x00,0x92,0x07,0x00,0x00,0x9d,0x07,0x00,0x00,0xa8,0x07,0x00,0x00,0xb3,0x07,
0x00,0x00,0xbe,0x07,0x00,0x00,0xc9,0x07,0x00,0x00,0xd7,0x07,0x00,0x00,0xe2,0x07,
0x00,0x00,0xf0,0x07,0x00,0x00,0x0e,0x08,0x00,0x00,0x2d,0x08,0x00,0x00,0x46,0x08,
0x00,0x00,0x88,0x08,0x00,0x00,0xf2,0x08,0x00,0x00,0x65,0x09,0x00,0x00,0x99,0x09,
0x00,0x00,0xb3,0x09,0x00,0x00,0xfd,0x09,0x00,0x00,0x42,0x0a,0x00,0x00,0x50,0x0a,
0x00,0x00,0x60,0x0a,0x00,0x00,0xfb,0x0a,0x00,0x00,0x16,0x0b,0x00,0x00,0x48,0x0b,
0x00,0x00,0x80,0x0b,0x00,0x00,0x96,0x0b,0x00,0x00,0xa4,0x0b,0x00,0x00,0xac,0x0b,
0x00,0x00,0xe2,0x0b,0x00,0x00,0xc4,0x0c,0x00,0x00,0xe7,0x0c,0x00,0x00,0x05,0x0d,
0x00,0x00,0x17,0x0d,0x00,0x00,0x29,0x0d,0x00,0x00,0x6b,0x0d,0x00,0x00,0x85,0x0d,
0x00,0x00,0x98,0x0d,0x00,0x00,0xae,0x0d,0x00,0x00,0x2f,0x0e,0x00,0x00,0x50,0x0e,
0x00,0x00,0xd2,0x0e,0x00,0x00,0xf5,0x0e,0x00,0x00,0x05,0x12,0x00,0x00,0x68,0x12,
0x00,0x00,0x99,0x12,0x00,0x00,0xa4,0x12,0x00,0x00,0xaf,0x12,0x00,0x00,0x28,0x13,
0x00,0x00,0x33,0x13,0x00,0x00,0xfb,0x13,0x00,0x00,0x9f,0x14,0x00,0x00,0xda,0x15,
0x00,0x00,0x02,0x16,0x00,0x00,0x16,0x17,0x00,0x00,0xc7,0x17,0x00,0x00,0xec,0x17,
0x00,0x00,0xfa,0x17,0x00,0x00,0x5d,0x18,0x00,0x00,0x73,0x18,0x00,0x00,0x81,0x18,
0x00,0x00,0x96,0x18,0x00,0x00,0xb8,0x18,0x00,0x00,0xe9,0x18,0x00,0x00,0x66,0x19,
0x00,0x00,0xa6,0x19,0x00,0x00,0xdf,0x19,0x00,0x00,0xf9,0x19,0x00,0x00,0x67,0x1a,
0x00,0x00,0x72,0x1a,0x00,0x00,0xcc,0x1a,0x00,0x00,0xfd,0x1a,0x00,0x00,0x4b,0x1b,
0x00,0x00,0x63,0x1b,0x00,0x00,0x56,0x1c,0x00,0x00,0xc4,0x1c,0x00,0x00,0x09,0x1d,
0x00,0x00,0xa4,0x1d,0x00,0x00,0xd9,0x1d,0x00,0x00,0x2b,0x1e,0x00,0x00,0x0e,0x1f,
0x00,0x00,0x19,0x1f,0x00,0x00,0x26,0x1f,0x00,0x00,0x2e,0x1f,0x00,0x00,0x38,0x1f,
0x00,0x00,0x5e,0x1f,0x00,0x00,0x84,0x1f,0x00,0x00,0xbf,0x1f,0x00,0x00,0xcf,0x1f,
0x00,0x00,0x1c,0x20,0x00,0x00,0x50,0x20,0x00,0x00,0x6d,0x20,0x00,0x00,0xb6,0x20,
0x00,0x00,0xd5,0x20,0x00,0x00,0xe0,0x20,0x00,0x00,0xf6,0x20,0x00,0x00,0x0c,0x21,
0x00,0x00,0x50,0x21,0x00,0x00,0x68,0x21,0x00,0x00,0x79,0x21,0x00,0x00,0xb7,0x21,
0x00,0x00,0xe8,0x21,0x00,0x00,0x34,0x22,0x00,0x00,0xfa,0x22,0x00,0x00,0x12,0x23,
0x00,0x00,0x42,0x23,0x00,0x00,0x4d,0x23,0x00,0x00,0xfc,0x23,0x00,0x00,0x39,0x24,
0x00,0x00,0x84,0x24,0x00,0x00,0x93,0x24,0x00,0x00,0xbf,0x24,0x00,0x00,0xd2,0x24,
0x00,0x00,0x2c,0x25,0x00,0x00,0x5f,0x25,0x00,0x00,0x81,0x25,0x00,0x00,0x2a,0x27,
0x00,0x00,0x7e,0x28,0x00,0x00,0x37,0x29,0x00,0x00,0x5d,0x29,0x00,0x00,0x66,0x29,
0x00,0x00,0x6f,0x29,0x00,0x00,0x90,0x29,0x00,0x00,0xa5,0x29,0x00,0x00,0xba,0x29,
0x00,0x00,0xf3,0x29,0x00,0x00,0xfe,0x29,0x00,0x00,0x95,0x2a,0x00,0x00,0x6c,0x2f,
0x00,0x00,0x75,0x2f,0x00,0x00,0xa1,0x2f,0x00,0x00,0x20,0x30,0x00,0x00,0x52,0x30,
0x00,0x00,0xd4,0x31,0x00,0x00,0x02,0x32,0x00,0x00,0x34,0x32,0x00,0x00,0x3f,0x32,
0x00,0x00,0xab,0x32,0x00,0x00,0xbe,0x32,0x00,0x00,0xe8,0x32,0x00,0x00,0x62,0x33,
0x00,0x00,0x7c,0x33,0x00,0x00,0xd0,0x33,0x00,0x00,0xe9,0x33,0x00,0x00,0x8f,0x34,
0x00,0x00,0xaa,0x34,0x00,0x00,0xd0,0x34,0x00,0x00,0x31,0x35,0x00,0x00,0x5f,0x35,
0x00,0x00,0xc7,0x35,0x00,0x00,0x17,0x38,0x00,0x00,0x2d,0x38,0x00,0x00,0x43,0x38,
0x00,0x00,0xac,0x38,0x00,0x00,0x62,0x3a,0x00,0x00,0x14,0x3b,0x00,0x00,0x23,0x3b,
0x00,0x00,0x3a,0x3c,0x00,0x00,0x50,0x3c,0x00,0x00,0x12,0x3f,0x00,0x00,0x35,0x3f,
0x00,0x00,0x41,0x3f,0x00,0x00,0x67,0x3f,0x00,0x00,0x98,0x3f,0x00,0x00,0xf2,0x3f,
0x00,0x00,0x35,0x40,0x00,0x00,0x7a,0x40,0x00,0x00,0x88,0x40,0x00,0x00,0xbc,0x40,
0x00,0x00,0x0b,0x41,0x00,0x00,0x29,0x41,0x00,0x00,0x70,0x41,0x00,0x00,0xd2,0x41,
0x00,0x00,0x0f,0x42,0x00,0x00,0x40,0x42,0x00,0x00,0x61,0x42,0x00,0x00,0xd3,0x42,
0x00,0x00,0xee,0x42,0x00,0x00,0x23,0x43,0x00,0x00,0x51,0x43,0x00,0x00,0xc7,0x43,
0x00,0x00,0xa2,0x44,0x00,0x00,0x42,0x45,0x00,0x00,0x81,0x45,0x00,0x00,0xfd,0x45,
0x00,0x00,0x2e,0x46,0x00,0x00,0x59,0x46,0x00,0x00,0x90,0x46,0x00,0x00,0xeb,0x46,
0x00,0x00,0xf7,0x46,0x00,0x00,0x03,0x47,0x00,0x00,0x35,0x47,0x00,0x00,0x7a,0x47,
0x00,0x00,0xd1,0x47,0x00,0x00,0x9d,0x48,0x00,0x00,0x24,0x49,0x00,0x00,0x5e,0x49,
0x00,0x00,0xa1,0x49,0x00,0x00,0xdf,0x49,0x00,0x00,0x45,0x4a,0x00,0x00,0x6d,0x4a,
0x00,0x00,0x51,0x4d,0x00,0x00,0x06,0x4e,0x00,0x00,0x95,0x4f,0x00,0x00,0xb2,0x50,
0x00,0x00,0x2a,0x52,0x00,0x00,0x67,0x52,0x00,0x00,0xe0,0x52,0x00,0x00,0x12,0x53,
0x00,0x00,0x4b,0x53,0x00,0x00,0x6a,0x53,0x00,0x00,0xb3,0x53,0x00,0x00,0x15,0x54,
0x00,0x00,0x1f,0x54,0x00,0x00,0x4c,0x54,0x00,0x00,0x9a,0x54,0x00,0x00,0x0f,0x55,
0x00,0x00
};
